<svg xmlns="http://www.w3.org/2000/svg" viewBox="0 0 2118.9 1208.4"><g id="Livello_2" data-name="Livello 2"><g id="Livello_1-2" data-name="Livello 1"><g id="bck"><path d="M1072.2,407.9c-2.9-11.9-.1-9.4-5.2-24-7.7-22.1-29.6-40.8-52.2-48.1-39.8-12.9-84.7-7.6-120.1,31,21.7-8.5,41.3-1.1,59.2,11.5,9.3-7.3,18.5-14.7,28-21.5-4.5,10.4-9.2,20.6-14,30.8,8.1,6.5,17.5,8.5,27.1,10.5,10.6-9.7,21.7-18.5,32.9-26.9-6.9,9.7-13.6,19.4-20.2,29.3C1028.5,406,1050.2,410.3,1072.2,407.9Z" style="fill:#e9f2d4"/><g style="opacity:0.2"><path d="M1072.2,407.9c-2.9-11.9-.1-9.4-5.2-24-7.7-22.1-29.6-40.8-52.2-48.1-39.8-12.9-84.7-7.6-120.1,31,21.7-8.5,41.3-1.1,59.2,11.5,9.3-7.3,18.5-14.7,28-21.5-4.5,10.4-9.2,20.6-14,30.8,8.1,6.5,17.5,8.5,27.1,10.5,10.6-9.7,21.7-18.5,32.9-26.9-6.9,9.7-13.6,19.4-20.2,29.3C1028.5,406,1050.2,410.3,1072.2,407.9Z" style="fill:#e9f2d4"/></g><path d="M1065.3,408.6s3.2-17.9,29.7-34.6c41.7-26.2,83.3-17.8,102.5-7.6s44,33.5,50.8,58.9c0,0-19-15.8-50.1-14,0,0-12.2-22.5-30.7-35.5,0,0,13.7,26.5,15,36.6a57.2,57.2,0,0,1-40.3,3.1s-6.2-30.6-22.6-38.8c0,0,12.2,15.3,11.1,38.7C1130.7,415.4,1097.4,417.1,1065.3,408.6Z" style="fill:#e9f2d4"/><path d="M1065.3,408.6s3.2-17.9,29.7-34.6c41.7-26.2,83.3-17.8,102.5-7.6s44,33.5,50.8,58.9c0,0-19-15.8-50.1-14,0,0-12.2-22.5-30.7-35.5,0,0,13.7,26.5,15,36.6a57.2,57.2,0,0,1-40.3,3.1s-6.2-30.6-22.6-38.8c0,0,12.2,15.3,11.1,38.7C1130.7,415.4,1097.4,417.1,1065.3,408.6Z" style="fill:#e9f2d4;opacity:0.2"/><path d="M1065.3,408.6s37.2-9,73,18.7c46.9,36.2,62.7,85.7,61.9,121.5,0,0-12.7-35.5-49.8-42.5l-7.1-39.2L1133,500.5c-7.7-1.9-16.4-8.6-25.8-18.6l-3.2-48.8-7.2,37.4S1070.7,444.1,1065.3,408.6Z" style="fill:#e9f2d4"/><path d="M1065.3,408.6s37.2-9,73,18.7c46.9,36.2,62.7,85.7,61.9,121.5,0,0-12.7-35.5-49.8-42.5l-7.1-39.2L1133,500.5c-7.7-1.9-16.4-8.6-25.8-18.6l-3.2-48.8-7.2,37.4S1070.7,444.1,1065.3,408.6Z" style="fill:#e9f2d4;opacity:0.1"/><path d="M1065.3,408.6s-7.4-9-29.4-8.2c-37.4,1.4-80,36.8-95.6,58.4s-33.7,58.8-34.9,86.5a136.6,136.6,0,0,1,43.3-44.9s6.6-28.4,21-52c0,0-7.3,33-6.4,43.1,0,0,18.1-2.5,37.6-22.9,0,0-.5-32,13-50,0,0-8.1,21.8-2.5,42.6C1011.4,461.2,1037.6,436.9,1065.3,408.6Z" style="fill:#e9f2d4"/><path d="M1065.3,408.6s-7.4-9-29.4-8.2c-37.4,1.4-80,36.8-95.6,58.4s-33.7,58.8-34.9,86.5a136.6,136.6,0,0,1,43.3-44.9s6.6-28.4,21-52c0,0-7.3,33-6.4,43.1,0,0,18.1-2.5,37.6-22.9,0,0-.5-32,13-50,0,0-8.1,21.8-2.5,42.6C1011.4,461.2,1037.6,436.9,1065.3,408.6Z" style="fill:#e9f2d4;opacity:0.1"/><path d="M1028.9,625.7s-1.9-26.8,5.9-51.2c2.2-6.7,4.8-13.7,7.6-20.9-10.8-25.2-6-42.8-6-42.8.3,11.8,7.1,24.4,12,28.2,7.6-14.6,11.7-31.2,16.1-45.4-10.5-15.3-10.9-28.9-10.9-28.9,2.9,7.4,10.2,14.4,14.9,17.1,6.8-31.3,3.5-61.7-3.2-73.2,0,0-15.3,4.5-38,58.2C1003.9,522.3,1004.3,588.8,1028.9,625.7Z" style="fill:#e9f2d4"/><path d="M1119,1127.1l-46.9-7.3c17.6-74.8,19-160.9,24.4-251,11.1-185.4-1.6-336-39.3-430.3l26.8-1.4c9.5,15.4,23.2,14.9,45,134.7,13.5,74.6,23.5,241.7-2.1,436.6C1121.7,1048,1126.6,1090.9,1119,1127.1Z" style="fill:#e9f2d4"/><path d="M1016.4,674.1c-1.9-7.4-.1-5.8-3.3-14.8-4.7-13.6-18.2-25.2-32.2-29.7-24.5-7.9-52.2-4.7-74.1,19.1,13.4-5.2,25.5-.7,36.5,7.1,5.8-4.5,11.5-9,17.4-13.3-2.9,6.4-5.7,12.8-8.7,19.1,5,3.9,10.8,5.2,16.7,6.4,6.6-6,13.4-11.4,20.3-16.6-4.2,6-8.4,12-12.5,18.1C989.4,672.9,1002.8,675.6,1016.4,674.1Z" style="fill:#e9f2d4"/><g style="opacity:0.2"><path d="M1016.4,674.1c-1.9-7.4-.1-5.8-3.3-14.8-4.7-13.6-18.2-25.2-32.2-29.7-24.5-7.9-52.2-4.7-74.1,19.1,13.4-5.2,25.5-.7,36.5,7.1,5.8-4.5,11.5-9,17.4-13.3-2.9,6.4-5.7,12.8-8.7,19.1,5,3.9,10.8,5.2,16.7,6.4,6.6-6,13.4-11.4,20.3-16.6-4.2,6-8.4,12-12.5,18.1C989.4,672.9,1002.8,675.6,1016.4,674.1Z" style="fill:#e9f2d4"/></g><path d="M1012.1,674.5s1.9-11,18.3-21.3c25.7-16.2,51.4-11,63.3-4.7s27.1,20.6,31.3,36.3c0,0-11.7-9.7-30.9-8.6,0,0-7.5-13.9-18.9-21.9,0,0,8.4,16.3,9.2,22.6a35.2,35.2,0,0,1-24.9,1.8s-3.8-18.8-13.9-23.9a38.2,38.2,0,0,1,6.8,23.9S1031.9,679.8,1012.1,674.5Z" style="fill:#e9f2d4"/><path d="M1012.1,674.5s1.9-11,18.3-21.3c25.7-16.2,51.4-11,63.3-4.7s27.1,20.6,31.3,36.3c0,0-11.7-9.7-30.9-8.6,0,0-7.5-13.9-18.9-21.9,0,0,8.4,16.3,9.2,22.6a35.2,35.2,0,0,1-24.9,1.8s-3.8-18.8-13.9-23.9a38.2,38.2,0,0,1,6.8,23.9S1031.9,679.8,1012.1,674.5Z" style="fill:#e9f2d4;opacity:0.2"/><path d="M1012.1,674.5s22.9-5.5,45,11.6c28.9,22.3,38.7,52.8,38.2,74.9,0,0-7.8-21.9-30.7-26.2l-4.4-24.2-6.4,20.6c-4.7-1.2-10.1-5.3-15.9-11.5l-2-30-4.4,23S1015.4,696.4,1012.1,674.5Z" style="fill:#e9f2d4"/><path d="M1012.1,674.5s22.9-5.5,45,11.6c28.9,22.3,38.7,52.8,38.2,74.9,0,0-7.8-21.9-30.7-26.2l-4.4-24.2-6.4,20.6c-4.7-1.2-10.1-5.3-15.9-11.5l-2-30-4.4,23S1015.4,696.4,1012.1,674.5Z" style="fill:#e9f2d4;opacity:0.1"/><path d="M1012.1,674.5s-4.6-5.5-18.1-5c-23.1.8-49.4,22.7-59.1,36s-20.7,36.3-21.4,53.3a82.9,82.9,0,0,1,26.6-27.6s4.1-17.6,13-32.2c0,0-4.5,20.4-4,26.6,0,0,11.2-1.5,23.2-14.1,0,0-.2-19.7,8.1-30.8,0,0-5,13.4-1.6,26.3C978.8,707,995,692,1012.1,674.5Z" style="fill:#e9f2d4"/><path d="M1012.1,674.5s-4.6-5.5-18.1-5c-23.1.8-49.4,22.7-59.1,36s-20.7,36.3-21.4,53.3a82.9,82.9,0,0,1,26.6-27.6s4.1-17.6,13-32.2c0,0-4.5,20.4-4,26.6,0,0,11.2-1.5,23.2-14.1,0,0-.2-19.7,8.1-30.8,0,0-5,13.4-1.6,26.3C978.8,707,995,692,1012.1,674.5Z" style="fill:#e9f2d4;opacity:0.1"/><path d="M989.6,808.5s-1.1-16.6,3.7-31.6c1.3-4.2,2.9-8.5,4.7-12.9-6.7-15.6-3.8-26.5-3.8-26.5.2,7.3,4.4,15.1,7.4,17.5,4.8-9.1,7.3-19.3,10-28-6.5-9.5-6.7-17.9-6.7-17.9,1.8,4.6,6.3,8.9,9.1,10.6,4.3-19.4,2.2-38.1-1.9-45.2,0,0-9.5,2.8-23.5,35.9S974.4,785.7,989.6,808.5Z" style="fill:#e9f2d4"/><path d="M1023.8,1167.9l-20.3-3.9c9-53.2,11.1-114,15-177.6,8-131,5-236.8-9.8-302.4l11.7-1.7c3.8,10.6,9.8,9.9,17.3,93.9,4.6,52.3,6.1,169.8-8.4,307.9C1026.4,1112.1,1027.8,1142.2,1023.8,1167.9Z" style="fill:#e9f2d4"/><path d="M771.4,584.3c2.1-8.5.1-6.7,3.7-17.1,5.5-15.7,21.1-29.1,37.3-34.3,28.4-9.2,60.4-5.4,85.7,22.1-15.6-6-29.5-.8-42.3,8.3-6.6-5.3-13.2-10.5-20-15.4,3.3,7.4,6.6,14.7,10.1,22-5.9,4.6-12.5,6.1-19.4,7.4-7.6-6.9-15.5-13.1-23.5-19.1,4.9,6.9,9.7,13.8,14.4,20.9C802.6,583,787.1,586.1,771.4,584.3Z" style="fill:#e9f2d4"/><g style="opacity:0.2"><path d="M771.4,584.3c2.1-8.5.1-6.7,3.7-17.1,5.5-15.7,21.1-29.1,37.3-34.3,28.4-9.2,60.4-5.4,85.7,22.1-15.6-6-29.5-.8-42.3,8.3-6.6-5.3-13.2-10.5-20-15.4,3.3,7.4,6.6,14.7,10.1,22-5.9,4.6-12.5,6.1-19.4,7.4-7.6-6.9-15.5-13.1-23.5-19.1,4.9,6.9,9.7,13.8,14.4,20.9C802.6,583,787.1,586.1,771.4,584.3Z" style="fill:#e9f2d4"/></g><path d="M776.3,584.8s-2.2-12.7-21.2-24.6c-29.7-18.7-59.4-12.7-73.1-5.4s-31.4,23.8-36.3,42c0,0,13.6-11.3,35.8-10,0,0,8.7-16.1,21.9-25.3,0,0-9.8,18.9-10.7,26.1a41.3,41.3,0,0,0,28.8,2.2s4.4-21.8,16.1-27.7a43.9,43.9,0,0,0-7.9,27.6S753.4,590.9,776.3,584.8Z" style="fill:#e9f2d4"/><path d="M776.3,584.8s-2.2-12.7-21.2-24.6c-29.7-18.7-59.4-12.7-73.1-5.4s-31.4,23.8-36.3,42c0,0,13.6-11.3,35.8-10,0,0,8.7-16.1,21.9-25.3,0,0-9.8,18.9-10.7,26.1a41.3,41.3,0,0,0,28.8,2.2s4.4-21.8,16.1-27.7a43.9,43.9,0,0,0-7.9,27.6S753.4,590.9,776.3,584.8Z" style="fill:#e9f2d4;opacity:0.2"/><path d="M776.3,584.8s-26.5-6.3-52.1,13.4c-33.4,25.8-44.7,61.1-44.1,86.7,0,0,9-25.4,35.5-30.3l5.1-28,7.4,23.9c5.5-1.5,11.7-6.2,18.4-13.3l2.2-34.8,5.2,26.6S772.5,610.2,776.3,584.8Z" style="fill:#e9f2d4"/><path d="M776.3,584.8s-26.5-6.3-52.1,13.4c-33.4,25.8-44.7,61.1-44.1,86.7,0,0,9-25.4,35.5-30.3l5.1-28,7.4,23.9c5.5-1.5,11.7-6.2,18.4-13.3l2.2-34.8,5.2,26.6S772.5,610.2,776.3,584.8Z" style="fill:#e9f2d4;opacity:0.1"/><path d="M776.3,584.8s5.3-6.4,21-5.8c26.7,1,57.1,26.3,68.3,41.7s24,42,24.8,61.7a96.3,96.3,0,0,0-30.8-32s-4.8-20.3-15-37.2c0,0,5.2,23.6,4.5,30.8,0,0-12.9-1.8-26.8-16.3,0,0,.3-22.9-9.3-35.7,0,0,5.8,15.5,1.8,30.4C814.8,622.4,796.1,605,776.3,584.8Z" style="fill:#e9f2d4"/><path d="M776.3,584.8s5.3-6.4,21-5.8c26.7,1,57.1,26.3,68.3,41.7s24,42,24.8,61.7a96.3,96.3,0,0,0-30.8-32s-4.8-20.3-15-37.2c0,0,5.2,23.6,4.5,30.8,0,0-12.9-1.8-26.8-16.3,0,0,.3-22.9-9.3-35.7,0,0,5.8,15.5,1.8,30.4C814.8,622.4,796.1,605,776.3,584.8Z" style="fill:#e9f2d4;opacity:0.1"/><path d="M802.3,739.8s1.4-19.2-4.2-36.5q-2.4-7.3-5.4-15c7.7-18,4.3-30.5,4.3-30.5-.3,8.4-5.1,17.4-8.6,20.1-5.4-10.4-8.4-22.2-11.5-32.4,7.5-10.9,7.8-20.6,7.8-20.6-2.1,5.3-7.3,10.3-10.6,12.2-4.9-22.4-2.6-44,2.2-52.3,0,0,11,3.3,27.1,41.6S819.9,713.4,802.3,739.8Z" style="fill:#e9f2d4"/><path d="M762.8,1155.5l23.4-4.6c-10.3-61.5-12.7-131.8-17.2-205.4-9.3-151.4-5.8-273.9,11.3-349.7l-13.6-1.9c-4.4,12.3-11.4,11.5-20,108.6-5.3,60.4-7.1,196.3,9.7,356C759.8,1091,758.2,1125.8,762.8,1155.5Z" style="fill:#e9f2d4"/><path d="M1348.6,470.7c2.1-8.5.1-6.7,3.8-17.1,5.4-15.8,21.1-29.1,37.2-34.3,28.4-9.2,60.4-5.4,85.7,22.1-15.5-6.1-29.4-.8-42.2,8.2-6.7-5.3-13.3-10.5-20-15.4,3.2,7.4,6.5,14.8,10,22-5.8,4.6-12.5,6.1-19.3,7.5-7.7-6.9-15.5-13.2-23.5-19.2,4.9,6.9,9.7,13.8,14.4,20.9C1379.8,469.4,1364.4,472.4,1348.6,470.7Z" style="fill:#e9f2d4"/><g style="opacity:0.2"><path d="M1348.6,470.7c2.1-8.5.1-6.7,3.8-17.1,5.4-15.8,21.1-29.1,37.2-34.3,28.4-9.2,60.4-5.4,85.7,22.1-15.5-6.1-29.4-.8-42.2,8.2-6.7-5.3-13.3-10.5-20-15.4,3.2,7.4,6.5,14.8,10,22-5.8,4.6-12.5,6.1-19.3,7.5-7.7-6.9-15.5-13.2-23.5-19.2,4.9,6.9,9.7,13.8,14.4,20.9C1379.8,469.4,1364.4,472.4,1348.6,470.7Z" style="fill:#e9f2d4"/></g><path d="M1353.6,471.2s-2.3-12.7-21.2-24.7c-29.8-18.7-59.5-12.7-73.2-5.4s-31.4,23.9-36.2,42c0,0,13.6-11.2,35.8-10,0,0,8.6-16,21.8-25.3,0,0-9.8,18.9-10.6,26.1a40.3,40.3,0,0,0,28.7,2.2s4.4-21.8,16.1-27.7a45,45,0,0,0-7.9,27.7S1330.7,477.3,1353.6,471.2Z" style="fill:#e9f2d4"/><path d="M1353.6,471.2s-2.3-12.7-21.2-24.7c-29.8-18.7-59.5-12.7-73.2-5.4s-31.4,23.9-36.2,42c0,0,13.6-11.2,35.8-10,0,0,8.6-16,21.8-25.3,0,0-9.8,18.9-10.6,26.1a40.3,40.3,0,0,0,28.7,2.2s4.4-21.8,16.1-27.7a45,45,0,0,0-7.9,27.7S1330.7,477.3,1353.6,471.2Z" style="fill:#e9f2d4;opacity:0.2"/><path d="M1353.6,471.2s-26.5-6.4-52.1,13.4c-33.5,25.8-44.7,61.1-44.1,86.7,0,0,9-25.4,35.5-30.4l5.1-28,7.3,23.9c5.5-1.4,11.7-6.1,18.4-13.3l2.3-34.8,5.1,26.7S1349.7,496.6,1353.6,471.2Z" style="fill:#e9f2d4"/><path d="M1353.6,471.2s-26.5-6.4-52.1,13.4c-33.5,25.8-44.7,61.1-44.1,86.7,0,0,9-25.4,35.5-30.4l5.1-28,7.3,23.9c5.5-1.4,11.7-6.1,18.4-13.3l2.3-34.8,5.1,26.7S1349.7,496.6,1353.6,471.2Z" style="fill:#e9f2d4;opacity:0.1"/><path d="M1353.6,471.2s5.2-6.4,20.9-5.8c26.7,1,57.2,26.2,68.3,41.6s24,42,24.8,61.7a96.3,96.3,0,0,0-30.8-32s-4.7-20.2-15-37.1c0,0,5.2,23.5,4.6,30.7,0,0-13-1.7-26.9-16.3,0,0,.3-22.8-9.2-35.7,0,0,5.7,15.6,1.7,30.4C1392,508.7,1373.3,491.4,1353.6,471.2Z" style="fill:#e9f2d4"/><path d="M1353.6,471.2s5.2-6.4,20.9-5.8c26.7,1,57.2,26.2,68.3,41.6s24,42,24.8,61.7a96.3,96.3,0,0,0-30.8-32s-4.7-20.2-15-37.1c0,0,5.2,23.5,4.6,30.7,0,0-13-1.7-26.9-16.3,0,0,.3-22.8-9.2-35.7,0,0,5.7,15.6,1.7,30.4C1392,508.7,1373.3,491.4,1353.6,471.2Z" style="fill:#e9f2d4;opacity:0.1"/><path d="M1379.6,626.1s1.3-19.1-4.3-36.5c-1.5-4.8-3.4-9.8-5.4-14.9,7.7-18,4.3-30.6,4.3-30.6-.2,8.4-5.1,17.4-8.5,20.1-5.5-10.4-8.4-22.2-11.6-32.3,7.6-10.9,7.8-20.7,7.8-20.7-2.1,5.3-7.3,10.3-10.6,12.2-4.9-22.3-2.5-44,2.3-52.2,0,0,10.9,3.2,27.1,41.6S1397.1,599.8,1379.6,626.1Z" style="fill:#e9f2d4"/><path d="M1340,1041.9l23.5-4.6c-10.3-61.6-12.8-131.8-17.3-205.4-9.3-151.5-5.8-273.9,11.3-349.8l-13.5-1.9c-4.5,12.3-11.4,11.5-20,108.6-5.4,60.5-7.1,196.4,9.6,356.1C1337,977.3,1335.4,1012.1,1340,1041.9Z" style="fill:#e9f2d4"/><path id="path49030" d="M1326.8,366.4s125.9,617.8,100.2,712.4c28.2,9.2,46.2,6.9,46.2,6.9s-113-696.2-102.7-740c-28.3,25.4-43.7,20.7-43.7,20.7Z" style="fill:#e9f2d4"/><path id="path49030-2" data-name="path49030" d="M831.6,328.7s-148.7,672.4-118.4,775.4c-33.4,10.1-54.6,7.5-54.6,7.5S792.1,353.8,780,306.1c33.4,27.6,51.6,22.6,51.6,22.6Z" style="fill:#e9f2d4"/><path d="M1853.1,570.4c2.1-8.5.1-6.8,3.7-17.1,5.5-15.8,21.1-29.2,37.2-34.4,28.4-9.1,60.5-5.4,85.8,22.1-15.6-6-29.5-.7-42.3,8.3-6.6-5.3-13.2-10.5-20-15.4,3.2,7.4,6.5,14.8,10,22-5.8,4.6-12.5,6.1-19.3,7.5-7.6-6.9-15.5-13.2-23.5-19.2,4.9,6.9,9.7,13.8,14.4,20.9C1884.2,569,1868.8,572.1,1853.1,570.4Z" style="fill:#e9f2d4"/><g style="opacity:0.2"><path d="M1853.1,570.4c2.1-8.5.1-6.8,3.7-17.1,5.5-15.8,21.1-29.2,37.2-34.4,28.4-9.1,60.5-5.4,85.8,22.1-15.6-6-29.5-.7-42.3,8.3-6.6-5.3-13.2-10.5-20-15.4,3.2,7.4,6.5,14.8,10,22-5.8,4.6-12.5,6.1-19.3,7.5-7.6-6.9-15.5-13.2-23.5-19.2,4.9,6.9,9.7,13.8,14.4,20.9C1884.2,569,1868.8,572.1,1853.1,570.4Z" style="fill:#e9f2d4"/></g><path d="M1858,570.9s-2.3-12.8-21.2-24.7c-29.8-18.7-59.4-12.7-73.2-5.4s-31.3,23.9-36.2,42c0,0,13.6-11.2,35.8-10,0,0,8.7-16.1,21.8-25.3,0,0-9.7,18.9-10.6,26.1a41,41,0,0,0,28.7,2.2s4.4-21.8,16.1-27.7a44.9,44.9,0,0,0-7.9,27.6S1835.1,577,1858,570.9Z" style="fill:#e9f2d4"/><path d="M1858,570.9s-2.3-12.8-21.2-24.7c-29.8-18.7-59.4-12.7-73.2-5.4s-31.3,23.9-36.2,42c0,0,13.6-11.2,35.8-10,0,0,8.7-16.1,21.8-25.3,0,0-9.7,18.9-10.6,26.1a41,41,0,0,0,28.7,2.2s4.4-21.8,16.1-27.7a44.9,44.9,0,0,0-7.9,27.6S1835.1,577,1858,570.9Z" style="fill:#e9f2d4;opacity:0.2"/><path d="M1858,570.9s-26.5-6.4-52.1,13.3c-33.4,25.9-44.7,61.2-44.1,86.7,0,0,9-25.3,35.5-30.3l5.1-28,7.3,23.9c5.5-1.4,11.7-6.1,18.4-13.3l2.3-34.8,5.1,26.7S1854.2,596.2,1858,570.9Z" style="fill:#e9f2d4"/><path d="M1858,570.9s-26.5-6.4-52.1,13.3c-33.4,25.9-44.7,61.2-44.1,86.7,0,0,9-25.3,35.5-30.3l5.1-28,7.3,23.9c5.5-1.4,11.7-6.1,18.4-13.3l2.3-34.8,5.1,26.7S1854.2,596.2,1858,570.9Z" style="fill:#e9f2d4;opacity:0.1"/><path d="M1858,570.9s5.3-6.4,21-5.8c26.7,1,57.1,26.2,68.2,41.6s24.1,42,24.9,61.7a97.3,97.3,0,0,0-30.9-32s-4.7-20.3-15-37.1c0,0,5.2,23.5,4.6,30.7,0,0-12.9-1.7-26.8-16.3,0,0,.3-22.8-9.3-35.7,0,0,5.8,15.6,1.7,30.4C1896.4,608.4,1877.8,591.1,1858,570.9Z" style="fill:#e9f2d4"/><path d="M1858,570.9s5.3-6.4,21-5.8c26.7,1,57.1,26.2,68.2,41.6s24.1,42,24.9,61.7a97.3,97.3,0,0,0-30.9-32s-4.7-20.3-15-37.1c0,0,5.2,23.5,4.6,30.7,0,0-12.9-1.7-26.8-16.3,0,0,.3-22.8-9.3-35.7,0,0,5.8,15.6,1.7,30.4C1896.4,608.4,1877.8,591.1,1858,570.9Z" style="fill:#e9f2d4;opacity:0.1"/><path d="M1884,725.8s1.3-19.2-4.3-36.5c-1.5-4.8-3.4-9.8-5.4-15,7.7-18,4.3-30.5,4.3-30.5-.2,8.4-5,17.4-8.5,20.1-5.5-10.4-8.4-22.2-11.6-32.3,7.6-11,7.8-20.7,7.8-20.7-2,5.3-7.3,10.3-10.6,12.2-4.9-22.3-2.5-44,2.3-52.2,0,0,10.9,3.2,27.1,41.5S1901.5,699.5,1884,725.8Z" style="fill:#e9f2d4"/><path d="M1844.4,1141.5l23.5-4.6c-10.3-61.5-12.8-131.7-17.3-205.4-9.2-151.4-5.8-273.8,11.3-349.7l-13.5-1.9c-4.5,12.3-11.4,11.5-20,108.6-5.3,60.4-7.1,196.4,9.7,356C1841.5,1077,1839.9,1111.8,1844.4,1141.5Z" style="fill:#e9f2d4"/><path id="path49030-3" data-name="path49030" d="M1913.3,247.6s-148.8,730.1-118.4,841.9c-33.4,10.9-54.6,8.1-54.6,8.1s133.5-822.7,121.4-874.5c33.4,30,51.6,24.5,51.6,24.5Z" style="fill:#e9f2d4"/><path id="path45363" d="M1184.3,282.3c-1.5,8.5,1.1,17.3,0,25.8-6.9,49.2-2.5,144.9,13.6,194.5,8.2,25.2,15.2,59.2,11.4,86.7-13.3,95.6-47.6,401.4-66.1,496.2-1.4,7.4-18.7,102.5-18.2,103.1s47.4,20.1,47.8,19.8c4.1-2.8-7-150.3,11.5-197.9,24.9-64.2,36.5-352.5,61.5-416.6,15.7-40.4,39.9-82.2,59.2-121.8s61.5-106.3,61.5-150c0-1.7-2.9,1.8-4.5,2.4-21.5,7.3-11.4,28-25.1,46.8C1309,409.6,1285,457,1264,500.2c-8.6,17.7-13.5,33.7-20.5,51.6-3.2,8.1-11.4,32.1-11.4,23.4,0-55-12.6-103.3-25.1-154.7-1-4.1-9.3-30.2-6.8-32.8,8-8.2,64.9-108.9,61.5-112.4-9.1-9.4-56.7,76.7-61.5,86.7-8.6,17.7-9.3-27.6-6.8-35.2,6.6-20.3,14.6-47.3,13.6-46.8-12.3,6.3-8.1,9.8-22.7,2.3Z" style="fill:#e9f2d4"/><path d="M1544.1,562.3c-5.1-8.4-2.4-7.4-9.8-17.1-11.3-14.8-33-22.1-52.5-20.2-34.3,3.4-68.4,22.8-87.1,65.1,15.1-14.1,32.2-14.9,49.3-11,5.6-8.9,11.1-17.8,17-26.5-1.2,9.8-2.4,19.4-3.8,29.1,8,2.3,15.8.8,23.8-1,6.1-11.2,12.7-21.8,19.5-32.2-3.1,9.9-6.1,19.8-8.9,29.8C1509.3,575.6,1527.3,571.7,1544.1,562.3Z" style="fill:#e9f2d4"/><g style="opacity:0.2"><path d="M1544.1,562.3c-5.1-8.4-2.4-7.4-9.8-17.1-11.3-14.8-33-22.1-52.5-20.2-34.3,3.4-68.4,22.8-87.1,65.1,15.1-14.1,32.2-14.9,49.3-11,5.6-8.9,11.1-17.8,17-26.5-1.2,9.8-2.4,19.4-3.8,29.1,8,2.3,15.8.8,23.8-1,6.1-11.2,12.7-21.8,19.5-32.2-3.1,9.9-6.1,19.8-8.9,29.8C1509.3,575.6,1527.3,571.7,1544.1,562.3Z" style="fill:#e9f2d4"/></g><path d="M1538.8,565.1s-1.7-15,15.2-37.2c26.5-34.7,61.2-42.2,78.8-40.7s42.5,11.5,53.9,29.2c0,0-18.7-6-42.8,5.9,0,0-14.9-13.6-32.5-17.5,0,0,17.1,16.2,20.5,23.7a53,53,0,0,1-31,16s-12.1-21.9-26.9-22.8c0,0,13.1,8,17.9,26.7C1591.9,548.4,1566.1,561,1538.8,565.1Z" style="fill:#e9f2d4"/><path d="M1538.8,565.1s-1.7-15,15.2-37.2c26.5-34.7,61.2-42.2,78.8-40.7s42.5,11.5,53.9,29.2c0,0-18.7-6-42.8,5.9,0,0-14.9-13.6-32.5-17.5,0,0,17.1,16.2,20.5,23.7a53,53,0,0,1-31,16s-12.1-21.9-26.9-22.8c0,0,13.1,8,17.9,26.7C1591.9,548.4,1566.1,561,1538.8,565.1Z" style="fill:#e9f2d4;opacity:0.2"/><path d="M1538.8,565.1s27.1-19.5,61.9-9.9c45.4,12.6,69.6,46.1,77.5,74.6,0,0-18.4-23.7-49.3-16.6L1614,584.8v29.8c-6.6,1-15-1.2-24.8-5.9l-14-37.3,3.2,31.8S1551.5,591.3,1538.8,565.1Z" style="fill:#e9f2d4"/><path d="M1538.8,565.1s27.1-19.5,61.9-9.9c45.4,12.6,69.6,46.1,77.5,74.6,0,0-18.4-23.7-49.3-16.6L1614,584.8v29.8c-6.6,1-15-1.2-24.8-5.9l-14-37.3,3.2,31.8S1551.5,591.3,1538.8,565.1Z" style="fill:#e9f2d4;opacity:0.1"/><path d="M1538.8,565.1s-7.9-4.5-25,3.6c-29.1,13.8-54.2,56-61.4,78.3s-12.5,57.7-6.8,79.8a132.4,132.4,0,0,1,23.3-49.9s-1.5-24.6,4.2-48.1c0,0,2.1,28.5,5.2,36.1,0,0,13.7-8.1,24.1-30.7,0,0-7.9-25-1.7-43.8,0,0-1.1,19.9,8.2,34.4C1508.9,624.8,1523.8,596.8,1538.8,565.1Z" style="fill:#e9f2d4"/><path d="M1538.8,565.1s-7.9-4.5-25,3.6c-29.1,13.8-54.2,56-61.4,78.3s-12.5,57.7-6.8,79.8a132.4,132.4,0,0,1,23.3-49.9s-1.5-24.6,4.2-48.1c0,0,2.1,28.5,5.2,36.1,0,0,13.7-8.1,24.1-30.7,0,0-7.9-25-1.7-43.8,0,0-1.1,19.9,8.2,34.4C1508.9,624.8,1523.8,596.8,1538.8,565.1Z" style="fill:#e9f2d4;opacity:0.1"/><path d="M1561.8,748.2s-7.9-20.4-7.5-42.2c.1-6.1.5-12.5.9-19.1-14.4-16.1-14.9-31.6-14.9-31.6,3.1,9.2,11.5,16.8,16.2,18.2,2.5-14.1,1.8-28.5,1.9-41.2-11.9-8.4-15.4-19-15.4-19,4,4.8,11.4,7.8,15.7,8.4-2.1-27-11.9-49.7-19.9-56.6,0,0-10.9,8.8-16,58.8C1517.5,675.4,1533.7,727.5,1561.8,748.2Z" style="fill:#e9f2d4"/><path d="M1584.7,1128.1l-35-3.2c16.7-62,31.6-135.2,36.1-210.1,9.1-153.9-19.6-277.6-58.2-356.6h9.4c9.6,12.9,36.5,54.1,59.5,154.1,14.3,62.2,30.2,159.2,6.7,320.9C1598.5,1065.9,1592,1098.1,1584.7,1128.1Z" style="fill:#e9f2d4"/><path id="path49030-4" data-name="path49030" d="M146.9,438s125.9,617.8,100.2,712.4c28.3,9.2,46.2,6.9,46.2,6.9s-113-696.2-102.7-740c-28.2,25.3-43.7,20.7-43.7,20.7Z" style="fill:#e9f2d4"/><path d="M364.2,633.9c-5.1-8.4-2.3-7.4-9.8-17.1-11.3-14.8-32.9-22.1-52.4-20.2-34.4,3.4-68.4,22.7-87.2,65.1,15.2-14.1,32.3-14.9,49.4-11,5.5-9,11.1-17.9,16.9-26.5-1.1,9.7-2.3,19.4-3.7,29.1,7.9,2.3,15.7.7,23.7-1,6.1-11.2,12.7-21.9,19.5-32.3-3,9.9-6,19.9-8.9,29.9C329.4,647.2,347.5,643.3,364.2,633.9Z" style="fill:#e9f2d4"/><g style="opacity:0.2"><path d="M364.2,633.9c-5.1-8.4-2.3-7.4-9.8-17.1-11.3-14.8-32.9-22.1-52.4-20.2-34.4,3.4-68.4,22.7-87.2,65.1,15.2-14.1,32.3-14.9,49.4-11,5.5-9,11.1-17.9,16.9-26.5-1.1,9.7-2.3,19.4-3.7,29.1,7.9,2.3,15.7.7,23.7-1,6.1-11.2,12.7-21.9,19.5-32.3-3,9.9-6,19.9-8.9,29.9C329.4,647.2,347.5,643.3,364.2,633.9Z" style="fill:#e9f2d4"/></g><path d="M359,636.7s-1.8-15,15.1-37.2c26.6-34.7,61.3-42.2,78.8-40.7s42.6,11.5,53.9,29.1c0,0-18.7-5.9-42.7,6,0,0-14.9-13.6-32.5-17.5,0,0,17,16.2,20.4,23.7a52.9,52.9,0,0,1-30.9,16s-12.1-21.9-27-22.8c0,0,13.2,7.9,17.9,26.7C412,620,386.2,632.6,359,636.7Z" style="fill:#e9f2d4"/><path d="M359,636.7s-1.8-15,15.1-37.2c26.6-34.7,61.3-42.2,78.8-40.7s42.6,11.5,53.9,29.1c0,0-18.7-5.9-42.7,6,0,0-14.9-13.6-32.5-17.5,0,0,17,16.2,20.4,23.7a52.9,52.9,0,0,1-30.9,16s-12.1-21.9-27-22.8c0,0,13.2,7.9,17.9,26.7C412,620,386.2,632.6,359,636.7Z" style="fill:#e9f2d4;opacity:0.2"/><path d="M359,636.7s27.1-19.6,61.8-9.9c45.5,12.6,69.6,46.1,77.5,74.6,0,0-18.4-23.7-49.2-16.6l-14.9-28.4-.2,29.8c-6.5,1-14.9-1.2-24.7-6L395.2,643l3.2,31.8S371.6,662.9,359,636.7Z" style="fill:#e9f2d4"/><path d="M359,636.7s27.1-19.6,61.8-9.9c45.5,12.6,69.6,46.1,77.5,74.6,0,0-18.4-23.7-49.2-16.6l-14.9-28.4-.2,29.8c-6.5,1-14.9-1.2-24.7-6L395.2,643l3.2,31.8S371.6,662.9,359,636.7Z" style="fill:#e9f2d4;opacity:0.1"/><path d="M359,636.7s-8-4.5-25.1,3.6c-29.1,13.8-54.2,56-61.3,78.3s-12.5,57.6-6.9,79.8a133.6,133.6,0,0,1,23.4-49.9s-1.6-24.6,4.1-48.1c0,0,2.2,28.4,5.2,36.1,0,0,13.7-8.1,24.2-30.8,0,0-8-24.9-1.7-43.7,0,0-1.2,19.9,8.2,34.4C329.1,696.4,343.9,668.4,359,636.7Z" style="fill:#e9f2d4"/><path d="M359,636.7s-8-4.5-25.1,3.6c-29.1,13.8-54.2,56-61.3,78.3s-12.5,57.6-6.9,79.8a133.6,133.6,0,0,1,23.4-49.9s-1.6-24.6,4.1-48.1c0,0,2.2,28.4,5.2,36.1,0,0,13.7-8.1,24.2-30.8,0,0-8-24.9-1.7-43.7,0,0-1.2,19.9,8.2,34.4C329.1,696.4,343.9,668.4,359,636.7Z" style="fill:#e9f2d4;opacity:0.1"/><path d="M381.9,819.8s-7.9-20.5-7.5-42.2c.1-6.1.5-12.5,1-19.1-14.5-16.1-14.9-31.6-14.9-31.6,3.1,9.2,11.4,16.8,16.1,18.1,2.6-14.1,1.9-28.5,2-41.1-12-8.4-15.5-19.1-15.5-19.1,4,4.9,11.5,7.9,15.7,8.5-2-27-11.8-49.7-19.8-56.6,0,0-11,8.8-16.1,58.7C337.7,747,353.8,799.1,381.9,819.8Z" style="fill:#e9f2d4"/><path d="M404.9,1199.7l-35.1-3.2c16.7-62,31.6-135.3,36.1-210.1,9.1-153.9-19.6-277.6-58.2-356.7h9.4c9.6,13,36.5,54.2,59.5,154.2C431,846,446.9,943,423.4,1104.7,418.6,1137.5,412.1,1169.7,404.9,1199.7Z" style="fill:#e9f2d4"/><path d="M803.9,343.2c2.4-11.5,3.7-8.2,5.4-22.9,2.5-22.3-8.7-47.6-25.3-63.3-29.1-27.6-70.2-41.7-116.9-23,22.4,1.7,36.3,16.2,46.5,34.6,11.1-2.6,22.2-5.1,33.3-7.1-8.3,7.1-16.6,14.1-25,20.9,4.4,9,11.6,14.6,19.1,20.3,13.3-4,26.5-7,39.7-9.6-10,5.5-19.8,11.1-29.7,17C766.8,323.5,783.7,336.2,803.9,343.2Z" style="fill:#e9f2d4"/><g style="opacity:0.2"><path d="M803.9,343.2c2.4-11.5,3.7-8.2,5.4-22.9,2.5-22.3-8.7-47.6-25.3-63.3-29.1-27.6-70.2-41.7-116.9-23,22.4,1.7,36.3,16.2,46.5,34.6,11.1-2.6,22.2-5.1,33.3-7.1-8.3,7.1-16.6,14.1-25,20.9,4.4,9,11.6,14.6,19.1,20.3,13.3-4,26.5-7,39.7-9.6-10,5.5-19.8,11.1-29.7,17C766.8,323.5,783.7,336.2,803.9,343.2Z" style="fill:#e9f2d4"/></g><path d="M797.6,341s10.1-14.2,40-17.6c47-5.4,79.5,19.1,92,35.9s24.2,47.2,19.5,72c0,0-9.9-21.5-37.6-32.9,0,0-1.2-24.5-11.8-43.4,0,0,.9,28.6-2.2,37.9a54.8,54.8,0,0,1-36.2-14.1s7.3-29-3.5-42.9a59.4,59.4,0,0,1-6.4,38.1S821.8,361.7,797.6,341Z" style="fill:#e9f2d4"/><path d="M797.6,341s10.1-14.2,40-17.6c47-5.4,79.5,19.1,92,35.9s24.2,47.2,19.5,72c0,0-9.9-21.5-37.6-32.9,0,0-1.2-24.5-11.8-43.4,0,0,.9,28.6-2.2,37.9a54.8,54.8,0,0,1-36.2-14.1s7.3-29-3.5-42.9a59.4,59.4,0,0,1-6.4,38.1S821.8,361.7,797.6,341Z" style="fill:#e9f2d4;opacity:0.2"/><path d="M797.6,341s35.9,7.6,55.4,46.5c25.6,50.7,18.8,100.1,3.2,130.8,0,0,3.8-36-25.5-57.4l10.1-37L818,448.7c-5.8-5-10.6-14.3-14.6-26.9l17.5-43.5-21.7,29.3S787.5,374,797.6,341Z" style="fill:#e9f2d4"/><path d="M797.6,341s35.9,7.6,55.4,46.5c25.6,50.7,18.8,100.1,3.2,130.8,0,0,3.8-36-25.5-57.4l10.1-37L818,448.7c-5.8-5-10.6-14.3-14.6-26.9l17.5-43.5-21.7,29.3S787.5,374,797.6,341Z" style="fill:#e9f2d4;opacity:0.1"/><path d="M797.6,341s-2.7-10.9-22.1-19.3c-33-14.3-84.5-1.3-107,10.9s-53.6,37-66,60.5a129.7,129.7,0,0,1,56-20.9s17.5-21.9,39.8-36.4c0,0-20,25.6-23.4,34.6,0,0,16.7,5.4,42-4.2,0,0,12.9-27.9,32-37.9,0,0-16.1,15.5-19.8,35.9C729.1,364.2,761.8,354,797.6,341Z" style="fill:#e9f2d4"/><path d="M797.6,341s-2.7-10.9-22.1-19.3c-33-14.3-84.5-1.3-107,10.9s-53.6,37-66,60.5a129.7,129.7,0,0,1,56-20.9s17.5-21.9,39.8-36.4c0,0-20,25.6-23.4,34.6,0,0,16.7,5.4,42-4.2,0,0,12.9-27.9,32-37.9,0,0-16.1,15.5-19.8,35.9C729.1,364.2,761.8,354,797.6,341Z" style="fill:#e9f2d4;opacity:0.1"/><path d="M676,513.9s9.5-24,26.4-41.9c4.7-4.9,9.8-9.9,15.2-15,1.1-26.3,12.6-39.5,12.6-39.5-4.6,10.3-4,24.1-1.4,29.4,12.7-9.5,23.2-22.1,32.9-32.6-2.9-17.6,2.5-29.6,2.5-29.6-.5,7.6,2.9,16.7,5.8,21,18.9-24.3,28.6-51.9,27.6-64.7,0,0-15.2-2.5-57.1,34.7S670,471.7,676,513.9Z" style="fill:#e9f2d4"/><path d="M146.3,422.6c-2.4-11.5-3.8-8.2-5.4-22.9-2.5-22.3,8.7-47.6,25.2-63.3,29.2-27.6,70.2-41.7,116.9-23-22.4,1.7-36.2,16.2-46.5,34.6-11.1-2.5-22.1-5-33.2-7.1,8.2,7.2,16.5,14.1,25,20.9-4.4,9-11.6,14.7-19.2,20.3a407,407,0,0,0-39.6-9.6c9.9,5.5,19.8,11.1,29.6,17C183.4,402.9,166.4,415.6,146.3,422.6Z" style="fill:#e9f2d4"/><g style="opacity:0.2"><path d="M146.3,422.6c-2.4-11.5-3.8-8.2-5.4-22.9-2.5-22.3,8.7-47.6,25.2-63.3,29.2-27.6,70.2-41.7,116.9-23-22.4,1.7-36.2,16.2-46.5,34.6-11.1-2.5-22.1-5-33.2-7.1,8.2,7.2,16.5,14.1,25,20.9-4.4,9-11.6,14.7-19.2,20.3a407,407,0,0,0-39.6-9.6c9.9,5.5,19.8,11.1,29.6,17C183.4,402.9,166.4,415.6,146.3,422.6Z" style="fill:#e9f2d4"/></g><path d="M152.6,420.4s-10.1-14.2-40.1-17.6c-46.9-5.4-79.5,19.1-91.9,35.9S-3.6,485.9,1,510.7c0,0,10-21.5,37.7-32.9,0,0,1.1-24.5,11.8-43.4,0,0-.9,28.6,2.2,37.9a54.5,54.5,0,0,0,36.1-14.1s-7.3-29,3.5-42.9a59.9,59.9,0,0,0,6.5,38.1S128.3,441.1,152.6,420.4Z" style="fill:#e9f2d4"/><path d="M152.6,420.4s-10.1-14.2-40.1-17.6c-46.9-5.4-79.5,19.1-91.9,35.9S-3.6,485.9,1,510.7c0,0,10-21.5,37.7-32.9,0,0,1.1-24.5,11.8-43.4,0,0-.9,28.6,2.2,37.9a54.5,54.5,0,0,0,36.1-14.1s-7.3-29,3.5-42.9a59.9,59.9,0,0,0,6.5,38.1S128.3,441.1,152.6,420.4Z" style="fill:#e9f2d4;opacity:0.2"/><path d="M152.6,420.4s-35.9,7.6-55.5,46.5C71.6,517.6,78.4,567,94,597.7c0,0-3.8-36,25.4-57.4l-10.1-36.9,22.8,24.7c5.9-4.9,10.7-14.3,14.6-26.9l-17.4-43.5L151,487S162.7,453.4,152.6,420.4Z" style="fill:#e9f2d4"/><path d="M152.6,420.4s-35.9,7.6-55.5,46.5C71.6,517.6,78.4,567,94,597.7c0,0-3.8-36,25.4-57.4l-10.1-36.9,22.8,24.7c5.9-4.9,10.7-14.3,14.6-26.9l-17.4-43.5L151,487S162.7,453.4,152.6,420.4Z" style="fill:#e9f2d4;opacity:0.1"/><path d="M152.6,420.4c-.1,0,2.7-10.8,22.1-19.3,32.9-14.3,84.5-1.3,107,11s53.5,36.9,66,60.4a129.7,129.7,0,0,0-56-20.9s-17.6-21.9-39.8-36.4c0,0,20,25.6,23.4,34.7,0,0-16.7,5.3-42.1-4.3,0,0-12.8-27.8-31.9-37.9,0,0,16,15.6,19.8,35.9C221.1,443.6,188.3,433.4,152.6,420.4Z" style="fill:#e9f2d4"/><path d="M152.6,420.4c-.1,0,2.7-10.8,22.1-19.3,32.9-14.3,84.5-1.3,107,11s53.5,36.9,66,60.4a129.7,129.7,0,0,0-56-20.9s-17.6-21.9-39.8-36.4c0,0,20,25.6,23.4,34.7,0,0-16.7,5.3-42.1-4.3,0,0-12.8-27.8-31.9-37.9,0,0,16,15.6,19.8,35.9C221.1,443.6,188.3,433.4,152.6,420.4Z" style="fill:#e9f2d4;opacity:0.1"/><path d="M274.1,593.3s-9.4-24-26.3-41.8c-4.7-5-9.9-10-15.3-15.1-1.1-26.3-12.5-39.5-12.5-39.5,4.6,10.3,4,24.1,1.3,29.4-12.7-9.5-23.1-22.1-32.8-32.6,2.8-17.6-2.5-29.6-2.5-29.6.5,7.6-2.9,16.7-5.8,21-18.9-24.3-28.6-51.9-27.6-64.7,0,0,15.1-2.4,57,34.7S280.1,551.1,274.1,593.3Z" style="fill:#e9f2d4"/><path d="M1875.3,229.4c.7-12.7-1.7-9.7.8-25.5,3.7-23.9,22.5-47.2,44.2-58.9,38.2-20.6,85-23.6,128.5,9-23.9-4.5-42.4,6.7-58.3,23-10.9-5.8-21.7-11.5-32.7-16.8,6.6,9.8,13.3,19.4,20.2,28.9-7.2,8.1-16.3,12-25.7,15.7-12.8-7.9-25.6-14.7-38.7-21.2,8.8,8.6,17.6,17.2,26.1,26.1C1919.5,219.3,1898.2,227.8,1875.3,229.4Z" style="fill:#e9f2d4"/><g style="opacity:0.2"><path d="M1875.3,229.4c.7-12.7-1.7-9.7.8-25.5,3.7-23.9,22.5-47.2,44.2-58.9,38.2-20.6,85-23.6,128.5,9-23.9-4.5-42.4,6.7-58.3,23-10.9-5.8-21.7-11.5-32.7-16.8,6.6,9.8,13.3,19.4,20.2,28.9-7.2,8.1-16.3,12-25.7,15.7-12.8-7.9-25.6-14.7-38.7-21.2,8.8,8.6,17.6,17.2,26.1,26.1C1919.5,219.3,1898.2,227.8,1875.3,229.4Z" style="fill:#e9f2d4"/></g><path d="M1882.4,228.8s-6.5-17.6-36.8-29.7c-47.5-18.9-88.3-2.5-106.1,11.5s-38.6,42.5-40.7,69.7c0,0,16.5-19.7,48.6-23.7,0,0,8.1-25.3,24.5-42,0,0-9,29.6-8.3,40.1a59,59,0,0,0,41.6-4.4s.6-32.3,15.8-43.8c0,0-9.5,17.9-4,41.6C1817,248.1,1851.3,243.6,1882.4,228.8Z" style="fill:#e9f2d4"/><path d="M1882.4,228.8s-6.5-17.6-36.8-29.7c-47.5-18.9-88.3-2.5-106.1,11.5s-38.6,42.5-40.7,69.7c0,0,16.5-19.7,48.6-23.7,0,0,8.1-25.3,24.5-42,0,0-9,29.6-8.3,40.1a59,59,0,0,0,41.6-4.4s.6-32.3,15.8-43.8c0,0-9.5,17.9-4,41.6C1817,248.1,1851.3,243.6,1882.4,228.8Z" style="fill:#e9f2d4;opacity:0.2"/><path d="M1882.4,228.8s-39.6-2.2-71,32.9c-41,45.7-47.8,99.2-40.2,135.6,0,0,6.2-38.7,42.8-52.8V303.2l16.8,32.2c7.5-3.5,15.1-11.9,22.8-23.9l-5.9-50.4,14.4,36.8S1883.7,266.1,1882.4,228.8Z" style="fill:#e9f2d4"/><path d="M1882.4,228.8s-39.6-2.2-71,32.9c-41,45.7-47.8,99.2-40.2,135.6,0,0,6.2-38.7,42.8-52.8V303.2l16.8,32.2c7.5-3.5,15.1-11.9,22.8-23.9l-5.9-50.4,14.4,36.8S1883.7,266.1,1882.4,228.8Z" style="fill:#e9f2d4;opacity:0.1"/><path d="M1882.4,228.8s5.9-10.5,28.5-13.8c38.5-5.7,88.6,22.4,108.6,41.6s45.5,53.7,51.8,81.7a140.4,140.4,0,0,0-52.5-37.7s-12.2-27.7-31.3-49.2c0,0,13.7,32.4,14.7,42.8,0,0-19,.9-42.7-16.3,0,0-5.6-32.7-22.7-48.6,0,0,12.4,20.8,10.5,43.1C1947.3,272.4,1916.1,252.5,1882.4,228.8Z" style="fill:#e9f2d4"/><path d="M1882.4,228.8s5.9-10.5,28.5-13.8c38.5-5.7,88.6,22.4,108.6,41.6s45.5,53.7,51.8,81.7a140.4,140.4,0,0,0-52.5-37.7s-12.2-27.7-31.3-49.2c0,0,13.7,32.4,14.7,42.8,0,0-19,.9-42.7-16.3,0,0-5.6-32.7-22.7-48.6,0,0,12.4,20.8,10.5,43.1C1947.3,272.4,1916.1,252.5,1882.4,228.8Z" style="fill:#e9f2d4;opacity:0.1"/><path d="M1960.5,443.6s-3.2-27.8-15.8-51.1c-3.5-6.5-7.4-13.2-11.6-20,6.3-27.8-1.9-44.8-1.9-44.8,1.9,12.1-2.7,26.3-6.9,31-10.6-13.5-17.9-29.6-25.1-43.2,7.9-17.6,5.7-31.6,5.7-31.6-1.6,8.1-7.7,16.6-11.9,20.2-12.9-30.7-15.2-62.2-10.6-75.3,0,0,16.5,1.7,49.8,52.3C1966.5,333.3,1978.6,401.3,1960.5,443.6Z" style="fill:#e9f2d4"/><path id="path37584" d="M104.8,472.4l2-2.9,3.7-.9,3.4,1.8,3.7-1.2,3.2,1.9.8,3.3,3.3,1.3h3.6l3.2,1.1,3.2-1.1,2.9,1.6,3.3-.2.7,3,2.6,2.1,3.4.5,2.5,2.1,1.3,2.7,2.7,1.9,3.4-.5,2.9,1.7,3.1-.9,3.2.9,2.9.9,2.9.9,2.9,1,2.5,1.4,3,.9,2.2,1.8,3.4.2,2.1,2.3,3.1,1.4.6,3,3.2.2,3-1,3.4.3,2.7-1.7,3.1,1,2.5,1.8,3.1.8,3.2.2,3.7-.4,2.7,2.4,1.8,2.9,3.7.5,3.6.4,2.8-2.1,2.5-2.2,3.4-.5,3.6-.4,2.7-2.2,2.7-2.2.3-3.2,3.2-1.3,3.3.7,3.3.7,3.2-.7,3.3-.5,3.1-.8,3.1,1.2,3.3.3,3.4-.3,2.6-2,2.1-2.2,2.4-1.9,1.1-1.6,1.9-.6,1.2-1.6,2-.5,1.8,1.1,2.1.6,1.8-1.2,2.2-.3,2-.2,1.9.5h2l1.7-1.1,1.3-1.3,1.7-.8h2.1l1.4-1.4,2.2.7.9,1.9,2.2-.4,1.9,1,1.7-1.2,2.2.2h2.1l1.7-1.1,2.1.2,2,.3,1.3,1.4,1.5,1.3h2l2-.5,1.7-1.1,2.1.5,1.1-1.4,1.5-1.1,1.6-1h2.1l2.1-.3,1-1.6.9-1.5.7-1.6,1.5-1.3-.2-1.9,1.1-1.5,1.9-.8,1.9-.4,1.3-1.4,1.9-.4,1.8-.4,2.1-.8.7-1.9,1.9-.6,2-.6,1.9-.5,2.1.3,2.1-.4,1.8.9,1.9-.9.5-1.9.3-1.8.9-1.5,1.8-.8L388,459l2-.5,1.5-1.1,1.2-4.6,3.2-3.7,3.7-3.2,3.4-3.5,5.6-1.3,4.8,2.6,4.6-2.8,5.6.4,4.5,1.6,3.4,3.1,4.2,1.9,4.1,2.1,4.4-2.7,5.3.4,4.3,2.5,5.1.4,4.2,2,4.7-1,4.6-.3,3.8-2.3,4.3-1.3,4.1-1.3,2.5-3.5,4.2-1.7,3.5-3,4.9-.2,4,2.3,4.7.2h4.4l4-1.8,4.2,1.1,4.4-.7,1.6-4.3.8-4.6,5.6-.5,3.6-3.7,4.2-2.2,5-.2,4.3-1.8,3.7-2.8-5-2.6-1.7-4.8,1.1-4.8-1.2-4.7.2-4.9,4.5-3,1.6-4.4,4.1-3,3.4-4.7,6.3-.6,1-4.9.4-5.1-1.5-4.5-3.3-3.7,1.4-4.7-2.1-4.5,3.7-3.2,2.1-4.1,4.6-2.4,2.1-4.3,5.5.8,4.4-3.1,5-1.3,5.2,1,3.2,4,.2,4.9,4.1,2.9,3.8,3.3,3.9,3.4,5.6.2H622l4.9,1.5h5.8l4.9-2.6,4.6-3,2.5-4.5,5.7-.2,4.3,3.1,4.9,2.5,5.5-.4,5,1.6,5.2-1,5.3.9L684,358l5.2-2.1,1.4-4.9H696l4.3-2.9,3.3-3.4,5,.2,4.3-1.1,4.4-1,3.9,3.1,5.2-.7,4.9-.4,4-2.5,5.1-.6,5,.8,5.5-.5,4,3.3,1.7,4.4.7,4.6,5.3,1.7,2.6,4.4-1.6,4.3v4.5l3.6,3.7-.3,4.8,2.6,3.9,4.4,2.3,3.4,3.5,5,1.1,4.6,1.6,4.7,1.4,5,1.1,4.9-1.2,3.7,3.5,5.1,1.7,3.2,4.4-1.9,5h4.6l4.3,1.2,3.9,2.4,4.7.2h5.1l3.6,3.2,4.3,2.4,1,4.5,2.2-.7,1.8-1.4,2.5-.3,1.5-1.8v-2.2l1.5-1.7,1.5-1.6,1.9-1.4,2.3-.6,2.4.4h2.5l1.7,1.6,2.2,1.2h2.5l2.1-1.1,2.3-.7,1.3,1.8v2.2l.7,2.1L878,417l1.5,1.5,1.5,1.6,1.6,1.4,1.8,1.3,1.9,1.4,2.1,1.1,2.7-.3,2,1.6,2.6-.8,2.4,1.1,2.4-.8,2-1.5,1.6,1.8-.4,2.3,1.6,1.7,2.1,1,.9,2,1,1.9,2.1,1.1,2,1.1,2.4-.4,2.3-.9,2.4-.3,2.3-.9,2.7-.4,2.7.5,1.7,1.9,1.7,1.9,2.2.8,2.2-.7,2.1-.8,1.4-1.7,2.1-1,2.3.7,1-1.8,2.1-1.1,1.1-1.7,2.1-.7,2.1-.6,1.7-1.1,1.9-.8,2-.9h4.3l2.5.8,2.7.4,1.4-2.2,2.8-.7,1.6-1.6,1-2,2-1.3.9-2,1.9-1.6,2.4-.8,2.5.4,2.3.8h2.7l2.2-1.2.6-2.2,1.8-1.6,2-1.1,2.1-.9,1.4-1.7,2.2-.8,2.2-.5,2.1-.9,2.4.2,2.3-.3,2.3.4,2.4-.2,1.9,1.4h2.5l2.3-.7,1.8-1.3,2.2-1.2,2.5.7,2.6.6,2.6-.7,2.5.9,2.6-.8,1,2.4,2.7.8,2.3,1,2.3,1.1,2.7.9,2.6-1,1.8,1.9,2.7.6,1.5,1.9,1,2.2,2.1,1.3,2.4,1.1,2.6.8,2.8-.4,2.3-1.4,2.6-.7,2.4-1.5,2.8.7,2.5,1.1,2.8-.2,2.3-1.5.7-2.4,2.8-.4,1.8-1.9.6-2.5.9-2.4,2.9-.5,2.2-1.8,1.2.9,1.5.4,1.6.2,1.1.9,1-1.2,1.7-.2,1.6.6,1.6-.7,1.4-.9h1.7l1.2,1.1,1.7.4,1.7.2,1.5-.9.7-1.3,1.1-1h1.6l1.3.9,1.5.3,1.5.3,1.5-.2,1.5-.2,1.6-.2,1.3-.7,1.5.8,1.7-.5.8,1.3,1.3.8,1.3.8.4,1.4.7,1.4,1.6.3,1.7.3,1.6-.8,1.2,1.1,1.5.5,1.5.8,1.6-.5,1.4-.9h1.7l.6,1.4,1.3,1,1.6.4,1.4.7,1.2,1.2,1.3,1-1,1.5.5,1.6,1.6.2,1.5-.5,1,1.1,1.2.9,1,1.1h1.6l.8,1.1.8,1.1,1.3.5h1.4l1.5.2,1.4-.3,1.3.5,1.2.7,1.6.3.6,1.3,1.7,2.6,2.9,1.7,2.4,2.1,2,2.3,1.9,3.1-.4,3.4,3.1,2,3.6.9,3.7-1.5,3.7,1.5,2.8,2.1,2.3,2.6,3.3,1.4,2.7,2.2,4,.8,3.2-2.1,3,2.2h4l2.8-2.5h4l3.1,1.5,2.4,2.2,3.5.5,2.9,1.9,2-2.8,3.5-1.5,3.6.3,3.6.5,3.8-.9,3.1,2.1,3.4-1,2.9-1.8,3.1-1.4,1.8-2.6,3.7.2,2.6-2.4,1.8-2.7,3.3-1.4,3.5.2,3.5-.6,3.2-1.1,2.4-2.2h3.4l3.3-.9,3.5.6,3.3-1.2,3.5-1.2,1.7-2.9,3-2.1,2.8-2.4h3.8l3.8-.8,3.3,2,3.9-.4,4.2.2,2.4,3,3.5,1.3,3.5,1.2,3.7-1.1h3.9l3.3,2.3v3.7l3.6,1.3,2.3,2.8,2.4-4.4,3.9-3.5,5.5-2.2,1.9-5.1v-5.6l-4.5-4,.8-5.3,3.3-4.5V405l.2-5.3,6.4-1.5,2.8-5.3h6l4.3-3.7,3.3-4.2,5.7-1.3,5.4-1.8,4.1-3.5,5.6.4,5.5.6,1.1-5.3,4.6-3.5,5.6-1,5.5-1.6,4.6,3,5.7-.5,5.8.6,4.6-3.1,5.3-1.1,4.6-2.4,5.6-1.5,5.1,2.5,6.3-1,5.9-2,.8-6,5.4-3.7,2.6-5.2,2.4-5.2-3.7-4.7-1.7-5.5,4.7-2.7,3.6-3.9,5.6-.9,5.1-2.1,5.7-1.4,5.6-1.5,4.3,4.1,6.3.4,2.6-3.9,4.6-1.8,4.4-1.6,4.6-1.4,4.2-2.5,1.6-4.2,4.8-1.3,3.1-3.5.2-4.8,2.4-4.2,4.6-2.4,4.9-1.7,4.5-2,3-3.5,5.4.6,3.9-3.4-3.2-2.5-4.2.3-4-.8-3.2-2.1-2.5-3.1-3.9-1.9h-4.3l-4.2.7-1.4,4-4.3,1.8-4.2,1.2-3.4,2.5-4.4.3-4.1-1.3-4-1.7-4.4.3h-4.1l-3.8-1.1h-4l-3.8-1.1-3.8-1.8-1.6-3.5L1529,270l-4.1-1.1-1.5-3.3-2.6-2.8-3.4-2-3.9-1.2-2.5-3.2.9-3.8-3.7-1.9-1.9-3.3-3.4,2.9-4.7.6-4.3-1-4.3-1.4-4.6-.2-3.3-2.8-4.3.8-4.3.3v-4.2l-3.6-2.6-2.8-2.9-3.9-1.8-3-2.7-3.5-2.1-.6-3.9-2.6-3.1.3-4.2-3-3.4,2.5-3.4,1.8-3.6-2.5-3.5-4.6-.6-1.2-3.9-3.8-2.2-3.4-1.9-2-3-3.4-1.8-2.1-3.1.9-3.6v-3.6l-1.8-3.4-3-2.6-4.5,7.5-8.9,3.5-7.4,5.1-4.3,7.4-9.7-.8-8.3,4.3-10,.5-6.7,6.4-9.1,2.6-9.4-1.1-7.9,4.3-7,5.4-9.5-2.7-9.9-.9-10.7,2.5-4.4,8.9-9.4-2.5-8.8,3.6-9.5-.5-7.7-4.8-8.6-4.1-7.6-5.3-8.6,5-10.3-1-6-6.5-8.3-4.1-9.4-.4-9.2-1.3-8.7-3.7-9.6.7-9.8-2.9-3.6-8.5-9.6-2.4-7.4-5.9-4.7-7.4-5.7-6.9-6.4-7.3-9.8-3.1-4.1-8.2-.5-8.9-7-6.7-1.5-8.9.3-8.6,1.7-8.5-7.2-6-6.5-6.5,2.5-9.2-6-7.9-8.8-3.6-9.7.2-9.8,3-9-4.7-10.5,2.3L1035,73.8l-8.1-6.2-4.5-8.5-9.1,3.4-8.3,4.7-9.7-1.5-9.9.9-10.1-2.2L967.9,58l-9.4,4.9L948,60.7l-18-.9L917.7,71.4l-16.4-3.6L888.9,57.7l-2.1,14.7-14.3,7.7-9.9,11.5-16.1,2.3-14.5,2-13.4-5.3L807,99.1l-15.1-.7-13-3.7-13.6-2.1L751,95.2l-12.7-6.3-13.6-.6-13.4,2.3L698,87.7l-13.6,1.2-14.5-3.1-10.7-9.1-15.3-2.9-12.8,8-13.2,6.3L607,97.2l-10.8,8.9L585,114.8l-15.7-5.3-15,6.9-11.5-10-16-1.9-16.8-.6-11.3-11-13.4,7.5-15.7,2.1-12.5,8-15.4,1.4-13.1-8.7-16,3.2-15.2-5.6L387,89.6l-15.5,3.3-15.1,4.5-15.8.3L326.5,104l-11.6-9.4-15.2-3.9-6.6,15-17.5,4.9-12.4,9.7-14.5,7.1,3.8,14.9,2.4,15.1-1.7,16.3-13.5,11.2-17,7.8H203.5l-2.3,17-13,12.8-17,3.5-16.4-5.1-16.2-4-16.8-1.4-1.8,1.5-2.1,1.3-1.5,1.9.4,2.4-.6,2.2-1.6,1.7-1.6,1.9-2.6.4-1.7,1.6-2.1,1.1-.9,2.2-2.5.8-1.5,1.9-2.6.4-2.5.4-2.4.4.6,2.1.3,2.1v2.1l-1,2-.5,2.4-2.2,1.5,2.1,1.8-.2,2.5,1.3,2,1.4,1.9.7,2.3,1.5,1.9-1,2.1-1,2.1-.9,2.2-1.5,1.9-2.4,1.2-1.9,1.9,1,2.5-1.6,2.3-2.9-.2-1.9,1.8-1.8,2H79.4l-2.3,1.7-2.7,1L73.1,287l.2,2.7-.2,2.5-.3,2.5,1,2.6,2.5,1.5,2.1,1.4,1,2.1,2,1.6.4,2.3v2.3l-1.3,2-1.5,1.9v2.4l-2,1.7v2.6l1.5,1.9,1,2.1,1.7,1.6.4,2.2,1.1,1.9,1.9,1.4L83,332.7l-.2,3-.9,3-2.4,2.1,1.4,3.1L79.6,347l1.8,2.6,2.3,2.3-1.5,2.8-2.8,1.8-3.2,1.3-3.4-.4-1.4,2.8-.6,3-2.7,2-3.5.6-1.5,2.7,1.4,2.7,1,2.6v2.7l-2.1,2.3v3l1.8,2.4.2,3,1.7,2.8,3.3,1.2,3.5-.7,3.2,1.7-.6,3.1.5,3.1,1.7,2.9,3.5,1.3L81,405.8l-3.3,1.9-3.2,1.7-3.8-.2-.2,3v6.1L68.7,421l.5,3.3-2.5,2.5,1.5,2.8,1,2.9,2.1,2.2,1.7,2.4,1.5,2.6,2.5,1.9,1.8,2.2,2.2,1.8,2.8,1.1,3.1.2,1.5,2.2,1.2,2.3,2.7,1.4.6,2.8,1.6,2.3,2.3,1.8.2,2.7-.2,2.7.7,2.7,2.8,1.3,2.6,1.3,1.9,2h0" style="fill:#e9f2d4"/><path id="path31448" d="M2002.8,363l-2.3.7-2.1,1.2-2.5.2-1.9,1.7-2.8.4-1.8,2.1-.5,2.8-.5,2.8-2.7-.2-1.8,2-2.6.2-2.3-1.5-1.7,1.9-2.2,1.1h-2.5l-2.4.2-2.5-.2-2.6-.2-1.8-2-1.7-2.2-2.2-1.6-2.2-1.4-2.3,1.4-2.6-.2h-2.8l-2,1.9-2.3-1.3-2.2-1.7-2.6-.3-2.3-1.4-2.1,1.4-2.3,1L1932,374l-2.2,1.5-2.8-.6-2.7-.3-2.7-.8-2.2,1.7-2.4-1.6-2.7.6-2.1,2-1,2.9-2.9-.8-2.8.9-.9,2.5-.6,2.7-2.6,1.1-.7,3-2.4-1.4-1.5-2.3-2.5-.7-2.5-.6-2.2-1.3-1.7-2.1-2.3-1.1-2.1-1.6-2.5.5-2.4-1.2-2.5-1.1-2.3,1.2h-2.5l-2.4-.6-2.4-.8-2.4.6-1.2.6-.9,1.1-1.3.6-1.3-.7H1858l-1.1-.9h-1.3l-1-.9h-1.4l-.8,1.1-1.3-.2-1.3-.2-1.2.2-1,.9-1.2.4-.4,1.4h-1.4l-1.3-.5-1.3-.6h-2.9l-1.3.7-.9,1.2-.4,1.5-1.2.6-1,.9-.9,1.2h-1.5l.6,1.5-.2,1.6-.5,1.4-.7,1.3-1.6-.7-1.7.4-1,1.2-1,1.4.4,1.6-.2,1.7-1,1.3-1,1.2-1.2.7-1.2.7-1.5-.5-1.4.5-1.4-.2-1.2-.9h-1.5l-1.3-.5h-1.6l-.9-1.4-.3-1.5-.9-1.2-1.5.2-1.2-1-1.1-1-.8-1.3-1.4-.6-.9-1.3-1.4-.3-1.4-.6-1,1.1-1.3.9-1.4-1-1.6.4-1.3-.3-1.2-1-1.3-.6-.9-1.1h-1.5l-1.5-.2-.6-1.6-1.4-.9-1.4.6-1.4-.4h-1.5l-1.2-1.1-1.5-.3-1.5-.2-1.5.5-.7,1.5-1.4-.9-.6-1.6-1.2-1.3V378l-1.2-1.2v-1.6l-.7-1.5-1.1-1.4-1.3-1-1.6.4-1.5-.7-1.4-1-1.6-.5-1.1,1.3-1.8-.2-1.2,1h-1.7l-1,1.3-.3,1.6h-1.4l-1.5-.2-1,1.2-1.5.2-1.5-.3-1.4-.6-1.2.9h-1.5l-1.5.7-1.6-.5-.8-1.6-1.5-.9-1.4.6-1.3-.8-.9-1.2-1.3-.7-.6-1.6-1.3-.7h-1.5l-1.2-.7-1.3-.7-1.3-.6-.8-1.2-1.2-.8-1.2-.8-1.4-.4H1719l-1.3.2-1.8-.5-1.4-1.3-1.8-.7-1.6.9-1.8.2-1.5-1.2-1.7-.5-1.4-1.3-1.7-.4h-1.8l-1.6-1-1.1-1.6-1.4-1.2-1.7-.4-1.2-1.5-1.7-.4-.2-2.2-1.1-2-1.9-1.3-.7-2.2-1.9-1.1h-4.1l-1.9-1-1.3,1.6-2.1.3-1.2,1.6-1.9.7-2.1.8-2.1-1-1.7-1.4-1.7-1.3-1.9,1-1.7,1-2.1-.2h-2l-.4,2.4-.2,2.3-2.1.8-1.7,1.4-2,.3-1.8.9-2-.7-2-.4-.6-2.4-2.1-1.4-2-1-2.2.2-1.4,1.5-1.5,1.6-2.1.4-1.2,2,.3,2.6-1.6,1.7v2.5l1.2,2.1-1.9.3-1.7,1.1-1.5,1.2-1.7,1-1.9.3-2-.6-1.9-.2-1.9.2-1.5-.9-.8-1.6-1.6.2-1.4-1.2-1-1.2-.8-1.4-.8-1.4-1.2-1.1h-1.8l-1.3,1.2-1.6-.7h-1.7l-1.6-1h-1.8l-1.2-1.6-.4-1.9h-2.9l-1.4.4-1.5-.3-1.6-.3-1.5.6-.9,1.3-1.2,1-1.5.4-1.6-.2-.9,1.4-1.3.9-1.4-.6h-1.6l-1.4.3-1.5-.3.8-1.5-.3-1.6v-1.7l.7-1.4.3-1.7-.2-1.8-1-1.5-1.4-1.1-1.6-.5-.8-1.6-.7-1.5-.3-1.6-1.3-1.4h-1.7l-1.4-1.3v-1.8l-1.6.4h-1.6l-1.5-.9-1.6-.4-.6-1.7-1.3-1.2-1.2-1.1-1.2-1.3-.6-1.6v-1.7l.2-1.6v-1.7l-1.2-1.1-1.2-1.2-.8-1.5-.4-1.7,1,.8v1.2l-.4,1V322l-.9.5-.8.6-.7.8V325l-.9.5-.4,1.1-.9.4-1.1-.5-.5.8h-1l-.2,1-.9.5h-.9l-.8-.6-.9-.4-.9.4-.5.9-.9.4-1-.2h-1l-.9.3-.4.9-.5.8-.5.7-.4,1-.9.6-.9-.2h-1.1l-.7-.4-.7-.6h-.8l-.8-.6h-3.3l-.7-.7-.4-.8-.8-.4-.8-.5H1522l-.7-.5h-1.8l-1,.2-.8-.5-.9-.3-.5.8-.8.7h-1l-.9.2-.8-.5-.5-.9-1,.3-.9-.5-1-.2-.6-.9-.6-.7-.5-.8-2.1-.7-2.1.5-2-1.3-2.2.3-2.3-.4-1.6-1.9h-2.1l-2.2-.2-2.4.5-2.2-1.1-2.3.6-1.7,1.8-2.2-.9-1.5-2-2-1.4-2.3-.2-1.4-2-2.2-.9-1.4-2-2.2-.9-1.4-2.1-1.7-1.9.5-2.5-.6-2.5-2.1-.8-1.7-1.7-2.2-.8-1.4-2.1-.4-2.4-1.7-1.8-.6-2.3-1.1-2.1-2.1-1.3-2.4-.2-2.3.4-2.2.3-1.8,1.4-1.4,1.8-.7,2.5-2.3.9-2-1.7-1-2.4-2.3-.5-2-1.4-2.2,1-1.9,1.3h-2.5l-2.2-1.3-1.1-2.1-1.9-1.3-2-1.5-2.2.5-2.1.3-1.8-1.2-1.9-1.4-2.1.7-1.8-1.5-1.6-1.7-1.4-2.2-2.3-.5-1.5,2.1-2.5-.2-2.2.8-2.2-.9-2.5-2.4-3.3-.5-2.9,1.3-3.2-.3-3.3.7-2.3,2.5-3-1.9-3.3-.7-2.9.2-2.9.8h-3l-2.9.7-3.1.8-2.8-2.2h-6l-3.3-1.7-1.7-3.4-3.3-.4-3.3-.8-3.5-.3H1325l-3.2-2.1-1.4-3.7-2.5,2.4h-3.5l-3.2-.4h-3.3l-2.4,2.3h-3.4l-3.2.4-2.7,1.6-1.7,3.5-3.1,2.1-3.7-.3-3.6.4h-3.4l-3.4-.5-3.7-.4-2.8,2.2h-3.7l-2.8-2.7-2.8-2.8h-3.6l-1-4-3.4-2.1-3-2.4-3.5-.9-3.3-1.7-2.8-2.6-1.9-3.4-1.7-3.5.5-3.9-2.5-3.2-1.5-3.5-.4-3.7-3.4,1.3-3.6-1.3-3.5.8-3.6-.8-3.1-2.4-1.7-3.7-2.9-3-3.9-.3-1.7.6h-1.9l-1.8-.4-1.8-.9-1.8.6-1,1.7-1.8.3-1.6.8-1.4,1.4-2,.6-2-.3-1.8-1.1-1.9-.5-1.2-1.7-1.6-1.2-1.9-.2-1.9-1-1.9-.7-1.3-1.8-1-2-2-.3-1.8-1.2-2.1-.4-1.8,1.1-1.8-1.7v-2.5l.3-2.3,1-2-2-1.3-2.3-.2-.3-2.5-1.5-1.9-.9,1.7-1.1,1.7-.8,1.7-1.4,1.4-1.9.5-1.2,1.5-1.8.8-1.6.8-1.8-1.3-2-.2h-2.1l-1.5,1.5h-2.2l-1.4-1.8-2-.5-1.8,1-2-.3-2-.6-1.9-1.2-.5-2.3L1127,212l-2.2-.5.2-2.2-1.2-2-1.9-.2-1.9-.6-1.5-1.4-1.7-1.2-1.8.8-1.6,1.2-2.1.3-1.8-1.3,7.8.6,7.7,2.2,6.6-4.1,6.1-4.8,5.1-6,7.4-2.1,7.6-.2,7.5.2,8.2,4,8.7,2,.6,9.9,6.4,7.6,8,1,7.7,3,8.3.8,7.3-3.7,5.2-5.8.9-8.2,7.1-1.9,6.2-3.9,4.7-5.7,7.1-1.5,6.4-3.2,3.7-6.4-1.5-8.8,4.3-7.2,3.6-7.6,7.5-3.1,7.8,1.1,6.6-4.2,4.6-6.8,8.1-.4,7.5-.3,7.6.4,6.2,5.4,7.7,2.2,5.7,5.5,6.6,4.4,7.3,2.2,7,3.3,8.6,1.2,8.5-1.4,4.3,9.3,8.9,3.5,8-4.9,2.2-9.7,9,2.5,8.6-2.5,2.4-7.7,3.6-7,1.2-8.1,3.3-7.2,3.8-7.1,1.4-8.2,5-6,4.3-6.6,3.7-8.9,9-2.2,3.9-7.8,5.6-6.5,8.1,3.9,8.7.6,9.1,3.7,7.8-5.3,6.4,2.9,6.7-.7,3.7-6.4,7.1-.8,2.5-6.6,6.4-2.1,5.2-3.5,5.8-2,6.2,3.1,4.6,5.4,6.6.8,6.4-.5,6.7,1.3,5.9,3.9,3.7,6.1,3.3,6.3,5.8-1.2,4.1-4.2,5.6,3.6,5.8-2.4,5.8-1.5,3-5.3,4.9-3h5.7l4.4-3.7,4.4-3.7,6.3.4,4.1-4.9,6.1.5,5.3,3.5,5.5-2.3,6,.9,6.8,2.3,5.8,4.5,5.5-4,6.7-1.7,6.6.3,6.5,2.3,3.6,6.2,5.5,4.6,5.1-5.5,7.1-1.8,7.8-.2,6,5.8,4.5-5.9-.5-8,6.2-3,5.2-4.7,3.3-4.6,3.4-4.6,3.7-4.5,5.3-2.2,4.2-3.7,3.2-4.8,3.9-4.2,5.3-2.1,4-4.5,5.7-1.8,5-4.1,6.4,1.9,2.7-5.9,6-1.8,2.1-5.7,3.5-4.9,2.1,2.2,1.4,2.7,2.3,2L1832,8l3.1,1.3,2.8-1.8,2.3,2,2.5,1.9,2.8.3,2.7.7,2.6,1.2,2.7,1,2.4,2.4.5,3.4h3.1l2.7,2,.5,3.2.6,3.2,3.3.8,1.8,3,1.7,2.7,2.2,2.1,2.1,2.6h3.2l2.7,1.1,2.5,1.6,1.6,2.7,2.3,2,1.6,3.4,3.4.9h3l2.9-1,3-.9,3.1.6h6.1l3.3-.5,1.8-2.9,2.7-2,3.3.8,2.6-2.6,1.7-3.3,3.4-1,3.5-.4,1.4-3.5L1932,31l.3-3.6.7-3.5,2.2-2.1,2.5-1.8,2.7-1.4,2.9-.9,2.3,2.7,3.2,1.5,3-1.9,3.4,1.4,2.8.9h2.9l2.6,1.5,2.9.4,2.7-1.5,2.9,1.5,2.8,1.8,2.9-1,2.6,2.5,3.3,1.4,1.2,3.5,2.3,2.9-.7,3.5,1.3,3.4-1,3.4.5,3.5-.6,3.2-1.7,2.6-.7,3.2-2,2.3.4,3.6.9,3.5-2.9,1.8-1.4,3.3-.8,3.1-.2,3.3,2,2.6,1.2,3.2v3.4l2.4,2.5-.9,3,.3,3.3.8,3.4-.7,3.3-3.3.9-1.4,3.3,1,3.2-.7,3.2-2,2.3-.7,3.1,3.4,1.2,1.4,3.5,2,3-.5,3.6v3.4l2,2.7,2.6,2.1,1,3.3-.6,3.2-1.9,2.5-1.8,2.7v3.4l.3,3.5,1.8,3.1-1.9,2.7-.3,3.5,2.4,2.8,1.5,3.4.5,3.9-1.8,3.1,2.2,2.9,3.4.5,1.3,3.5,3.4,1.3.2,3.5,2,2.9.7,3.5,2.3,2.5.7,3.7.3,3.7-2.6,2.4-2.3,2.5,1.9,2.7-.4,3.2-1.4,2.5-1.1,2.6-.2,2.9,1,2.7,2.2,2.2V235l-2.1,1.4-1.2,2.5-2.2,1.2-1.7,2.1-2.5,1-2.8.3-2.2,2.1-.2,3.1.6,2.7-1,2.3-.2,2.6,1,2.5,1,2.7-.9,2.7,2,1.8,1.7,2.1-.3,2.6-1,2.2-.5,2.6.2,2.6,1.5,2.2.9,2.4v2.7l1.3,2.3v2.9l.4,2.9.7,3.1,2.6,1.7,2.5,1,2.6.8,2.4,1.6,1.5,2.5,2.7,1.5,1,3.1,2.4,1.5,2,2.1.9,3.1-1.4,2.6-.4,2.9.4,2.9,1.6,2.4-.2,2.9-.5,2.8,1.4,2.6L2013,337l-.2,2.7.2,2.8-.8,2.6-1.6,1.8-1.4,2.2-2.3,1.5-.2,2.9-1.2,2.2-1.1,2.4-.3,2.7-1.3,2.2h0" style="fill:#e9f2d4"/><path id="path31446" d="M1985.4,544.7l-2.1-.5h-2.1l-2.1-.8-2.2.3-2.3-.8-2.4.6-1.6,1.6-1.6,1.6-2-1.2-2.3.6-2-.9-1.2-1.8-2.1.5-2.2-.2-1.9-1-2-.8-1.8-1.1-1.9-1.2-.5-2-.4-2-.9-1.9-1.1-1.8h-2.4l-2-1.2-2.1-1-2.4.4-1.3-1.7-.9-1.9-1.9-1.2-1.1-1.8h-2.3l-2.2-.3-2.3.7h-2.4l-1.8-1.4-2-1.3-1.7-1.6-2.5.3-1.2-2-2.2-.7-2.6.5-2,1.5-1.9-1.7-2.6-.5-1.8,1.3-1.6,1.5-2.6-.3-1.8,1.5-1.3-1.7v-2.1l-1.6-1.4-1.7-1.4-1.1-1.7-.4-2-1.3-1.6-.9-1.8-2.1-.6-1.3-1.7-1.5-1.7-2.3-.2-1.9-.9-1.7-1.3-1.5-1.4-2.1-.6h-1.2l-1.2.4h-1.2l-.8-1-1-.5-.5-1-1-.5-.4-1.1-1.1-.4-1.1.4-.9-.6-.9-.7-1.1-.3-1.1.2-1.1-.2-1,.7-1.1-.5-.7-.8-.8-.9-1.1-.4-1.1-.7h-1.4l-1.2.4-1,.8h-2.4l-1.2.5-1.2-.6-.2,1.2-.8.9-1,.7-1.1.6-1-1.1-1.4-.4-1.4.4-1.3.5-.5,1.2-.9,1-1.3.4-1.3.4h-2.5l-.9-.9-1.3-.2-1-.7-.6-1-1.1-.5-.9-.9-1.1-.6v-1.3l.4-1.1-.2-1.1-1.2-.4-.5-1.1-.4-1.1v-1.1l-.7-1-.2-1.1-.9-.8-.8-.9-1.3.3h-1.4l-.6-1.2-1.4-.3-.9-.8-.5-1.1-.7-.9-.3-1-1.2-.6-1-.6.2-1.3-.6-1.1-1.3-.2-1-.8-1.2-.6-.4-1.1-1-.8-1.1-.7-1.4-.3-1.2.7-.7-1.1.3-1.3-.4-1.3.8-1,.8-1.1-.5-1.3.8-1v-1.2l-.2-1.3-.6-1.2-1.4-.4-.9-1-.6-1.1-1-1-1.5.4-1.2-.9-1.4.2-1.3-.7-1.3.4-.9,1-1.2-.6-1-.7-1.3.4-1.3-.5-1-.8-.8-.9h-1.4l-1.1-.6-1.4-.2-1.1-.9.2-1.3-.8-1.2h-1.3l-.8-1.1v-1.1l-.7-1,.3-1.2-.7-1-1.1-.6-.7-.9-.6-.9-.8-.9v-1.1l-.5-1-.6-1-.9-.8-1-.6-1.2-.4-1.1-1-.5-1.3-1.1-1.2h-1.6l-1.5-.5-.7-1.4-1-1-.5-1.3-1.2-1-1.3-.7-.8-1.3-.2-1.4-.5-1.3-1.1-.9-.2-1.5-1.3-.9.9-1.4v-1.7l-.9-1.6.5-1.7-1-1.4-1.6-.8-1.6-.7-1.1-1.4-1.7.5-1.7-.6-1.7.6-1.8-.4-1.9-.3-1.2-1.4-.7-1.5-.8-1.5-1.8-.2h-1.8l-1.5-.9-1.7-.7-1.3,1.3-1.2,1.4-1.9-.3-2,.2-1.7-.6h-1.8l-1.2-1.2-1.4-1,.6-1.8-1-1.7-1.1-1.4-1.8-.7-1.8.4-1.7.4-1.9-.6-1.8.8-.9,1.8-2.1.5-1,1.5v1.9l-1.7-.6h-1.7l-1.7.2h-1.8l-1.6-.5-1.2-1.2-1.5-.9-1.6-.6-.6-1.1v-1.3l-1.3-.5-.5-1.3-.3-1.2v-2.4l-.5-1.2-1.3-.7-1.5.2-.9-1-1.3-.7-.8-1.3-1.4-.8-.2-1.4.6-1.4-1.1-.6-1.2-.5-1.3-.3-1-.8-1.1-.8-1.4-.2-1.3.5h-1.4l-1.3-.3-1.2-.7-1.2.5h-1.5l-.8-1-1.2-.5-1.3-.4-1-.8,1.3-.6.5-1.2.8-1,1.1-.7,1-1,.7-1.2-.2-1.3-.5-1.3-1.1-.9.2-1.3v-1.3l.5-1.1-.5-1.4-1.4-.6-.4-1.3.9-1.2-1.5-.3-1.2-.7-.7-1.1-1-1,.2-1.3-.5-1.2-.4-1.2-.3-1.3.2-1.3.8-1,.9-.9.7-1.1-.5-1.2-.3-1.2V342l.5-1.2.4.8-.5.9-.8.4-.6.7h-1.8l-.8.2-.6.7h-1l-.7.6h-.9l-.6-.8-.8.3-.8-.2-.6.5h-.9l-.7-.4-.4-.7-.5-.6h-.8l-.8.4h-.9l-.7-.5-.7-.4-.8-.3-.8.5-.7.3-.7.3-.8.5h-.9l-.7-.5-.7-.5-.4-.5-.3-.7-.6-.4-.3-.6-.6-.4-.6-.3-.7-.3-.6-.4-.2-.7v-.7l-.4-.6-.4-.6-.6-.3-.6-.4-.4-.6-.6-.4-.7-.5-.8-.2-.5-.6-.5-.6-.8.4h-.9l-.7-.4-.8-.2-.5-.7v-.8h-.9l-.5-.7-.7-.5v-2.2l-1.3-1.3-1.8-.5-1-1.6-1.8-.7-1.6-1.1-.4-1.8-1.6-.9-1.6-.9-2-.6-1.3-1.6-2.1-.5-2,.5-1.4-1.4-.3-1.9-.9-1.7-1.7-1v-1.9l-1.3-1.4-.3-1.8-1.2-1.4-.2-1.9-.4-1.8,1.5-1.4.6-1.9-1.3-1.3-.5-1.8-1.4-1.3V291l.7-1.7-.5-1.8.6-1.7V284l-1-1.6-1.8-1-1.9-.7-1.9-.7-2,.3-1.8.6-1.7,1.2-2.2-.3-.8-1.8.3-1.9-1.6-1.2-.9-1.8-2.1-.2h-2.1l-1.9-.9-1.1-1.7v-1.8l-.9-1.5-.8-1.7-1.9-.6-1.8-.6-.9-1.5-.8-1.6-1.9-.4-.8-1.6-.5-1.7v-2l-1.5-1.2-2.1.7-1.8-1-2.1-.4-1.3-1.4-.9-2.6L1546,250l-2.8-.3-2.3-1.5-2.9-.8-2.9.7-1.4-2.4-2.3-1.7-2.4-1-2.5-.6-2.3-1.2-2.6-.7-2.8-.7-1.2-2.5-2.2-1.2-2.3-1.3-1.8-2.3.2-2.9-2.4-1.5-2.2-1.8-2.5-1.5-2.6-1.5-1.6-2.5.5-3-3,.6-2.6-1.4-2.3-1.5-2.6-1.2-2.9.5-2.6-1.3-2.6-1h-2.9l-2.8,1.5-3.3.2-2.7-1.7-3-1.1-2.7-1.4-2.4-1.6-2.7-1.7-3.1.3-2.8-1.4-1-2.8-.9-2.9-2.9-1.4,1.1-3-1.7-2.6-1.3-2.7-2.2-2-1.9-2.3-1-2.8v-2.9l.3-2.8,2.1-2.4-.4-3,.3-2.7,1.4-2.6-3.3-.5-2.2-2.2-3-.8-2.4-1.9-1.4-2.8.3-3-.8-3.1-2.9-1.7-1.6-.3-1.5-.6-1.2-1-1-1.2-1.7-.3-1.5.6-1.5-.5h-1.6l-1.8.3-1.7-.3-1.4-1-.9-1.4-1.3-1.1-.2-1.5-.7-1.4-1.4-.9-.9-1.4-1.3-1.2-.2-1.6.2-1.7-1.5-.9-.8-1.5-1.5-1.1h-1.8l-.7-1.8,1.1-1.6,1.2-1.4,1.7-.8-1-1.7-1.7-1,.9-1.6-.4-1.9-1.4.8-1.5.6-1.5.8-1.6.4-1.7-.5-1.7.5-1.6-.2h-1.7l-.8-1.5-1.4-.9-1.6-.9-1.8.3-1.7-.7-.4-1.7-1.3-1.1h-1.8l-1.4-.9-1.3-1.2-.9-1.5.5-1.7v-1.8l-1.5-1.1,1.3-1.3v-1.7l-1.4-1-1.2-1.1-.5-1.5-.8-1.3-1.7-.3-1.8.2-1.8-.6-.8-1.6,5.8,3.4,5,4.5h6.8l6.9-.7,6.6-1.8,6.7,1.6,5.9,2.8,5.7,3.1,4.5,5.7,5.9,4.6-3.9,6.5,1.5,7.4,5.8,3.7,4.6,5,6.1,3.7,7.2.5,6.6-1.7,4.3-4.9,6.4,1.6h6.6l6.1-1.8,6.1,1.8,6.4.5,5.7-2.6,2.7-6.2,6.6-2.9,6.2-3.4,7.1.9,5.6,3.8h6.8l6.6-2.6,6.5,2.9,5.9,2.7,5.7,3.2,2.4,5.9,5,4.4,2,5.7,3.1,5.4,4.6,4.3,4,4.8,6.1,4.1,7.2,2.4-.8,7.5,5.3,5.8h8.4l6-5.3,5.8,5.1,7.8,1.7,5.2-3.9,6-3.1,4.4-4.7,5.8-3.3,6.1-3,4.7-4.6,6.5-2,6.3-2.5,6.8-4.3,7.9,2.2,6.5-3.5,7.2-1.9,4.5,5.7,6.5,3.7,5.4,5.9,8.4-.4,3.6,4.4,5.5,2.1,5.7-2.6,5.8,2.3,4.9-3.2,5.9,1.1,5.5-.2,5.4,1,3.4,4.4,1.2,5.2,4.7,3.1,5.2,2.2,4.6,3.5,2.9,4.7v5.3l-.2,5.4,4.9,1.4,5.1-1.1,2.8,4.5,5.5.7,5.1,1.3,4.7-2.1h5.1l4.4,2.3,5-.7,5.1-.6,4.7,2.7,5.3-1.5,4.5,2.6,2.6,4.3,5.2.7,4.3,2.9,4.2,4.2,2.4,5.1,6.1-.4,5.9,1.5,5.1,2.7,3.9,4v5.4l2.2,5.1,6.3-1.6,6.3,1.7,6.1,2.9,2.1,6,6.1-2,3.1-5.3,6.2.5,6-.9,4.6-1.7,4.7-1.6,4.9-1.4,5,.7,5-.8,4.6-1.8,4.9-1.1,5,.7,5.1-1.3,5.1,1.1,5.7-.6,4.1,3.6,4.8-2.7,5.4,1.3,4.1-2.9,4.9-1.8.6,2.3v2.3l.9,2.1,1.6,1.8,1.9,2h2.9l.9,2.2,1.1,2.2,2,1.3,1.8,1.5,1.5,1.7,1.6,1.7.8,2.5-1.1,2.3,2.4,1.3,1.1,2.3-1,2.2-.9,2.3,2.1,1.8v4.9l.7,2.3.6,2.5,2.4,1.2,1.6,1.7,1.3,2v2.4l.9,2.2-.3,2.7,2.2,1.9,2.5,1.1,2.6.5,2.7.6,2.2,1.6,2.3,1.2,2.5,1.1,2.7.9,2.7-1.1,3-.2,2.2,1.7,3.1-.6,2.8-1.5,3.1.7,2.9,1.2,2.6-1.7.5-3,1.8-2.1,2.1-2,2.7-.5h5.4l2.6.6.6,2.6,1.8,2.2h3.1l2.1,2.2,1.8,1.6,2.2,1.1,1.4,2,2,1.3,2.8.2,1.6,2.1,1.3,2.2,2.7.5.9,2.6,1.9,2.1-.6,2.7.5,2.8-2.1,1.9-.5,2.7-2.3,1.8-1.2,2.4-1.9,1.8-2.4,1-2,1.7-2.6.8-1.3,2.4-.8,2.6h-3l-2.5,1.7-2.1,1.6-1.6,2,.4,2.5-.5,2.4-1.6,2.2.8,2.6-2.1,1.5-1.2,2.2-.9,2.4-2,1.9-2.9-.7-2.6,1.5-.6,2.5-2,1.7-2.5.7-2,1.7,2.1,2.1-.5,2.7.2,2.8-2,2-1.4,2.2.4,2.6,1.1,2.3-.8,2.5-1.9,1.8-2.5.8-2.6,1.1-1.4,2.1-1.4,2.4v2.7l-2.7,1-1.8,2.1.6,2.7-.4,2.7-1.3,2.7-2.8,1.3.5,2.7,2.4,1.6-.5,2.8,1.9,2.1-1.3,2.3.2,2.6-1,2.5.7,2.6-1.1,2.6-1.4,2.4-3,.5-3,.8.3,2.4-1.7,1.9-2.2,1-2,1.3-1.4,1.7-.5,2.1.7,2.3-1.4,1.9h-2.3l-2,1.1h-2.3l-2.1.7-2.5-.4-2.3-.8-2.6.4-1.5,2-.7,1.9-1.9,1.1-1.3,1.5-.3,2-.5,2.1-1.8,1.4.7,1.9.4,2-1.4,1.5-1.8,1.1-1.4,1.4-1,1.7v2l-.4,1.9-1,1.8v2l-1.2,1.8-.9,2-.9,2.3,1.2,2.1,1.5,1.6,1.7,1.5,1.1,2v2.2l1.4,2-.6,2.3,1.2,1.9.6,2.1-.7,2.3-2.2,1.2-1.6,1.6-1,2,.2,2.2-1.5,1.7-1.6,1.6V531l-1.9,1.1-1.4,1.7-1,1.8-1.8,1.3-2.1.6-2,.8h-2.4l-1.5,1.8-1.9.9-1.8,1.1-1.5,1.6-2,.9h0" style="fill:#e9f2d4"/></g></g></g></svg>