<svg xmlns="http://www.w3.org/2000/svg" viewBox="0 0 842.5 1276.4"><g id="Livello_2" data-name="Livello 2"><g id="Livello_1-2" data-name="Livello 1"><path id="path3288" d="M200.4,516.7c-2.6-21.2,17-32.8,30.4-45,.5-.4,6.5-3.8,6.4-3.9s-.5,5.7-3.4,9c-6.8,7.9,3,1.9,1.1,7.7-1.1,3.6-6.7,7.1-4,8.7s3.4,3.6-1.3,6.8c-.3.2,2.6,2.1,1.5,5.5s-6.5,4.2-6.9,6.1,4.5-.2,4,2.7-9,6.4-8.7,7.3c.7,2.5,14.2,2.6,16.2,2.4s7.9-3.5,9.5-2.6-15,25.5-20,22.7c-.9-.5-3-5.4-3.9-6.4-4-4.4-12.2-1.5-17.3-4.3s-8.5-7.3-12.4-11.6c-.9-1-.3-3.5-1.2-4.5-3.1-3.4-9.2-3.9-9.1-3.9,6.2-5.6,19.6-7.4,19.1,3.3Z" style="fill:#545856"/><path id="path117690" d="M446.7,786.6c-1.5.7,9.8,14.5,18.9,40.1,1.2,3.3,2.3,6.9,3.4,10.5-.9.7.5,4.8,2.9,11.1s2.9,13.9,3.9,21.8a310.7,310.7,0,0,1,2.7,45.1,161.8,161.8,0,0,0-14.3-19.6c2.7-3,4.9-4.4,4.5-5s-3.1-.1-7,2.2c-2.9-3.2-5.8-6.3-8.9-9.2-2.2-6.3-3.7-10-4.5-9.8s-.8,1.9-.5,5.3a106.4,106.4,0,0,0-15.3-10.4l-3.8-6.5c-14-23.5-23-38.3-25.3-37.7s2.5,15.1,12.5,36.8l-3.2-1c-1-1.9-1.9-3.7-2.9-5.4a82.2,82.2,0,0,0-8.9-13.6,32.3,32.3,0,0,0-4.9-4.9c-2.8-2.2-5-2.3-5.4-1.8s.8,1.7,2.1,3.7,1.6,2.9,2.7,5.3c1.9,4.1,3.3,7.7,5.5,13.8,1.5,4,3,8.2,4.5,13.1.5,1.3.9,2.7,1.4,4.2l.3,1.2a1,1,0,0,1,.1.3c0-.1,0,0,.1.3,4.3,11.9,9.6,26.7,14.7,42.3l-2.5,4.4c-1.2-.8-2.5-1.8-3.7-2.5-3.6-2.3-7-4.3-10-5.9s-3.4-6-5.1-8.9c.6-4,1.2-7,1.9-10s.9-3.2,1.3-4.6,1.3-3.1,1.1-3.3-2.1,0-4.1,2.1a25,25,0,0,0-3.2,4.5,31.8,31.8,0,0,0-1.8,3.7l-3.3-4.9c1.1-7.4,1.3-12.2.3-12.3s-2.3,2.3-4.2,6.7c-5.4-7.4-10.7-14.1-15.9-19.9-14.2-15.9-25.4-24.2-27-23.2s6.5,11,18.2,27.6c2.8,4,5.7,8.3,8.6,12.8.8,2.7,1.6,5.5,2.6,8.7s3.3,10.2,5.1,15.7c-.7,1.7-1.2,3.2-1.9,5s-.5,1.4-.7,2.1c-1.9-3.9-3.7-7.8-5.6-11.5A223.8,223.8,0,0,0,355,876.9a117.2,117.2,0,0,0-7.6-9.7c2.5-8,4.6-12.5,3.8-12.7s-3.6,2.9-7,9.1a81.3,81.3,0,0,0-8.1-7.6,50.9,50.9,0,0,0-10.1-6.6c-6.2-3-10.3-2.8-10.6-2.2s2.8,2.2,7.1,5.7a60.8,60.8,0,0,1,7.4,7.2,110.1,110.1,0,0,1,9.8,13,109.4,109.4,0,0,0-4.8,15.2,142.9,142.9,0,0,0-3.7,28l-5.7-1.1c-20.3-3.1-32.3-1.3-32.5.3s12.4,2.7,29.9,7.4l6.1,1.8a173.7,173.7,0,0,0-5.6,35.7c-1.9-7.1-3.8-13.5-6-19.5-.1-.2-.1-.3-.2-.4,3.9-3.5,6.3-5.5,5.8-6.1s-3.2.1-7.4,1.9c-3.8-9.6-7.3-15.1-8.7-14.7s-.4,7.4,1.6,18.5A80.7,80.7,0,0,0,294.3,951a74.1,74.1,0,0,0-12.3-9.9,17.9,17.9,0,0,0-3.2-1.9c1.1-3.5,2.2-6.9,3-9.6,2-6.3,3.4-11.1,4.5-15.6,1.8-7.6,1.9-12,.5-12.2s-3.1,3.7-6.7,10.8c-1.8,3.6-4.6,9.3-7.1,14.8-1.1,2.5-2.3,5.1-3.5,8-2.4-.6-3.9-.6-4.2-.1s1,1.3,3,2.9l-2.1,5.5a116.7,116.7,0,0,0-3.9,12.2c-.2-3.4-.4-6.9-.5-10.2-.8-17.2-1.4-29.1-2.8-40.1s-2.8-15.8-4.1-15.7-2.3,5.9-3.1,15.8-1.6,24.9-1.6,40.2c-.1,3.4,0,7,.1,10.6-4.6-10.2-9.3-19.3-13.8-27.2-11-19.1-19.9-29.7-21.2-29.1s5,12,13.9,31.4a464.8,464.8,0,0,1,20.7,53.8h-.1a197.6,197.6,0,0,0-26-33.6c-8-8.3-15.1-13.7-21.4-17.3s-10-4.5-10.5-3.8,2.2,2.9,6.8,7.1a174.7,174.7,0,0,1,17.1,18.4A298.9,298.9,0,0,1,239,989.6l3.8,6.5q-3.6-5.2-7.5-10.5a156.4,156.4,0,0,0-14.7-17,65,65,0,0,0-15.7-12,30.1,30.1,0,0,0-8.2-3.1,21.3,21.3,0,0,0-8.3-.4,19.2,19.2,0,0,0-7.6,2.9c-5.1,3.4-5.9,6.2-5.4,6.5s2.8-2,7.6-4a18.2,18.2,0,0,1,6.1-1.4,20.4,20.4,0,0,1,5.7.9,30.5,30.5,0,0,1,6,3c4.6,3,8.4,6.7,12.9,11.7a177.3,177.3,0,0,1,12.9,16.9c6.3,9.3,11.8,18.6,18,29.4a114,114,0,0,0-18.3-12.7,90.9,90.9,0,0,0-29.4-24.1c-10.4-5.2-17.9-6.3-18.6-5.2s5.2,4.5,13.3,10.6c3.1,2.3,6.2,4.9,9.4,7.7-7.3-2.1-12.1-2.5-12.6-1.6s6.1,4.5,16.2,10.2c3.3,1.9,6.8,4,10.5,6.4l3.4,4.4v.2a155.7,155.7,0,0,1,17.6,32.1c3.7,8.7,5.8,14.2,7.4,14.1s2.7-6.1,1-15.6a79.4,79.4,0,0,0-4.7-16.3h0a137,137,0,0,1,25.7,31.4c5.1,8.8,7.4,14.7,9.1,14.5s1.9-3.9.8-10.1l.7-.7a1.9,1.9,0,0,0,.2.7,16.2,16.2,0,0,0,3.2,6.6c1.3,1.3,2.4,1.7,2.8,1.5s-.2-2.8-.4-7.6c.7.2,1.3.2,1.5,0s-.5-3.2-1-7.7v-1.1l4.3-5.3c1.4,10.1,3.6,16.3,5.2,16.2s2.6-6.6,3.4-17.1c.2-2.7.5-6.3.7-9.4l3.5-3.4c-.1,5.5-.1,10.5,0,14.1.2,7.5.8,12.3,2.5,12.5s4.1-4.4,6.1-11.9a114.5,114.5,0,0,0,3.1-17.4l6.7,11.8c1.1,1.9,2.1,3.6,3.2,5.2s.9,4.4,1.3,6.3c1,4.5,1.6,7.2,2.7,7.3s1.9-1.5,2.7-4.3c1.6,1.8,2.9,2.7,3.7,2.4s.6-6.1-2.4-14.8a60.6,60.6,0,0,0-1.1-10.6,101.3,101.3,0,0,0-2.4-9.9l1.2,3.8a129.5,129.5,0,0,1,4.3,16.3c1.5,7.8,1.5,12.6,2.6,12.8s2.1-1.5,3.1-4.8c1.7,4.6,3.2,7.2,4,7.1s1.2-2.9,1-7.7a18.2,18.2,0,0,0,1.1-3.9c3.2,9.6,6.7,14.9,8,14.6s.3-5.2-.8-13.4a77.2,77.2,0,0,0,1.7-8.2,45.2,45.2,0,0,0,1,9.7c1.1,5.3,2.9,8.1,4,8s1.3-3.2,2-8.2a102.1,102.1,0,0,1,3.3-16.6c2.2,3.3,4.2,6.5,5.9,9.6s2.2,4.9,3.4,7.4c0-10.4-2.1-20.1-4.6-30h-.1c1.4-3.4,3-6.8,4.8-10.3a289.6,289.6,0,0,0,8.8,32.5c3.4,9.7,6,15.2,7.3,15s.9-3.1.4-8c2.1,4.9,3.9,7.5,4.8,7.3s.3-6.9-.9-17.9c1.2-2.4,2.6-5.1,4.7-9l.6-1a27.2,27.2,0,0,0,.4,3c2.1,16.1,5.7,25.7,7.4,25.5s1.1-10,1.2-25.8c0-2,.1-4.2.1-6.4,2,4.8,3.7,9.1,5.1,11.7,2.3,12.5,5.3,20.1,6.9,19.9a.5.5,0,0,0,.5-.4c.4,1.5.8,2.3,1.3,2.3,2,.1,4.3-14,7.8-35.7,1.6,8.3,3,14.2,4.3,14.2s4-12,2.7-31.5c-.1-1.1-.2-2.4-.3-3.6l.9,1c3.5,4.4,5.9,7.4,7.8,10.1,1.2,13.2,1.6,21.4,3.3,21.5s2.6-3.3,3.9-9.4c.6,5.9,1.4,9.4,2.5,9.4s3.3-6.9,5-18.9a326.6,326.6,0,0,0,2.7-40.1c3,4,5.7,7.8,8.1,11.5v.2c-.6,12.1-.8,24,1.7,36.4.9-3.1,1.6-6.2,2.3-9.3a118.2,118.2,0,0,1,4.7-12.3,131.1,131.1,0,0,1,7.9,19.2c2,6,3.1,9.5,4.4,9.5s2.7-3.6,2.8-10.1a51.6,51.6,0,0,0-1.2-11.7c1.5,3.7,2.8,7,4.1,9.5.7,9.9.9,16,2.3,16.1s4.4-6.7,6-18.6a18.9,18.9,0,0,0,2.2,4.5c.9,5.7,1.9,9,3,9s2.1-3.3,3-9.1c2,3.8,4,5.7,5,5.4s.1-6.2,0-15.8a152.3,152.3,0,0,1,1.1-20l.6-4.7a100.4,100.4,0,0,0-.5,12.1,81,81,0,0,0,1.2,12.9c-1.4,10.8-1.3,17.6.8,18s2.2-1.1,3.7-3.4c1.7,3.2,3.3,4.8,4.3,4.6s1.4-3.5,1.4-9.1c0-2.3.1-4.9.1-7.6s1.7-4.3,2.6-6.7c1.6-4.6,3.3-9.7,5.1-15a171,171,0,0,0,7.9,20.2c4.2,8.7,8.2,13.6,10.1,13.2s1.6-6.3,0-15.3c-.7-4.2-1.9-10.2-3.3-16.7l4.9,3.5c1,3.7,2.1,7.9,3,11.1,3.5,12.4,6.2,20.1,8.2,19.9s3.1-7.9,2.4-20.2l6.4,5.8a5,5,0,0,0,.2,1.2c.5,5.5-.7,8.7.6,9.4s1,.1,1.9-.3c.8,5.8.3,8.8,1.3,9.2s1.7-.5,2.9-2.3a16.5,16.5,0,0,0,2.1-6.5c.6.8,1.1,1.4,1.5,1.4.5,5.4,1.8,8.6,3.1,8.6s3.4-7.4,7.4-18.6l1.9-4.6a145.4,145.4,0,0,1,9.7,14.3c5.1,8.8,7.5,14.7,9.1,14.5s2-3.9.8-10.1l.7-.7c.1.2.1.5.2.7a15.1,15.1,0,0,0,3.3,6.6c1.2,1.3,2.3,1.7,2.7,1.5s-.2-2.8-.4-7.6a2.1,2.1,0,0,0,1.6,0c.9-.7-.6-3.2-1.1-7.7v-1.1l4.3-5.3c1.4,10.1,3.6,16.3,5.2,16.2s2.7-6.6,3.5-17.1c.2-2.7.4-6.3.6-9.4l3.5-3.4c-.1,5.5-.1,10.5,0,14.1.2,7.5.8,12.3,2.5,12.5s4.1-4.3,6.1-11.9a114.5,114.5,0,0,0,3.1-17.4l6.7,11.8c1.1,1.9,2.2,3.6,3.2,5.2l1.4,6.3c.9,4.5,1.5,7.2,2.6,7.3s1.9-1.5,2.7-4.3c1.7,1.8,2.9,2.7,3.7,2.4s.6-6.1-2.3-14.8a73.2,73.2,0,0,0-1.2-10.6,101.3,101.3,0,0,0-2.4-9.9l1.2,3.8a134.1,134.1,0,0,1,4.3,16.3c1.5,7.8,1.5,12.7,2.6,12.8s2.2-1.5,3.2-4.8c1.7,4.6,3.1,7.2,4,7.1s1.1-2.9.9-7.7a12.1,12.1,0,0,0,1.1-3.9c3.3,9.6,6.7,14.9,8,14.6s.3-5.2-.8-13.4a77.2,77.2,0,0,0,1.7-8.2,45.2,45.2,0,0,0,1,9.7c1.2,5.3,2.9,8.1,4,8s1.4-3.2,2-8.2a114.2,114.2,0,0,1,3.3-16.6c2.2,3.3,4.2,6.5,5.9,9.6s2.2,4.9,3.4,7.4c0-10.4-2.1-20.1-4.6-30h0a103.4,103.4,0,0,1,4.7-10.3,267.1,267.1,0,0,0,8.9,32.5c3.3,9.7,5.9,15.2,7.2,15s.9-3.1.4-8c2.1,4.9,3.9,7.5,4.8,7.3s.3-6.9-.9-17.8c1.2-2.5,2.6-5.2,4.8-9.1a4.7,4.7,0,0,0,.5-1c.2,1,.3,2.1.4,3,2.1,16.1,5.8,25.7,7.4,25.5s1.1-10,1.2-25.8c.1-5.5.2-11.6.6-18.1l1.8-2.6a167,167,0,0,0,2.5,24.4c2.3,13.6,5.6,21.7,7.3,21.5.1,0,.3-.1.4-.4.4,1.5.8,2.3,1.3,2.3,2,.1,4.4-14,7.8-35.8,2-12.8,4.5-28.8,7.6-45.7,2.7-2.9,5.4-5.7,8.2-8.3a83.4,83.4,0,0,1,8.2-6.9c8.6-6,15.6-10.1,23-13.2,13.6-5.7,23.8-7.9,23.3-9.2s-10.5-1.5-26.6,3.1a109.5,109.5,0,0,0-26.9,12.6,58.1,58.1,0,0,0-5.7,4c1.3-6.2,2.6-12.3,4.1-18.1a241.2,241.2,0,0,1,7.2-24.4,101.6,101.6,0,0,1,8.6-18.8,43.6,43.6,0,0,1,4.8-6.6c3-3.3,5.3-4.8,4.9-5.4s-3.7-.2-8.3,2.9a44.8,44.8,0,0,0-7.2,6.4,79.4,79.4,0,0,0-12,19.1,159.9,159.9,0,0,0-9.3,24.9,264.9,264.9,0,0,0-6.8,27.9,4.3,4.3,0,0,0-.2,1.1c-.4,1.8-.7,3.5-1,5.2l-1.5,1.7c1.7-17.4,3.8-33.1,5-44.9.3-2.7.5-5.1.7-7.3,1.7-4.1,3.4-7.9,5-11.4,6.8-14.8,11.8-23.9,10.3-24.5s-9.2,7.3-18.2,21.8a192.5,192.5,0,0,0-19.4,41.8c-2.2,1.6-4.6,3.6-7.2,5.8s-4.1,3.7-6.2,5.8c1.8-15.7,4.1-31,5.9-42.8v-.6a3.1,3.1,0,0,0,.1-1c.2-1.2.3-2.4.4-3.6.5-4.1,1-7.7,1.6-11.1.8-5.2,1.4-8.4,2.2-11.9s.9-3.2,1.4-4.6,1.2-3.1,1-3.3-2.1,0-4,2.1a21,21,0,0,0-3.3,4.5,74.4,74.4,0,0,0-5.1,12c-.4,1.5-.9,3.1-1.4,4.7l-2.5,1.2c4.6-18.8,6-31.2,4.2-31.4s-6.9,12.8-14.5,33.4l-2,5.8a71.7,71.7,0,0,0-10.8,10.1c-.4-2.8-.8-4.4-1.3-4.4s-1.3,3.2-2.1,8.6a116.2,116.2,0,0,0-15.8,28.5,272.8,272.8,0,0,1-5.3-37.2c-.4-6.6-.5-12.6-.3-18.3s1.3-8.9.5-9.4c.3-3.1.6-6.1,1-8.9,3.3-21.9,10.2-34.4,8.9-34.8s-10.9,11.4-16.3,33.8a141.7,141.7,0,0,0-3.6,26.1l-1.5-.8a23.1,23.1,0,0,0-9.7-2.3,26.3,26.3,0,0,0-9.8,1.7,39.3,39.3,0,0,0-9,4.9c-6.1,4.5-11,10-15.8,16.7-1.4,1.9-2.8,4-4.1,6.1l-2.5-1.5c.4-1.5.8-2.7,1.2-4.1,2.7-5.6,5.3-10.9,8.1-16a183.3,183.3,0,0,1,16-24.5c4.4-5.6,7.3-8.8,6.4-9.5s-5.3,1.2-11.6,6.2a84,84,0,0,0-11.5,11.1c-.2-.3-.4-.6-.6-.6s-2.7,2.9-5,7.5c-1.4,1.8-2.8,3.6-4.2,5.7a186.3,186.3,0,0,0-12.2,20.2.1.1,0,0,0-.1.1c-.1,0,0,.1,0,.1-1.3,2.5-2.5,5.1-3.7,7.7-.5-8.9-.9-16.5-1.3-23.1q2.8-15.3,6-28.2c5.9-24.4,10.7-39.1,9-39.5s-9.7,13.4-18.3,37.8a18.7,18.7,0,0,1-.7,2.2c-.5-1.4-1-2.4-1.5-2.4s-2.3,5.9-3.1,15.8c0,.4-.1,1.2-.1,1.6-1.6,5.5-3.1,11.2-4.5,17.3-.7-4.4-1.5-8.6-2.4-12.7-3.6-18.1-8.6-37.1-11.5-47.5s-5.9-18.6-7.5-18.4-2.1,7.3-1.2,19.3,3.2,27.6,6.4,48.2c.4,2.8.8,5.7,1.3,8.7-3-4.9-5.8-8.9-8.2-12.3-.9-1.5-1.8-3-2.8-4.4,2.1-2.2,3.3-3.4,2.9-3.9s-2.2-.3-4.9.7c-2.1-3.2-4.1-6.2-6.1-8.9-4.3-6.2-9-12.6-12.1-16.7-5.8-7.8-9.2-12.1-10.5-11.8s-.4,5.7,3.5,14.4c2.4,5.3,5.3,10.8,9.1,17.9l5.9,11a27.3,27.3,0,0,0-3.3,2.8A78.8,78.8,0,0,0,537.6,893,114,114,0,0,0,518,882.1c-.2-13.5-.6-22.1-2.5-22.2s-4.5,6.8-6.8,18.8c-5.5-1.5-8.9-1.7-9.2-1.2s2.8,2.9,8.3,6.4a1.1,1.1,0,0,0-.1.5c-1.2,7.5-2,15.5-2.6,24.2a209.7,209.7,0,0,0-17-45.6l-2.3-4.3a187.4,187.4,0,0,0-11.5-34.2c-11.9-26-26.2-38.7-27.6-37.9Zm248.6,36.3ZM351.2,854.5h0ZM416,867.3l3.9,2.5a340.4,340.4,0,0,1,13.6,31.6l-1.8,2.4c-4.3-11.1-8.8-21.4-12.9-30.3h0a1,1,0,0,0-.1-.3l-.6-1.2-1.8-4.3-.3-.5Zm-72,12.8.6,1c5,8.4,9.5,17.4,14.5,28,2.9,6.1,5.6,12.6,8.4,19.2l-.9.9-1.4-.7c-.3-1.5-.6-2.5-.9-2.5s-.6.7-.8,1.6-2-1.1-3-1.5a161.8,161.8,0,0,0-19.7-7.4c-.1-3.8-.1-7.6,0-11.1.9-5.4,1.3-8.9.5-9.4.3-3.1.6-6.1,1-8.9s1.1-6.3,1.7-9.2Zm212.8,3.4.4.8a135.2,135.2,0,0,1,7.5,16.4c2.7,7.3,5.2,15,7.6,23,.2.6.3,1.2.5,1.8l-4.9-5.3c-2.1-2.1-4-4-6-5.8s-3-3.3-4.5-4.8c.5-2.5.5-4-.3-4.3s-1.5.4-2.7,1.4a101.6,101.6,0,0,0-7.9-7A117.5,117.5,0,0,1,556.8,883.5Zm109.6,1a22.7,22.7,0,0,1,5.5.8,23.9,23.9,0,0,1,3.2,1.1,31.9,31.9,0,0,0-1.1,3.3,140,140,0,0,0-4.5,20.8,55.5,55.5,0,0,0-6.3,3.8c-.6-1.7-1.1-3.4-1.7-5l-.2-.4c4-3.5,6.3-5.5,5.8-6.1s-3.2.1-7.3,1.9c-3.2-7.8-6-12.8-7.8-14.3a32.8,32.8,0,0,1,5.8-3.9,19.5,19.5,0,0,1,6.6-1.9Zm67.3,1.4h0a.8.8,0,0,1-.1.4c-.3,1.2-.5,2.4-.8,3.7s-.1.7-.2,1-.1.2-.1.3h0c-2.3,9.2-4.6,20-6.5,31.6a13.2,13.2,0,0,0-1.9.8c.1-1.5.3-3,.5-4.5,1.2-10.7,4.1-21.8,6.4-30.8.9-.9,1.9-1.7,2.7-2.4Zm-290.2,3.8c2.4,2.7,4.7,5.4,7,8.3.2,1.2.6,2.9.9,4.2a23.5,23.5,0,0,0-1.9,2.5,17.2,17.2,0,0,1-.7-2.1C447.2,898.2,445.4,893.9,443.5,889.7Zm74.7,1.2c3.7,2.6,7.7,5.7,11.8,9.2l1.8,1.6-.6,1.1c-3.8-4.5-6.6-6.7-7.7-6.3s.2,5.7,3.4,13.9a171.2,171.2,0,0,0-8.2,18.3C518.6,914.2,518.3,899.4,518.2,890.9Zm132.2,1c-.1,2.8.8,8.6,2.3,16.6a77.6,77.6,0,0,0-14.3,10.9c-1.5-1.5-3-2.7-4.4-4,1.5-3,3.1-5.8,4.8-8.6C642.6,900.7,646.1,895.9,650.4,891.9ZM715,907c-.9,3.6-1.7,7.3-2.3,11.1a142.7,142.7,0,0,0-1.4,14.8l-.9.9c.1-7.4.2-13.8.2-19.3C712,911.9,713.4,909.4,715,907Zm-278.8,2.6a5.6,5.6,0,0,0,.4,1.2l-.9-.2A9.3,9.3,0,0,1,436.2,909.6Zm104.9.9,5.4,5.8c-1,1.4-2,3-3,4.6-1.4-2.3-2.7-4.6-4-6.6C540,913,540.5,911.8,541.1,910.5Zm-87.4,2.6c.6,2.7,1,4.8,1.6,7.8l-1.2-.9c-.4-1.6-.9-3.2-1.4-4.8A20,20,0,0,0,453.7,913.1Zm167.4.5a9.4,9.4,0,0,1,1,1c-.9,1.5-1.7,3.1-2.6,4.7.5-1.7.9-3.4,1.4-5A1.9,1.9,0,0,0,621.1,913.6ZM436,915.5l2.6,2.4c.3,1.5.7,3,1,4.5l-.7,1.6C438,921.1,437,918.3,436,915.5Zm218,.2c.2,1.1.6,3.5.9,4.8l-3.7,3.2c.1-1.7-.1-2.8-.7-2.9s-2.9,1.9-5.2,5.9l-.7-.8,1.2-1.5A118,118,0,0,1,654,915.7Zm-161.6,1.1c1.1,5.6,2.2,11.4,3.2,17.7l.3,1.8c.4,2.5.7,4.9,1.1,7.4a19.2,19.2,0,0,0-4.5-.2l-.6-1.6C492.3,933.2,492.5,924.9,492.4,916.8Zm-28.6.3A203.6,203.6,0,0,1,475.1,939l-3-3.4-4-4C466.7,926.6,465.2,921.8,463.8,917.1Zm204.3,4.7c-.2,2.3-.4,4.6-.5,7-.5-1.7-1-3.2-1.4-4.8Zm-38,1.5c.7.9,1.4,1.5,2.1,2.5-1.8,2-3.6,4.2-5.3,6.5l-.7-.3c.5-1.1.9-2.1,1.3-3.2S629.3,925.2,630.1,923.3Zm-77.2.7,1.5,1.9,3.7,5.2a53.5,53.5,0,0,0-6.2-4.4l.7-1.9A2.6,2.6,0,0,1,552.9,924Zm-167.5,1.7c.5,1.4.9,2.9,1.4,4.3s-.8,3-1.1,4.6l-1.6-3.6C384.6,929.2,385,927.5,385.4,925.7Zm339.9,1.7q-1,7.2-1.8,14.7a19.4,19.4,0,0,1-.2,2.4v-4.8c0-3.5.1-6.8.3-10.1Zm-191.3.7c.7,1.9,1.4,3.8,2.2,5.8l-1.6,3-.9-.2a24.8,24.8,0,0,0-1.7-2.9Zm-192.6,1.4c3.9,1.7,7.8,3.5,12.2,5.7,1.9,1,3.9,2.1,5.8,3.3a114.5,114.5,0,0,0-13,24.6A265.4,265.4,0,0,1,341.4,929.5Zm72.9,2.1.7.6c-.1.2-.2.3-.2.5Zm288.5,0c-.4,3.9-.8,8-1.1,12.2-.9,1.2-1.8,2.4-2.6,3.7s-1.3,2.1-1.9,3.1A141.3,141.3,0,0,1,702.8,931.6Zm-152.9,1.6a84,84,0,0,1,7.9,7.9l.2.2a35,35,0,0,0-3.5,2.3C553,939.9,551.5,936.5,549.9,933.2Zm88.5.9,1.5,2.2-3.4,4.7-1.5-1.6Zm41,.2q1.8,9.9,4.5,20.4a127.2,127.2,0,0,0-1.9,13.2c-.2,2.7-.4,5.3-.5,7.8-.8-8.2-1.5-16.7-1.8-25.1,0-.5-.1-1.1-.1-1.6-.2-5.2-.3-10.1-.2-14.7Zm-54.5.7Zm-167.2,2.4,1.5,1.8c.7,3.9,1.5,7.7,2.3,11.9l-2,.8C459,947.2,458.5,942.4,457.7,937.4Zm288.1.9-.9,3.6a189.2,189.2,0,0,0-4.5,42.2c-2.2,4-4.1,7.8-5.8,11.4a319.7,319.7,0,0,1-.2-34.3c.1-3,.3-6,.5-9C738.7,947.1,742.3,942.5,745.8,938.3Zm-87,3.1c.4,2,.6,3.3,1,5.3l-2.7-4.1h.1l1.6-1.2Zm-232.3,1.3,4,3.8.3,1.2c-1.5,5.4-2.9,11.1-4.2,17-.6-2-1.2-4-1.9-6.1C425.4,952.8,425.9,947.7,426.5,942.7ZM367.7,944l1.7,1.3c-.3,1.5-.6,2.9-.8,4.4a142.7,142.7,0,0,0-1.4,14.8l-.9.9c.1-7.4.2-13.8.1-19.3Zm129.5,1.2c1,7.2,1.9,14.3,2.6,21.3-.7-3-1.6-6.1-2.5-9.2s-2.3-7.1-3.7-10.8Zm-220.2,0a104.8,104.8,0,0,1,11.1,12.1c-1.8,2.1-3.6,4.3-5.3,6.6-1.2-.7-2-1-2.4-.8s-.4,1.5.4,3.5c-2,2.9-4,6.1-5.9,9.4s-3,5.8-4.3,8.8c.1-1.7.2-3.4.4-5.1.6-6.8,1.4-13.4,2.4-19.7a111.4,111.4,0,0,1,3.4-14.1C276.9,945.7,276.9,945.4,277,945.2Zm354,1.2a2.1,2.1,0,0,1,.4.6l.7,1.2-.3.5-3.3,2.7,1.6-3.3Zm-321.2.9c1.3,6.9,3.5,19.1,5.8,31a153.5,153.5,0,0,0-9.7-14.2c1.3-7,1.8-11.4.5-11.7s-2.9,1.9-5.2,5.9l-.7-.8,1.2-1.5C304.5,952.7,307.3,949.8,309.8,947.3Zm253.3.2c2.5,3.3,5,6.7,7.6,10.5,3.8,5.6,7.4,11.4,11,17.4-.1,2.3-.2,4.3-.3,6.3l-5.5-3.7-.6-1-.3-.6a135.1,135.1,0,0,0-16.2-21.6c-.2-.5-.3-1-.5-1.5C560,951.1,561.5,949.3,563.1,947.5Zm148.1.1c.2,5.9.7,11.6,1.4,17.1l-1.8,3-.8,1.4c0,.1-.1.1-.1.2.1-3.5.2-6.9.4-10.1v-10l.9-1.6Zm-184,2.2.3.3a23.4,23.4,0,0,1,.4,2.6c-1.7,4.6-3.3,9.4-4.7,14.4h0c-.8,2.8-1.4,5.6-2,8.3,1.5-8,3.4-16.4,6-25.6Zm121.2.1,1.3,2.3c-.3.8-.6,1.6-.9,2.6l-.7.2-1.8-2.3.3-1.3C647.2,950.9,647.8,950.5,648.4,949.9Zm-184.9,9.3.9,3.9c0-.1-.1-.1-.1-.2l-1.3-1.5a6.9,6.9,0,0,1-1.1-1.3Zm-83.2.9a12.1,12.1,0,0,1,.5,1.4c-.5,4-1,8.1-1.4,12.2-.1.8-.1,1.6-.2,2.4v-4.8c0-3.5.1-6.8.3-10.1Zm-21.6,3.1c-.4,3.9-.8,8-1.1,12.2-.9,1.2-1.8,2.4-2.6,3.7s-1.3,2.1-1.9,3.1A141.3,141.3,0,0,1,358.7,963.2Zm297.3,1h0c3.7,7.5,6.8,14.4,9.5,20.9-1-2.1-2-4.3-3.1-6.5h0a121.7,121.7,0,0,0-6.2-11.3c-.1-1.1-.1-2.1-.2-3.1Zm-180.9.5c0,.1.1.2.1.4a.8.8,0,0,1-.1.4v-.8Zm-180.8,1c.7.9,1.3,1.9,2,2.9s-1.5,3.8-2.2,5.8l-3.2-3.4Zm40.9.1c1.3,6.7,2.8,13.5,4.6,20.5a127.2,127.2,0,0,0-1.9,13.2c-.3,2.7-.4,5.3-.6,7.8-.7-8.2-1.4-16.7-1.7-25.1a9.2,9.2,0,0,1-.1-1.6c-.2-5.2-.3-10.1-.3-14.8Zm309,3.3,1.2,2.1-1.3-1.1-.2-.2Zm-96.9,2.4,1.4.8.5.3c1.4,4.6,2.7,9.2,3.9,13.5l-3.7-1.1h0l-1.5-6-1.5-5.8.9-1.7Zm154.2.2v.6c0-.1-.1-.2-.1-.3a.4.4,0,0,1,.1-.3ZM286.9,978c.2.2.2.4.4.6,1.1,1.9,2.4,4,3.6,6.2-.8,2.9-1.5,6.1-2.1,9.3a47.6,47.6,0,0,0-6.5-2.7l-1.5-.5c1.6-3.9,3.3-7.6,5.2-11.2Zm334.2,0a93.3,93.3,0,0,0-1.7,20.1h0c-.3,1.2-.7,2.4-.9,3.6-.9-3.9-2-8.2-3.3-13,.4-1.4.9-3,1.3-4.5l4.6-6.2Zm-182.9,1.1c1.2,6.8,2.3,13.1,3.1,18.9q-3.2-4.5-6.9-9.3c.4-2.3.7-4.5,1.2-6.9Zm-71.1.1c.2,5.9.7,11.6,1.4,17.1l-1.8,3a10,10,0,0,0-.8,1.4c-.1,0-.1.1-.1.2.1-3.5.2-6.9.4-10.1s0-6.8,0-10l.9-1.6Zm-64,.2,2.5,4.4a25.6,25.6,0,0,0-.9,2.6l-.7.2-1.8-2.3Zm339.2,3.7,2.1,2.9-.3,4.9c0,1.7-.1,3.4-.2,5h0l-2.8,1.2C641.4,992.8,641.8,988,642.3,983.1Zm-251.7,4.3,6,16.4c-.2,4.1-.4,8.1-.3,11.9a111.7,111.7,0,0,0-5.8,11.4,319.7,319.7,0,0,1-.2-34.3Zm93.6,3.5c.6,1.9,1.1,3.7,1.6,5.5-.6-1.4-1.2-2.8-1.9-4.2ZM698.3,994a5.4,5.4,0,0,0,.5,1.1,23.7,23.7,0,0,0-.9,3.6C698,997.2,698.1,995.7,698.3,994ZM279,995.5a103.5,103.5,0,0,1,8.3,7c-.1.4-.1.9-.2,1.3a96.6,96.6,0,0,0-9.7,19.3,1.4,1.4,0,0,1-.2.6,96.4,96.4,0,0,0-2.9,9.7c-.8-3.9-2-8.2-3.2-13A235.1,235.1,0,0,1,279,995.5Zm32.9.3h0c3.7,7.4,6.8,14.4,9.4,20.9-.9-2.1-1.9-4.3-3-6.5h0c-2-4-4.1-7.7-6.2-11.3-.1-1.1-.1-2.1-.2-3.1Zm-11.8,4.9a21.2,21.2,0,0,1,1.1,2.1l-1.2-1.1-.3-.2Zm57.2,2.6a1.3,1.3,0,0,1,.1.6.4.4,0,0,1-.1-.3v-.3Zm-59.1,11.4,2.1,2.9-.3,4.9c-.1,1.7-.1,3.4-.2,5h0l-2.9,1.2C297.3,1024.4,297.7,1019.6,298.2,1014.7Zm55.9,10.9a5.4,5.4,0,0,1,.5,1.1l-.9,3.6C353.9,1028.8,354,1027.3,354.1,1025.6Z" style="fill:#474a49"/><g id="Palm"><path d="M522,98.7c18.1,15,69.2,63.1,120,184.6,31.6,75.6,69.7,194.1,46.4,397.5-20.3,177.8-98.5,343.1-98.5,343.1,0,21.7-67.8,16.6-67.8-5.1,0,0,124.1-238.8,123.2-482.8-.8-192.1-64.1-342.4-139.7-436.1Z" style="fill:#474a49"/><path d="M534.8,103.1c-9.9-9.8-4.9-8.8-18.9-20C494.7,66,456.2,59.4,422.6,64c-59.3,8-116.3,35.9-144.3,90.6,24.8-19.2,54.4-22.1,84.5-19.2,8.7-11.8,17.3-23.4,26.5-34.8-.8,12.2-1.9,24.3-3.3,36.5,14.1,1.9,27.5-.8,41.2-3.9,9.4-14.7,19.6-28.6,30.4-42.3-4.3,12.7-8.5,25.3-12.3,38.1C475.8,123.7,506.7,116.7,534.8,103.1Z" style="fill:#474a49"/><g style="opacity:0.2"><path d="M534.8,103.1c-9.9-9.8-4.9-8.8-18.9-20C494.7,66,456.2,59.4,422.6,64c-59.3,8-116.3,35.9-144.3,90.6,24.8-19.2,54.4-22.1,84.5-19.2,8.7-11.8,17.3-23.4,26.5-34.8-.8,12.2-1.9,24.3-3.3,36.5,14.1,1.9,27.5-.8,41.2-3.9,9.4-14.7,19.6-28.6,30.4-42.3-4.3,12.7-8.5,25.3-12.3,38.1C475.8,123.7,506.7,116.7,534.8,103.1Z" style="fill:#474a49"/></g><path d="M525.9,107.3s-4.7-18.5,22.3-47.9C590.6,13.3,650,.1,680.7,0s75.1,9.4,96.7,30c0,0-33.1-5.2-73.6,12.3,0,0-27.3-15.2-58.3-18.1,0,0,31.4,18.2,38.1,27.1,0,0-18.7,18.1-52,23.4,0,0-23.5-25.8-49.4-25.3,0,0,23.8,8.4,34,31.1C616.2,80.5,572.8,99.1,525.9,107.3Z" style="fill:#474a49"/><path d="M525.9,107.3s-4.7-18.5,22.3-47.9C590.6,13.3,650,.1,680.7,0s75.1,9.4,96.7,30c0,0-33.1-5.2-73.6,12.3,0,0-27.3-15.2-58.3-18.1,0,0,31.4,18.2,38.1,27.1,0,0-18.7,18.1-52,23.4,0,0-23.5-25.8-49.4-25.3,0,0,23.8,8.4,34,31.1C616.2,80.5,572.8,99.1,525.9,107.3Z" style="fill:#474a49;opacity:0.2"/><path d="M525.9,107.3s44.9-27.4,106.4-19.4c80.2,10.5,125.8,49.4,142.6,83.9,0,0-34.5-27.3-87.3-15l-29-33.6,3,37c-11.2,2-26.1.2-43.6-4.6L589.5,111l9,39.1S550.7,138.4,525.9,107.3Z" style="fill:#474a49"/><path d="M525.9,107.3s44.9-27.4,106.4-19.4c80.2,10.5,125.8,49.4,142.6,83.9,0,0-34.5-27.3-87.3-15l-29-33.6,3,37c-11.2,2-26.1.2-43.6-4.6L589.5,111l9,39.1S550.7,138.4,525.9,107.3Z" style="fill:#474a49;opacity:0.1"/><path d="M525.9,107.3s-14.2-4.7-43.1,7.3c-49,20.3-88.1,75.6-98,104.1s-15.5,73-3.3,99.8c0,0,5.8-32.6,35.2-64.6,0,0-5.4-30.3,2-60.1,0,0,6.7,35,12.9,44.1,0,0,22.9-11.5,38.6-40.8,0,0-16.5-30.1-7.7-54.1,0,0,.2,24.8,18,41.7C480.5,184.7,503.2,148.3,525.9,107.3Z" style="fill:#474a49"/><path d="M525.9,107.3s-14.2-4.7-43.1,7.3c-49,20.3-88.1,75.6-98,104.1s-15.5,73-3.3,99.8c0,0,5.8-32.6,35.2-64.6,0,0-5.4-30.3,2-60.1,0,0,6.7,35,12.9,44.1,0,0,22.9-11.5,38.6-40.8,0,0-16.5-30.1-7.7-54.1,0,0,.2,24.8,18,41.7C480.5,184.7,503.2,148.3,525.9,107.3Z" style="fill:#474a49;opacity:0.1"/><path d="M585.6,332s-15.9-24.6-17.6-51.7c-.4-7.5-.5-15.4-.4-23.7-26.9-18.4-29.3-37.6-29.3-37.6,6.3,11.1,21.6,19.6,30,20.7,2.9-17.7.1-35.5-1.1-51.3-21.6-9.1-28.9-21.8-28.9-21.8,7.6,5.5,20.8,8.4,28.3,8.6-6.5-33.2-26-60.3-40.7-67.9,0,0-18.1,12.1-21.5,74.7C500.9,246.6,534.5,309.4,585.6,332Z" style="fill:#474a49"/></g><path id="dark-floor" d="M30.8,1095.8c1.7-9.7,8.3-18,17.9-22.5,24.8-11.7,43.6-34.2,71.1-43.8l9.4-3.4,8.8-2.9c18.2-5.4,39.8-2.4,58.7-5.3,40.6-6,81-11.9,120.2-23.7,31.3-9.4,74.3,5.3,105.6,5.3,17.7,0,27.1-20.3,46.9-15.9,23.3,5.3,47.5,4.4,70.4,13.2a65.1,65.1,0,0,1,1.7,8.8c40.7-7.3,79.4-16.4,114.7-28.1,4.4-1.4,8.8-2.9,13.1-4.5,24.3-13.2,31.9,22.2,45.9,24.5,17.7,3.4,25.3-29.7,41.8-44.6-5,9.2-16.5,26.3-5,32,13.9,6.9,35.5-1.1,49.5,10.5,2.9,2.7,5.7,5.6,8.5,8.5,5.5,5.9,10.9,11.8,14.3,18.7s8.9,19.4,0,24a72.9,72.9,0,0,0-8.5,5.5,43.9,43.9,0,0,0-7.2,6.3c-2.1,3-4.6,6.5-5.9,11-2.5,20.6,15.2,36.6,17.8,56,2.5,17.1-2.6,44.5-27.9,38.8-5.1,27.4-25.4,45.7-49.5,64-2.6,2.3-3.8,6.8-1.3,11.4-10.1,0-17.8,6.9-25.4,10.3a46.7,46.7,0,0,1-21.4,2.3,97.8,97.8,0,0,1-10.6-1.8c-22-6-41.7,4.7-61.1,11.3a95.5,95.5,0,0,1-11.6,3.3c-15.5.4-31.4,1.1-47.2.9q-5.8,0-11.7-.3c-22.9-3.1-41.9,8.3-63.5,10.6-25.4,2.2-48.2-14.9-69.8-25.2-29.2-14.8-60.9,9.2-88.8,21.7-7.6,2.3-15.2-2.2-12.7-10.2s16.5-19.5,8.9-20.6a187.5,187.5,0,0,1-34.5-13.5l-10.7-5.5c-24.6-14.1-62.7-25.5-79.4,4.1a107.5,107.5,0,0,1-8.6,9.4c-21.8,20.8-55.6,31-87.6,23.8-12.7-3.5-7.6-18.3-17.8-21.7-3.5-1.3-7-2.4-10.6-3.5a81.2,81.2,0,0,0-10.8-2.7c-4-.7-6.5-1.8-10.3-.7l-.6.2c-23.8,5.6-4.2-6.5-42.5-34.4S30.8,1095.8,30.8,1095.8Z" style="fill:#474a49"/></g></g></svg>