<svg xmlns="http://www.w3.org/2000/svg" viewBox="0 0 989.8 1312"><g id="Livello_2" data-name="Livello 2"><g id="Livello_1-2" data-name="Livello 1"><path id="path127290" d="M511.1,543.6c-15.8-8.9-32-17-55.4-8.9s-39.1,29-40.1,54.6-6,66.2-19.8,75.2S362,673.2,359,694.6c13.1-10,26-10.3,42.7-16.6s34.4-21.4,37.4-43.6,2.8-58.5,17.3-66.7,25.2-10.3,33.4-3.8,35.6,44.7,75.7,38.3,56.2-38.5,59.7-64.7,14.5-63.7,29.3-74.2,44.4-17.2,52.6-26.9,7.2-15.3,7.2-15.3,4.3-2.8,3.2-7.7-7.7-3.2-13.7.2-18.3,6.2-23,12.1-7.8,13.7-15.1,14.6-36.3,8.3-48.3,24-20.4,58.3-25.6,77-8.7,30.5-24.9,31.3-37.9-19-55.8-29Z" style="fill:#474a49"/><path id="dark-floor" d="M814.8,1142.7c-1.5-9-7.7-16.9-16.7-21.1-23.3-10.9-40.9-32-66.6-41l-8.9-3.2-8.2-2.7c-17.1-5.1-37.3-2.3-55-4.9-38-5.7-75.9-11.3-112.7-22.3-29.3-8.8-69.6,5-98.9,5-16.6,0-25.5-19-44-14.9-21.9,4.9-44.5,4.1-65.9,12.4a70,70,0,0,0-1.7,8.2c-38.1-6.8-74.3-15.4-107.5-26.3l-12.2-4.2c-22.8-12.4-29.9,20.8-43,22.9-16.6,3.2-23.8-27.8-39.2-41.8,4.7,8.6,15.4,24.7,4.7,30-13.1,6.4-33.3-1.1-46.4,9.9-2.7,2.5-5.4,5.2-8,7.9-5.2,5.5-10.2,11.1-13.4,17.5s-8.3,18.2,0,22.5a64.7,64.7,0,0,1,8,5.2,42.8,42.8,0,0,1,6.7,5.9c2,2.8,4.4,6,5.6,10.3,2.3,19.3-14.3,34.3-16.7,52.5-2.4,16,2.4,41.7,26.2,36.4,4.7,25.7,23.8,42.8,46.3,59.9,2.4,2.1,3.6,6.4,1.2,10.7,9.5,0,16.7,6.4,23.8,9.6a43.9,43.9,0,0,0,20.1,2.2c3.3-.3,6.6-1,10-1.6,20.6-5.7,39,4.3,57.2,10.5a109.5,109.5,0,0,0,10.8,3.1c14.5.3,29.5,1,44.3.9,3.6,0,7.3-.1,10.9-.3,21.5-3,39.4,7.7,59.6,9.9,23.8,2.1,45.2-14,65.4-23.6,27.3-13.9,57.1,8.6,83.2,20.4,7.1,2.1,14.3-2.2,11.9-9.7s-15.5-18.2-8.3-19.2a188.8,188.8,0,0,0,32.3-12.7l10-5.2c23.1-13.2,58.8-23.9,74.4,3.9a111,111,0,0,0,8.1,8.8c20.4,19.5,52.1,29,82.1,22.3,11.9-3.2,7.1-17.1,16.6-20.4l10-3.2a71.3,71.3,0,0,1,10.1-2.6c3.7-.6,6.1-1.7,9.7-.6l.6.2c22.3,5.2,3.9-6.1,39.8-32.3S814.8,1142.7,814.8,1142.7Z" style="fill:#474a49"/><path id="path115081" d="M384.6,875.5c-1.5.4,5.7,16.6,7.9,43.7.3,3.5.5,7.2.6,11-1,.4-.8,4.7-.1,11.5s-.8,14.2-1.8,22.1a316.1,316.1,0,0,1-9.1,44.2,156,156,0,0,0-8.8-22.6c3.4-2.2,5.9-3,5.7-3.7s-3-.9-7.4.3c-1.9-3.8-3.9-7.6-6.1-11.1-.6-6.7-1.1-10.7-1.9-10.8s-1.2,1.8-1.9,5.1a95,95,0,0,0-12-14c-.7-2.5-1.4-5-2-7.3-7.5-26.3-12.3-42.9-14.6-43s-1.5,15.3,2.5,38.8l-2.9-1.8c-.4-2-.8-4-1.3-5.9a92.3,92.3,0,0,0-5.1-15.4,35.3,35.3,0,0,0-3.5-6c-2.2-2.9-4.3-3.6-4.7-3.2s.3,1.8,1,4.2a39.5,39.5,0,0,1,1.2,5.7c.8,4.4,1.2,8.3,1.8,14.8.4,4.2.7,8.7,1,13.8.1,1.4.1,2.9.2,4.4v1.6c0-.1,0,0,.1.3,1,12.5,2.3,28.4,3.2,44.7l-3.5,3.6c-1-1.2-2-2.4-3-3.4-2.9-3.2-5.6-5.9-8.1-8.3q-1.2-5.1-2.7-9.9c1.7-3.7,3-6.5,4.5-9.2a27.3,27.3,0,0,1,2.5-4.1c1.1-1.5,2-2.7,1.8-2.9s-2-.5-4.4,1a18.4,18.4,0,0,0-4.3,3.5c-.9.9-1.8,2-2.7,3.1l-2-5.6c3.1-6.9,4.5-11.4,3.5-11.8s-2.8,1.7-5.8,5.4A225.2,225.2,0,0,0,292.2,935c-9.6-19-18.2-30-20-29.4s3.4,12.3,10.4,31.3c1.6,4.6,3.3,9.5,5,14.6.1,2.8.1,5.7.3,9.1s.5,10.7.8,16.5c-1.1,1.5-2,2.7-3.1,4.4l-1.2,1.7c-.8-4.2-1.6-8.4-2.5-12.5a239.6,239.6,0,0,0-9.1-31.7c-1.6-4.1-3.2-7.8-4.9-11.3,4.5-7.1,7.6-10.9,7-11.3s-4.3,1.9-9.2,7a80,80,0,0,0-5.8-9.5,51.2,51.2,0,0,0-8.1-8.9c-5.2-4.5-9.2-5.4-9.6-4.9s2.1,2.8,5.4,7.3a67.9,67.9,0,0,1,5.2,8.9,112.9,112.9,0,0,1,6.1,15.1,113.3,113.3,0,0,0-8.6,13.5,140.3,140.3,0,0,0-10.8,26c-1.7-.9-3.5-1.8-5.2-2.5-18.8-8.2-30.9-9.6-31.4-8.2s11.2,5.9,26.9,15c1.8,1,3.6,2.2,5.4,3.3a173.2,173.2,0,0,0-14.6,33c0-7.3-.2-14-.8-20.4v-.4c4.6-2.3,7.5-3.6,7.1-4.4s-3.1-.7-7.6,0c-1.2-10.3-3.2-16.5-4.6-16.6s-2.3,7.1-3.2,18.3a83,83,0,0,0-16.6,6.9,84.7,84.7,0,0,0-9.3-12.8c-.9-.9-1.7-1.8-2.6-2.6l5.4-8.5c3.5-5.5,6.1-9.8,8.3-13.9,3.7-6.8,5-11.1,3.7-11.7s-4,2.9-9.2,8.7c-2.8,3.1-7,7.9-10.8,12.5l-5.4,6.8c-2.2-1.2-3.7-1.5-4-1.2s.5,1.6,2.1,3.6l-3.5,4.8a118.7,118.7,0,0,0-6.9,10.8c.7-3.4,1.5-6.8,2.1-10,3.7-16.9,6.2-28.4,7.8-39.4s1.3-16,0-16.3-3.7,5.1-7,14.5-8.1,23.6-12,38.4c-.9,3.2-1.8,6.7-2.6,10.2-1.8-11-4-21-6.3-29.8-5.7-21.3-11.6-33.8-13-33.6s1.8,12.9,5.3,34a446.2,446.2,0,0,1,6.1,57.3h0a201.8,201.8,0,0,0-16.5-39.2c-5.6-10-11.1-17.1-16.2-22.2s-8.5-6.9-9.2-6.4,1.4,3.4,4.7,8.6a152.8,152.8,0,0,1,11.8,22.2c5.1,11.3,9.3,23.3,13.7,38.3.7,2.3,1.4,4.8,2.1,7.3-1.4-4.1-2.9-8.1-4.5-12.1a159.7,159.7,0,0,0-9.9-20.3,65.3,65.3,0,0,0-12-15.6,31.9,31.9,0,0,0-7.1-5.1,24.4,24.4,0,0,0-7.9-2.6,21.5,21.5,0,0,0-8.1.8c-5.8,2-7.4,4.5-6.9,4.9s3.2-1.1,8.4-1.8a16.4,16.4,0,0,1,6.2.2,16.9,16.9,0,0,1,5.2,2.3,29.9,29.9,0,0,1,5.1,4.5c3.7,4,6.4,8.6,9.4,14.6a173,173,0,0,1,8.1,19.6c3.7,10.7,6.6,21.1,9.8,33.1a122.6,122.6,0,0,0-14.4-17,90,90,0,0,0-22.2-30.8c-8.6-7.8-15.6-10.8-16.5-9.9s3.8,5.7,10,13.7a114.8,114.8,0,0,1,7.1,9.9c-6.5-4-11-5.6-11.7-4.8s4.7,5.9,12.9,14c2.7,2.7,5.6,5.6,8.5,8.9.8,1.6,1.5,3.3,2.2,5.1v.2a159.5,159.5,0,0,1,8.6,35.6c1.3,9.3,1.9,15.2,3.6,15.5s4.1-5.2,5-14.8a81.8,81.8,0,0,0-.4-16.9h0a134,134,0,0,1,16.6,37.1c2.7,9.8,3.5,16.1,5.1,16.3s2.9-3.3,3.4-9.5a1.9,1.9,0,0,1,.9-.5v.7a15.9,15.9,0,0,0,1.4,7.2c.9,1.6,1.8,2.3,2.3,2.2s.5-2.8,1.5-7.5c.7.4,1.3.6,1.5.4s.4-3.2,1.1-7.7a3.6,3.6,0,0,1,.2-1l5.5-4.1c-1.2,10.2-.7,16.7.9,17.1s4.2-5.8,7.7-15.7c.9-2.6,2.1-5.9,3.1-8.9l4.2-2.3c-1.5,5.2-2.8,10-3.6,13.5-1.8,7.3-2.4,12.1-.8,12.7s5-3.1,8.9-9.8a115,115,0,0,0,7.5-16c1.3,4.7,2.4,9.1,3.5,13.1.5,2.1,1.1,4,1.7,5.9s-.2,4.4-.3,6.3c-.3,4.7-.4,7.4.7,7.8s2.2-.9,3.7-3.4c1.1,2.1,2.1,3.3,2.9,3.2s2.2-5.7,1.6-14.9a72.2,72.2,0,0,0,1.6-10.6,68.4,68.4,0,0,0,.2-10.2l.3,4.1a152.7,152.7,0,0,1-.1,16.8c-.6,7.9-1.8,12.6-.9,13.1s2.5-.9,4.4-3.9c.4,5,1.1,7.8,2,8s1.8-2.6,2.9-7.2a21.5,21.5,0,0,0,2.1-3.5c.6,10.1,2.6,16.1,3.9,16.1s1.6-4.9,2.7-13.1a64.6,64.6,0,0,0,3.8-7.5,47.9,47.9,0,0,0-1.6,9.6c-.2,5.4.7,8.6,1.8,8.8s2.1-2.7,4.1-7.4a99.3,99.3,0,0,1,7.5-15.1,110.3,110.3,0,0,1,3.2,10.8c.4,2.6.8,5.2,1.3,7.9,2.8-10,3.2-20,3.4-30.1,0-.1,0-.1-.1-.2,2.2-2.8,4.6-5.7,7.3-8.6a282.7,282.7,0,0,0,.1,33.6c.7,10.2,1.9,16.3,3.1,16.4s1.7-2.8,2.5-7.6c.8,5.3,1.9,8.3,2.8,8.3s2.1-6.7,3.7-17.5c1.8-2,3.9-4.3,7-7.5l.8-.9c-.2,1.1-.4,2.1-.5,3.1-2.1,16.1-1.1,26.3.6,26.5s3.6-9.4,7.8-24.6l1.8-6.2a120.4,120.4,0,0,0,1.9,12.6c-1,12.7-.1,20.9,1.5,21.1l.6-.2c0,1.5.2,2.4.6,2.5,1.9.6,7.9-12.4,16.8-32.5-.6,8.4-.8,14.5.5,14.8s7-10.5,10.8-29.6l.6-3.7.6,1.3c2.2,5.1,3.8,8.7,5,11.8-2.3,13-4,21-2.5,21.5s3.4-2.5,6.3-8.1c-1,5.9-1.1,9.5-.1,9.8s5-5.8,9.7-17a323,323,0,0,0,13.1-38q2.7,6.9,4.8,13.2v.2c-3.7,11.6-7,23-7.7,35.6,1.6-2.8,3.1-5.6,4.5-8.3a126.3,126.3,0,0,1,7.8-10.7,128.2,128.2,0,0,1,2.7,20.6c.4,6.2.5,9.9,1.7,10.3s3.6-2.8,5.4-9.1a57.2,57.2,0,0,0,1.9-11.6c.4,4,.9,7.5,1.4,10.3-1.9,9.7-3.2,15.6-1.9,16.1s6-5.3,10.6-16.4a21.1,21.1,0,0,0,1,4.9c-.6,5.7-.5,9.2.5,9.5s3-2.6,5.3-8c1,4.2,2.4,6.5,3.4,6.4s1.7-5.9,4.1-15.2a167,167,0,0,1,6.3-19l1.8-4.4a110.9,110.9,0,0,0-3.7,11.6,81.8,81.8,0,0,0-2.1,12.7c-4.2,10.1-5.8,16.6-3.9,17.6s2.4-.5,4.5-2.3c.8,3.5,1.9,5.5,2.9,5.6s2.3-3.1,3.7-8.5c.6-2.2,1.3-4.7,2.1-7.3s2.8-3.7,4.2-5.8l8.9-13.2a141.7,141.7,0,0,0,2.3,21.6c1.9,9.4,4.4,15.3,6.4,15.3s3.1-5.6,3.9-14.7c.4-4.3.8-10.3,1.1-17l3.9,4.6v11.5c.2,12.9.8,21,2.8,21.4s5-6.8,7.5-18.9l4.7,7.2c-.1.5-.1.9-.2,1.3-.9,5.4-2.9,8.2-1.8,9.2a2.2,2.2,0,0,0,1.9.2c-.7,5.8-1.9,8.5-1.1,9.2s1.8,0,3.4-1.4a15.6,15.6,0,0,0,3.7-5.7,2.9,2.9,0,0,0,1.1,1.7c-.9,5.3-.5,8.8.8,9.1s5.2-6.3,12-16.1l2.9-3.9a123.6,123.6,0,0,1,5.7,16.3c2.7,9.8,3.4,16.2,5.1,16.4s2.9-3.3,3.3-9.6l.9-.5v.7a15.5,15.5,0,0,0,1.5,7.2c.9,1.7,1.8,2.3,2.2,2.2s.6-2.8,1.6-7.5c.7.5,1.2.6,1.5.5s.3-3.3,1-7.8a3,3,0,0,0,.2-1l5.6-4c-1.3,10.1-.7,16.7.9,17s4.2-5.7,7.7-15.7c.9-2.5,2-5.9,3-8.9l4.3-2.3c-1.5,5.3-2.8,10.1-3.6,13.6-1.8,7.3-2.4,12.1-.8,12.7s5-3.1,8.9-9.9a109.8,109.8,0,0,0,7.5-16c1.2,4.7,2.4,9.1,3.4,13.1.6,2.1,1.2,4.1,1.8,5.9s-.2,4.4-.3,6.4c-.3,4.6-.4,7.4.7,7.8s2.1-1,3.7-3.5c1.1,2.2,2.1,3.3,2.9,3.3s2.1-5.8,1.6-14.9a74.3,74.3,0,0,0,1.6-10.6,86,86,0,0,0,.2-10.2c.1,1.4.2,2.7.2,4.1a129.7,129.7,0,0,1-.1,16.7c-.5,8-1.8,12.7-.8,13.2s2.5-1,4.3-3.9c.5,4.9,1.2,7.8,2.1,7.9s1.8-2.6,2.9-7.2a14.1,14.1,0,0,0,2-3.5c.7,10.1,2.7,16.1,3.9,16.2s1.7-5,2.8-13.1c1.1-2.1,2.4-4.6,3.8-7.5a40.8,40.8,0,0,0-1.6,9.6c-.3,5.4.7,8.6,1.8,8.7s2.1-2.7,4-7.4a104.1,104.1,0,0,1,7.5-15.1q1.9,5.6,3.3,10.8c.3,2.6.8,5.3,1.3,8,2.7-10,3.2-20,3.3-30.2h0a112.3,112.3,0,0,1,7.3-8.7,264.2,264.2,0,0,0,.1,33.7c.7,10.2,1.8,16.2,3.1,16.3s1.7-2.7,2.5-7.6c.8,5.3,1.8,8.3,2.7,8.4s2.1-6.7,3.8-17.6c1.7-2,3.9-4.3,6.9-7.5l.8-.8c-.1,1-.3,2.1-.4,3-2.1,16.1-1.1,26.3.6,26.6s3.6-9.5,7.8-24.7c1.5-5.3,3.2-11.1,5.3-17.3l2.4-2.1a182.5,182.5,0,0,0-4,24.3c-1.2,13.7-.2,22.4,1.5,22.6s.4,0,.6-.2c-.1,1.5.1,2.4.6,2.5s7.9-12.4,16.8-32.6c5.3-11.8,11.8-26.6,19.2-42.1,3.3-2.2,6.7-4.2,10-6a82.8,82.8,0,0,1,9.7-4.5c9.9-3.5,17.7-5.7,25.7-6.7,14.6-2,25-1.6,24.9-2.9s-9.8-4.1-26.6-3.9a104.7,104.7,0,0,0-29.1,5.2c-2.3.7-4.5,1.5-6.7,2.4,2.9-5.7,5.8-11.2,8.7-16.4a237.5,237.5,0,0,1,13.3-21.7c4.9-7,8.7-11.7,13.2-15.9a42.8,42.8,0,0,1,6.3-5.2c3.8-2.4,6.4-3.3,6.2-3.9s-3.5-1.2-8.8.6a35.1,35.1,0,0,0-8.6,4.4,76.8,76.8,0,0,0-16.6,15.3,160.3,160.3,0,0,0-15.4,21.6q-7.2,11.7-13.8,25.2l-.5,1-2.3,4.8-1.8,1.2c6.1-16.3,12.2-31,16.4-42l2.6-7c2.6-3.4,5.2-6.6,7.7-9.6,10.4-12.6,17.6-20,16.3-21s-10.8,4.7-23.2,16.3a192.7,192.7,0,0,0-29.5,35.3c-2.6,1.1-5.4,2.3-8.5,3.8s-4.9,2.5-7.5,4c5.7-14.7,12-28.9,16.8-39.9v-.2a.5.5,0,0,1,.1-.3l.3-.9c.5-1.1.9-2.3,1.3-3.4,1.6-3.8,3-7.2,4.4-10.3a105.3,105.3,0,0,1,5.3-11c1-1.8,1.6-2.8,2.4-4s2-2.7,1.9-2.9-2-.6-4.4.9a25.9,25.9,0,0,0-4.4,3.6,68.5,68.5,0,0,0-8,10.2c-.8,1.4-1.7,2.8-2.6,4.2l-2.7.5c9.3-16.9,13.9-28.6,12.2-29.3s-10,10.6-22.7,28.6l-3.4,5a69.3,69.3,0,0,0-13,7c.3-2.8.3-4.4-.2-4.6s-2.1,2.7-4.2,7.8a115.1,115.1,0,0,0-22.7,23.4,264.1,264.1,0,0,1,4.6-37.3c1.3-6.4,2.8-12.3,4.4-17.7s3.6-8.3,2.9-9l3.3-8.4c8.9-20.3,18.8-30.5,17.6-31.3s-13.5,8.2-24.5,28.5a137.6,137.6,0,0,0-10.3,24.3l-1.2-1.2a23.3,23.3,0,0,0-8.8-4.7,26.8,26.8,0,0,0-9.9-.9,37.7,37.7,0,0,0-9.9,2.4,70.9,70.9,0,0,0-19.6,12c-1.9,1.5-3.7,3.2-5.6,4.8l-2-2.1,2.3-3.6c3.9-4.7,7.9-9.1,11.9-13.3a182.1,182.1,0,0,1,21.8-19.6c5.7-4.3,9.3-6.6,8.7-7.4s-5.5-.3-12.8,2.9a77.9,77.9,0,0,0-14.1,7.8.9.9,0,0,0-.4-.8c-.9-.4-3.3,2.2-6.8,5.9-1.8,1.4-3.6,2.8-5.5,4.5a197.7,197.7,0,0,0-17,16.3h-.1c-.1,0,0,.1,0,.1l-5.6,6.4c1.8-8.6,3.4-16.1,4.7-22.6,4.5-9.3,8.9-17.9,13.1-25.6,12-22.1,20.5-35,19-35.9s-12.9,10.5-27.5,31.8a22.6,22.6,0,0,1-1.3,2c-.1-1.5-.3-2.7-.8-2.8s-3.7,5.2-7.1,14.5a8.8,8.8,0,0,1-.5,1.5c-2.9,4.9-5.8,10.1-8.8,15.5.4-4.3.7-8.6,1-12.8,1.1-18.5,1.3-38.1,1.1-48.9s-.8-19.5-2.4-19.7-4,6.5-6.2,18.3-4,27.5-6.3,48.2c-.3,2.8-.7,5.8-1,8.8-1.6-5.5-3.2-10.1-4.7-13.9l-1.5-5.1c2.5-1.5,4-2.4,3.7-3s-2-.9-4.9-.6c-1.2-3.6-2.4-7.1-3.5-10.2-2.6-7.1-5.5-14.5-7.4-19.2-3.7-9.1-5.8-14.1-7.1-14.1s-1.9,5.4-.3,14.8c.9,5.7,2.2,11.7,4.1,19.6l2.8,12.2-3.9,1.7a84.9,84.9,0,0,0-15.3,10,119.3,119.3,0,0,0-16.2-15.5c3.3-13.1,5.1-21.5,3.3-22.2s-6.1,5.5-11.4,16.5c-4.9-2.9-8.1-4-8.6-3.5s2,3.5,6.4,8.3l-.3.4c-3,7-5.9,14.5-8.6,22.7a223,223,0,0,0-4.7-48.4c-.4-1.7-.8-3.2-1.2-4.8a176.7,176.7,0,0,0-2.2-36c-4.8-28.2-15.3-44.1-16.9-43.8ZM261.3,939.3l.3,1.2a311.4,311.4,0,0,1,6.7,30.7c1.2,6.7,2.2,13.6,3.2,20.7l-1.1.7-1.2-1.1c.1-1.4.1-2.5-.2-2.6s-.7.5-1.2,1.3l-2.5-2.2a152.3,152.3,0,0,0-17.1-12.2c.9-3.8,1.8-7.4,2.8-10.8,2.3-5,3.6-8.3,3-8.9q1.5-4.4,3.3-8.4C258.6,944.6,259.9,941.9,261.3,939.3Zm72.9,6.3h0l3,3.4a313.7,313.7,0,0,1,4.9,34.1l-2.3,1.8c-1.3-11.9-2.9-23-4.6-32.6h0c0-.1-.1-.3-.1-.4a6.9,6.9,0,0,0-.2-1.3l-.6-4.6a.7.7,0,0,1-.1-.5Zm20.6,28.7c1.7,3.2,3.2,6.4,4.7,9.8-.1,1.2-.2,3-.2,4.3l-2.5,1.9c-.1-.7-.1-1.4-.2-2.2a130.3,130.3,0,0,0-1.8-13.8ZM179.7,984.8a109.2,109.2,0,0,1,7.5,14.6c-2.2,1.5-4.5,3.2-6.8,5-.9-1-1.6-1.5-2.1-1.4s-.8,1.4-.5,3.5c-2.7,2.3-5.4,4.8-8.1,7.6s-4.4,4.7-6.5,7.3l1.7-4.8c2.4-6.4,4.9-12.5,7.4-18.4a130.8,130.8,0,0,1,7-12.8Zm66.3,1.5c3.3,2.6,6.6,5.4,10.3,8.7a52.1,52.1,0,0,1,4.7,4.7,119.2,119.2,0,0,0-18.9,20.3A251.1,251.1,0,0,1,246,986.3Zm96.7,5.3v1.3l-.7-.4Zm-53.2,2.5c0,1.4.1,2.9.2,4.4l-2.3,4.2c-.2-1.3-.4-2.5-.5-3.8S288.6,995.7,289.5,994.1Zm137.2.7c2.9,3.5,6,7.5,9.1,12a21.4,21.4,0,0,0,1.3,1.9l-.9.9c-2.5-5.2-4.6-8.1-5.8-8s-1.3,5.6-.3,14.3a156.2,156.2,0,0,0-12.7,15.6C421.1,1017.5,424.7,1003.1,426.7,994.8Zm-215.8.5c-.6,7.1-1.6,19.4-2.5,31.5a128.6,128.6,0,0,0-5.7-16.2c3.1-6.5,4.7-10.6,3.6-11.2s-3.4,1.1-6.6,4.3a4.1,4.1,0,0,1-.5-.9l1.5-1.1C204.3,999.2,207.7,997.1,210.9,995.3Zm130.1,2a33.1,33.1,0,0,0,1.8,2.9c0,1.6-.1,3.2-.1,4.7l-1.1,1.3Zm124.9.3a3.6,3.6,0,0,1,.2,1,145.2,145.2,0,0,1,3,17.7c.7,7.8,1.2,15.8,1.4,24.2v1.8c-1.1-2.1-2.2-4.3-3.4-6.4s-2.8-4.8-4.2-7l-3.1-5.9c1.1-2.2,1.4-3.7.8-4.2s-1.6-.1-3,.6c-1.8-3.1-3.8-6-5.8-8.8a123.4,123.4,0,0,1,14.1-13Zm-107.2,1.9c-.2,2.8-.3,4.9-.5,8a5.2,5.2,0,0,0-1-1.1c.1-1.7,0-3.4,0-5l1.5-1.9Zm8.7,6.6a224,224,0,0,1,5.3,24l-2.1-4.1c-.9-1.7-1.8-3.3-2.8-4.9C367.7,1016,367.6,1010.9,367.4,1006.1Zm-99.8,1.1,1.3,1.6c-.6,1.4-1.3,2.7-1.9,4.1-1.9,4.5-3.7,9.1-5.2,13.9l-1.1.6c2-7.1,3.8-13.2,5.2-18.6Zm48.2,0a5.6,5.6,0,0,1,.5.8l-.3.4C315.9,1008,315.9,1007.6,315.8,1007.2Zm-124.7,1.9,1.2,3.3c-1.2,1.6-2.5,3.3-3.7,5.1-.7-1.5-1.5-2.9-2.2-4.2Zm204,4.1c-.4,5.7-.8,11.6-1.4,17.9a11,11,0,0,0-.2,1.8l-.9,7.4a20.5,20.5,0,0,0-4.3-1.3c-.1-.6-.1-1.2-.2-1.8C390.8,1029,393.1,1021,395.1,1013.2ZM180.8,1019c.1.3.1.5.2.8l1.9,6.9c-1.5,2.6-3,5.5-4.5,8.4a59.9,59.9,0,0,0-5.5-4.3l-1.4-.8c2.6-3.4,5.2-6.5,8-9.5Zm263,.7,3.6,7-4,3.6c-.7-2.6-1.4-5.1-2.2-7.4C442.1,1021.8,442.9,1020.7,443.8,1019.7Zm-213.2.2c-.5,6.7-.8,13.6-.9,20.9-2,4.1-3.7,8.2-5.2,12.2s-1.8,5-2.6,7.4c1.4-8,2.9-16.4,4.8-24.7l.3-1.5C228.2,1029.1,229.4,1024.4,230.6,1019.9Zm94.1,1.3c1,1.5,2,3,2.9,4.6v1.2c-2.9,4.9-5.7,10.1-8.5,15.4,0-2.1-.1-4.2-.2-6.4,2.2-5.5,4-10.2,5.8-14.8Zm-70.7,2.1c-1.4,3.7-2.9,7.6-4.3,11.6a44.7,44.7,0,0,0-3.5,2.9,30.7,30.7,0,0,0-2.6,2.5A153.5,153.5,0,0,1,254,1023.3Zm102.2.8a20,20,0,0,1,1,2.1c-.3,3.9-.5,7.8-.8,12l-2.2.3C355,1033.8,355.7,1029.1,356.2,1024.1Zm-160.2.5c.5,1.6.9,3.3,1.3,4.9a23,23,0,0,0-1.5,2.3H195l-1.1-2.7,2.1-4.5Zm79.6,1.4c.1.5.1,1,.2,1.5-1.6,3.7-3.1,7.5-4.6,11.3a20.9,20.9,0,0,1-.8,2.3l1.2-4.7q1.3-5,3-9.6Zm290.7.3,3.3.3a20.8,20.8,0,0,1,7,2.6,22.7,22.7,0,0,1,2.8,1.8l-1.9,3a144.5,144.5,0,0,0-9.7,18.9c-2.2.5-4.6,1.2-7.1,2l-.3-5.2c0-.2-.1-.3-.1-.5,4.7-2.3,7.5-3.6,7.2-4.4s-3.1-.7-7.6,0c-1-8.4-2.5-14-3.8-15.8a30.6,30.6,0,0,1,6.6-2.3l3.6-.4Zm-12.2,3.7c-.8,2.7-1.4,8.5-2.1,16.6a84.5,84.5,0,0,0-16.6,6.8c-1-1.8-2.1-3.3-3.2-4.9,2.3-2.5,4.6-4.9,6.9-7.1C544.4,1036.5,549,1032.8,554.1,1030Zm-385.5,3.9a105.1,105.1,0,0,1,6.2,9,11.7,11.7,0,0,0-.5,1.1,91.8,91.8,0,0,0-14.3,16.2l-.4.5a91.2,91.2,0,0,0-5.3,8.6c.2-3.9.2-8.4.2-13.3A251.3,251.3,0,0,1,168.6,1033.9Zm263.7,1c.2,1.9.4,4,.7,6.1l-2.3,2.5-.8-.4q-.4-1.8-.9-3.3Zm19.3.9,1,2.2c.8,2,1.6,4,2.3,6a54.7,54.7,0,0,0-4.9-5.9l1.1-1.6Zm-193.7,5.1c-1.3,5.8-2.3,11.5-3,17l-2.6,2.4-1.1,1.1-.2.2c1-3.3,2.1-6.6,3-9.6s1.8-6.6,2.6-9.8Zm134.5.9c-.9,7.2-1.9,14.4-3,21.3q.2-4.6,0-9.6c-.2-3.7-.4-7.5-.8-11.3l3.8-.4Zm-192.1.9h0c1.7,8.2,2.9,15.7,3.7,22.7-.3-2.3-.7-4.7-1.2-7.1h0c-.9-4.4-2-8.5-3.1-12.5l.6-3.1Zm320,.7c.2.3.4.8.7,1.2-1.3,1.2-2.5,2.6-3.7,3.8.8-1.5,1.7-3,2.6-4.4A2.1,2.1,0,0,1,520.3,1043.4Zm-73.9.5a102,102,0,0,1,5.6,9.6v.3l-3.9,1.3c-.5-3.9-1.1-7.6-1.8-11.2Zm-258.8.6.6,2.2-.9-1.4-.2-.2Zm448.6,1.2h0l-.2.4c-.6,1.1-1.2,2.2-1.7,3.3a9.3,9.3,0,0,0-.5,1l-.2.2c0,.2,0,.1.1,0-4.6,8.2-9.7,18.1-14.5,28.8l-2,.2c.5-1.4,1-2.8,1.6-4.1,3.9-10,9.6-20.1,14.1-28.2l3.3-1.6Zm-280,.9c0,1.4-.1,2.6-.1,4v-.2l-.9-1.8-.7-1.5,1.8-.5Zm195.3,7.3c-.1,1.1-.3,3.6-.4,4.9l-4.4,2.2c.5-1.7.7-2.8.1-3.1s-3.3,1.1-6.6,4.4l-.5-1,1.6-1.1c3.6-2.5,7-4.5,10.2-6.3Zm-131.4.2.3.3-.3,2.6c-2.8,4-5.6,8.2-8.3,12.7h0c-1.5,2.5-2.8,5-4.1,7.5,3.5-7.3,7.6-15,12.4-23.1Zm-54.1.8v.4a.5.5,0,0,1-.2.4c.1-.3.1-.5.2-.8Zm-87.5.1c.5,6,1.1,12.1,1.6,17.4-1.3,3.9-2.5,7.7-3.4,11.4a121.1,121.1,0,0,0-8.6,9.5,340,340,0,0,1,8.7-33.2C277.3,1058.4,277.9,1056.7,278.5,1055Zm248,.1c.4,1,.9,1.8,1.3,2.9-2.3,1.5-4.5,3.1-6.8,4.9l-.6-.5,2.1-2.6Zm-344.3,2.4q.6,1.5,1.2,3.3c-.5,1.5-1,3-1.5,4.7l-1.5,4.8h0l-3.1.5c1.5-4.3,3.1-8.7,4.9-13.3Zm144.4,1.8c-.5,6.9-1.2,13.2-1.9,19.1-1.2-3.5-2.7-7.1-4.3-10.8,1-2.2,1.9-4.2,3-6.4Zm128.8,1.8c1.6,3.8,3.1,7.8,4.6,12.1,2.3,6.5,4.3,13,6.2,19.7-.7,2.1-1.3,4.1-1.9,6-1.5-1.7-2.9-3.4-4.4-5l-.3-1.1a1.4,1.4,0,0,0-.2-.7,119.6,119.6,0,0,0-10-25c0-.6-.1-1.1-.1-1.6C451.5,1063.8,453.5,1062.4,455.4,1061.1Zm157.2.2c-1.8,3.3-3.5,6.7-5,10.1s-3.7,9.2-5.3,14l-1,.6c2-7.1,3.8-13.3,5.1-18.6C608.5,1065.3,610.5,1063.2,612.6,1061.3Zm-370.3.4a6.4,6.4,0,0,0-.2.7v-.4Zm321.2,1.8c-.8,2.2-1.6,4.3-2.3,6.6,0-1.8-.1-3.4-.1-5.1l2.4-1.5Zm-45.1,1.5Zm13.3,2.7a22.5,22.5,0,0,1,.8,2.4l-4.5,3.8c-.3-.7-.7-1.4-1-2C528.6,1070.4,530.1,1069,531.7,1067.7Zm-10.3,9.9a2.5,2.5,0,0,0,.2.7l.3,1.3-.4.5-3.9,1.7,2.4-2.8Zm49.8.8c-.5,6.7-.8,13.7-.9,20.9a130.3,130.3,0,0,0-5.3,12.3c-.9,2.5-1.7,5-2.5,7.4,1.4-8.1,2.9-16.5,4.8-24.8l.3-1.5C568.8,1087.7,569.9,1082.9,571.2,1078.4Zm-21.8,1.6c-.1,2-.2,3.3-.4,5.4-.4-1.6-1-3.1-1.5-4.6h.1l1.8-.7Zm-115.5.2,1.2,1.1.4.5c.1,4.8.3,9.6.3,14l-3.3-2h0c0-2.1.1-4.1.1-6.2s.1-4,.1-6l1.2-1.4Zm160.6,1.7c-1.4,3.7-2.8,7.6-4.2,11.5l-3.5,2.9-2.7,2.5A157.8,157.8,0,0,1,594.5,1081.9Zm-361.1.6c.1.4.1.8.2,1.1l-1.8,3.3C232.3,1085.5,232.8,1084,233.4,1082.5Zm134.6.1c.1,2,.1,3.9.2,5.7-.3-1.5-.5-3-.8-4.5Zm249.3,1c-1.9,4.5-3.7,9.1-5.5,13.8-.3.7-.5,1.5-.8,2.2l1.2-4.6c.9-3.3,1.9-6.5,3-9.7Zm-80.1,1.9c.2.9.5,1.7.7,2.6l-1.6,2.2h-.7l-1.1-2.7a6.1,6.1,0,0,0,.5-1.2l2.2-1Zm97.1,14-1.8,3.3a194.2,194.2,0,0,0-15.3,39.5c-3.2,3.3-6,6.5-8.5,9.6a307.4,307.4,0,0,1,8.7-33.2c.9-2.9,1.8-5.7,2.8-8.6C625.2,1106.1,629.9,1102.7,634.3,1099.5Zm-35.8,0c-1.3,5.8-2.3,11.4-3.1,17a27.7,27.7,0,0,0-2.5,2.4,5.7,5.7,0,0,0-1.1,1.1h-.2q1.5-4.9,3-9.6c.9-3.4,1.7-6.5,2.6-9.7Zm-57.6,1.7h0c1.6,8.2,2.8,15.7,3.7,22.7-.4-2.3-.8-4.6-1.3-7h0c-.8-4.3-1.9-8.5-3-12.5l.6-3.1Zm-12.7,1.8.6,2.3a7.1,7.1,0,0,0-1-1.4c0-.1-.1-.2-.1-.3Zm-24.6,2.6a98.8,98.8,0,0,0-6.9,19h0c-.6,1.1-1.3,2.2-1.8,3.2.1-3.9.2-8.4.2-13.3l2.4-4c1.9-1.6,3.9-3.2,6.1-4.8Zm19.1,10.4c.5,1.1.9,2.2,1.3,3.3l-1.5,4.7-1.5,4.8h-.1l-3,.5c1.5-4.2,3.1-8.7,4.8-13.3Zm60.1,4.3a1.3,1.3,0,0,1-.1.6v-.4C582.7,1120.4,582.8,1120.4,582.8,1120.3ZM574,1141a5,5,0,0,0,.2,1.2,35.8,35.8,0,0,0-1.8,3.2Z" style="fill:#474a49"/><path id="path117782" d="M349.1,1103.8C327.6,425.1,451.8,383,450.9,302.1c.9-3.6,18.2-52.1,0-43-9.8,4.9-43.6,86.6-58.8,101.8s-.2,43.1-22.7,54.3c-15.3,7.7-17.8-42.7-22.6-47.5-28.9-28.9-74.7-41.7-74.7-95.1,0-5.2-8-50.8-18.1-40.7-2.1,2.1,0,17.5,0,20.4,0,18.1.3,56.9,11.3,67.9,29.1,29.1,54.3,58,54.3,110.9,0,3.2,2.1,18.3,0,20.4-.5.5-53.1-58.3-58.8-61.2-3.8-1.8-125.7-50.9-95.1-20.3,12.9,12.8,50.4,17.1,70.2,29.4,29.9,18.6,72.5,59.8,70.2,81.5-5.8,53.4-12.9,142.6-20.4,142.6s-31.4-33-35.1-38.5c-10.5-15.7-42.4-39-53.2-49.8-20.9-20.9-23.7-73.5-38.5-88.3s-.4,48.2,0,49.8c16.8,67.3,44.9,65.9,83.8,117.7,3.6,4.9,14.4,11.6,15.8,15.9,3.5,10.3,10.2,24.9,15.9,36.2.8,1.7-16.3,331-22.7,369.4-1.5,9.5-13.4,61.3-4.5,70.2,17.9,17.8,85,20.2,101.9-2.3Z" style="fill:#474a49"/><path id="path119420" d="M989.8,82.2l-1.1.2-1-.5-.7.8-.9.7-.8.5-.4.9-.6.8v1l-.9.5-.7.7-1-.3-.9.6-.3,1,.2,1-.8.7-.7.6-.7.9v1l-.9.6-1,.2-.8.6-.2.9-.7.7-.9.3-.4.8v1l-.9.4-.6.8.2,1v.9l.2,1-.7.8-.6.9.3,1,.6,1-.4,1-.4,1.1.2,1.1.8.9,1,.6.8.9h1.2l.4,1,.2,1.1V115l.8.7.5.9.5.8-.8.8-1,.4v1.1l-.3,1-.7.8-.7.8-.4,1,.5,1.1-.7.8v2.1l-.4.9-.8.8h-1.1l-1,.5-.5,1-.2.4-.3.4v.4l.2.5-.4.2-.5.2-.2.4-.3.4.2.4.5.2v.5l-.2.4v1.3l.3.3.3.3v.4l.3.3v.4l.2.5.3.4h.9v.5l-.3.3.4.4v.5l-.3.3v1.8l-.3.3-.2.5v1.3l-.4.3-.2.5h-1.4l-.4.4-.4.2h-.5l-.3.4-.5.2.4.3v1.1l.3.4.4.2.4.3.4.3.2.4-.2.5h-.6v.5l-.3.5-.2.4v1.5l-.4-.2-.2-.4-.3-.4h-1l-.3-.4-.4-.2h-.4l-.5.3h-.5l-.5-.2-.3-.3-.5-.2h-.5l-.4.2-.4.2v-.4l.2-.5v-1.4l-.3-.3-.5-.3-.3-.3-.3-.4-.4-.2-.3-.3v-.4l-.3-.5v-.4l-.4-.4h-1.4l-.2-.4-.5-.2-.4-.3-.3-.3-.4.2-.5-.2-.5.2-.3.4h-.6l-.4-.2-.4.3-.4.2-.4.3v.5l-.5-.2h-.9l-.4-.3-.3-.3-.4-.2-.4-.3-.2-.4h-.5l-.3.3h-.5l-.2.4h-1.3l-.5.2.4.3h.4v.4l.2.3v.5l-.2.3.2.3v.4h.4l.3.2h.4l.3.4v.3l.3.3.2.3v.4l.2.3v.4l-.2.3-.2.4v.3l-.2.3v.7l-.2.3-.2.3v.3l-.2.4-.2.3v.7l-.3.2v.4l.2.3v.4l.2.3-.2.4v.4l-.4.2v1.1l.2.4v.7l-.3.3-.3.2-.3.3-.3.3h-.3l-.3.3v.4l-.3.2-.3.2h-.5l-.2.2-.4.2-.2.3h-1.1l-.3.3h-.4l-.3.2h-1.1l-.4-.3-.3-.3-.2-.5-.3-.4v-.4l-.3-.5h-3l-.4.2-.3-.4h-.5l-.4.2h-.5l-.3.3-.4.2-.4-.2h-.9l-.5-.2h-.5l-.3.4-.4-.3-.2-.4-.3-.3h-.5l-.3-.4v-.4l-.2-.4v-.9l-.4-.4h-.9l-.3-.3h-.5l-.3-.4-.4-.2v-.5l-.3-.4.2-.4v-.5l-.2-.4h-.5l-.4-.2h-.5l-.4-.2-.2-.4-.3-.3h-.4l-.2-.4-.2-.5.3-.4V152l-.4-.4v-.4h-.5l-.5-.2h-.9l-.4.2-.2.4-.2.4-.5.2v.5l-.3.3v.5l-.2.4-.3.3v.9l-.2.4.3.3v.5l-.3.3-.4.2h-.5l-.4.2h-.4l-.4.2-.2.4-.3.3-.4-.2-.4-.2-.5.2-.4.2-.4-.2H911l-.2.4h-.4l-.3.4-.4.2h-.9l-.2.5-.5.2v.4l-.2.4-.2.4-.2.4.2.4-.2.4.2.5v.4l.3.3v.4l.2.4v.4l-.5.2v1.4l.4.3.2.4v.4l-.2.4.2.4v.4l.2.4h-.8l-.5-.5h-.7l-.6.3-.6.2h-1.3l-.4-.7-.7-.3h-.7l-.7-.2-.6-.4-.5-.5v-.8l-.2-.7-.6-.5-.5-.6.3-.7v-.8l-.7-.3-.5-.5-.8.2-.7-.4-.6-.2h-2.1l-.4.5-.7.3h-2.8l-.4-.6-.6-.2-.7-.2-.6.4h-.7l-.5.4-.5.5h-1.4l-.5.4-.6-.4-.4-.6h-.7l-.8.2-.4.4-.3.6-.3.6-.7.2-.6.3-.6.4-.6-.2h-.7l-.3.6-.6.2-.5.4-.5.4-.6-.2-.6.3-.6.4h-.7l.2.5v1.1l.3.5v.6l.2.5-.3.5-.5.4-.3.5-.2.6-.5.3-.5.4v.6l.5.4v1.2l-.3.5.2.6-.5.4-.5.3-.2.5v.5h-.6l-.4.5-.5.3-.3.5h-.5l-.4.4h-.6l-.5.4-.5.2H866l.3.5.2.5.3.5-.2.5.4.3.4.4.2.5.5.2.5.3.4.4v1l.5.2.4.3.2.5.2.5v.7l-.3.5-.5.3-.5.3v.7l-.5.4.3.6v.6l.5.3.3.5.5.3v1.2l.3.5.2.5.2.5h-.4l-.3-.2h-.9l-.3.3h-.4l-.3.2-.3.2h-.4l-.3.3h-.5l-.3.3-.3-.2h-1.2l-.2-.3-.3-.2-.4-.3h-1.5l-.3-.3h-.9l-.4.2-.3.4-.3-.3h-.4l-.4-.2-.3-.3v-1.3l-.3-.3v-.5l-.5-.3h-.9l-.3-.2-.4-.2-.2-.3-.3-.3-.3-.3-.3-.3-.5.2h-.9l-.2.4h-1.7l-.3-.2h-1.2l-.4.2h-1.2l-.3-.3h-.4v.4l-.3.2v.3l-.2.3v1.3l-.3.2-.3.2v.6l-.3.2-.2.3h-.3l-.4.2v.6l.2.3v.3l-.2.3v.7l-.2.3v.6l.3.3h.4v.3l.2.3v.6l-.4.2v1.1l-.3.2h-.3l-.3.3v.7h.3l.3.2v.7l-.2.3.3.3v.4l-.2.3v1l-.2.2-.4.2v.3h-.4l.2.3.2.3v.4l-.3.3.3.2v.3l.3.2v-.1l-.3-.4.4-.3v-.5l-.4-.3h-.4v-.5l-.4-.3-.3-.3h-.4l-.2-.4-.4-.2h-2.1l-.3-.2-.2-.4-.4-.2-.3-.3v-.4l-.2-.4v-.4l-.4-.2-.2-.3h-.9l-.4-.2-.4-.2-.3.3h-.4l-.4-.2h-.7l-.4-.2h-1.1l-.3.3-.4-.2-.2-.3h-.4l-.4-.2h-.4l-.4.2h-.4l-.3.4-.3.2v.4l-.3.3h-1.1l-.4.2-.2.3-.2.4-.4.2-.5-.2-.4.2h-.8l-.4-.2-.3-.3-.3.3v.4h-1.5l-.3.2h-.7l-.3-.3-.3.2h-1.4l-.3.3v.3l-.3.2-.2.2v.4l-.2.3h-.4l-.2.3v.3l-.4.2h-.3l-.2.3-.3.2-.2.3v.4l-.2.3v.3l-.2.3v1l-.3.2v.4l-.3.2v.6l.2.3v.3l-.2.4v.6l-.2.2v.4h-.4l-.3.2h-1.7l-.3.2v.3l-.2.3-.2.4v.3l-.3.2h-.4l-.2.3-.2.4v-.3h-.3v-.3l-.2-.2h-.7l-.3-.2v-.3l-.3-.2h-.2l-.3-.2h-1.4v-.6h-.4l-.2-.2-.2-.2h-.4v-.3l-.2-.3-.2-.2h-1v-.6h-1.5l-.3-.2h-1.7l-.2-.2-.2-.2h-.6v-.3h-.6l-.3.2h-.6l-.3-.2h-.3l-.2-.3-.2-.3h-.6l-.2-.2v-.3h-.3l-.2-.3v-.5l-.8.5-.7.7-.8.5-.7.6-.3,1-.7.8.6.8.3,1v.9l-.4.7v1.7l-.3.9-.6.7.5.8v.9l-.8.4-.8.3h-1l-.7.5h-.9l-.9-.2h-.9l-.8.5-.7.6-.9.4-.9-.4-1,.4-.8.6v.9l-.9.5-.3.9-.7.5v2.4l-.8.2-.5.7-.5.7v.9l.4.8.3.7-.6.7v.9l-.5.6-.2.8v.8l-.7.6-.4.8-1,.2v.9l-.6.7.3.8.2.9-.2.8-.3.8.2.9.5.7.9.3.5.7v.9l.6.8-.2.9-.3.8h-.5l-.3.3h-.9l-.3-.3-.3-.3-.5.2h-.5l-.2-.4-.3-.4-.5.2-.5-.2v-.4l-.2-.5-.5-.2v-.8l-.2-.4-.2-.3.2-.4v-.5l-.4-.2-.2-.4h-.4l-.3-.3v-.4h-.4l-.2-.3v-.9h-.4l-.3-.3-.5-.3h-.5l-.2-.5-.2-.4-.4.3-.4.2h-.5l-.5-.2h-1.3l-.4.2h-.5l-.3.5-.3.4.2.5h-.4l-.4.2-.4-.2-.3-.2h-.8l-.3-.3h-.4l-.3.2H758l-.2-.4H757l-.3-.2-.3.2v1.4l.4.2-.2.3v.7l-.2.3.3.2v1l.2.3.2.3h-.3v.3l-.2.2-.3.2v.2l-.2.3-.3.2v.3h-.3l-.2.3-.3.3v.4h-.6l-.2.2h-.3l-.3.2v.9l-.2.2H752l-.3.2v.6l-.2.3h-.7v.9l-.3.2v.3h-.3l-.2.3v.4l.2.2v1l-.2.3-.2.2-.3.2h-1l-.2.2-.5-.3h-.5l-.3-.4-.4-.2v-.6l-.4-.4-.3-.4h-.6l-.4-.3-.2-.5-.3-.4h-.5l-.3-.4v-.4l-.5-.2-.4-.3h-1.1l-.4-.3-.4-.4-.4-.2h-.5l-.4-.3-.4-.2-.5.3h-.6l-.5-.3h-1.2l-.4-.5V248l-.4-.4-.6.2-.5-.2-.5.3h-.5l-.4.4-.3.4v.6l-.4.4h-1.6l-.3.5-.5.2h-.5v.6l-.3.4-.4-.4h-.5l-.6.2-.5-.2H725l-.5-.2-.4.4-.3.4-.4.3-.4.4-.5-.2h-1.2l-.4.4.6,1-.3,1.1-.4,1.1.4,1.1.7.9.5,1v1.1l.4,1.1-1.3.2-1,.8-.4,1.2-.4,1.1-.2,1.2-.6,1-.4,1.1.3,1.1.9.6.7.7.6.9.9.6.2,1.1.9.7.7.8,1,.4.7,1.1,1.1.5-.5,1.2.5,1.3,1.2.2.7.9,1.2.2,1.1.3v1.2l.9.7v1l.2,1.1v1.1l-.5.9-.4,1.1-1,.5-.7.9v1.2H728l-.7.9-.4,1-.4.8-.7.8v2.1l-.7.7-.3,1-.6.7v1l-.7.8-.5,1-1.1.2-.8.5-.7.7-1,.2-.5,1-.2,1-.6.7-.9.5-.8.6-.2.7-.2.6-.6.2-.6.5-.3.5-.3.6-.2.5-.5.5-.5.5h-1.5l-.6-.4-.7.2-.6.3-.4.6-.4.5-.6.4-.3.6-.8.2-.2.7-.6.5-.4.6-.7.2h-.7l-.4-.7-.7-.3h-.7l-.6-.5-.7.3-.8.3h-.7l-.7-.5-.5.4-.6.4-.6-.2-.7.2-.7-.2-.7.2-.5-.5-.4-.5h-.6l-.6-.3-.5-.2h-1.2l-.6-.2-.5-.3-.7.2-.4-.5h-.7l-.6-.4-.5-.3h-.7l-.5.4-.6.3h-.7l-.3-.5-.6-.3-.6-.3H683l-.7.2-.6.4-.5-.4-.7-.2.2.5v1.4l-.4.5h-.6l.2.6-.3.5v.9l-.2.5-.2.5.2.5.5.2.2.4v.6l-.3.3-.2.5-.4.2-.3.4-.4.2-.4.3h-.5l-.4.3-.4.4v.5h-.5l-.4.3.2.5-.3.5-.3.4-.3.4-.3.3-.2.4v.5l.2.4v.5l.3.4-.2.4v1.3l.2.4v.5l-.2.4-.2.4v.9l-.2.4v.9l-.4.3v1.4l-.2.4h-.5l-.3.4-.3.4-.4.2-.4.3-.2.5-.3.4v.5H671l-.4.3-.4.3-.3.5H669l-.5.2-.3.4h-.5l-.5-.3h-.6l-.4.4-.5-.4-.2-.5H665l-.4-.3-.5-.2-.3-.3-.6-.2-.5.2-.4.3-.6-.2h-.5l-.4-.4v1.1l-.5.2-.5.4h-.5l-.5.3-.2.5-.5.2-.3.4-.3.3.2.5-.2.5h-.5l-.4.3v.5l-.4.2h-.5l-.4.2-.3.4h-.5l-.4.2-.3.3-.4.2-.3.3-.2.4-.5.3v.9l-.4.3-.2.4v.5l.2.5v.5l-.2.4-.5.2-.4.3h-.5l-.4.4-.4.3v-.2l.3-.2v-.6l-.4-.2v-1.5l-.2-.2-.2-.3h-.7l-.2-.2h-.6l-.2-.2h-.3l-.2-.2-.2-.2-.2-.2-.2-.3h-1.4l-.2-.3h-1.7l-.3.2h-1.1l-.2-.2h-.2l-.2-.2v-.3h-.3v-.3l-.2-.2-.3.2-.3-.2h-.3v.3h-.6l-.2-.3h-.3l-.2-.2-.3-.2v-.5h-.6l-.2-.2-.2-.2-.3.3-.4.3v.5l-.5.2-.3.3h-1.4l-.4.4v1.5l-.4.4h-1l-.4.4v1l-.5.2-.2.5v.5l-.3.3-.3.4-.3.4.2.4v1.1l-.5.3.3.4.2.4.2.4v.5l-.4.3-.3.3-.2.4h-.5l-.2.4-.4.3v.4l-.4.3-.4.3-.3.4h-.6l-.4.2-.6-.2-.6.3-.3-.4-.4-.4-.5.2-.2.4-.4.4-.5.2-.4-.2h-.5l-.5-.2h-.5v.5l-.4.3-.3.3-.4.3-.3.4-.3.3-.2.4v.5l-.4-.3-.3-.4.3-.4v-.5l-.2-.5-.4-.2-.3-.2-.4-.3v-1.3l-.4-.3-.4-.2-.2-.4-.2-.4-.2-.4h-1.4l-.4.2-.4-.4v-.5l-.4-.3h-.6l-.4-.3h-.5l-.2-.4-.2-.5v-.4l-.4-.3h-1.4l-.2-.5-.5-.3-.2-.4-.4-.3h-.5l-.5-.3h-1.1l-.5.3-.3.5-.3.4-.4-.2h-1.6l-.5-.2-.5.2-.3-.5-.5-.3-.3-.3-.2-.5-.3-.4v-.5l-.3-.4v-.5l-.3-.4-.5-.2-.2-.4v-.9l-.3-.4-.2.4v.4l-.3.3-.3.2v.4l-.2.4v.8H596l-.5-.2-.3.3-.3.3-.4.2v.5l-.4.2h-1.7l-.3-.3-.4.2-.3.3-.4-.2h-.4l-.3.2-.3.3h-.4l-.3.3h-.7l-.4.3h-1.2l-.3.4h-.3l-.4.3h-.4l-.3.2h-.9l-.4-.2-.5.2-.2.3-.4-.2h-.4l-.3-.3-.4-.2v.4l-.2.3-.2.4-.4.2v.8l-.5.2v.4l-.3.3-.2.3-.4.2-.2.4-.4.2-.4.2h-.4l-.5-.2h-.3l-.3-.2-.3.2h-.4l-.3-.2h-.7l-.2-.3v-.8l-.3-.2-.2-.4h-.7l-.4-.2-.3-.2v-.3l-.3-.3v-.7l-.2-.3h-.8l-.2-.3-.4-.2-.2-.3v-.4l-.3-.3h-.3l-.4-.2h-.7l-.3-.3-.3-.3h-.8l-.2-.3-.2-.3-.3-.3-.2-.3h-.7l-.3-.3h-.4l-.3.3h-.8l-.4.2.2-.3-.2-.4v-.4l-.3-.2-.4-.2-.2-.2-.2-.4-.3-.2-.2-.4v-.4l.3-.3v-.4h-.4l-.4-.2v-.4l-.2-.3-.5-.2-.4.2h-.5l-.3.2-.4-.2-.3-.2-.5-.2-.3-.3h-1.3l-.2-.5v-.8l-.4-.2-.4-.3h-.8l-.5-.2-.4.2-.2-.5-.5-.2V338l-.2-.4-.4-.3h-.4l-.4.2h-.5l-.3.2-.4.2-.4-.3h-.5l-.4-.2-.4-.2H549l-.4.2h-2l-.4-.3-.4-.2h-1.2l-.4-.2h-.4l-.2-.4-.3-.3-.3-.4-.3-.3-.3-.4v-1l.3-.4-.3-.2-.4-.3-.4-.2h-.5V332l-.5-.2h-1l-.2.3-.2.3-.2.3.3.4-.2.2-.3.3-.3.2h-1l-.3.2h-.4l-.2.3-.2.3-.3.2h-.7l-.3-.2-.2-.3-.3-.2-.3.2h-.7l-.3-.2-.3-.2h-.4l-.3.2h-.6l-.3.2h-.6v.6l-.2.2-.3.2v.6l-.2.3h-.3l-.2.3-.2.2v.6h-.6l-.2.2-.3.2.2.3v.3l-.2.3v.6l-.2.2v.6l-.3.3H527l-.2.2v.3h-.4l-.2.2-.2.3v.4l-.4.2H525l-.5.2h-1l-.4-.3-.3-.3-.2-.5-.2-.4-.2-.3-.3-.4v-.5l.2-.4-.3-.5-.3-.3-.3-.3-.4-.3-.5-.2-.4.2h-.5l-.4.3-.2.4-.3.4h-.4l-.4-.2h-.4l-.4.2h-1.4v-.5l-.5-.2h-.4l-.4.2h-.3l-.3.3-.5-.2-.4.2-.3.3-.3.3h-.4l-.3-.2-.2-.4h-2l-.3.3v.5l-.3.3-.4.2h-.5l-.4.2h-.4l-.4-.3h-.4l-.4-.2-.3.3h-1.6l-.3-.2-.4.4-.3.3-.6.2-.5-.2-.3.3H499l-.4.3h-1.5l-.4.4-.5.2h-.5l-.4.5-.4.2h-1.1l-.4.4h-.5l-.5.4-.5-.3-.5-.4h-.6l-.5.4-.5-.3-.4-.4-.2-.5-.5-.3-.3.4-.2.4h-.6l-.3.3-.4.4h-.5l-.4.2-.5.2-.4.3-.3.4v.5l-.2.4v1l-.5.2-.5.2-.2.6-.5.2-.2.5-.5.3.4.4v.6l-.2.6v.5h-.5l-.5.2h-.6l-.5.2v.6l-.3.6-.4.4-.6.3-.2-.2v-.5h-1.7l-.2-.2v-1l.2-.2H476l-.2-.2h-1.5v.2h-.5v-.2h-.2l-.2-.2h-.4v-.2h-.2v-.2h-.3l-.2.2H471V348l-.2-.2v-.2h-.2v-1.4h.2v-1.6l-.4.2v.8l-.2.3-.2.3v.3l-.4.2h-.3l-.3.2h-.8l-.2.3h-.4l-.3-.3-.3.2h-.5v-.4l-.3-.2h-.4l-.3-.3H464l-.3.2-.4-.2h-1.1v.4l-.3.2-.2.3-.3.2h-.7l-.3.3v.7l-.2.2v.4l-.4.2-.4.2h-.3v.8l-.3.2-.3.3.2.3v.7l-.2.3-.3-.2-.4.2-.3-.3h-.9l-.2.3h-.4l-.2.3v.8l-.2.3-.2.3-.2.4-.2.3h-.5l-.3.3h-.7l-.3.2h-.3l-.3.2h-.7l-.3.2h-.4l-.3.2h-.4l-.3.3h-.8l-.2-.3-.2-.4h-.9l-.3-.2h-.7l-.3-.3h-.3l-.3-.2v-.4l-.2-.3-.2-.3-.2-.3h-.3l-.4-.2h-.3l-.3-.3h-.4l-.4-.2h-.3l-.4.2-.3.2h-1.3l-.3-.3-.3-.3v-.4l-.2-.3-.3-.2v-.4l-.3-.3v-.7l-.3-.2v-1.1l-.2-.2v-1.8l-.2-.3-.2-.3-.4-.2v.2l-.2.3h-.4l-.2.2h-.4l-.2.3v.3l-.3.2h-.3l-.3-.2h-.3l-.2.3-.2.2h-.7v.6l-.2.3v.6l-.3.2h-.3l-.2.2-.3.2v.6l-.3.2-.3-.2-.4.2v.3h-.3l-.3-.2-.3-.2h-.3l-.3-.3h-.8v.3l-.3.2h-1l-.2-.3h-1.2l-.2.3h-1l-.3.2-.2.2-.3.2v.3h-.7l-.2.2-.2.2h-.3l-.3.2v.3l-.2.3v-.2h-1.4l-.2-.2h-.7v.2h-.7v.2h-.2l-.2.2v1.1h-1v.2h-.3v.3H417v.2h-.2l-.2.2h-.7v.2h-.5v-.2H414v-.5h-.2v-.3h-.5V353h-.4v-.2H412l-.2-.2h-.5v-.2h-.5v-.2h0v-.7h-.3l-.2-.2v-.2h-1.5v-.2H408V349h-.3v-.6h-.3v-.6h0V347h.1v-.4l.2-.2v-.2h-.4v-.2h-.9V345h-.6v-.2h-.8l-.5.3-.5.4h-.6l-.5.2h-.6l-.5-.3h-1.3l-.6-.2v-.7l-.5-.4-.6.3-.6-.3-.6-.2-.5-.3-.6.2-.6-.3-.5.4-.4.5-.6.3H393l-.5-.4h-1.3l-.5.4-.5.4h-.6l-.3.7.3.6-.6.3-.4.6h-.7l-.5.4-.5-.4-.6-.3H385l-.4.5-.5.4h-.6l-.4.5-.2.6-.5.3v.6l-.5.3-.4.5v1.7l-.3.5-.2.5-.6.3v1.7l-.5.4-.4.4-.5.3-.2.6h-2.4l-.2-.4v-.4l-.3-.4h-.5l.3-.4v-.9l-.4-.3v-.4l-.3-.3-.3-.4h-.3v-1.3l-.2-.3v-1.3l.2-.4v-.4l-.3-.4v-.4l-.4-.3-.4-.2-.3-.4h-.4l-.4-.2-.4-.4-.2-.5.2-.4v-1l-.4-.4.4-.4v-.5l.4-.3.3-.3.2-.4.2-.5.2-.5-.2-.4-.4-.3-.4-.3-.2-.5h-.6v-.9l-.5-.2-.4-.4h-.6l-.5.4-.4-.3-.3-.4v-.6l-.4-.4-.3-.3-.2-.4v-.9l-.3-.4v-1.3l-.8.5-.8.3-.9.4-1-.2-.9-.2-.6-.7-.6-.7-.8-.4h-1l-.7.7-.9.4-.9-.4-.4.8-.2.9-.7.6-.3.9-.5-.8h-.9l-.9.4-.9-.4-.7.4h-1.7l-.9-.2-.5-.6-.3-.8-.8-.3-.7-.6-.6-.5-.7-.5-.3-.8v-.9l-.5-.8v-.9l-.9-.3-.8-.5h-1.8l-.8-.3h-.9l-.8-.4-.4-.9-.7-.5-.7-.4-.6-.8v-1.8l.5-.8-.8.3-.6.4-.7.3-.7.4h-.8l-.8.3-.8.2-.8-.3-.5-.7-.7-.4h-1.7l-.7.7h-1.8l-.7-.6v-.6l-.2-.4-.3-.4-.2-.5v-1.5l.3-.4-.3-.4V319l-.4-.4-.3-.4v-.5l-.2-.5-.3-.3v-.6l.2-.4.3-.4v-.6l-.3-.4v-.6l.2-.4.2-.5-.3-.5-.2-.5-.5-.4h-.6v-.5l-.3-.4v-.6l-.2-.4h-1.6l-.4-.3-.3-.4-.5-.3-.4-.3-.5-.2-.3-.5-.5-.2-.4-.4-.3-.4v-.6l-.4-.4v-.6l.4-.5-.2-.5.2-.5-.2-.6h-.6l-.4-.3-.2-.5h-.5l-.3-.5v-1.1l-.5-.3-.4-.4h-1l-.6-.2v-.6l-.4.6-.7.2-.7-.2h-.8l-.5.6h-.8l-.5-.6h-1.5l-.6.4-.7-.2-.6-.4-.6-.3-.4-.5-.6-.3-.5-.4-.7.2-.6.5-.7.2-.7-.4h-1.4l-.6.3-.5.5-.7.4h-.8l-.4.6-.3.7-.5.6.2.7-.6.5v.8l-.7-.5v-.9l-.7-.3-.7-.3h-.7l-.7.3h-1.5v.8l-.8.5-.7.3-.8-.2h-.8l-.6-.3H283l-.7-.2-.6.4-.7.2v.7l-.5.5-.6.3-.4.5-.4.6-.2.6h-.7l-.7.3-.6.4h-.7v.8l-.6.5-.5.5v.8l-.6-.4-.3-.6-.5-.5h-.7l-.7.3-.7-.2h-.8l-.6-.4-.3-.7-.4-.7h-.8l-.7-.2v-.7l-.3-.7-.2-.7.3-.7-.6-.4-.6-.4-.6.3h-.7l-.2-.7-.7-.3-.6-.3-.5-.4v-.7l-.3-.6-.4-.7h-.7l-.4-.6h-.7l-.5-.3-.6-.3h-.7l-.6-.4-.4-.5-.5-.5-.2-.6-.3-.7h-.8l-.5-.6v-.8l-.6-.6.7-.5v-.8l-.7-.5h-.8l-.2-.8-.2-.7-.6.6h-.8l-.8.4-.7-.3-.5-.5-.6-.5h-.8l-.6-.6-.6-.6h-.9l-.3-.7-.5-.6v-.7l-.3-.7-.3-.7.2-.7-.7.4-.5.7.2.8-.2.8.6.4.2.8v.8l.6.6-.2.8.5.6-.5.5-.3.7v.7l-.4.6.2.7-.3.6.6.5.6.5v.7l.2.8-.8.4-.2.8-.2.9.6.7.2.6.4.6.2.7.5.4v.7l.3.7.3.6v.7l-.7.4-.5.5-.7.4-.5.6v.8l-.5.7-.8.4-.3.8.6.7v.9l.4.7.3.7v.9l-.5.8-.7.5-.5.7-.8-.2-.7.3-.4.7-.8.3-.8-.3-.7.3h-.8l-.5.7-.9-.2-.7.5h-.8l-.9-.2v.8l-.5.7-.8.3-.5.7-.4-.4-.4-.3h-2.5l-.5.2-.2-.5-.3-.4-.5-.2-.3-.4-.5-.2h-1.5l-.4-.3-.2-.5h-.5l-.4-.3-.4-.2-.3-.3-.5-.2-.3-.2-.4-.3-.4-.4V314l-.3-.4-.5-.2-.2-.4h-.5l-.5-.3h-1l-.5-.4-.5.2-.5.2h-1.5l-.3-.4-.5-.3-.4-.3h-.6l-.5-.2-.5.2H212l-.4-.4-.6-.2h-.6l-.3.6-.6.2-.4.5h-1.3l-.5-.3-.4.4-.3.5v.6l-.5.3-.3.5-.3.5v1.8l.3.2.2.3-.3.2-.2.3.2.4v.4l-.4.2v.4l-.2.2-.3.2v.4l-.2.3v.4l.3.2h-.3l-.3.2-.4.2v.3l-.3.3v.7l.2.3-.3.2h-.3l-.4.2v.7l-.3.3v1l-.2.3h-.4l-.2.3v1.1l-.2.3.3.3v.7l.3.2v.8h.4v1l.3.2.3.3v.3l.3.2v.6h.8l.3.2.3.3v.7l.4.2.2.3H205l-.5.3-.3.4-.4.3h-1.1l-.5.2-.4.4-.5.2h-1.1l-.4-.5-.4.2h-.5l-.5.2h-.5l-.5.4v.6h-.5l-.5.3h-.6l-.5-.3-.5.2-.5.3h-.5l-.5.2-.2.5-.4.4-.2.4-.5.2-.4.2-.3.4-.5-.4h-.7l-.3-.5-.4-.4-.5.3h-.6l-.6-.3h-.6v-.6l-.3-.5-.3-.4-.5-.4-.5-.3v-.6l-.3-.5h-.6l-.6.2-.6.3-.3.5v.6l-.6.3h-1.2l-.5.3-.6.4-.3.5-.7-.3-.7.2-.4-.5-.3-.6-.7.2-.7-.3-.2.9.3,1-.7.6-.7.7-.6.9v1l-.9.5-1,.2h-1l-.8.7-.9-.4-.8-.5-.9.5-1-.4-.5.8h-1.1l.4.9.7.6.6.7v2.9l-.6.7-.5.9-.9.4-.4.9v1.9l-.9.5-.4.9-.9.3h-1l.4.9v.9l-.2.9-.7.7-.7.7.2,1.1h-1.1l-.7.7v1l-.8.7.3.9.2.9.6.8-.2,1,.7.7.9.4.8.5h1v1l.7.7.5.7h.9l.8.4.6.5.3.8.3.8.5.7-.2.9.2.8.6.6-.4.9.4.8-.6.3v.5l-.5.2-.4.4-.3.5v1.1l-.2.5-.4.3h-2.6l-.3.5-.5.2H161l-.3-.5-.4-.4-.4-.2-.5-.2h-.5l-.5-.2-.3-.4h-.6l-.5.4-.6-.2-.5-.2h-.6l-.4.5-.6.2v.6l-.5.2-.4.2-.4.3h-1.5l-.3.4h-1.6l-.5-.2-.3-.4-.4-.2-.3-.4h-.5l-.3-.4h-.6l-.6.2-.2-.6-.5-.3h-1l-.5.2h-.5l-.2.4-.4.4v.5l-.4.3-.4.4h-.6l-.4.2-.3.4-.2.5-.5.3-.3.3-.3.5v1.1l-.4.3-.4.4v.5l.3.5-.5.4v1l-.2.5v.5l.2.5.4.4v.6l.5.2.4.4.2.5.5.3v.5l.2.5.3.5v.6l-.5.3v.7l.5.3.3.4v.6l.5.3v2.2h-.7l-.4.4-.2.6-.3.5-.2.6.3.5v.6l-.3.5.6.3.3.5v.6l.6.2-.4.3-.3.5v1l-.4.3-.5.2-.2.5v.5l-.5.3v1.1l-.2.6h-1.2l-.4.4-.4.4v.4l-.4.2.2.4-.2.4-.4.2v.8l-.2.4-.2.3-.2.4-.4.2h-.4l-.3.3-.2.3v.4l-.3.3h-.9l-.3.3v.4H131l-.3.2H129l-.2.3-.4.2-.4-.3h-1.5l-.4-.2h-.3l-.4-.2-.4-.2h-.3l-.3.3h-1.7v-.5h-.4l-.4.2h-.4l-.3-.2-.4.3h-.4l-.3.3v.7l-.3.3-.3.3h-.8l-.3.2h-.7l-.4-.3h-.4l-.4.3-.4.2-.4.4h-.5l-.5.2h-.6l-.6.2h-.5l-.2.5-.4.5-.4.4h-.6l-.3.5v1.2l-.2.5-.3.5-.5.2v.6l-.3.5.5.4v2l-.2.5v1.1l.3.5-.2.5-.3.4-.4.5.4.5-.2.6-.5.3v.5l-.3.4-.3.4v1.4l-.2.5.4.4v1.1l.2.5-.2.4-.3.4-.3.4-.4.4.4.5v1.5l-.5.4v.5l-.2.5-.5.2v.6l-.5.4v.5l-.3.4.3.4v1l.3.5-1-.6h-1.1l-1,.5-1-.4-.9.4-1,.4-1,.2-.9.4-.7-.7-1-.4-.4-.9-.8-.7-1-.4-.6-.7-.9-.6-.4-.9-.8.6-.8.7-1.1-.2-.9.5-1-.6H85.5l-.6.9v2l-.5.9-.8.5-.8.7-.3,1-.9.6-1,.4-1,.3-.9.7-.3,1H77.2l-.9-.7-.9.7-1.1-.2-.7.8-.7.8.2.9.2,1.1-.7.7-.3.8-.5.8-.5.8-.9.3-.7.7-1,.3-.9-.5-.8.2-.8.4-.8.5H62.6l-.9.2-.9-.5h-.9L59,460l-.7-.5-.7-.5,5.1-4.7,5.3-4.7,3.6-6.2v-7.1l5.5-5.3,3.2-6.8-5.5-6.1.9-8,7.6,1.7,6.7-3.9,6.3-3.6,7.2-1.5L105,395l7.2-3.5,4.1-5.9,2.3-6.7,2.7-6.6,1.5-7-2.7-6.6-4.4-5.8-7.8-1-4.7-6.2-2.5-6.7-1-7-2-7.7,1.2-7.8,6.1-5,5.8-5.4.5-7.9-6.1-5.2-3.9-6-4.7-5.4-4.7-5.2-.3-6.9-.5-6.9,4.2-5.7-5.9-3L85,249l-1.8-6.2L78.7,238l-3.9-5.1-2.5-5.8-3.6-5.2-3.5-5.3-1-6.9-2.6-6.4,1.7-7.2,6.2-4.2L66,186.6l-6.3-1.9-3.9-4.5L51.4,176l1.6-6.8-3.6-6-4.8-4.8-6.4-2.3-6.5-1.6-5.8-3.2v-6.9l-4.8-5.1-4.8-3.7-4.5-4L7.1,128l-5.6-2.5,1-1,.2-1.4.3-1.3-.3-1.3L1.3,120l-1-1.3L0,117.3l.3-1.4v-2.7l.4-1.3,1.3-.7v-1.3l-.2-1.2-.4-1.2-.3-1.2.8-1.2.9-1,.6-1.3-.3-1.4.5-1.3L4.2,99l.9-1.1,1.1-.8L7,95.9V94.5L5.8,93.3,6,91.8l-.8-1-.5-1.3-1.2-.9V87.2l-.2-1.5V84.2l1.3-.7,1.1-1.1V81l.8-1.3H8.2l1-1.2.2-1.4.8-1.1.3-1.2.6-1.2-.2-1.4.8-1.2,1.3-.7.7-1.2V67.5l1.1-1.1.2-1.5-.3-1.5V62l.4-1.4.4-1.4.3-1.4-.9-1.3V54.9l-1.5-.6-.7-1.5-1.2-.9-1.2-.8L9.4,50l-1.1-.9,3.7.5,3.5,1.2,3.6-1.9L23,50.4l2.3,2.8,3.6,1.4,3.2,1.9,2.4,2.7,4,.5,3.3-2.1,3.4,1.6,3.6,1.1,3.5,2.4,4.2-1.1,2.6-2.9L62.7,57l3.6-1.2,3.8-.5,3.5-1.4,3.5-1.2,2.4-2.9,1.8-3.2,2.4-2.9,1.7-3.3,3.4-1.8,3.9-.5,3.3,2,3.8.8,3.8-1.5,3.8,1.3,4.1-.8,1.9-3.7,3.4-1.7,2.8-2.6h3.8l3.9.3,3.1-2.2h3.9l2.8-2.4,2.3-2.9,3.9-.2,4,.3,3.2-2.6,4.2.4,4-1.6,3.7-2.2-.7-4.4,2.4-3.8,3.3,2.1,2.4,3,1.8,3.4,2.7,2.8,4.1,1.1,2.6,3.2,4.1.6,4.1-.7,4.1,1.3,4.3-.9,4.3-1.4,2.2-3.9,3.7,1.4,3.3,2.1,4.2-.7,3.6,2.3,3.7-3.8,4-3.5,5.2-1.2,5.3-1.1,4.3,3.4,5.6-.5,4.6,2.8h5.3l4.8,1.7,4.9,1.5,2.7,4.2,3.5,3.7,5.1-.7,5.1-.3,3.3,4.3,5.5.8,3.9,3.3,5,.9,4.8-.6,4.8-.9,4.8,2.4,2.3,4.6,5,2.4,5.1-2.1,5.7-.9,4.2,3.8,4.2,2.8,3.8,3.5,5.7-2,2.3-5.6,5.5.7,5.6.5h5.3l5.1-1.6,1.2-5.3,4.3-3.4,4.6-1.6,4.9-.9,4.8,1.2,4.9.2,4.2-2,3.7-2.8,4-2.3,4.2-2.1,4.8-.3,4-2.6,4.7-.5,4.5-1.2,4.5-3,2.5-4.7,3.1-4.1,3.4-3.9,5.4-.3,5.2-1.1,4.9,2.2,5.5.2,5.1.6,5.2.8,4.9,1.7,4,3.4,3.2-4.3,4.1-3.6,5.6.7,5.4-1.2,5.9,1.3,5.3-2.8,5.8.9L528,5.1l6.4-.9,5.7,3.2.7,6.5,5.5,3.8,6.2-.6,5.2-3.2,5.2,3.1,6,1.2,2.5,5.1,4.6,3.4,4.3,3.6,4.3,3.6,5.8,3,6.5-1.2,4.6,4.1,4,4.7,6.1-2.5,6.4,1.6,5.7-3,3.6-5.2,6-1.1,5.5,2.6,6.2.3,4.7-4,3-5.2,2-5.6h6.5l4.9-4.2,6.2-1.2,5-3.8H684l4.5,4.8,5.3,2.3,5.8-.7,5.3,1.9,5.5,1.2,4.2-3.7,3.5-4.4,3.6-4.5,5.2-2.5,6,.5,5.7-1.8L741.9.9l6.4-.9,3,6.2,6.9,1.9-.6,6.4,2,6.1,6.1,1.6,5.2,3.2,6.3,2.7,6.1-3.2,6.5.7,4.2,4.9,5.7-2.2,5.4-2.6,3.4,5.1,5.8,2.6,6.3,1.1,5.6-3.2v3.2l2.4,2.3.7,2.9.6,2.9,2.8,1.7,2.5,2.3.9,3.2-.5,3.3,1.8,2.9,3.2,1.2,3.4-.5,3.2,1.1,2.4,2.2.9,3,2.8,1.6,2,2.5,2.5,2.1,1.5,2.8,3.2,1.2,3.3-.8.9,3.2,3,1.6,3.4-1,3,1.9,2.2,2.3h3.2l2.5,1.8,3,.5,3,.4,2.9.7,3-.4,3,.5,3.2-.3,3.1.2,3.1-1.1,1.8-2.7,1.6-2.8,2.8-1.7,3.3.9,3.1-1.2,2.7,1.4,2.6,1.7,3.1-.3,2.9,1.4,2.7,2,3.4-.5h3.3l2.7-1.8,3-.5,2.9,1,3,1,3-.8,3.3,1.7,3.4-1.4,2.9,2,.9,3.4,2.8-1.1,2.6-1.4h6l2.9,1.2,3-.7h3.1l2.7-1.4h0" style="fill:#474a49"/><path id="path125032" d="M364.5,597.5c7.7-8.3,82.9-32.5,133.9-40.9s84.7-27.8,95.4-65.4,23.4-145.4,23.4-145.4l24.4,7s-21.8,84.2-30.5,147c49.8-42.7,84.5-48.2,97.4-62.9s52.9-166,52.9-166l15.8,1.6s-43.9,167-57,183.8-100.8,51.2-116.8,74.6-47.9,45.2-87.1,50.3-156.4,61.4-156.4,61.4Z" style="fill:#474a49"/></g></g></svg>