<svg xmlns="http://www.w3.org/2000/svg" viewBox="0 0 2014.4 394"><g id="Livello_2" data-name="Livello 2"><g id="Livello_1-2" data-name="Livello 1"><path id="floor-middle" d="M1951.8,51.7c-25.4-10.1-48.4-29.1-77.4-27.3-6.2-.2-12.8-.2-19.3,0-4.9.1-9.8.3-14.6.6s-9.6.6-14.3,1.1-8.8,2.5-12.8,4.5c-22,11-37,36-63,37-16.5,1-30.7-5.2-44.6-13.2q-6.9-4-13.8-8.4c-18.6-12.4-42.6-24.4-63.6-11.4-32,20-64,26-100,16a34,34,0,0,0-12.7-.4,50.1,50.1,0,0,0-12.6,3.7c-4.7,2.7-10.7,4.7-15.7,8.7-31,24-54,62-95,64-17,1-33-4.7-49-9.4-5.3-1.5-10.6-2.9-16-4-41-7.6-73,23.4-106,44.4-30,20-66,28-100,18-36-12-70-24-107.7-26.8l-18-2.1c-5.3-.7-10-1.5-13.8-2.2-39.5-7.6-81.7,9.7-120.8,3.7-20.7-3.1-36.7-14.5-58.1-18.6-47-9-105.7,2.1-149.8-14.8-22.5-8.7-57-20.6-98.7-33.8L533,74.4c-11.6-4.8-25.6-5.8-38.6-4.8-29,4-53,34-81,17-54-31-98-75-160.5-81.8L240.5,2.6c-13.1-3-27.1-4-40.1,0-41,16-82,4-124,5-14,1-25,12-32.5,23.2-2.4,3.6-4.6,7.4-6.8,11.1C28.6,57,21.7,72.3,14.4,87.6a117.5,117.5,0,0,0-10,40.6,77.7,77.7,0,0,0,2,18.3,90.5,90.5,0,0,0,7,19.1c13,25,5,54-10.2,77.9a33.9,33.9,0,0,0,1.2,31.1c9,16,22,30,26,49,5-7,15-8,22-4,41,30,79,65,133,55,22.5-4.1,42.9-11.8,64.8-15.2a115.1,115.1,0,0,1,13.3-1.4c8.9-1.4,16.9.6,25.9,1.6,60,10,121,50,179,6,17-12,40-8,60.7-8.3H616l15.3.2c85.1.1,167.1,27.1,252.1,36.1,11,1,21,0,31-5,39-22,81-35,124.8-31.3h16.1c21.1-.7,43.1-.7,63.1,9.3,22,12,44,21,69,16,30-6.6,56.5-18.2,85.6-22.8a147.4,147.4,0,0,1,17.7-1.9c54.7,1.7,106.7,12.7,161.7,20.7s107,4,160,5c13,1,25,6,38.1,5.9,6.9-.1,13.9-1.4,20.9-2.9,21.7-4.9,42.8-10.5,63.7-15.5l15.7-3.7c20.4-7.2,41-5.1,60.7.6,5,1.4,9.9,3.1,14.7,4.9,19.2,8.7,39.2,16.7,60.2,10.7,31-7,61-10,89-23,30-14,24-56,33.6-84.9,1-5.5,2.1-11,3-16.4,2.9-16.4,4.4-32.7-2.6-48.7-9.3-19.3-23.5-36.8-30.7-56.6a71.6,71.6,0,0,1-3.9-15.3c1.6-25.1-5.4-49.1-16.6-71.3C1954,57.6,1951.8,51.7,1951.8,51.7Z" style="fill:#4f624e"/></g></g></svg>