<svg xmlns="http://www.w3.org/2000/svg" viewBox="0 0 2013.8 381.5"><g id="Livello_2" data-name="Livello 2"><g id="Livello_1-2" data-name="Livello 1"><path id="floor-bck" d="M1989.9,42.9a452.7,452.7,0,0,0-68.5-12.6c-5.7-.6-11.5-1.1-17.4-1.4a177.1,177.1,0,0,0-60.3,7c-30,10-58,31-92,24s-55-34-88.7-33.9c-6.4-.1-12.8,0-18.9.4-25.2,1.6-43.4,13-67.7,16.5-17.9,2.5-40.6-3.3-58,0a138.3,138.3,0,0,0-18.2,4.6c-60.5,33.4-128.5,42.4-196.7,44.6-6.4.9-12.7,1.7-18.8,2.7s-12,1.9-17.8,3c-19.3,3.7-27.7,17.5-43.5,22-38.4,10.9-205.9,3.7-251.4-2.8-39.5-5.6-81.7,7.2-120.8,2.8-20.7-2.4-36.7-10.7-58.1-13.8-47-6.6-105.7,1.6-149.8-10.9C551.7,69,263.2,2.8,86.4.9,79.1.8,71.9.8,64.8,1S47.7-1.1,44.7,2.9s-3,14-7,21c-7,15.5-18.5,30.5-26.1,46.2A83,83,0,0,0,5.5,86.2a62.1,62.1,0,0,0-.8,29.7c2,17,5,33,1,49-12,41-3,84,8.6,122.8a41.8,41.8,0,0,0,6.4,14.2,385.3,385.3,0,0,0,52,55.7c3.6,3.2,7.3,6.3,11,9.3,7,7,17,10,27,11,35,2,69-12,104-9,41,3,81,7,121,7.8l18.3,1.1,18.3,1.4c45.4,4.7,89.4-8.3,135.4-15.3,22-3,44-9,65,0a243.6,243.6,0,0,0,103.3,17h35.6c35.1,2,67.1-4,102.1-12,50-11,95,8,142.5,11.5,7.6.6,14.9.9,22.2,1,50.1-.2,98.5-9.4,149.3-15.5,12-1,24-1,36,3a454.8,454.8,0,0,0,47.5,9.7c5.2.8,10.4,1.4,15.7,1.8,40.8,5.5,76.8-10.5,115.8-20.5,16-4,32-1,48,2,41,7,78,20,118.8,19h141c10.2,1,20.2,0,31.2-2,54.4-11.2,106.2-39.1,158.1-25.2a121.4,121.4,0,0,1,19.4,7.3c23.7,24.1,56.9,19.7,77.7,3.2a60.7,60.7,0,0,0,10.8-11.3c22-30,17-68,27-103a73.5,73.5,0,0,1,4.6-12.1c1.9-3.9,4.1-7.7,6.3-11.5,13.1-19.4,30.1-39.4,28.1-63.4,0-14-3-28-5-43-2-22-6-43-13.7-63.4C1991.9,47.8,1989.9,42.9,1989.9,42.9Z" style="fill:#7a8c76"/></g></g></svg>