<svg xmlns="http://www.w3.org/2000/svg" viewBox="0 0 2060.2 1100.3"><g id="Livello_2" data-name="Livello 2"><g id="Livello_1-2" data-name="Livello 1"><g id="light"><path id="path37584" d="M41.7,497.2l2-3.1,3.7-1,3.4,2,3.7-1.3,3.2,2.1.8,3.6,3.3,1.4h3.6l3.2,1.2,3.2-1.2,2.9,1.7,3.3-.2.7,3.3,2.6,2.2,3.4.6,2.5,2.2,1.3,3,2.7,2,3.4-.5,2.9,1.9,3.1-1,3.2,1,2.9.9,2.9,1.1,2.9,1,2.5,1.5,3,1,2.2,2,3.4.2,2.1,2.5,3.1,1.6.6,3.2,3.2.2,3-1,3.4.2,2.7-1.8,3.1,1.1,2.5,2,3.1.8,3.2.3,3.7-.5,2.7,2.6,1.8,3.2,3.7.5,3.6.4,2.8-2.3,2.5-2.3,3.4-.6,3.6-.5,2.7-2.3,2.7-2.4.3-3.5,3.2-1.4,3.3.8,3.3.7,3.2-.7,3.3-.5,3.1-1,3.1,1.3,3.3.4,3.4-.3,2.5-2.2,2.1-2.4,2.5-2,1.1-1.8,1.9-.7,1.2-1.7,2-.6,1.8,1.2,2.1.7,1.8-1.3,2.2-.4h2l1.9.5,2-.2,1.7-1.1,1.3-1.4,1.7-.9h2.1l1.4-1.5,2.2.7.9,2.1,2.2-.4,1.9,1.1,1.7-1.3,2.2.2h2.1l1.7-1.3,2.1.3,2,.4,1.3,1.5,1.5,1.3,2,.2,1.9-.5,1.8-1.2,2.1.4,1.1-1.5,1.5-1.1,1.6-1.2h2.1l2.1-.3,1-1.8.9-1.6.7-1.7,1.5-1.5-.2-2.1,1.1-1.6,1.9-.8,1.9-.5,1.3-1.6,1.9-.4,1.8-.4,2.1-.9.7-2.1,1.9-.6,2-.7,1.9-.4,2.1.2,2.1-.4,1.8,1,1.9-1,.4-2,.4-2,.9-1.7,1.8-.7,1.5-1.3,2-.6,1.5-1.1,1.2-5,3.2-4.1,3.7-3.4,3.4-3.8,5.5-1.5,4.9,2.9,4.6-3.1,5.5.4,4.5,1.8,3.5,3.3,4.2,2.2,4.1,2.2,4.4-2.9,5.3.5,4.3,2.6,5.1.5,4.2,2.1,4.7-1.1,4.6-.3,3.8-2.5,4.3-1.4,4.1-1.4,2.5-3.8,4.2-1.9,3.5-3.2,4.9-.2,3.9,2.5,4.8.2h4.4l4-1.9,4.2,1.2,4.4-.7,1.6-4.7.8-5,5.6-.5,3.6-4.1,4.2-2.4,4.9-.2,4.4-1.9,3.6-3.1-4.9-2.8-1.8-5.3,1.2-5.1-1.2-5.1.2-5.4,4.5-3.3,1.6-4.8,4.1-3.2,3.4-5.1,6.3-.6,1-5.4.3-5.5-1.4-4.9-3.4-4,1.5-5.1-2.1-5,3.7-3.4,2.1-4.5,4.6-2.6,2.1-4.7,5.5.9,4.4-3.4,5-1.4,5.2,1.1,3.2,4.3.2,5.3,4.1,3.2,3.8,3.6,3.9,3.7,5.6.2h5.2l4.9,1.6h5.8l4.9-2.7,4.6-3.4,2.5-4.9,5.6-.2,4.4,3.4,4.9,2.7,5.5-.4,5,1.8,5.2-1.2,5.3,1.1,3.4,4,5.2-2.4,1.4-5.2,5.4-.2,4.3-3.1,3.3-3.7,5,.2,4.3-1.2,4.4-1.1,3.9,3.4,5.2-.8,4.9-.4,4-2.8,5-.6,5.1.9,5.5-.5,4,3.5,1.7,4.8.7,5,5.3,1.9,2.6,4.7-1.6,4.7v4.9l3.6,4-.3,5.3,2.6,4.2,4.3,2.6,3.5,3.7,5,1.3,4.6,1.7,4.7,1.5,4.9,1.2,5-1.3,3.7,3.8,5.1,1.9,3.2,4.7-1.9,5.4H753l4.3,1.4,3.9,2.6,4.7.2H771l3.6,3.5,4.3,2.6,1,4.9,2.2-.8,1.8-1.5,2.5-.3,1.4-2,.2-2.3,1.5-1.9,1.5-1.8,1.9-1.4,2.3-.7,2.4.4h2.5l1.7,1.7,2.2,1.3h2.5l2.1-1.2,2.3-.7,1.3,2v2.3l.7,2.3,2.1,1.3,1.5,1.7,1.5,1.7,1.6,1.5,1.8,1.4,1.9,1.6,2.1,1.2,2.7-.3,2,1.7,2.6-.9,2.4,1.2,2.4-.9,2-1.6,1.6,2-.4,2.5,1.6,1.8,2.1,1.1.9,2.1,1,2.2,2.1,1.1,2,1.2,2.4-.4,2.3-1,2.4-.3,2.3-1,2.7-.4,2.7.5,1.7,2.1,1.7,2,2.2.9,2.2-.8,2.1-.8,1.4-1.8,2.1-1.2,2.3.8,1-2,2.1-1.1,1.1-1.9,2.1-.7,2.1-.7,1.7-1.2,1.9-.9,2-.9h2.1l2.2-.2,2.5.9,2.7.5,1.4-2.5,2.8-.7,1.6-1.8,1-2.1,2-1.4.9-2.3,1.9-1.7,2.4-.8,2.5.4,2.3.9h2.7l2.2-1.3.6-2.4,1.8-1.8,2-1.1,2.1-1,1.4-1.8,2.2-.9,2.2-.5,2.1-1.1,2.4.3,2.3-.3,2.3.4,2.4-.2,1.9,1.5,2.5-.2,2.3-.7,1.8-1.4,2.2-1.3,2.5.7,2.6.7,2.6-.8,2.5,1,2.6-.9,1,2.6,2.7.9,2.3,1.1,2.3,1.2,2.7,1,2.6-1.1,1.8,2.1,2.7.6,1.5,2.1,1,2.4,2.1,1.4,2.4,1.1,2.6.9,2.8-.4,2.3-1.5,2.6-.8,2.4-1.5,2.8.7,2.5,1.2,2.8-.2,2.3-1.7.7-2.6,2.8-.5,1.8-2,.6-2.7.9-2.6,2.9-.6,2.2-1.9,1.2.9,1.5.5,1.6.2,1.1,1,1-1.3,1.7-.3,1.6.7,1.6-.7,1.4-1h1.7l1.2,1.2,1.7.4,1.7.3,1.5-1,.7-1.4,1.1-1.2h1.6l1.3,1.1,1.5.3,1.5.2h1.5l1.5-.3,1.6-.2,1.3-.8,1.5.9,1.7-.5.7,1.4,1.4.9,1.3.9.4,1.4.7,1.5,1.6.4,1.7.3,1.6-.8,1.2,1.1,1.5.6,1.5.9,1.6-.6,1.4-1,1.7.2.6,1.5,1.3,1.1,1.6.4,1.4.7,1.2,1.3,1.3,1.2-1,1.6.5,1.7,1.6.2,1.5-.5,1,1.2,1.2,1,1,1.1h1.6l.8,1.1.8,1.2,1.3.6h1.4l1.5.2,1.4-.3,1.3.5,1.2.8,1.6.3.6,1.4,1.7,2.9,2.9,1.8,2.4,2.3,2,2.5,1.9,3.3-.4,3.8,3.1,2.2,3.6,1,3.7-1.7,3.7,1.6,2.8,2.3,2.3,2.8,3.3,1.6,2.7,2.4,4,.8,3.2-2.2,3,2.4h4l2.8-2.7h4l3.1,1.7,2.4,2.4,3.5.5,2.9,2,2-3,3.5-1.6,3.6.3,3.6.6,3.8-1,3.1,2.3,3.4-1.1,2.9-1.9,3.1-1.6,1.8-2.8,3.7.2,2.5-2.6,1.9-3,3.3-1.5,3.5.3,3.5-.7,3.2-1.2,2.4-2.4h3.4l3.3-.9,3.5.6,3.3-1.3,3.5-1.3,1.7-3.1,3-2.3,2.8-2.6,3.8-.2,3.8-.8,3.3,2.2,3.9-.4,4.2.2,2.4,3.3,3.5,1.3,3.5,1.4,3.7-1.2h3.9l3.3,2.5v4l3.6,1.4,2.3,3.1,2.4-4.8,3.9-3.9,5.5-2.3,1.9-5.5v-6.1l-4.5-4.4.8-5.8,3.3-4.9V424l.2-5.8,6.4-1.6,2.8-5.8,6,.2,4.3-4.1,3.3-4.6,5.7-1.4,5.4-1.9,4.1-3.8,5.6.4,5.5.6,1-5.7,4.7-3.8,5.6-1.1,5.5-1.8,4.6,3.3,5.7-.5,5.8.6,4.6-3.3,5.3-1.2,4.6-2.7,5.6-1.6,5.1,2.7,6.2-1.1,6-2.1.8-6.5,5.4-4.1,2.6-5.6,2.4-5.7-3.7-5.1-1.7-6,4.7-2.9,3.6-4.3,5.6-1,5.1-2.2,5.7-1.5,5.6-1.7,4.3,4.5,6.3.4,2.6-4.2,4.6-2,4.4-1.8,4.6-1.5,4.2-2.6,1.6-4.7,4.8-1.4,3.1-3.8.2-5.2,2.4-4.6,4.6-2.5,4.9-1.9,4.5-2.2,3-3.8,5.4.7,3.9-3.7-3.2-2.7-4.2.3-4-.9-3.2-2.2-2.5-3.5-3.9-2H1524l-4.2.8-1.4,4.3-4.3,1.9-4.2,1.4-3.4,2.7-4.4.3-4.1-1.4-4-1.8-4.4.3h-4.1l-3.8-1.2h-4l-3.9-1.2-3.7-2-1.6-3.8-2.6-3.1-4.1-1.1-1.5-3.7-2.6-3-3.4-2.2-3.9-1.3-2.5-3.5.9-4.1-3.7-2-1.9-3.6-3.4,3.2-4.7.6-4.3-1.1-4.3-1.5-4.6-.3-3.3-3-4.3.9-4.3.3v-4.5l-3.6-2.9-2.8-3.2-3.9-1.9-3-2.9-3.5-2.3-.6-4.2-2.6-3.4.3-4.6-3-3.7,2.5-3.7,1.8-4-2.5-3.7-4.6-.7-1.2-4.2-3.8-2.4-3.4-2-2-3.3-3.4-2-2.1-3.3.9-3.9v-4l-1.8-3.7-3-2.9-4.5,8.3-8.9,3.8-7.4,5.5-4.3,8-9.7-.8-8.3,4.7-10,.5-6.7,7-9.1,2.8-9.4-1.2-7.9,4.7-7,5.8-9.5-2.9-9.9-1-10.7,2.7-4.5,9.7-9.3-2.7-8.8,4-9.5-.6-7.7-5.2-8.6-4.5-7.6-5.8-8.6,5.5-10.3-1.2-6-7-8.3-4.5-9.4-.4-9.2-1.5-8.7-3.9-9.6.7-9.8-3.1-3.6-9.2-9.6-2.7-7.4-6.4-4.7-8.1-5.7-7.5-6.4-7.9-9.8-3.3-4.1-9-.5-9.7-7-7.2-1.5-9.7.3-9.4,1.7-9.2-7.2-6.6-6.5-7,2.5-10-6-8.6-8.8-3.9h-9.7l-9.8,3.3-9-5-10.5,2.5-10.3-3.5-8.1-6.6-4.5-9.3-9.1,3.7-8.3,5.1L932.2,55l-9.9.9-10.1-2.3-7.4-7-9.4,5.3-10.5-2.4-18-1L854.6,61.1l-16.4-3.9L825.8,46.3l-2.1,15.9-14.3,8.4-9.9,12.5-16.2,2.5-14.4,2.3-13.4-5.8-11.6,9.2-15.1-.7-13-4.1-13.6-2.2-14.3,2.8-12.8-6.9-13.6-.7-13.3,2.6-13.3-3.3-13.6,1.4-14.5-3.4-10.7-9.9-15.3-3.1L568,72.4l-13.2,6.9-10.9,9.9-10.8,9.7-11.2,9.5-15.7-5.8-15,7.5L479.7,99.3l-16-2.2-16.8-.6L435.5,84.6l-13.3,8.1L406.5,95,394,103.7l-15.4,1.5-13.1-9.4-16,3.5-15.2-6.2L323.9,81l-15.5,3.6-15.1,4.8-15.8.3-14.1,6.9L251.8,86.4l-15.2-4.3L230,98.4l-17.5,5.4-12.4,10.5-14.5,7.8,3.8,16.2,2.4,16.4-1.7,17.7-13.5,12.2-17,8.5H140.4l-2.3,18.5-13,13.9-17,3.8-16.4-5.6-16.2-4.3-16.8-1.6-1.8,1.7-2.1,1.4-1.5,2.1.4,2.6-.6,2.3-1.6,1.9-1.6,2.1-2.6.5L45.6,234l-2.1,1.2-.9,2.4-2.5.9-1.6,2L36,241l-2.5.4-2.4.5.6,2.2.3,2.2v2.4l-1,2.1-.5,2.6-2.2,1.7,2.1,1.9-.2,2.7,1.3,2.2,1.4,2.1.7,2.5,1.5,2-1,2.4-1,2.2-.9,2.4-1.5,2.1-2.4,1.3-1.9,2,1,2.8-1.6,2.5-2.9-.2-2,2-1.7,2.1H16.3L14,291.9l-2.7,1.2L10,295.7l.2,2.9-.2,2.7-.3,2.8,1,2.7,2.5,1.6,2.1,1.6,1,2.3,2,1.7.4,2.5V319l-1.3,2.2L16,323.3v2.5l-2,2v2.7l1.5,2.1,1,2.3,1.7,1.8.4,2.3,1.1,2.1,1.9,1.5-1.9,2.7-.2,3.3-.9,3.2-2.4,2.4,1.4,3.3-1.3,3.4,1.8,2.8,2.3,2.5-1.5,3-2.8,2.1-3.2,1.3-3.4-.4-1.4,3-.6,3.3L5,380.7l-3.5.7L0,384.3l1.4,2.9,1,2.8v3L.3,395.5v3.2l1.8,2.7.2,3.2L4,407.7,7.3,409l3.5-.8L14,410l-.6,3.4.5,3.4,1.7,3.1,3.4,1.5-1.1,3.5-3.3,2-3.2,1.9-3.8-.3-.2,3.3v6.6l-1.7,3,.5,3.6-2.5,2.7,1.5,3,1,3.2,2.1,2.3,1.7,2.7,1.5,2.8,2.5,2.1,1.8,2.3,2.2,2.1,2.8,1.1,3.1.2,1.5,2.4,1.2,2.5,2.7,1.6.6,3,1.6,2.5,2.3,2,.2,2.9-.2,2.9.7,3,2.8,1.4,2.6,1.4,1.9,2.1h0" style="fill:#d5e0bd"/><path id="path37298" d="M1728.2,396.9c17.1,122.8,83.2,388.5,97,512.5,3.7,33.4,6.4,71.7,15.6,103.9,1,3.5,4.4,35.9,6.9,34.7,22.6-11.3,10.4-23.8,10.4-50.2,0-43.4-14-255.2-22.5-297.7-5.5-27.1,2.5-63.6,6.9-90.1s3.5-58.3,3.5-86.6c0-10.7,7.1-91.1-8.7-83.1-2.6,1.2-5.6,2.6-6.9,5.2s-.9,105.9-3.5,121.2c-3,18-1.7,37-1.7,55.5,0,1.8-1.4,19.4-1.7,19-9.1-9-8.5-35.8-13.9-48.5-13.3-30.9-28.1-63.1-43.3-93.5-5.8-11.6,18.8-92.1,10.4-100.5s-19.6,63.9-20.8,67.5c-.5,1.4-2.4,15-3.5,13.9-9.5-9.5.3-74.3-5.2-79.7s-9.9,14.8-19-3.5Z" style="fill:#d5e0bd"/><path id="path37298-2" data-name="path37298" d="M525.1,191c20.8,166.3,101.1,526.2,117.8,694.2,4.5,45.2,7.8,97.1,18.9,140.8,1.2,4.6,5.4,48.6,8.5,46.9,27.4-15.3,12.6-32.2,12.6-68,0-58.8-17.1-345.7-27.4-403.2-6.6-36.8,3.1-86.3,8.4-122,5.7-37.6,4.2-79.1,4.2-117.4,0-14.4,8.7-123.4-10.5-112.7-3.1,1.8-6.8,3.6-8.4,7.1S648.1,400.2,645,421c-3.6,24.4-2.1,50.1-2.1,75.1,0,2.5-1.7,26.3-2.1,25.8-11-12.2-10.2-48.6-16.8-65.7-16.1-41.9-34.2-85.6-52.6-126.8-7-15.7,22.9-124.6,12.6-136.1-11.9-13.3-23.8,86.6-25.2,91.6-.6,1.8-2.9,20.3-4.2,18.7-11.6-12.9.3-100.6-6.3-107.9-8.2-9.2-12.1,20-23.2-4.7Z" style="fill:#d5e0bd"/><path id="path37101" d="M333.9,229.5s-116.3,593.9-104.5,838c-14.8-12.9-45.9-10.7-45.9-10.7S230.1,803.5,233,745.9s-49.7-463.8-49.7-463.8l18.6-6.5s42.9,206.3,43.5,263.6c20.2-83,67.8-306.5,67.8-306.5Z" style="fill:#d5e0bd"/><path id="path37101-2" data-name="path37101" d="M1417.4,209.6s-116.3,594-104.5,838c-14.7-12.8-45.9-10.7-45.9-10.7s46.6-253.3,49.6-310.8-49.8-463.8-49.8-463.8l18.6-6.5s43,206.2,43.5,263.5c20.2-83,67.9-306.5,67.9-306.5Z" style="fill:#d5e0bd"/><path d="M492.9,511.4c7.8-7.4,3.9-6.7,15.1-15.1,17-12.8,47.8-17.8,74.8-14.3,47.5,6,93.2,26.9,115.7,68-19.9-14.4-43.6-16.6-67.8-14.4-6.9-8.9-13.9-17.6-21.2-26.1.7,9.1,1.5,18.2,2.6,27.3-11.2,1.5-22-.6-33-2.9-7.5-11-15.8-21.4-24.4-31.7,3.5,9.5,6.8,19,9.9,28.6C540.2,526.8,515.4,521.6,492.9,511.4Z" style="fill:#d5e0bd"/><g style="opacity:0.2"><path d="M492.9,511.4c7.8-7.4,3.9-6.7,15.1-15.1,17-12.8,47.8-17.8,74.8-14.3,47.5,6,93.2,26.9,115.7,68-19.9-14.4-43.6-16.6-67.8-14.4-6.9-8.9-13.9-17.6-21.2-26.1.7,9.1,1.5,18.2,2.6,27.3-11.2,1.5-22-.6-33-2.9-7.5-11-15.8-21.4-24.4-31.7,3.5,9.5,6.8,19,9.9,28.6C540.2,526.8,515.4,521.6,492.9,511.4Z" style="fill:#d5e0bd"/></g><path d="M499.9,514.5s3.8-13.9-17.8-35.9c-34-34.6-81.7-44.5-106.2-44.6s-60.3,7-77.6,22.5c0,0,26.5-3.9,59,9.2,0,0,21.9-11.4,46.8-13.5,0,0-25.2,13.6-30.6,20.3,0,0,15,13.5,41.7,17.5,0,0,18.8-19.3,39.6-18.9,0,0-19.1,6.3-27.3,23.3C427.5,494.4,462.3,508.3,499.9,514.5Z" style="fill:#d5e0bd"/><path d="M499.9,514.5s3.8-13.9-17.8-35.9c-34-34.6-81.7-44.5-106.2-44.6s-60.3,7-77.6,22.5c0,0,26.5-3.9,59,9.2,0,0,21.9-11.4,46.8-13.5,0,0-25.2,13.6-30.6,20.3,0,0,15,13.5,41.7,17.5,0,0,18.8-19.3,39.6-18.9,0,0-19.1,6.3-27.3,23.3C427.5,494.4,462.3,508.3,499.9,514.5Z" style="fill:#d5e0bd;opacity:0.2"/><path d="M499.9,514.5s-36-20.5-85.2-14.5c-64.4,7.8-101,37-114.4,62.9,0,0,27.6-20.5,70-11.3l23.2-25.2-2.3,27.8c9,1.5,20.8.1,34.9-3.5l22.8-33.5-7.2,29.4S480,537.8,499.9,514.5Z" style="fill:#d5e0bd"/><path d="M499.9,514.5s-36-20.5-85.2-14.5c-64.4,7.8-101,37-114.4,62.9,0,0,27.6-20.5,70-11.3l23.2-25.2-2.3,27.8c9,1.5,20.8.1,34.9-3.5l22.8-33.5-7.2,29.4S480,537.8,499.9,514.5Z" style="fill:#d5e0bd;opacity:0.1"/><path d="M499.9,514.5s11.5-3.5,34.6,5.4c39.3,15.3,70.6,56.8,78.6,78.2s12.5,54.7,2.6,74.8c0,0-4.6-24.4-28.1-48.4,0,0,4.2-22.8-1.7-45.1,0,0-5.4,26.3-10.3,33.1,0,0-18.4-8.7-31-30.6,0,0,13.3-22.6,6.2-40.6,0,0-.1,18.6-14.4,31.3C536.4,572.6,518.2,545.3,499.9,514.5Z" style="fill:#d5e0bd"/><path d="M499.9,514.5s11.5-3.5,34.6,5.4c39.3,15.3,70.6,56.8,78.6,78.2s12.5,54.7,2.6,74.8c0,0-4.6-24.4-28.1-48.4,0,0,4.2-22.8-1.7-45.1,0,0-5.4,26.3-10.3,33.1,0,0-18.4-8.7-31-30.6,0,0,13.3-22.6,6.2-40.6,0,0-.1,18.6-14.4,31.3C536.4,572.6,518.2,545.3,499.9,514.5Z" style="fill:#d5e0bd;opacity:0.1"/><path d="M452.1,683.1s12.7-18.4,14.1-38.8c.4-5.6.4-11.6.3-17.8,21.6-13.8,23.5-28.2,23.5-28.2-5.1,8.3-17.3,14.7-24.1,15.6-2.3-13.4-.1-26.7.9-38.5,17.4-6.9,23.2-16.5,23.2-16.5-6.1,4.2-16.6,6.4-22.6,6.6,5.1-25,20.8-45.3,32.5-51,0,0,14.5,9.1,17.3,56C520,619,493,666.2,452.1,683.1Z" style="fill:#d5e0bd"/><path d="M387.2,1034.8h49c-17.9-59.1-32.2-128.6-32-198.7.7-144.1,51.4-256.9,112-327.1l-13.1-.9c-14.5,11.2-55.5,47.3-96.2,138.5-25.4,56.7-55.9,145.6-37.3,298.2A682.5,682.5,0,0,0,387.2,1034.8Z" style="fill:#d5e0bd"/><path d="M1681,377.4c-8.9-8.8-4.4-7.9-17-18-19.2-15.3-53.9-21.3-84.3-17.2-53.5,7.3-105,32.3-130.2,81.5,22.3-17.2,49.1-19.8,76.2-17.3,7.9-10.5,15.7-21,24-31.2-.8,10.9-1.7,21.8-3,32.8,12.7,1.7,24.8-.8,37.2-3.5,8.5-13.2,17.7-25.7,27.4-38-3.8,11.3-7.6,22.7-11,34.2C1627.7,395.9,1655.7,389.7,1681,377.4Z" style="fill:#d5e0bd"/><g style="opacity:0.2"><path d="M1681,377.4c-8.9-8.8-4.4-7.9-17-18-19.2-15.3-53.9-21.3-84.3-17.2-53.5,7.3-105,32.3-130.2,81.5,22.3-17.2,49.1-19.8,76.2-17.3,7.9-10.5,15.7-21,24-31.2-.8,10.9-1.7,21.8-3,32.8,12.7,1.7,24.8-.8,37.2-3.5,8.5-13.2,17.7-25.7,27.4-38-3.8,11.3-7.6,22.7-11,34.2C1627.7,395.9,1655.7,389.7,1681,377.4Z" style="fill:#d5e0bd"/></g><path d="M1673,381.2s-4.2-16.7,20.2-43.1c38.2-41.5,91.9-53.4,119.5-53.5s67.9,8.5,87.4,27.1c0,0-29.9-4.8-66.4,11,0,0-24.7-13.7-52.7-16.3,0,0,28.3,16.4,34.4,24.4,0,0-16.9,16.3-47,21.1,0,0-21.1-23.3-44.5-22.8,0,0,21.4,7.6,30.7,28C1754.6,357.1,1715.4,373.8,1673,381.2Z" style="fill:#d5e0bd"/><path d="M1673,381.2s-4.2-16.7,20.2-43.1c38.2-41.5,91.9-53.4,119.5-53.5s67.9,8.5,87.4,27.1c0,0-29.9-4.8-66.4,11,0,0-24.7-13.7-52.7-16.3,0,0,28.3,16.4,34.4,24.4,0,0-16.9,16.3-47,21.1,0,0-21.1-23.3-44.5-22.8,0,0,21.4,7.6,30.7,28C1754.6,357.1,1715.4,373.8,1673,381.2Z" style="fill:#d5e0bd;opacity:0.2"/><path d="M1673,381.2s40.6-24.6,96.1-17.4c72.4,9.4,113.6,44.4,128.7,75.4,0,0-31.1-24.6-78.8-13.5l-26.2-30.2,2.7,33.2c-10.1,1.9-23.5.2-39.3-4l-25.7-40.2,8.1,35.2S1695.4,409.1,1673,381.2Z" style="fill:#d5e0bd"/><path d="M1673,381.2s40.6-24.6,96.1-17.4c72.4,9.4,113.6,44.4,128.7,75.4,0,0-31.1-24.6-78.8-13.5l-26.2-30.2,2.7,33.2c-10.1,1.9-23.5.2-39.3-4l-25.7-40.2,8.1,35.2S1695.4,409.1,1673,381.2Z" style="fill:#d5e0bd;opacity:0.1"/><path d="M1673,381.2s-12.9-4.3-38.9,6.5c-44.2,18.4-79.5,68.1-88.5,93.7s-14,65.6-3,89.8c0,0,5.3-29.3,31.8-58.1,0,0-4.8-27.3,1.8-54.1,0,0,6.1,31.5,11.7,39.7,0,0,20.6-10.4,34.8-36.7,0,0-14.9-27.1-6.9-48.7,0,0,.1,22.4,16.2,37.5C1632,450.8,1652.5,418.1,1673,381.2Z" style="fill:#d5e0bd"/><path d="M1673,381.2s-12.9-4.3-38.9,6.5c-44.2,18.4-79.5,68.1-88.5,93.7s-14,65.6-3,89.8c0,0,5.3-29.3,31.8-58.1,0,0-4.8-27.3,1.8-54.1,0,0,6.1,31.5,11.7,39.7,0,0,20.6-10.4,34.8-36.7,0,0-14.9-27.1-6.9-48.7,0,0,.1,22.4,16.2,37.5C1632,450.8,1652.5,418.1,1673,381.2Z" style="fill:#d5e0bd;opacity:0.1"/><path d="M1726.9,583.3s-14.4-22.1-15.9-46.4c-.4-6.8-.4-14-.3-21.4-24.3-16.6-26.5-33.8-26.5-33.8,5.7,10,19.5,17.6,27.1,18.6,2.6-16,.1-32-1-46.1-19.5-8.2-26.1-19.7-26.1-19.7,6.8,5,18.8,7.6,25.5,7.8-5.8-29.9-23.4-54.3-36.7-61.1,0,0-16.3,10.9-19.4,67.2C1650.4,506.5,1680.8,563,1726.9,583.3Z" style="fill:#d5e0bd"/><path d="M1765.4,998.1h-43.8c16-70.8,28.8-154.2,28.6-238.2-.6-172.8-45.9-308-100.1-392.3l11.8-1.1c12.9,13.5,49.6,56.8,85.9,166.1,22.7,68,50,174.6,33.3,357.6A1076.4,1076.4,0,0,1,1765.4,998.1Z" style="fill:#d5e0bd"/><path id="path31448" d="M1932.5,346.3l-2.3.6-2.1,1.2-2.5.2-1.9,1.6-2.8.4-1.8,2-.5,2.7-.5,2.7-2.7-.2-1.8,1.9H1911l-2.3-1.3-1.7,1.7-2.2,1h-2.5l-2.4.2-2.5-.2-2.6-.2-1.8-1.9-1.7-2.1-2.2-1.5-2.2-1.4-2.2,1.3h-5.4l-2,1.7-2.4-1.2-2.2-1.6-2.6-.3-2.3-1.3-2.1,1.4-2.3.9-1.7,2-2.2,1.5-2.7-.5-2.8-.3-2.7-.8-2.2,1.6-2.4-1.5-2.7.5-2.1,2-1,2.7-2.9-.7-2.8.8-.9,2.4-.5,2.6-2.7,1.1-.7,2.8-2.4-1.3-1.5-2.2-2.5-.7-2.5-.6-2.2-1.2-1.7-2-2.3-1.1-2.1-1.5-2.5.5-2.3-1.2-2.6-1-2.3,1.1h-2.4l-2.5-.5-2.4-.8-2.4.6-1.2.6-.9,1-1.3.6-1.3-.7h-1.3l-1.1-.9h-1.4l-1-.9h-1.4l-.8,1.1-1.3-.2-1.3-.2-1.2.2-1,.9-1.2.4-.4,1.3h-1.4l-1.3-.5-1.3-.6-1.4.2h-1.5l-1.2.7-1,1.1-.4,1.5-1.2.6-1,.8-.9,1.2h-1.5l.6,1.4-.2,1.5-.5,1.3-.7,1.3-1.6-.7-1.6.4-1.1,1.2-1,1.2.4,1.7-.2,1.6-1,1.1-1,1.2-1.2.6-1.2.7-1.5-.4-1.4.4-1.4-.2-1.2-.8h-1.4l-1.4-.5h-1.5l-1-1.3-.3-1.4-.9-1.2-1.5.2-1.2-.9-1.1-1-.8-1.2-1.4-.6-.9-1.2-1.4-.4-1.4-.5-1,1.1-1.3.8-1.4-.9-1.6.4-1.3-.4-1.1-.9-1.3-.6-1-1h-1.5l-1.5-.2-.6-1.5-1.4-.9-1.3.5-1.5-.4h-1.5l-1.2-1.1-1.5-.2-1.5-.3-1.5.5-.7,1.4-1.4-.8-.6-1.5-1.2-1.2v-3.3l-1.2-1.2v-1.5l-.7-1.4-1.1-1.3-1.3-1-1.5.3-1.6-.6-1.4-.9-1.5-.5-1.2,1.2-1.8-.2-1.2,1h-1.7l-1,1.2-.2,1.6h-1.5l-1.5-.3-1,1.2-1.5.2-1.5-.3-1.4-.6-1.2.9h-1.5l-1.5.6-1.6-.4-.7-1.5-1.6-.8-1.3.5-1.4-.7-.9-1.2-1.3-.7-.6-1.5-1.3-.7h-1.4l-1.3-.8-1.3-.6-1.2-.6-.9-1.1-1.2-.8-1.2-.8-1.4-.4h-1.4l-1.3.2-1.8-.5-1.4-1.1-1.8-.7-1.6.8-1.8.2-1.5-1.1-1.7-.5-1.4-1.2-1.7-.5h-1.8l-1.5-.9-1.2-1.5-1.3-1.2-1.8-.3-1.1-1.5-1.8-.3v-2.1l-1.2-1.9-1.9-1.2-.7-2.2-1.9-1h-4.1l-1.9-1-1.3,1.6-2.1.2-1.2,1.6-1.9.6-2.1.7-2.1-.9-1.7-1.3-1.7-1.2-1.8.9-1.8,1-2.1-.3-2,.2-.4,2.2-.2,2.3-2.1.7-1.7,1.4-2,.2-1.8.9-2-.7-2-.3-.6-2.4-2-1.3-2.1-1-2.2.3-1.4,1.4-1.5,1.5-2.1.4-1.2,1.9.3,2.4-1.6,1.7v2.3l1.2,2-1.9.4-1.7,1-1.5,1.2-1.6.9-2,.3-2-.6-1.9-.2-1.9.2-1.4-.9-.8-1.4h-1.7l-1.4-1.1-1-1.2-.8-1.3-.8-1.4-1.2-1h-1.8l-1.3,1.1-1.6-.7h-1.6l-1.7-1h-1.8l-1.2-1.5-.3-1.8h-1.5l-1.5.2-1.4.3-1.5-.3-1.6-.2-1.5.5-.9,1.2-1.2,1-1.5.4-1.6-.2-.8,1.3-1.4.9-1.4-.6h-1.5l-1.5.3-1.5-.3.8-1.4-.3-1.6v-1.5l.6-1.4.3-1.7-.2-1.7-1-1.4-1.3-1.1-1.7-.4-.8-1.6-.7-1.4-.3-1.5-1.3-1.3h-1.7l-1.3-1.2v-1.8l-1.6.4h-1.6l-1.5-.8-1.6-.5-.6-1.6-1.3-1.1-1.2-1.1-1.1-1.2-.7-1.5v-1.6l.2-1.6v-1.5l-1.3-1.1-1.2-1.2-.8-1.4-.3-1.6,1,.7v1.2l-.5.9v1.1l-.9.5-.8.6-.6.8-.2,1-.9.5-.3,1-1,.4-1-.5-.6.8h-1l-.2,1-.9.5h-.9l-.8-.6-.9-.4-.9.4-.5.9-.9.3-1-.2h-1l-.9.2-.4.9-.5.7-.5.7-.4,1-.9.5h-1.9l-.8-.5-.7-.5h-.8l-.8-.6H1457l-.9-.2-.7-.6-.4-.8-.8-.4-.8-.5h-1.7l-.7-.4-.9-.2h-.9l-1,.2-.8-.4-.9-.3-.5.8-.8.6h-.9l-1,.3-.8-.6-.5-.8-1,.3-.9-.5h-1l-.6-.9-.6-.7-.5-.8-2.1-.6-2.1.4-2-1.2-2.2.2-2.3-.3-1.6-1.8H1423l-2.2-.2-2.3.4-2.3-1-2.3.6-1.7,1.7-2.2-.8-1.5-1.9-2-1.4-2.3-.2-1.4-1.9-2.2-.9-1.4-1.9-2.2-.9-1.4-1.9-1.7-1.8.6-2.4-.7-2.4-2.1-.8-1.7-1.6-2.2-.7-1.4-2.1-.4-2.3-1.7-1.7-.6-2.2-1.1-2-2.1-1.2h-2.4l-2.3.3-2.2.3-1.8,1.3-1.4,1.8-.7,2.3-2.3.8-2-1.5-1-2.3-2.3-.5-2-1.4-2.2,1-1.9,1.3h-2.5l-2.2-1.3-1.1-2-1.9-1.2-1.9-1.4-2.3.4-2,.3-1.9-1.2-1.9-1.3-2.1.6-1.8-1.3-1.6-1.7-1.4-2-2.3-.6-1.5,2h-2.5l-2.2.8-2.2-.9-2.5-2.4-3.3-.4-2.9,1.2-3.2-.3-3.3.7-2.3,2.4-2.9-1.8-3.3-.7-3,.3-2.9.7h-3l-2.9.6-3.1.8-2.8-2.1h-6l-3.3-1.6-1.7-3.3-3.3-.3-3.3-.8-3.5-.3h-3.4l-3.3-2-1.4-3.5-2.5,2.3h-3.5l-3.2-.4h-3.3l-2.4,2.2h-3.4l-3.1.3-2.8,1.6-1.7,3.3-3,2.1-3.7-.4-3.7.4h-3.4l-3.4-.5-3.7-.4-2.8,2.1h-3.7l-2.8-2.6-2.8-2.6h-3.6l-1-3.9-3.4-2-3-2.2-3.5-1-3.3-1.5-2.8-2.5-1.9-3.2-1.6-3.4.4-3.7-2.4-3.1-1.5-3.3-.5-3.6-3.4,1.3-3.6-1.3-3.5.8-3.6-.7-3.1-2.3-1.7-3.6-2.9-2.9-3.8-.3-1.8.6h-1.9l-1.8-.4-1.8-.8-1.7.6-1.1,1.6-1.8.3-1.6.7-1.4,1.4-1.9.6-2.1-.4-1.8-1-1.9-.5-1.2-1.6-1.6-1.2h-1.9l-1.8-1-2-.7-1.3-1.7-1-1.9-2-.2-1.8-1.2-2.1-.4-1.8,1.1-1.8-1.7v-2.4l.3-2.2,1-1.9-2-1.2-2.3-.2-.3-2.3-1.5-1.9-.9,1.7-1,1.5-.9,1.7-1.4,1.3-1.9.5-1.2,1.5-1.7.7-1.7.8-1.8-1.2-2-.2-2.1-.2-1.5,1.5h-2.1L1068,208l-2-.5-1.8.9-2-.2-1.9-.6-1.9-1.2-.6-2.1-1.1-2.1-2.2-.4.3-2.2-1.2-1.8-2-.3-1.9-.5-1.5-1.4-1.6-1.1-1.9.7-1.5,1.2-2.2.3-1.8-1.3,7.8.6,7.7,2.1,6.6-3.9,6.1-4.5,5.1-5.7,7.4-2.1h7.6l7.5.2,8.2,3.8,8.7,1.8.6,9.5,6.4,7.3,8,.8,7.8,3,8.2.7,7.3-3.5,5.2-5.6.9-7.8,7.1-1.8,6.2-3.7,4.7-5.4,7.1-1.5,6.4-3,3.7-6.1-1.5-8.4,4.3-6.9,3.7-7.3,7.4-2.9,7.9,1.1,6.5-4,4.6-6.6,8.1-.3,7.5-.3,7.6.3,6.2,5.2,7.7,2.1,5.7,5.3,6.6,4.1,7.3,2.2,7,3.1,8.7,1.2,8.4-1.4,4.3,8.8,8.9,3.4,8-4.7,2.2-9.2,9,2.4,8.6-2.4,2.4-7.3,3.7-6.7,1.1-7.7,3.3-6.9,3.8-6.8,1.5-7.8,4.9-5.7,4.3-6.3,3.7-8.6,9-2,3.9-7.5,5.6-6.2,8.1,3.8,8.7.6,9.1,3.5,7.8-5.1,6.4,2.8,6.7-.7,3.7-6.1,7.1-.8,2.5-6.3,6.4-2,5.2-3.3,5.8-1.9,6.2,2.9,4.6,5.2,6.6.8,6.5-.5,6.6,1.3,5.9,3.6,3.7,5.9,3.3,6,5.8-1.2,4.1-4,5.7,3.4,5.8-2.3,5.7-1.4,3-5,4.9-2.9h5.7l4.4-3.5,4.4-3.6,6.3.5,4.2-4.7,6,.4,5.3,3.4,5.5-2.2,6,.8,6.8,2.3,5.8,4.3,5.6-3.9,6.6-1.6,6.7.2,6.4,2.3,3.7,5.9,5.4,4.3,5.1-5.2,7.1-1.7h7.8l6,5.5,4.6-5.7-.6-7.6,6.2-2.9,5.2-4.4,3.3-4.5,3.4-4.3,3.7-4.3,5.3-2.1,4.2-3.6,3.2-4.6,3.9-4,5.3-1.9,4.1-4.3,5.6-1.7,5-3.9,6.4,1.8,2.7-5.7,6.1-1.7,2-5.5,3.5-4.6,2.1,2.1,1.4,2.6,2.3,1.9,2.7,1.1,3.2,1.2,2.7-1.8,2.3,2,2.5,1.8,2.8.3,2.7.7,2.6,1,2.7,1,2.4,2.3.5,3.2h3.1l2.7,2,.5,3,.7,3.1,3.2.8,1.8,2.8,1.7,2.6,2.2,2,2.1,2.5h3.2l2.7,1,2.6,1.5,1.5,2.6,2.4,1.9,1.5,3.2,3.4.9h3.1l2.8-.9,3-.9,3.1.6h6.1l3.3-.5,1.8-2.8,2.7-1.9,3.4.8,2.5-2.5,1.7-3.2,3.4-.9,3.5-.3,1.4-3.4-1.5-3.5.3-3.5.7-3.3,2.2-2,2.5-1.7,2.7-1.4,2.9-.8,2.3,2.6,3.2,1.4,3-1.8,3.4,1.4,2.8.7h2.9l2.6,1.4,2.9.4,2.8-1.5,2.9,1.5,2.7,1.7,2.9-.9,2.6,2.4,3.3,1.3,1.2,3.3,2.3,2.8-.6,3.3,1.2,3.3-1,3.2.5,3.4-.6,3-1.6,2.5-.8,3-2,2.2.4,3.4,1,3.4-3,1.7-1.3,3.2-.9,2.9-.2,3.1,2,2.5,1.2,3.1v3.3l2.5,2.4-.9,2.8.2,3.1.8,3.3-.7,3.2-3.3.8-1.4,3.1,1.1,3.1-.8,3-2,2.3-.7,2.9,3.4,1.1,1.4,3.4,2,2.9-.5,3.3v3.3l2,2.6,2.7,2,.9,3.2-.6,3-1.9,2.4-1.7,2.5v3.3l.3,3.3,1.8,3-1.9,2.6-.3,3.3,2.4,2.7,1.5,3.3.5,3.6-1.8,3,2.3,2.7,3.4.5,1.2,3.4,3.4,1.3.2,3.3,2,2.7.7,3.3,2.3,2.5.7,3.5.3,3.5-2.5,2.3-2.4,2.4,1.9,2.6-.3,3-1.5,2.4-1,2.5-.3,2.7,1,2.6,2.2,2.1v2.9l-2.1,1.5-1.2,2.3-2.2,1.2-1.6,1.9-2.6,1-2.8.3-2.2,2v3l.5,2.5-1,2.2-.2,2.5,1,2.3,1,2.7-.9,2.5,2,1.8,1.8,2-.4,2.4-1,2.2-.5,2.4.2,2.5,1.5,2,.9,2.4.2,2.5,1.2,2.3v2.7l.4,2.8.7,2.9,2.6,1.7,2.5.9,2.6.8,2.4,1.5,1.5,2.4,2.8,1.4.9,3,2.4,1.4,2,2,.9,2.9-1.4,2.6-.4,2.7.4,2.8,1.6,2.3-.2,2.7-.5,2.7,1.4,2.5-1.1,2.3-.2,2.6.2,2.6-.8,2.5-1.6,1.8-1.4,2-2.3,1.4-.2,2.8-1.2,2.1-1,2.3-.4,2.5-1.3,2.2h0" style="fill:#d5e0bd"/><path id="path31446" d="M1926.7,575.9l-2.1-.5h-2.2l-2-.9-2.2.3-2.3-.9-2.4.7-1.6,1.8-1.6,1.7-2-1.3-2.3.6-2.1-1-1.1-1.9-2.2.5-2.2-.2-1.8-1.1-2-.8-1.9-1.2-1.8-1.3-.6-2.2-.3-2.2-1-2-1.1-2h-2.3l-2-1.3-2.2-1.1-2.3.5-1.3-1.9-1-2.1-1.8-1.3-1.2-1.9h-2.2l-2.2-.3-2.3.7-2.4.2-1.9-1.6-1.9-1.4-1.8-1.7-2.4.2-1.2-2.1-2.3-.7-2.5.5-2.1,1.6-1.9-1.8-2.5-.6-1.8,1.4-1.7,1.6-2.5-.3-1.9,1.7-1.2-1.9-.2-2.3-1.6-1.5-1.6-1.5-1.1-1.9-.4-2.1-1.3-1.8-.9-1.9-2.2-.7-1.3-1.9-1.4-1.8-2.3-.2-2-1-1.6-1.4-1.5-1.6-2.2-.6h-1.2l-1.1.3h-1.3l-.7-1-1.1-.6-.4-1-1-.7-.4-1.1-1.1-.5-1.1.4-1-.6-.8-.7-1.1-.4-1.1.2-1.2-.2-.9.8-1.1-.5-.8-.9-.7-1-1.1-.5-1.2-.7h-1.3l-1.3.4-.9.9h-2.4l-1.2.5-1.2-.7-.2,1.3-.8,1-1.1.8-1.1.6-.9-1.2-1.5-.4-1.3.4-1.4.5-.4,1.3-.9,1.1-1.3.5-1.3.4h-2.5l-1-.9-1.2-.3-1.1-.7-.5-1.1-1.1-.6-.9-.9-1.1-.8-.2-1.3.5-1.2-.2-1.2-1.2-.5-.5-1.2-.4-1.1v-1.3l-.7-1-.2-1.3-1-.8-.8-.9-1.3.3h-1.3l-.7-1.3-1.4-.4-.9-.8-.4-1.2-.7-1-.3-1.1-1.2-.6-1.1-.8.3-1.3-.7-1.3h-1.3l-.9-.9-1.2-.6-.4-1.3-1.1-.8-1-.8-1.4-.3-1.2.7-.7-1.2.3-1.3-.4-1.4.8-1.2.7-1.2-.4-1.4.7-1.1v-1.3l-.2-1.4-.5-1.2-1.4-.5-.9-1.1-.6-1.3-1-1-1.5.4-1.3-.9-1.4.2-1.2-.7-1.3.4-1,1-1.1-.6-1-.8-1.4.4-1.2-.5-1-.8-.8-1h-1.4l-1.1-.7-1.5-.2-1-1v-1.4l-.7-1.2-1.4-.2-.7-1.1v-1.3l-.7-1,.3-1.3-.8-1.1-1-.7-.7-1-.7-1-.7-1-.2-1.2-.5-1.1-.5-1-.9-.9-1-.6-1.2-.5-1.1-1.1-.6-1.4-1-1.3h-1.7l-1.5-.6-.6-1.4-1.1-1.1-.5-1.5-1.1-1-1.3-.8-.8-1.4-.2-1.5-.5-1.5-1.2-1-.2-1.5-1.2-1,.9-1.6v-1.9l-.9-1.7.5-1.8-1-1.6-1.7-.8-1.6-.8-1-1.5-1.8.6-1.7-.7-1.7.6-1.7-.3-2-.4-1.2-1.5-.6-1.7-.8-1.6-1.9-.2h-1.8l-1.5-1-1.6-.8-1.3,1.5-1.2,1.5-2-.3-2,.2-1.6-.7h-1.8l-1.2-1.3-1.5-1.1.7-2-1-1.8-1.1-1.6-1.8-.7-1.8.4-1.8.5-1.9-.6-1.7.9-.9,1.9-2.1.5-1,1.7v2l-1.6-.6H1638l-1.7.2h-1.7l-1.7-.6-1.2-1.2-1.4-1-1.6-.7-.7-1.2V413l-1.4-.6-.5-1.4-.2-1.3v-2.6l-.5-1.3-1.3-.8-1.6.3-.8-1.2-1.3-.7-.8-1.4-1.4-.8-.3-1.6.6-1.5-1.1-.7-1.2-.5-1.2-.4-1-.8-1.2-.8-1.4-.3-1.2.5-1.4.2-1.4-.3-1.1-.9-1.3.6h-1.4l-.9-1-1.1-.6-1.3-.5-1-.8,1.2-.7.6-1.3.7-1.1,1.1-.7,1.1-1.1.6-1.3v-1.4l-.6-1.4-1-1v-2.8l.5-1.3-.4-1.4-1.4-.7-.4-1.5.8-1.2-1.4-.4-1.2-.7-.8-1.3-1-1,.3-1.4-.5-1.4-.4-1.3-.3-1.3v-1.4l.9-1.2.9-1,.7-1.1-.5-1.3-.4-1.4v-1.4l.4-1.3.5,1-.5.9-.8.5-.6.7H1596l-.9.3-.6.6h-.9l-.7.6h-1l-.5-.8-.8.3-.8-.3-.7.6h-.8l-.8-.4-.3-.8-.5-.6-.9-.2-.8.5h-.9l-.6-.6-.7-.4-.9-.3-.7.5-.7.3-.7.3-.8.6h-.9l-.7-.6-.7-.4-.4-.7-.3-.6-.6-.5-.3-.7-.6-.4-.7-.3-.6-.4-.6-.4-.3-.8v-.7l-.5-.6-.3-.7-.7-.4-.6-.4-.4-.6-.6-.5-.6-.5-.9-.2-.4-.7-.6-.6-.7.4h-.9l-.8-.5h-.8l-.4-.8v-.8l-.9-.2-.5-.8-.7-.5v-.8l-.2-.8V340l-1.3-1.4-1.9-.6-.9-1.7-1.8-.7-1.6-1.2-.4-2-1.7-.9-1.6-1.1-2-.7-1.3-1.6-2-.6-2.1.5-1.3-1.5-.3-2-.9-1.9-1.7-1.1-.2-2-1.3-1.5-.2-2-1.3-1.6v-2l-.5-2,1.5-1.5.6-2-1.2-1.5-.6-1.9-1.4-1.5v-2l.8-1.9-.5-1.9.6-1.9v-1.9l-1.1-1.8-1.7-1.1-1.9-.7-1.9-.7-2,.2-1.9.7-1.7,1.4-2.1-.4-.8-2,.3-2.1-1.6-1.3-.9-1.9-2.1-.2h-2.1l-2-1-1.1-1.8v-1.9l-.9-1.7-.8-1.9-2-.6-1.7-.6-.9-1.7-.9-1.8-1.9-.4-.8-1.7-.4-1.9v-2.1l-1.6-1.4-2,.9-1.9-1.2-2-.4-1.4-1.6-.8-2.7-2.3-1.7-2.9-.4-2.3-1.5-2.9-.9-2.9.7-1.4-2.5-2.2-1.9-2.4-1.1-2.6-.7-2.3-1.3-2.5-.7-2.8-.8-1.2-2.7-2.3-1.3-2.2-1.4-1.8-2.5.2-3.1-2.4-1.7-2.2-1.9-2.6-1.7-2.6-1.6-1.6-2.8.6-3.2-3,.6-2.7-1.5-2.3-1.7-2.5-1.3-2.9.6-2.6-1.4-2.6-1.1h-2.9l-2.9,1.6-3.3.2-2.7-1.8-3-1.2-2.6-1.5-2.5-1.8-2.6-1.8-3.2.4-2.8-1.6-.9-3.1-1-3.1-2.8-1.5,1.1-3.2-1.8-2.9-1.2-2.9-2.3-2.2-1.8-2.5-1-3v-3.2l.3-3.1,2.1-2.5-.5-3.3.4-3,1.3-2.8-3.2-.5-2.2-2.5-3.1-.8-2.4-2.1-1.4-3,.4-3.3-.9-3.3-2.8-1.9-1.6-.3-1.5-.7-1.3-1.1-.9-1.3-1.7-.3-1.5.7-1.6-.6h-1.6l-1.7.4-1.8-.4-1.4-1.1-.9-1.5-1.2-1.2-.3-1.7-.6-1.5-1.4-.9-1-1.5-1.2-1.4-.2-1.7v-1.8l-1.4-1.1-.8-1.6-1.5-1.1h-1.9l-.6-2,1-1.8,1.3-1.4,1.6-1-.9-1.8-1.7-1,.8-1.9-.3-2-1.4.9-1.6.7-1.4.8-1.7.4-1.7-.5-1.6.6-1.7-.3h-1.6l-.8-1.6-1.5-1-1.6-1-1.8.4-1.7-.8-.3-1.9-1.4-1.2h-1.8l-1.4-1.1-1.2-1.2-1-1.7.6-1.8v-1.9l-1.5-1.3,1.2-1.4V95.8l-1.4-1-1.2-1.2-.6-1.6-.7-1.5-1.8-.3-1.8.2-1.7-.7-.9-1.7,5.8,3.8,5,4.8h6.9l6.8-.7,6.6-2,6.7,1.7,5.9,3.1,5.8,3.3,4.5,6.2,5.9,5-4,7.2,1.6,8,5.8,4,4.6,5.4,6,4,7.3.6,6.6-1.9,4.3-5.3,6.3,1.8h6.6l6.1-2,6.2,2,6.3.5,5.7-2.9,2.8-6.7,6.6-3.1,6.1-3.8,7.1,1.1,5.6,4h6.9l6.6-2.8,6.4,3.2,6,3,5.7,3.4,2.4,6.4,4.9,4.8,2,6.3,3.2,5.7,4.6,4.7,3.9,5.2,6.2,4.6,7.2,2.6-.9,8.2,5.4,6.2h8.3l6-5.8,5.8,5.6,7.8,1.8,5.3-4.2,5.9-3.3,4.5-5.2,5.8-3.6,6.1-3.2,4.7-5.1,6.5-2.1,6.2-2.7,6.9-4.6,7.9,2.3,6.5-3.8,7.2-2.1,4.5,6.2,6.5,4.1,5.3,6.4,8.4-.4,3.6,4.7,5.5,2.3,5.7-2.8,5.9,2.4,4.9-3.5,5.8,1.3,5.6-.2,5.4,1.1,3.4,4.7,1.2,5.7,4.7,3.3,5.2,2.5,4.6,3.7,2.8,5.2v5.8l-.2,5.8,5,1.5,5.1-1.1,2.7,4.9,5.6.7,5.1,1.4,4.7-2.3h5l4.5,2.4,5-.7,5-.7,4.8,2.9,5.3-1.6,4.5,2.9,2.5,4.7,5.3.7,4.3,3.2,4.1,4.4,2.5,5.6,6.1-.4,5.9,1.6,5,3,4,4.4v5.8l2.2,5.5,6.4-1.7,6.3,1.8,6,3.2,2.1,6.5,6.2-2.1,3.1-5.8,6.1.5,6.1-1,4.6-1.8,4.7-1.7,4.8-1.6,5.1.8,4.9-.8,4.6-2,4.9-1.2,5,.8,5.1-1.4,5.2,1.2,5.7-.8,4.1,4,4.7-2.9,5.4,1.3,4.2-3.1,4.8-1.9.7,2.4v2.5l.9,2.4,1.6,1.9,1.8,2.2h2.9l1,2.4,1.1,2.4,1.9,1.4,1.8,1.6,1.6,1.9,1.5,1.8.8,2.7-1.1,2.5,2.5,1.4,1.1,2.5-1,2.4-.9,2.5,2.1,2v5.4l.7,2.4.5,2.7,2.5,1.3,1.6,1.9,1.3,2.2V306l1,2.3-.3,3,2.2,2.1,2.4,1.2,2.7.5,2.7.7,2.1,1.7,2.4,1.3,2.4,1.2,2.8,1,2.7-1.3,2.9-.2,2.3,2,3.1-.8,2.7-1.5,3.1.7,2.9,1.3,2.6-1.9.5-3.2,1.9-2.3,2.1-2.1,2.6-.6,2.7-.2,2.7.2,2.7.6.5,2.9,1.8,2.4h3.2l2,2.5,1.8,1.7,2.2,1.2,1.4,2.1,2.1,1.5h2.8l1.5,2.3,1.3,2.5,2.7.5,1,2.9,1.9,2.3-.7,2.9.5,3-2,2.1-.6,2.9-2.2,1.9-1.3,2.7-1.8,1.9-2.4,1.2-2,1.8-2.6.8-1.3,2.6-.8,2.9h-3.1l-2.5,1.8-2,1.8-1.6,2.1.4,2.7-.5,2.7-1.6,2.4.7,2.7-2,1.7-1.2,2.4-1,2.7-1.9,2-3-.8-2.5,1.7-.6,2.6-2,1.9-2.6.8-1.9,1.9,2,2.2-.4,3,.2,3-2,2.2-1.4,2.4.3,2.7,1.2,2.6-.8,2.7-1.9,2-2.5.9-2.6,1.1-1.5,2.4-1.3,2.5v2.9l-2.7,1.1-1.7,2.3.6,3-.4,3-1.3,2.8-2.8,1.5.5,2.9,2.4,1.8-.6,3,2,2.3L1998,455l.3,2.8-1,2.7.7,2.8-1.2,2.8-1.4,2.7-3,.6-2.9.8.3,2.6-1.7,2-2.2,1.2-2,1.3-1.5,1.9-.4,2.3.7,2.5-1.4,2.1h-2.4l-1.9,1.2h-2.3l-2.2.7-2.4-.4-2.3-.9-2.6.5-1.5,2.1-.8,2.1-1.8,1.2-1.3,1.7-.3,2.1-.5,2.3-1.9,1.5.8,2.1.4,2.2-1.4,1.6-1.8,1.2-1.5,1.5-1,1.9.2,2.1-.4,2.1-1.1,1.9V519l-1.2,2-1,2.2-.8,2.4,1.2,2.3,1.5,1.8,1.6,1.6,1.1,2.2.2,2.3,1.4,2.2-.7,2.5,1.2,2.1.6,2.3-.6,2.5-2.3,1.3-1.6,1.7-.9,2.2.2,2.4-1.5,1.9-1.6,1.7V561l-1.9,1.2-1.4,1.8-1.1,2-1.7,1.5-2.1.6-2,.9h-2.4l-1.5,2-1.9,1-1.9,1.2-1.4,1.7-2,1h0" style="fill:#d5e0bd"/><path id="path36889" d="M1773.8,1007.4c2.5,2.3,5.5,3.7,7.9,6.2,7.2,7.5-7.1,5-9.8,8.4-.8,1,2,1.5,3,2.4,3.4,2.8,9.7,11,8,15.6s-12.7-3.9-12.6-2.8c.9,7.6,5.7,10.2,2.6,18.8-.3,1-.1,2.5-1,3s-1.5-2.5-2.8-3.1-6.1-3.5-9-4.5,1.2,3.2,1.7,4.8c1.2,4.5,0,8.5-2.3,12.4-.9,1.5-1.3,3.7-2.9,4.5s-7.3-14.1-8.4-11.1c-.3.9,1.1,3.9.7,5.3-5,17.5-14.7-1.8-17.7-.4-.5.3-.1,5.1-.4,5.8-1.4,3.1-3.5,4.3-6,6-.4.3-.6,1.9-1,1.7s-3.2-9.4-3.8-10.7-8.1,10.3-11.4,9.1c-.9-.3-.8-11.7-2.7-12.4-3.6-1.3-8.2,8.6-13.8,5.2-2.3-1.4-.2-12.4-1.8-12.9-3.3-1.2-11.3,10.4-16.3,6.4-3.5-2.7,5.2-14,4.4-15.8s-6.6,1-7.6,1.1c-19,2.3-3.8-8.7-.5-12.9.7-.9-7.8-4.3-7.2-6,2.4-6.6,14-4.1,18.4-6.2.2-.1-3.5-6-3.7-6.4a15.1,15.1,0,0,1,1.3-11.9c1-1.9,15.8,7,16.5,7.2,2.2.8-1.3-4.5-1.3-6.8s2.8-11.4,6.3-13,8.3,10.8,9.4,13.1a13.1,13.1,0,0,1-.1-9.4c1.7-4.7,9.5-10.7,9.4-10.7s4.4,5.4,4.4,5.4c1.7,1.7,6.8,9.3,8.4,9.9s-.1-4-.2-4.4a21.1,21.1,0,0,1,3.9-14.3c3-3.7,6.3,13.3,8.6,14.1,0,.1,2.7-7.9,6.3-11.7,13.1-14.1,9.3,5.1,10.7,8,.1.4,2.3-3.1,6.9-3.8,14.4-2.4,10.7-1.8,9.3,5-1.1,5-2.3,7.6-3.8,11.8Z" style="fill:#9bab8c"/><path id="path36891" d="M1496.9,1017.4c-1.9-2.8-4.4-5-6.1-8.1-5-9,8.2-2.9,11.7-5.6,1-.7-1.6-2-2.3-3-2.6-3.6-6.6-13.1-3.8-17.1s11.3,7,11.5,5.9c1-7.7-2.9-11.4,2.2-18.9.6-.8.8-2.4,1.8-2.6s.8,2.8,1.9,3.7,5,4.9,7.5,6.6-.3-3.4-.3-5.1c-.1-4.6,2.1-8.2,5.3-11.3,1.3-1.3,2.2-3.3,4-3.6s3.4,15.4,5.2,12.8c.5-.8,0-4.1.8-5.3,9.2-15.6,13.7,5.5,17,4.9.5-.1,1.3-4.9,1.8-5.5,2.1-2.6,4.5-3.2,7.3-4.3.5-.2,1.1-1.6,1.5-1.4s.7,9.9.9,11.3,10.4-7.9,13.3-5.9c.8.6-2.2,11.6-.5,12.8s10.1-6.3,14.7-1.6c1.8,1.9-3,12-1.6,13s13.6-7.2,17.4-2.1c2.7,3.5-8.6,12.3-8.3,14.2s6.7.7,7.7.8c18.9,2.7,1.5,9.4-2.9,12.7-.9.6,6.5,6,5.5,7.6-4,5.8-14.6.4-19.3,1.3-.3,0,1.8,6.7,1.9,7.1a15.6,15.6,0,0,1-4.3,11.2c-1.5,1.6-13.5-10.8-14.2-11.2s.2,4.7-.4,7-5.6,10.2-9.5,10.9c-2.2.4-5.2-12.6-5.6-15a13.3,13.3,0,0,1-2.4,9c-2.8,4.2-11.9,8-11.8,8s-2.8-6.3-2.9-6.4c-1.2-2-4.2-10.6-5.6-11.6s-.9,3.9-.9,4.2a21,21,0,0,1-7.4,12.9c-3.8,2.9-2.7-14.5-4.7-15.8-.1-.1-4.6,6.9-9.1,9.7-16.2,10.3-7.7-7.4-8.3-10.5-.1-.4-3,2.4-7.7,2-14.4-1.4-10.7-1-7.7-7.2,2.3-4.6,4.2-6.8,6.7-10.5Z" style="fill:#9bab8c"/><path id="path36893" d="M1354.4,1071.7c-2.2-2.6-5-4.5-7.1-7.3-6.1-8.3,7.7-4,10.9-7,.9-.9-1.8-1.8-2.7-2.7-2.9-3.3-8.1-12.2-5.9-16.5s12.1,5.5,12.2,4.4c.1-7.7-4.3-10.9-.2-19,.5-.9.5-2.5,1.5-2.8s1.2,2.7,2.3,3.4,5.6,4.3,8.3,5.7-.7-3.4-1-5.1c-.6-4.5,1.1-8.4,3.9-11.9,1.1-1.4,1.8-3.5,3.5-4.1s5.3,15,6.8,12.1c.4-.8-.5-4,.1-5.4,7.2-16.6,14.3,3.8,17.5,2.8.5-.2.7-5,1.1-5.7,1.8-2.9,4-3.8,6.7-5.1.5-.3.9-1.8,1.3-1.6s1.9,9.7,2.4,11.1,9.3-9.1,12.4-7.5c.9.4-.8,11.7,1.1,12.7s9.2-7.5,14.3-3.4c2.1,1.7-1.4,12.3.1,13.1,3.1,1.6,12.5-8.9,17-4.3s-7,13.3-6.4,15.1,6.7-.1,7.7-.1c19,.3,2.6,9.1-1.3,12.9-.8.8,7.2,5.2,6.4,6.9-3.3,6.2-14.4,2.2-19,3.7-.3.1,2.6,6.4,2.7,6.8a15,15,0,0,1-2.8,11.6c-1.3,1.9-14.7-8.9-15.5-9.3s.8,4.7.5,7-4.3,10.9-8,12c-2.2.7-6.8-11.8-7.6-14.2,0-.3,1.5,4.1-1.1,9.3s-10.8,9.4-10.7,9.4-3.7-6-3.7-6c-1.5-1.8-5.5-10-7-10.8s-.4,3.9-.4,4.3a21.2,21.2,0,0,1-5.8,13.7c-3.4,3.3-4.5-14.1-6.6-15.2-.1,0-3.7,7.5-7.8,10.9-14.8,12.2-8.6-6.4-9.5-9.5-.1-.3-2.8,2.8-7.4,3-14.5.4-10.8.3-8.5-6.2,1.6-4.8,3.3-7.3,5.3-11.2Z" style="fill:#9bab8c"/><path id="path36748" d="M1782.6,1012.7c-1.7-2.9-4.2-5.3-5.7-8.3-4.6-9.3,8.2-2.7,11.8-5.1,1.1-.8-1.5-2.1-2.1-3.2-2.4-3.7-6-13.3-3-17.3s10.9,7.5,11.1,6.5c1.4-7.6-2.3-11.5,3.1-18.8.7-.8.9-2.4,1.9-2.5s.7,2.8,1.7,3.7,4.8,5.1,7.3,7-.2-3.4-.2-5.1c.1-4.6,2.5-8.1,5.9-11.1,1.3-1.2,2.3-3.2,4.1-3.5s2.8,15.6,4.7,13.1c.5-.8.1-4.1.9-5.3,10-15.2,13.5,6.1,16.8,5.6.6-.1,1.6-4.8,2.1-5.4,2.2-2.5,4.6-3,7.5-3.9.5-.2,1.2-1.6,1.5-1.4s.3,9.9.5,11.4,10.7-7.5,13.5-5.4c.8.6-2.7,11.5-1.1,12.8s10.4-5.9,14.8-1c1.7,2-3.6,11.9-2.2,12.9,2.9,2.2,13.9-6.6,17.5-1.3,2.5,3.6-9.2,11.9-8.9,13.8s6.6,1,7.6,1.2c18.8,3.4,1.1,9.4-3.4,12.5-.9.6,6.3,6.3,5.2,7.8-4.3,5.7-14.6-.2-19.4.5-.2,0,1.6,6.8,1.6,7.2a15.3,15.3,0,0,1-4.8,11c-1.6,1.5-13-11.3-13.6-11.8s-.1,4.7-.8,6.9-6,10-9.9,10.6c-2.2.3-4.7-12.8-5-15.3a13.3,13.3,0,0,1-2.7,9c-3.1,3.9-12.3,7.4-12.1,7.4s-2.7-6.5-2.7-6.5c-1.1-2.1-3.7-10.8-5.1-11.9s-1,3.9-1.1,4.2a21,21,0,0,1-7.9,12.6c-4,2.7-2.1-14.6-4-16.1-.1,0-5,6.8-9.6,9.4-16.6,9.5-7.3-7.7-7.8-10.9,0-.3-3.1,2.3-7.8,1.7-14.3-2-10.7-1.5-7.3-7.6,2.5-4.4,4.5-6.6,7.1-10.1Z" style="fill:#9bab8c"/><path id="path36895" d="M650.8,1041.3c-1.4-3.1-3.4-5.8-4.5-9-3.3-9.8,8.5-1.5,12.4-3.4,1.1-.6-1.2-2.3-1.7-3.4-1.8-4-4-14.1-.5-17.6s9.8,9,10.1,8c2.5-7.4-.7-11.7,5.7-18.2.7-.7,1.2-2.2,2.3-2.2s.2,2.9,1.1,3.9,4,5.8,6.2,8,.3-3.4.6-5.1c.7-4.6,3.6-7.7,7.3-10.2,1.5-1,2.8-2.8,4.6-2.8s.5,15.8,2.8,13.5c.6-.6.7-3.9,1.7-5.1,11.9-13.6,12.5,8,15.8,8,.6,0,2.2-4.6,2.9-5.1,2.5-2.2,4.9-2.4,7.9-2.9.5,0,1.4-1.4,1.7-1.1s-1.1,9.9-1.1,11.3,11.6-5.8,14.1-3.4c.7.7-4.3,11-2.8,12.5s11-4.3,14.7,1.1c1.5,2.2-5.2,11.3-4,12.5s14.7-4.6,17.6,1.1c2,4-10.8,10.5-10.8,12.5s6.4,1.9,7.4,2.2c18.1,6.1-.3,9.5-5.1,11.9-1,.5,5.3,7.2,3.9,8.5-4.9,5-14.4-2.3-19.2-2.3-.2,0,.6,6.9.6,7.4a15.5,15.5,0,0,1-6.3,10.2c-1.8,1.3-11.3-13-11.8-13.6s-.8,4.7-1.7,6.8-7.4,9-11.4,9c-2.2,0-2.8-13.3-2.8-15.8a12.9,12.9,0,0,1-3.9,8.5c-3.6,3.5-13.2,5.6-13.1,5.6s-1.6-6.7-1.7-6.8c-.8-2.1-2.2-11.2-3.4-12.4s-1.5,3.6-1.7,4a20.5,20.5,0,0,1-9.6,11.3c-4.2,2.1,0-14.8-1.7-16.4,0-.1-5.8,5.9-10.7,7.9-17.8,7.1-6.2-8.7-6.2-11.9,0-.3-3.5,1.8-8,.6-13.9-4-10.4-3-6.2-8.5s5.4-6,8.5-9.1Z" style="fill:#9bab8c"/><path id="path36897" d="M243.9,971.7c-1.3-3.2-3.4-5.8-4.5-9.1-3.3-9.8,8.6-1.4,12.5-3.4,1.1-.5-1.2-2.2-1.7-3.4-1.9-4-4.1-14-.6-17.5s9.8,9,10.2,7.9c2.4-7.3-.8-11.7,5.6-18.1.8-.7,1.2-2.3,2.3-2.3s.3,2.9,1.1,4,4.1,5.7,6.3,7.9.2-3.4.5-5.1c.8-4.5,3.6-7.6,7.4-10.1,1.5-1,2.7-2.9,4.5-2.9s.6,15.9,2.8,13.6c.7-.6.8-4,1.7-5.1,12-13.7,12.5,7.9,15.9,7.9.5,0,2.2-4.5,2.8-5.1,2.5-2.1,4.9-2.3,7.9-2.8.6-.1,1.4-1.4,1.7-1.1s-1.1,9.8-1.1,11.3,11.7-5.9,14.1-3.4c.7.7-4.3,11-2.8,12.5s11.1-4.4,14.7,1.1c1.5,2.2-5.1,11.2-3.9,12.4s14.7-4.6,17.5,1.2c2,3.9-10.7,10.5-10.7,12.4s6.4,2,7.3,2.3c18.1,6-.2,9.4-5.1,11.9-1,.5,5.3,7.1,4,8.4-5,5-14.4-2.2-19.3-2.2-.2,0,.7,6.9.6,7.3a14.6,14.6,0,0,1-6.2,10.2c-1.8,1.4-11.3-13-11.9-13.6s-.7,4.7-1.7,6.8-7.4,9.1-11.3,9.1c-2.3,0-2.8-13.3-2.8-15.9a13,13,0,0,1-4,8.5c-3.5,3.6-13.1,5.7-13,5.7s-1.7-6.8-1.7-6.8c-.8-2.2-2.2-11.2-3.4-12.4s-1.6,3.6-1.7,3.9a20.9,20.9,0,0,1-9.6,11.3c-4.3,2.2-.1-14.7-1.7-16.4-.1,0-5.9,6-10.8,7.9-17.8,7.2-6.2-8.6-6.2-11.8,0-.4-3.4,1.8-7.9.5-14-4-10.4-2.9-6.2-8.5,3-4,5.3-5.9,8.4-9Z" style="fill:#9bab8c"/><path id="path36885" d="M38.1,919.4c-1.3-3.2-3.4-5.8-4.5-9.1-3.3-9.8,8.6-1.4,12.5-3.4,1.1-.5-1.2-2.2-1.7-3.4-1.9-4-4.1-14-.6-17.5s9.8,9,10.2,7.9c2.4-7.3-.8-11.7,5.6-18.1.8-.7,1.2-2.3,2.3-2.3s.3,2.9,1.1,4,4.1,5.7,6.3,7.9.2-3.4.5-5.1c.8-4.5,3.6-7.6,7.4-10.1,1.5-1,2.7-2.9,4.5-2.9s.6,15.9,2.8,13.6c.7-.6.8-4,1.7-5.1,12-13.7,12.5,7.9,15.9,7.9.5,0,2.2-4.5,2.8-5.1,2.5-2.1,4.9-2.3,7.9-2.8.6-.1,1.4-1.4,1.7-1.1s-1.1,9.8-1.1,11.3,11.7-5.9,14.1-3.4c.7.7-4.3,11-2.8,12.5s11.1-4.4,14.7,1.1c1.5,2.2-5.1,11.2-3.9,12.4s14.6-4.6,17.5,1.2c2,3.9-10.7,10.5-10.7,12.4s6.4,2,7.3,2.3c18.1,6-.2,9.4-5.1,11.9-1,.5,5.3,7.1,4,8.4-5,5-14.4-2.2-19.3-2.2-.2,0,.7,6.9.6,7.3a14.6,14.6,0,0,1-6.2,10.2c-1.8,1.4-11.3-13-11.9-13.6s-.7,4.7-1.7,6.8-7.4,9.1-11.3,9.1c-2.3,0-2.9-13.3-2.9-15.9a12.6,12.6,0,0,1-3.9,8.5c-3.5,3.6-13.2,5.7-13,5.7s-1.7-6.8-1.7-6.8c-.8-2.2-2.2-11.2-3.4-12.4s-1.6,3.6-1.7,3.9a20.9,20.9,0,0,1-9.6,11.3c-4.3,2.2-.1-14.7-1.7-16.4-.1,0-5.9,6-10.8,7.9-17.8,7.2-6.2-8.6-6.2-11.8,0-.4-3.4,1.8-7.9.5-14-4-10.4-2.9-6.3-8.5,3.1-4,5.4-5.9,8.5-9Z" style="fill:#9bab8c"/><path id="path36887" d="M476.7,1046c.5,3.4,1.9,6.5,2.1,10,.6,10.3-8.7-.9-12.9,0-1.3.3.5,2.5.7,3.7.7,4.4.3,14.7-4,17.1s-7.2-11.2-7.8-10.3c-4.2,6.5-2.3,11.5-10.1,16.1-.9.5-1.8,1.8-2.8,1.6s.5-2.9-.1-4.2-2.4-6.5-3.9-9.2-1.2,3.2-1.9,4.8c-1.9,4.2-5.5,6.4-9.7,7.9-1.7.6-3.4,2-5.1,1.6s3.5-15.5.7-13.9c-.7.5-1.7,3.7-2.9,4.5-15.1,10.1-10-10.9-13.3-11.8-.5-.1-3.2,3.8-4,4.2-3,1.5-5.4,1-8.4.7-.6-.1-1.7,1-1.9.7s3.6-9.3,4-10.7-12.8,2.6-14.6-.4c-.4-.8,7-9.5,6-11.3s-11.8,1.3-13.9-4.9c-.9-2.5,7.9-9.5,7-11-1.8-3.1-15.3.7-16.6-5.6-.9-4.4,13.1-7.4,13.6-9.2s-5.7-3.6-6.5-4.1c-16-10.5,2.6-9.1,8-10.2,1.1-.2-3.3-8.3-1.7-9.2,6.1-3.5,13.4,5.9,18,7.2.2,0,1.2-6.9,1.4-7.3a14.5,14.5,0,0,1,8.6-8.2c2.1-.9,7.6,15.5,8,16.2s1.9-4.4,3.4-6.2,9.5-6.8,13.3-5.8c2.1.6-.7,13.6-1.4,16.1a12.9,12.9,0,0,1,6-7.2c4.4-2.5,14.2-2.1,14.1-2.1s-.2,6.9-.2,7c.3,2.3-.7,11.4.1,12.9s2.5-3.1,2.7-3.4a20.4,20.4,0,0,1,12.2-8.4c4.7-1-3.8,14.2-2.6,16.3,0,0,7.2-4.3,12.4-4.9,19.1-2.3,3.8,10,3,13.1-.1.3,3.8-.9,7.8,1.5,12.4,7.5,9.2,5.5,3.8,9.8s-6.7,4.3-10.6,6.5Z" style="fill:#9bab8c"/></g></g></g></svg>