<svg xmlns="http://www.w3.org/2000/svg" viewBox="0 0 1996.5 1135"><g id="Livello_2" data-name="Livello 2"><g id="Livello_1-2" data-name="Livello 1"><path id="path23605" d="M137.3,426.3c-9.2,56.9,6.4,115.4,0,172.9-6.2,55.4-68.9,396.5-32.8,432.5,4.7,4.8,13.1-3.4,19.2-6.4,9.7-4.8-6.4-21.1-6.4-32,0-32,17-234.4,22-266,26.4-165.9,40.3-180.4,20.4-256.1-5.9-22.3,5.2-58.7-22.4-44.9Z" style="fill:#5d725b"/><path id="path23790" d="M6.4,405.8,8.1,404l2.1-.5,1.8-1.4,1.9-1.3,2.1-.4,1.9-1.4,1.5-2.2h2.3l2.2.5,2.1,1.2h2.3l2.2.9,1.9-1.9,1.4-2.5h2.4l2.4-.5-.3,3.3,1.2,2.9,2.1,1.9.8,3.1,2.2,2,1.8,2.7,2.8,1.1,2.5-2.2,1.8,2.1h2.4l2.1-1.8,2.4.9,2.4.9,1.8,2.2,2.5-.6,2.1-1.6,2,1.8.4,3.1v2.9l-1,2.6v2.8L72,427l.7,2.5v2.7l-.2,3.1,1.5,2.4,1.7,2.1,2.4.5.2,2.8,1.1,2.4,1.4,2.1,1.9,1.5.8,3,.9,3,2.6.2,2.1,2.2,2.6-.4,2,2.3,2.5-.9,2.1-1.6,1.9,1.4,1.6,2,.7,2.6.5,2.8,1,2.6,2,1.1,1.3,2.3L109,473l2.3-2h2.8l2.7-.2,2.4-1.7,2.5,1.3,2.1,2.1,2,2.8,3-.3,2.9,1,3-.8,1.6,3.1,2.4,2.3,2.3-2.4,3,.6,2.4-1.8,2.2-2.1,2-2.4h2.7l1.6-3,2.7-.7,2.5.7,2.6-1,2.6-1.3,2.5,1.5,2.7-.6,1.6-2.8,2.7-1.1,1.1-3.3,2.6.4h2.6l2.6-.8,2.2-1.9,3.3-.4,2.3-3,2.3-2.9,3.2-.7v-4.2l2.3-3.2,1.8-3.7-1.1-4.1,2.3-3.3,1.2-4.1,3.6.9,3.1-2.6,3.6.5,3.2-1.9,3.6,1.4,1.7,4.3-.7-4.1,1.3-3.8,2-3,1.8-3.3,2.9-2,3.2-.3,1-4,2.8-2.4-1.7-3.1-1.3-3.5-.4-4.1-2.5-2.7-1.8-3.8-.3-4.3.9-4.4,2.8-2.7,3.1,2h3.5l3,2.7.8,4.4,3.6.3,2.3-3.3h3.3l2.9-2,3.3,1.3,3.4-1.2,1.3,4.2,3.2,1.9,2,3.6-.9,4.2,1.8,3.2,1.7,3.3,3-.9,2.6,2.2,2.6,1.3,2.6,1.3,2.4,1.8,2.1,2.6,2.2,2.5h3l2.8-1.1,2.9.7,2.8.2,2.7.8,2.7-1.3,2.7-.9h2.8l2.7-1.1,1.8,3.4,2.8,2.2,2.5,2.6,3.2.6,2.5,2.9,3,2-.2,4.4,1.3,4,3.7.3,2.6-3.4,3.4,1.2,3.3-1.3,3.8-.6,3.1,2.9,1,4.5,2.9,3,.8,4.8-2,4.2-3.3,2.1-2.2,3.7,2.3,3.7.4,4.6.2,4.9-2.4,3.7.5,4.4.7,4.3,1.6,3.8,1.6,4,1.5,4.4,2.5,3.8,3.8.9h3.8l5.5-6.5,2.6-8.9,5-6.9,3.1-8.4-.8-11,5.7-8.3,8.9.3,5.9-8.3,2.3-10.5,7.1-6.2,7.1-6.9.3-11.3,7.9,5.1,9,.3,8.4-3.3,6.9-7.2,4.6-8.8,1.7-10.2,7.4-5.3,8.4-.4,7.3-3.3,4.6-7.8,3.9-8.5,7.3-3.7,4.9-8.7,3.8-9.5,8.3-2.9,6.7-6.7-.7-10.3,1.5-10.1,1.7-10.4-3.1-10,8.6,3,7.2-6.6,8.9-.6,5.1-9.2,4.4,9.8,8.9,1.6,7.9,1.6,7.7,3.3,7.9.3,7.8,1.4,3.9-9.9,8.6-2.3,4.7-8.1,8-1.5,7.1-2.5,7-3.3,7.7-3.1,8,2,8-1.2,7.8,2.1,8-1.9,6.6-6.1,5.6-7.3,6.5-5.9,8.7,3.8,8.7,4.3-1.3,12.9,7.3,9.2,8-5.6,8.1-5.3,9.1,1.8,8.2,5.3v-1.5l.3-1.5-.3-1.4v-1.5l.2-1.6.2-1.6-.8-1.2-.6-1.4.5-1.4v-3l.2-1.5.4-1.5v-1.6l-1-1.1-.4-1.6-.3-1.9-1.5-.7v-1.8l.3-1.7-.8-1.4-1.2-.7-1.1-.9-.4-1.6-.5-1.9.8-1.7.7-1.7,1.6-.5-.4-1.6-.5-1.6.3-1.7-.7-1.6,1.1-.7.5-1.5.6-1.4,1-.8.9-1.1.6-1.3.9-1.2v-1.6l.4-1.7-.2-1.6,1.4-.5.6-1.7v-1.6l-.5-1.5.8-1.4-.2-1.7.5-1.8,1.2-1.1,1.5.8,1.4-.9,1.1-1.2.4-1.8,1.2-.9,1.3-.3-.3-1.6v-1.7l.6-1.6-.7-1.7-.3-1.7.6-1.6,1-1.3v-1.8l-2.5-1.5-2.7.6-2.7-.2-2.5,1.1h-2.9l-1.9-2.9-2.6-1.1-1.5-3-2.7-.3-2.3-1.8-2.6-.8-2.1-1.9-1.6-3.4.6-3.8-2.9-1.1-2.2-2.6H720l-2.7.5h-3.1l-1.8-3.1-2.4-1.8-2.9-.5-2.4-2.3-.4-3.8-2.9.6-2.9.8-1.7,3.2-2.3,2.4-2.4-2.4-2.1-2.7-3.1,1.1-2.9-1.3-2.8-.6-2.7,1.3-2-2.2-2.4-1.8-2.1-2-2.3-1.7-2.6-1.4-2.7,1.1-2.8.7-2.1,2.5-2.9.6-2.4-2.2-2.7,1-1.5,3.1-2.7-.2-2.4,1.7-2.8.3-2.7-.7-2.7.2-2.6,1.3-2.7,2-3.1-.9-.9,3.7-2.7,2-2.8-.3-2.7-.7-2.7-.7-2.8-.3V148l-2.3-3-2.3-2.8h-3.3l-3.5-13.5-10.6-5.2-9.9-4.9-6.3-10.9-11.4,1-9.5-8.1-9.8,5.6-10,5.2-9.9,3.1-10.1-.8-10.5-1.4-7.8-8.9-9.5,4.7-7.2,9.1-9.9,1.5-10,1.2-8.9-7.4-10.6,1.8L436,101.7l-10.4-4.2-9.9,6.2-7.6,9.9-9.1-9.4-11.7,1.5-9.8,2.6-10-.8-6-10.5-9.2-5.6-9.5-4.8-9.4,4.8-7-9.1-10-1.3-11.1-.2-10-5.9-11.6-.2-8.3-10.3-11.9-5-11.6,6-11.2,7.3-4.3,14.9L235,100.9l-6.2,10.9-8.8,7.1-7.1,9.7-.2,14.4-8.8,9.4-10.1,4.3-7.8,9.4-5.4,10.5-7.8,7.8-3.4,12.1-7.7,8.4-4.5,12.6-10.7,3.2-8.8,5.7-9.1,5.1-10.8-2.6L106.9,227l-10.8,5.8L90.8,246l-9.5-5.6L72,234.2l-9.8,5.4-10.6.8-3,.5L46,242.6l-2.9.7-2.4,2.3L39.6,249l-1.2,3.5-1.8,3-2.6,2,2.2,3.2-.4,4.3-1.7,3.2-1.8,3.3.9,3.4v3.6l.6,3.4.6,3.5-2.6,1.2-1.6,2.7-2.5,1.1-2.6-.3-2.8-.6-2,2.5-2.6.7-1.7,2.5-.5,3.8-2.3,2.3-.5,3.6-1.6,3-3.1-.5-2.3,2.5-2.8.2-2.8.5.4,4,2.5,2.5,2.5,2,2.8,1.4.8,4,2.5,2.7,3,1.5,3.2-.4,1.9,3.7-.6,4.3-.7,4.3-2.7,2.7,3.1,1.6,1.1,4,1.2,3.6,1,3.7,1.9,3.4-.7,4-.3,4L21,370.7l-.4,3.6L21,378l2,3.1-.7,4v4.1L20,392l-2,2.8L16.4,398l-2.9,2.1-3.4-.7-2.9,2.2-.8,4.2h0" style="fill:#5d725b"/><path id="path23487" d="M370.9,326a4.9,4.9,0,0,0-2.3.5C358.3,336.9,353,453.3,346.2,477s-10.2,47.4-16,70.4c-13.7,54.8-21.8,201.3-32.8,256.5-9.6,48-11.4,104.9-51.2,137.6,4.9,2.5,62.1,27.5,64,25.6,9-9,1-73,3.2-86.4,11.3-67.4,43.7-224.7,55.8-291.9,47.3-57.2,66.3-106.7,79.5-185.4,1.8-11.2,20.5-53.1,9.6-64.1-18.5-18.4-38.5,97.1-38.5,112.1,0,42.8-24,62.5-41.6,86.9q6.6-37,12.8-74.1c3.2-18.7-3.1-39,0-57.6,4-23.6,22.4-80.1-9.6-80.1C380,326.5,374.2,325.8,370.9,326Z" style="fill:#5d725b"/><path id="path4330" d="M1407.7,843c25.4-4.2,61.9,2.4,88,18.9-1.2,11.5-1.8,19.4.6,16.4a90,90,0,0,1,10.6-10.8c21.9,11.3,41.8,23.3,59.7,36.6-5.1,10.8-11.1,24.2-8.9,26.3,9.5,9.2,15.5-2.1,24.2-14.2a257.7,257.7,0,0,1,56.9,66.3c-12.8,17.9-24.1,34.3-17,41.1,4.6,4.5,15.8-3.2,20-5.1l12.4-5.6c14.2,33.3,22.9,72.4,25.9,119.3-36,12.5-83.1-18-125.2-57.8,13.5-44.7,7-23.7-14.1-14-14-14.2-27.1-29-38.8-43.2,11.3-14.6,24.8-28.4,18.8-28-16.6,1.1-27.8,3.7-35.8,6.8-6.1-8-11.6-15.5-16.2-22.1-10-14.2-17.4-31.7-23.8-49.8,4.2-4,13.6-8.1,16.5-10,3,1.4-11.7-2.3-14-2.5a52.7,52.7,0,0,0-6.9-.1c-2.1-13.5-16.4-49.9-32.9-68.5Z" style="fill:#5d725b"/><path id="path4332" d="M1663.6,673c21,16.9,42.9,49.9,51,81.8-8.3,7.1-13.8,12.1-10.1,11.9a78.7,78.7,0,0,1,14.5.7,514.9,514.9,0,0,1,19.3,71.9c-10.5,3.7-23.5,8.4-23.3,11.5.9,13.8,12.5,10.7,26.5,9,4.1,31.1,3.7,61.1-1.8,90.6-20.7,2.4-39.3,5.1-38.6,15.4.4,6.7,13.4,10.1,17.6,12s8.7,4,12.5,5.7c-11.3,34.4-30.1,68.5-58,103.5-33.9-19.3-48-77.3-52.6-137.9,38.3-20.7,20.2-11.1-1.2-20.7-.8-20.8-.7-41.4,0-60.4,17.4-1.4,36-.6,31.5-4.9-12.7-12.2-22.4-19-30.1-23.1.8-10.4,1.6-19.9,2.6-28.1,2-17.7,8-35.6,14.9-53.3,5.6.6,15,5,18.2,5.9,1.3,3.3-6.8-10.7-8.3-12.6s-3.2-3.7-4.9-5.5c7.1-11,20.2-47.6,20.3-73.4Z" style="fill:#5d725b"/><path id="path3458" d="M1922.5,787.2c-25.8-.8-61.1,10.6-84.8,30.5,2.8,11.3,4.4,19,1.7,16.3a97.8,97.8,0,0,0-12-9.2,419.2,419.2,0,0,0-54.2,44.2c6.4,10,14.2,22.6,12.4,24.9-8.2,10.4-15.7,0-26-10.8a258.4,258.4,0,0,0-47.5,73.4c15.2,15.9,28.5,30.7,22.5,38.4-4,5-16.1-1.1-20.6-2.4l-13-3.9c-9.6,34.9-13,74.9-9.7,121.7,37.4,7.6,80-29,116.3-74.1-19.3-42.5-10.1-22.6,12.1-15.7,12-16,23-32.5,32.7-48.1-13.1-12.9-28.4-24.8-22.4-25.2,16.6-1.2,28.1,0,36.4,1.9,5-8.7,9.4-16.9,13.1-24,8-15.5,12.9-33.8,16.9-52.6-4.7-3.3-14.6-6.2-17.7-7.7-2.8,1.8,11.3-3.8,13.5-4.3s4.5-.8,6.9-1.1c.2-13.6,9.5-51.7,23.4-72.2Z" style="fill:#5d725b"/><path d="M692.7,109.7c-19.1,13.7-73.5,58.3-132.4,176-36.7,73.3-82.8,188.9-73.5,393.4,8.2,178.8,74.9,349,74.9,349-1.4,21.6,66.5,21.3,68-.4,0,0-107.5-246.8-89.9-490.2C553.7,346,627,200.4,708.9,112.1Z" style="fill:#5d725b"/><path d="M679.6,113.3c10.4-9.1,5.4-8.5,20.2-18.8C722.1,79,760.9,75,794.1,81.9c58.6,12,113.6,43.8,137.8,100.2-23.4-20.8-52.8-25.8-83-24.9-7.8-12.3-15.7-24.6-24.1-36.5.1,12.2.3,24.4.9,36.6-14.2,1-27.4-2.7-40.9-6.7a500.7,500.7,0,0,0-27.4-44.2c3.4,12.9,6.7,25.8,9.6,38.8C737,137.8,706.6,128.7,679.6,113.3Z" style="fill:#5d725b"/><g style="opacity:0.2"><path d="M679.6,113.3c10.4-9.1,5.4-8.5,20.2-18.8C722.1,79,760.9,75,794.1,81.9c58.6,12,113.6,43.8,137.8,100.2-23.4-20.8-52.8-25.8-83-24.9-7.8-12.3-15.7-24.6-24.1-36.5.1,12.2.3,24.4.9,36.6-14.2,1-27.4-2.7-40.9-6.7a500.7,500.7,0,0,0-27.4-44.2c3.4,12.9,6.7,25.8,9.6,38.8C737,137.8,706.6,128.7,679.6,113.3Z" style="fill:#5d725b"/></g><path d="M688.1,118s5.9-18.1-19-49.3C630,19.9,571.6,2.6,541,.4s-75.5,4.2-98.5,23.4c0,0,33.4-3,72.5,17.2,0,0,28.4-13.3,59.5-14,0,0-32.6,15.9-39.8,24.4,0,0,17.4,19.3,50.2,26.9,0,0,25.2-24.1,51-21.9,0,0-24.3,6.8-36.1,28.7C599.8,85.1,641.9,106.7,688.1,118Z" style="fill:#5d725b"/><path d="M688.1,118s5.9-18.1-19-49.3C630,19.9,571.6,2.6,541,.4s-75.5,4.2-98.5,23.4c0,0,33.4-3,72.5,17.2,0,0,28.4-13.3,59.5-14,0,0-32.6,15.9-39.8,24.4,0,0,17.4,19.3,50.2,26.9,0,0,25.2-24.1,51-21.9,0,0-24.3,6.8-36.1,28.7C599.8,85.1,641.9,106.7,688.1,118Z" style="fill:#5d725b;opacity:0.2"/><path d="M688.1,118S645.2,87.7,583.3,91.5c-80.8,4.9-128.9,40.6-148,73.9,0,0,36.3-24.9,88.1-9l31.2-31.6-5.5,36.7c11.1,2.8,26,2,43.8-1.6l31.5-42.6-11.7,38.4S661.2,147.3,688.1,118Z" style="fill:#5d725b"/><path d="M688.1,118S645.2,87.7,583.3,91.5c-80.8,4.9-128.9,40.6-148,73.9,0,0,36.3-24.9,88.1-9l31.2-31.6-5.5,36.7c11.1,2.8,26,2,43.8-1.6l31.5-42.6-11.7,38.4S661.2,147.3,688.1,118Z" style="fill:#5d725b;opacity:0.1"/><path d="M688.1,118s14.6-3.7,42.5,10.2c47.5,23.7,82.7,81.5,90.7,110.6s10.5,73.8-3.5,99.8c0,0-3.6-32.9-30.7-66.8,0,0,7.4-30,2.1-60.2,0,0-9.1,34.5-15.9,43.2,0,0-22-13.1-35.7-43.4,0,0,18.5-28.9,11.3-53.4,0,0-1.8,24.7-20.8,40.3C728.1,198.3,708,160.5,688.1,118Z" style="fill:#5d725b"/><path d="M688.1,118s14.6-3.7,42.5,10.2c47.5,23.7,82.7,81.5,90.7,110.6s10.5,73.8-3.5,99.8c0,0-3.6-32.9-30.7-66.8,0,0,7.4-30,2.1-60.2,0,0-9.1,34.5-15.9,43.2,0,0-22-13.1-35.7-43.4,0,0,18.5-28.9,11.3-53.4,0,0-1.8,24.7-20.8,40.3C728.1,198.3,708,160.5,688.1,118Z" style="fill:#5d725b;opacity:0.1"/><path d="M613.3,338.1s17.5-23.4,21-50.3c1-7.5,1.6-15.4,2-23.6,28.1-16.6,31.8-35.5,31.8-35.5-7,10.5-22.9,18-31.3,18.6-1.7-18,2.3-35.5,4.6-51.1,22.2-7.7,30.3-19.9,30.3-19.9-7.9,5-21.3,7-28.8,6.7,8.8-32.7,30.1-58.4,45.2-65,0,0,17.2,13.4,16.4,76C703.6,258.7,665.7,319.1,613.3,338.1Z" style="fill:#5d725b"/><path id="path4330-2" data-name="path4330" d="M598.5,819.6c-22,1.1-51.4,12.3-70.4,29.2,2.9,8.5,4.6,14.4,2.2,12.5a67.3,67.3,0,0,0-10.7-6.4,377,377,0,0,0-43.8,37.7c6,7.3,13.3,16.5,11.8,18.4-6.5,8.6-13.3,1.1-22.6-6.6-15.9,18.3-28.2,38-36.6,59.8,13.6,11.3,25.7,21.8,20.9,28.1-3.1,4.2-13.7.3-17.6-.5l-11.2-2.1c-6.4,27.6-7.2,58.6-2.1,94.5,32.1,3.4,66.4-27.7,95-64.9-18.5-31.5-9.7-16.7,9.5-12.9,9.4-13.1,17.9-26.5,25.4-39.2-11.9-9.1-25.4-17.3-20.3-18,14-2,23.8-1.9,30.9-.9,3.8-7.1,7.2-13.7,10-19.4,6-12.5,9.2-27,11.7-41.7-4.2-2.3-12.7-3.8-15.4-4.8-2.3,1.6,9.4-3.7,11.2-4.2l5.8-1.3c-.5-10.5,5.5-40.5,16.3-57.3Z" style="fill:#5d725b"/><path id="path4332-2" data-name="path4332" d="M357,734.5c-14.7,16.3-27.6,45-29.1,70.4,8,4,13.4,6.8,10.4,7.3a64.9,64.9,0,0,0-12.1,3,391.4,391.4,0,0,0-4.3,57.6c9.4,1,21,2.3,21.4,4.7,1.5,10.6-8.7,10.2-20.7,11.3,1.7,24.2,6.9,46.8,16.4,68.2,17.6-1.7,33.6-2.8,34.7,5,.7,5.2-9.6,9.9-12.8,12.1s-6.6,4.5-9.4,6.5c15,24,36.3,46.6,65.3,68.3,25.1-20.3,27.4-66.5,21.3-113.1-35.4-9.1-18.7-4.9-2.4-15.8-2.7-15.9-6.1-31.4-9.8-45.7-14.8,1.9-30.2,5.7-27.1,1.7,8.5-11.4,15.5-18.2,21.3-22.6-2.3-7.7-4.6-14.7-6.7-20.8-4.6-13-12.5-25.5-21.2-37.7-4.6,1.4-11.7,6.3-14.3,7.5-.5,2.8,4-9.2,4.9-10.9s2.1-3.3,3.2-5c-7.7-7.1-24.7-32.6-29-52Z" style="fill:#5d725b"/><path id="path3458-2" data-name="path3458" d="M159.7,864.6c21.4-5,52.7-2.3,75.7,8.7-.4,9-.5,15.1,1.3,12.6a72,72,0,0,1,8.5-9,368.2,368.2,0,0,1,52.4,24.2c-3.7,8.7-8.1,19.5-6.2,21,8.6,6.4,13.1-2.7,19.9-12.7,20.3,13.3,37.5,28.8,51.6,47.5-10,14.6-18.7,28-12.4,32.8,4.2,3.1,13.3-3.5,16.8-5.3l10.2-5.1c13.7,24.8,23.1,54.4,28,90.3-30,12.1-71.5-8.4-109.2-36.3,9.2-35.4,4.7-18.8-12.7-9.8-12.6-10.1-24.5-20.6-35.1-30.8,8.8-12,19.6-23.6,14.6-22.9-14.1,2-23.5,4.8-30.1,7.6-5.6-5.7-10.6-11.1-14.9-15.9-9.2-10.3-16.3-23.4-22.7-36.9,3.4-3.3,11.2-7.1,13.5-8.8,2.7.9-10-1-11.9-1s-3.9.2-5.9.4c-2.5-10.2-16.5-37.4-31.4-50.6Z" style="fill:#5d725b"/><path id="path4332-3" data-name="path4332" d="M647.2,665.2c18.5,20.4,34.7,56.5,36.6,88.4-10.1,5-16.9,8.6-13.1,9.2a81.5,81.5,0,0,1,15.1,3.8,449.7,449.7,0,0,1,5.4,72.4c-11.8,1.2-26.3,2.9-26.8,5.9-1.8,13.3,11,12.8,26,14.2-2.1,30.4-8.7,58.8-20.5,85.6-22.2-2.1-42.3-3.5-43.7,6.4-.9,6.5,12,12.4,16.1,15.2l11.8,8.1c-18.8,30.2-45.6,58.5-82,85.8-31.6-25.4-34.5-83.6-26.9-142,44.5-11.5,23.5-6.3,3.1-19.9,3.4-20,7.7-39.5,12.3-57.4,18.7,2.4,37.9,7.1,34.1,2-10.8-14.2-19.5-22.8-26.7-28.3,2.9-9.7,5.7-18.5,8.4-26.1,5.7-16.4,15.7-32.2,26.6-47.4,5.7,1.7,14.6,7.8,17.9,9.4.7,3.5-5-11.6-6.2-13.7s-2.6-4.2-4-6.3c9.8-8.9,31.1-40.9,36.5-65.3Z" style="fill:#5d725b"/><path id="path3458-3" data-name="path3458" d="M895.1,828.6c-26.9-6.2-66.3-2.9-95.1,11,.6,11.3.7,19-1.7,15.8a102.2,102.2,0,0,0-10.6-11.3c-24,9.1-46,19.1-65.9,30.4,4.7,10.9,10.2,24.5,7.8,26.4-10.7,8-16.5-3.4-25-15.9-25.5,16.7-47.2,36.2-64.9,59.6,12.7,18.4,23.6,35.2,15.7,41.2-5.3,4-16.7-4.4-21.1-6.6s-9-4.5-12.8-6.4c-17.3,31.1-29,68.3-35.2,113.4,37.6,15.2,89.8-10.5,137.2-45.6-11.6-44.4-6-23.5,15.9-12.3,15.8-12.7,30.8-25.9,44.2-38.7-11.2-15.1-24.7-29.6-18.4-28.7,17.7,2.4,29.5,5.9,37.8,9.5,7-7.2,13.4-14,18.7-20,11.6-13,20.5-29.3,28.5-46.3-4.3-4.2-14-9-16.9-11.1-3.4,1.1,12.6-1.2,15-1.2s4.9.2,7.4.4c3.1-12.8,20.7-47,39.4-63.6Z" style="fill:#5d725b"/><path id="path120058" d="M1847.6,304.6c-16.3-2.6-55.7,166.7-60.9,172.2-.3.2-4.8-56.9-5-63.9-.7-25.1-7.7-48-2.1-73.6.9-3.7,9.6-28.3,8.9-29.1-16.3-15.3-22.4,42.3-24.3,48.8-22.8,75.2,28,139.9-6.9,214.7-2.3,5,.8,25.5-2.4,28.9s-27-33.6-29.9-37.6c-27.4-38.8-15.4-93.9-16.6-140.5-.4-13.4,13-96.7.1-108.8-18.1-17.2-6.7,113.7-16.1,109.3-22.1-10.3-61.8-97.6-66.8-97.4-27.8.7,43.2,87.5,47.4,91.5,32.3,30.6,8.1,126.1,23.1,140.3,17.4,16.5,38.9,69,22.1,105-3.9,8.3-19.7-36.7-40.5-75.7-34.3-64.1-39.2-25.7-41.9-123.7-.1-3.1-.2-5.3-.3-7.9,1.8-12.4,3.6-27.6,1.3-37.6-.6-2.8-2.4-5.2-3-7.9-.2-.8-.6-4.9-1.3-5.6s-4.4.5-5.7.1-5.6-2.8-6.3-2,1.8,23,1.8,24.8c.2,5.9-.2,11.6,0,17.6s.1,12.6-.2,18.9c-3.3,20.2-6.3,41.1-7.5,41.8-3.9,2.1-20.6-47.9-20.6-50.7-.7-22.3-39.6-73.7-56.7-81.7v.9c-4.8-3.7-9.4-7-11.8-8.6.4,14.6,1.3,14.3,10.4,25.7.2.3,3.6,3.3,6.8,6.5,8.9,16.8,26.6,25.1,38.8,70.4,21.2,78.7,67.8,106.7,114.6,205,5.7,12,15.1,33,23.5,40.9,5.4,5.1,9.2,175.5,11.4,181.8,10.9,29.9-4.6,154.5,14.4,172.5,3.5,3.3,26.9-2,28.7-4,3.7-3.8-1.6-10.7-.4-16,6.6-29.8-13.8-109.3-3.6-131.1,6.7-14.5,8.3-47.2,7.9-61.1-3-107.4,5.9-378.4,50.9-474.9,4.8-10.4,24.6-73.3,20.3-77.4a2.3,2.3,0,0,0-1.6-.8Z" style="fill:#5d725b"/><path id="path124746" d="M1089.5,231.9l.8-.2h.7l.6-.4h.7l.7.3h1.5l.6.4.4.5.4.5.2.5.4.5.5.5v.7l.7.4h.9l.6.4.5.5.2.7v.6l.5.5.7.4.8-.4.8.2.5.5.7.3.8-.2.7.4.6-.6h.8l.7-.3.6-.3V240l.6.3v.6l.3.6h.7l.6.4.7.2.6.2.3.5.2.6h.7l.3.5.3.5.5.3.5.4.2.5.3.5.6.3.6.3.4.5-.4.6.4.5.4.5.6.2v.6l.4.5.4.4.6.3.6.2.5.4-.5.2v.8l.2.4-.2.3-.2.4v.7l-.3.3-.2.4h-.5l-.4.3-.3.3-.2.4-.4.3h-.5l-.2.4-.3.3.2.4v1.5l.2.4h-.5l-.4.3v.8l-.3.3-.3.3v.3l-.4.3.4.3v.4h.4l.3.3v1.4l.3.4.4.2v.4l.3.4-.3.3-.5.3.2.4v.4l.5.3.3.3.5.2.6-.2.2.5-.3.4.5.2.3.5v1.5l-.3.5.2.4-.3.4-.4.2.4-.3h.6V271l.4-.3.4-.3h1.1l.3-.3h.6l.4.4.5-.3h.6l.4-.3.5-.3h1.1l.5-.3h.5l.5-.2h.6l.5-.2h1.6l.4.3.5.2.2.5.3.4.4.3h.6l.6.2.6-.2.2-.4.3-.5.5-.2h.6l.6.2h.6l.4-.3.6-.2.5-.3h1.2l.5.2.6-.3.2-.5.3-.4h2.7l.4.3.2.5h1.1l.4.4.3.3h.5l.4.3h1.2l.3.4.5.3h1.4l.6.2h.7l.6.3h2.1l.8-.2.8.4.3.6.5.5v1.9l.6.5.5.3.4.5.3.5v.6l.5.3.4.4.6.2.6.3.3.4.4.5h.6l.4.5.2.5v1.1l.4.4-.6.4h-.8l-.6.4-.2.6-.5.5-.5.3-.4.6h-.8l-.5.6.2.6.4.6v.6l-.3.6.3.6-.4.5-.4.5v2.2l.4.5.2.6-.2.6v.5l.7.3.7.2.7.3.3.7v1.2l.3.6-.2.6.2-.2h.4v-.3l.2-.2.3-.2.3-.2.2-.2h.4l-.2-.3v-.6l.2-.2.3-.3h.3v-.6l.3-.2h1.3l.3-.2.3.2h2.3l.3-.2h.3l.2-.2.2-.3v-1.1l.3-.2v-.3l.4.2h.4l.3-.2.2-.3.2-.2.2-.3.2-.2h1.4l.2-.2.3-.2h.4l.3-.2h.3l.2.2.2.3.3.3.3.2.3-.3h.5l.3.2h.4l.6.3v.6l.5.3.6.3.3.5.3.5v1.1l.5.4v1.1l.4.5-.5.4-.4.5-.2.6.3.6.5.4.7.3.7-.4h.7l.6.4.7-.2h.7l.6.3.6.4.7.2.4.5v1.8l.5.5.6.3-.4.6-.6.3-.5.4-.4.5v.6l.5.5v.7l-.3.5-.7.3-.7-.2-.6.4-.6.3-.3.5v.6l-.5.6h-.8v.6l.4.5.6.4.6.2v1.2l.4.6.7.2-.5.5v.6l.2.6v.5l-.4.5-.2.6-.2.5v.6l.4.2h1l.4-.3.4-.2h1.4V317l.4-.3.2-.4.4-.3h.5l.4-.2h.5l.4-.3.4-.2h.5l.4-.2h.4v-.4l.2-.4.4-.2v-.4l.3-.2.3-.3v-.3l.4-.2h.5l.4-.3.3-.3v-.4l.3.4h.6l.4.2.3.3.3.3.5.2.3.3h1l.3-.4.3-.3.5-.2.5-.2.6.2h1.4l.5-.2.3-.3.3-.2h1.9l.4-.2.2-.4h1l.3-.3.2-.4h.5l.4-.2,1,.2.9.3.4.7.3.8.8-.3.9-.5.9.2.9.3.9.2.7.5.5.6v.8l.7.4v.8l.3.7-.4.7.6.5.4.6.9.2.4.6.3.7.2.7.5.6.8.3.2.7v.7l.2.7v.7l-.5.5-.2.7v.8l-.6.5.4.6.8.3.5.5v.7l.7.3h.8l.5.5.6.4.3.6.8.3.6.5h.8l.9-.2.6.4.8-.3.7.4.7-.6h1.8l.8.3.4.6.8.3.4.5.5.5.7.4.7.3.5.6v.7h.8l.7.4.3.6.2.6V336l-.2-.3v-.3h.3l.2-.3v-.5l.2-.3v-.3h.3l.3-.2.3.2h.4l.2-.3h.3l.3-.2h.6l.3-.2v-.2h.6l.2-.2h1.1l.3-.2v-.2h.4l.2-.2h1.2l.2-.2h.3v-.2l.3-.2h3.4l.2-.2.2-.3.2-.2.3-.2h.3l.2-.3v-.6l-.3-.2v-.6l.2-.2.2-.2.3.4v.4l.4.4h.6l.2.4-.2.5.3.4.5.2.3.3.3.4.4.2.3.3.2.4.3.4.4.2.2.4.3.5h1.4l.6-.2.5-.2h.7l.5-.2.4-.4h.6l.5.3.3.4.4.3.3.3.2.5.5.2.3.5v2.1l.4.3v.8l.2.5-.4.3v.5l-.4.3-.4.3v.5l.2.4-.3.4v.4l-.3.4v.5l.3.4v.4l-.2.5.5.3.2.4v.4l.3.4.3.3.2.5.3.3.4.2.4.3.4.3.5-.5.6-.4.2-.6V345l.5-.4.3-.5.7-.2.4-.6.7-.2.8-.2.6-.5v-.7l.7-.4h3.1l.6-.4.6.4h2.3l.5-.5h.8l.6-.5h.8l.6-.5v-.7h.7l.7-.4.7-.3.2-.6h.9l.5.7v.7l.2.6h.8l.7.2.7.3.6.4h1.5l.7.2.5.5.7-.3.6-.4h.8l.8.2.7.2.7.2.7.3.6.4.2-.7.8-.4h.9l.8.2.7.3h.7l.7.3.8-.2v.7l.4.5.8.2.6.4v.7l.5.5.2.6-.5.5-.3.6-.7.3v1.3l.5.5.5.4h.8l.7.4v.7l-.4.6.4.6.3.6.7.2.6-.2.6.3h.7l.6.3.7.2.6.4v.6l.4.6.8.2v.6l.3.6h.7l.6.3.6.3h.7l.4.5.5.3h.7l.6.2h.8l.6.3.3.5.6.4v.5l.5.5.3.4.4.4.4.5v1.7h.7l.4.5.6-.3h.7l.4.5.4.3.6.3.5.3.4.4.5.3.6.3h.7l.5-.3h.7l.5.4h.7l.5.2.5.2.6-.2h.5l.3.5.4.3h.6l.6.2.6-.2.3-.4.5-.2h1.2l.5-.2.5.3h.6l.4-.3h.6l.4-.3.4-.3.2-.4.5-.2.5-.3v-.4h.7l.5-.3.5.2h.6l.6-.3.5-.3.3-.5-.2-.5.5-.2.5-.2h1.1l.4.4.5.2.6-.2.6.2.6-.2h.6l.4.3.5.3.3.4.2.5h1.2l.4-.4v-1l.3-.5h.6l.4-.4h1.3l.5-.2h.5l.4-.5h.6l.5.2.6-.2.5.2h.6v.3l.3.2h.7v.2l.3.2.2.2v.8l.2.2.2.2v.8l-.4.2v.5l.2.2v.2l.2.2v.4l.2.2v.7l.2.2v.2l.3.2.2.2v1.3l-.3.2h-.3l-.2.3-.2.2v.2h-.7l-.2.2h-.3l-.2.2v.3h-.2l-.3.2-.3.2-.2.2v.3l-.2.3v1.6l.2.2h.4l.2.2.2.3v.3l.3.4h.6l.4.3h1.1l.6.2h.6l.5-.4h.6l.4.4.6.2v.5l.4.5-.2.5v.5l.4.3h.7l.4.4.6.2.6-.3.5.2.3.5h.6l.3.4.2.5-.2.4-.2.5.2.4.4.4.4.3v.5l.3.5h.6l.5.3.6-.2.6.2.6.3.2.5v.5l.5.3.2.4v1l.2.4-.2.4v1.5h2.1l.4.4.2.4.6.2.6-.2h.6l.3.4.4.3h.6v.4l.6.2.3.3.3.4h.8l.8.2h1l.6-.6.5-.6.6-.5h.9l.7-.5.8-.3.9.3.8-.3.7-.4.6-.4.6-.5.2-.7.7-.4,1-.2.8.4.9-.2.6-.6.6.5.9.2h.9l.6.4h2.6l.6.5.8.2.8.3.2.7.8.4h.9l.7.5.8.4v.8h.9l.8-.3h1l.6.6.7.6h1l.9.4.2.8.7-.5.9-.2.9-.3.9.3.4-.8.8-.5h1.1l.8-.5.8.4h1.9l.8.4.5-.6.7-.4.7-.5.2-.7.4-.6.5-.6h.9l.8-.4h1.1l.7.6,1,.2.8.5.6.8-.4.9,1.2.2.5.9,1.1.2.9-.6,1.1-.2.9.4,1,.3,1.1.2.3.8.8.7.7-.7,1.1-.2,1.1.3,1-.5.6.8h1.1l.6.8,1,.3h2l.8.5.7.6.9-.4,1-.2,1.1.2.6.8.9-.7.3-.9,1.1-.5h1.1l.7-.8,1-.3h1.2l.9-.7v-1l.7-.9,1-.7,1-.5.5-.9-.2-1-.9-.8.2-1h2.2l1-.4.9-.6v-1.1l1.1-.5,1.1-.5h1.2l1.1-.5h2.4l.8.7,1,.4.8.7,1,.2,1.1.2.2.5.2.5-.2.4-.3.5-.2.4v.5l-.6.2-.4.4v.4l.2.5v.4l.2.4.5.3v.6l-.3.4v.5l.2.5.4.3v.5l-.2.5v.5l-.4.4.3.4.3.5v1l.5.4.2.5.5.4h.7l.5.2h.6l.4.4.2.5.5.3v.5h.6l.4.4h1.8l.5-.4.5.4h.6l.5.2.5.2.4.4h.6l.2.4.5.2.2.5.4.3v.5l.4.4.5.2h.6l-.2.5-.4.4v1.6l.5.4.5.3.5.3.6-.2h1.2l.6-.2.6-.3h.6l.6-.2h2.7l.6-.3.2-.5.4-.5.4-.6.7-.2v-1.1l.2-.6.7-.3.7-.2h.8v-.6l.6-.5.5-.4.7-.2.2-.6.5-.4.8.2.6.4h.8l.7-.5.6.2.6.3.5-.5h2.7l.5.4h.6l.7-.2h.7l.6.3.6.4v.6l.6.4h.8l.5.4h1.4l.7-.3h2.6l.4.5.4.4.7.2.6.2.2.6.5.4.6.2.3.5h.4l.2.3v1.2l-.2.3v1.2l-.3.2v.2l.3.2v.6h-.4l-.2.2h-.4v.3l-.2.3v.2l-.2.3h-.4v.6l-.2.3h-.4v.8l-.2.3v.9l-.3.2v.5l.2.2.2.3h.3l.2.3v1.6l.3.2.2.2.3.2v.5l.2.3h.3l.3.2v.9l-.3.2v.6h.3l.3.3.8.4h.9l.5.7h1l.8-.5h1l.9-.2.6-.5h1l.5-.7.9-.3.8.3.8.4h.9l.8-.4.8-.2v.8l.7.6.9.3.8.3.5.7.8.4h1.8l.7.4h.9l.6.5.7.3h.9l.8.2h.9l.7.4.7.4.9-.2.8.4.8-.3.8-.4.9.3h.8l.7-.3.9-.4.4-.7.8-.4.2-.8h1l.8-.6.8.6h1l.8-.2.7-.5h.8l.6-.5h1l.6-.6.9-.2.8.4.6.5.8.3.8.3.7.5,1.1-.2.8.6.9-.3.7-.7h1l.2.2h3.2l.3-.2h.6l.2.2.3.2h.3l.3.2h.6v.2l.3.2.2.2v.2l.2.2v1.1l.2.2.2.2v1.4h.3l.3.2v.5h.4l.3-.2v.3h1l.2.3v.5l.2.2v.3l.2.2v.3l-.2.2v.5l.9-.5v-2.3l.6-.5.8-.4.6-.6.8-.3.5-.7.9-.2.6-.7v-.8l-.3-.7.3-.7v-.8l.8-.6.2-.8.6-.7,1-.2.9-.3.9-.4v-.8l.4-.7.4-.7-.7-.6-.2-.8.3-.9-.6-.7-.3-.8.3-.9.9-.4.4-.8v-.9l.5-.7.5-.9,1-.3,1-.2.9-.3,1-.4,1,.2.8-.5,1,.2.8-.5h1.9l.8-.5.9.2h2.2l1,.6,1-.5,1-.6-.3-1,.7-.9.9-.7,1.2-.3.3-.8.6-.7v-.9l-.4-.8-.5-.8v-.9l.9-.6v-1h1.4l1.1.8,1.3.3.8,1,1.1-.6h1.3l1.4-.2.9-.9.7-.9.2-1.1,1-.6,1-.6,1.2-.6,1.3.2,1.2-.3.9-.7.7.8,1,.6.2,1,.5,1,.7.8,1,.5.8.7,1,.6.7,1h1.4l1.1-.5h1.4l1,.5h3.5l1-.6.6-.8,1.2-.4,1.2.4.9-.6h1.1l1.1.5h1.1l1.2-.4,1-.4,1.2.2,1,.6.9.7h1.1l.4.9,1.2.4,1.1-.3.9-.7h1.2l1-.6.8.7,1,.6h1.3l1.1.4.7.7.7.7h1.1l.8.7,1,.4,1,.2,1.1.3.7.7v.6h.2v.6h-.2v.8h-.2v1h.2v.2h.1v.2l-.2.2v.2h.1l.2.2h.1v.2h.2v.2h.4v.2h.2l.2.2h.1l.2.2h1l.2.2h1.4l.2.2h.1v.2l.2.2v1h.1v.2h.2v.2h.1v.6l.3.2h.4l.3.2.3-.2h.8l.4.2h.4l.3.2.4-.2h.4l.2.2.3.2h1.1l.3.3v.4l.2.3v1.3l.2.3h.4l.3.2v.2l.4.2.2.4h1.2l.2.3.3.2.2.2h.4l.3.2h2.3l.3.3v.3h.4l.3.2h.5v.4h1.3l.4-.2.3.2h1.3l.2-.3.2-.4h.9l.2-.3.2-.3.6-.4.4-.6.5-.5.5-.4.7-.4.8-.3.4-.6.2-.7-.8-.4v-.8l.6-.6v-.7l.4-.6v-.6l-.3-.7.2-.6.8-.5h.8l.9-.2.6-.5h.9l.8.3.5.6.8.2.7-.5v-.7l.6-.5.9-.2.6-.3.8-.2h.8l.7-.3.7-.2.3-.6.7-.3.4-.5.7-.3.7.2h.7l.7.2.6.4h.9l.7-.3.5-.4h.8l.6-.4.6-.4v-.7l.7-.2.7.2.7-.3h.7l.7-.3.8.2.7.2.4.6h.8l.7.2.6-.4.7-.2.6-.4.3-.6.6-.3.5-.4v.4h.4v.2h.2l-.2.2v.6h.2v.2h.2v.2h.5v.2h-.3v.8h-.1l-.2.2h-.2v.5h.1v.2l.2.2h.6v.4h2.1v.2h.4v.2h.3v.2h.1v.2l.2.2h.1l.2.2h.2v.6l-.2.2v.4h.8l.6.3.9.2.7-.4.2-.7.8-.3h.8l.8-.2h.9l.7.4.8.2.8-.3.3.6v.7l.8.3.7.4h.7l.8.2.6-.3.7-.3.6-.4.7-.2.6-.4.2-.6.7-.4v-.7l.4-.5-.2-.7.3-.6.6-.4.6-.3.8-.2.5.4.2.6.5.4h.7l-.3.6.5.5.6.3.5.4.3.6v.5l.4.5.4.5.7-.2h.8l.4.6.7.3.7.2.6.2.5.4.4.5.5.4.6.2.6.3h.7l.5-.5h1.5l.7-.4h1.4l.7.3.5.4-.3-.6.4-.6v-.7l-.6-.4.4-.5.2-.6-.2-.6.3-.6.2-.6v-.7l.2-.5.3-.6v-.7l-.6-.4-.6-.5v-.6l.7-.2.5-.6.2-.5.4-.6h.8l.5-.5h.8l.4-.6.6-.3.7-.2.6-.4.6-.2.8-.2.4-.6.2-.6.4-.5h1.5l.5.4.7.3.7-.2.6.3h.7l.7.2.6-.3.8.2.5-.5.5-.4.7-.2.5-.4h.6l.6-.4h.8l.5-.3.7-.3h1.4l.6-.2h.7l.6-.4.4-.5.7-.2.3-.5.2-.6.5-.4v-.6l.8-.2.3-.5h.2l.2.2h.2v.6h.9v.2h.9v.2h.5v.4h1.6v.4h1.2v.2h1.5v.2h.1v.4h.1v.4h.1l.2.2h0v.2h.3v.2h1.2l.6-.2h.6l.4-.3h1.8v-.5l.6-.3.6-.2.3-.5h1.2l.6-.2h1.1l.5.3.4.3.5.3h.7l.5.3.6-.2h.6l.4.4.6.3.7-.3h.7l.3-.5.5-.3.6-.2h1.3l.5.4h.6l.5.2.7-.3.5.3h1.2l.4.4.4.4.2.5.3.4.6.2.5.3.3.4.2.5.2.5.4.4h1.2l.4.4h1.2l.5.2.4.4.6.2h1.2l.5-.2.6-.2.6.2.6-.2.6-.4h.7l.4-.4.6-.4.6-.2h.8l.5-.4h.7l.6-.4.8-.3h.8l.8.2h.8l.6.4v.7l.7.5.5-.5.2-.5.5-.4.7-.2.5-.3.4-.4h.7l.4-.5h.8l.6-.5.7.2.7.4.7-.2.3-.5.6-.4.5-.4-.3-.6.4-.5.2-.6.5-.4h.7l.5-.4v-.6l.7-.3v-.6l.4-.6.6-.2.6-.4v-.6l-.3-.6v-1.7l.3-.5.7-.2.5-.4.3-.5.6-.4h.7l.6-.2.3-.6.7-.2.6-.3.6-.2v-.6l.4-.4.4-.5v-.6l.3-.8.9-.5.7-.6.4-.7.7-.7h1l.8-.7h2l.9-.4,1,.2.9-.5,1,.3.9.4,1.1-.2.8-.7,1,.5h1.2l.5.7.6.8h3.2l.7-.8.9.3h.9l.7.6,1,.2.9.3h.9l1,.2.9-.5.9-.6.4-1,1.2-.2h1.2l1.1.4.6.8h1.1l1.1.2h1l1-.3.7.7,1,.4.9.2,1,.2.7.5.8.4.9.4,1,.2.8.4.8.5.6.7.9.5.2.9-.2.9.9.5h2.1l.8.6.3.8.2.8.7.7v.9l-.7-.4v-1.3l-.5-.5v-.7l-.6-.4v-.7l-.5-.5-.3-.7-.9-.2-.7-.5v-.7l.6-.5v-1.5l-.2-.7h.9l.6-.6.8-.2.6-.5.3-.6v-2.1l.2-.7-.2-.6.7-.4.5-.5v-.7l.5-.5.7-.4v-.6l.8.2h1.7l.8-.2v-.7l.7-.5.7-.4.6-.5h.8l.7.3.9-.2.8.2h.8l.6-.5.7-.4.6-.4.5-.5.7-.3.4-.6v-.6l.6-.5.6-.4v-2l-.2-.7.4-.6-.2-.7.2-.7.8-.3.6-.5.4-.5h1.3v.2h.8v.2h.1l.2-.2h0l.2-.2h2.4v.2h.3v.2h.8v.2h.9v.6h0v.4h.5v.4h.1v.2h.1v.2l.6-.8v-1l.6-.8,1-.5-.6-.9-.3-.9v-.9l.5-.9.2-.9.4-.9.3-.8.6-.8.2-1-.5-.9-1.1-.5-.3-1,1.3-.2,1.1-.4,1.2.3,1.1.5,1-.5,1-.5,1.1-.6.3-1,.8-.7.3-1,1-.4,1.2-.2.6-.8,1-.5v-1l.7-.8.6-.7.2-.9v-1.6l-.6-.8-.8-.5.2-.9-.2-.9.2-.8.5-.8.6-.7.9-.4.2-.8.4-.8.3-.7v-.9l-.4-.9-1-.4-.6-.8-1.1-.4.5-.8-.2-1-.4-.9.5-.9.5-.9-.5-.9.8-.7.9-.5-.4-.9.4-.8.2-.9.8-.6.3-.2h1.3l.3-.2h.7l.3-.2.2-.3h.3l.3-.2.2-.2v-.3l-.2-.3v-.3l-.2-.3v-.5l.2-.3V313l.2-.2v-.3h.6v-.6l.3-.2V311h.3l.2-.2v-1.1l-.2-.2v-.3l.2-.3h.6V308l.3-.2h1.3l.2-.2h.4l.2-.2.2-.2.2-.3v-.3h1.1l.2-.2-6,1.4-6-1.6-5.1-2.9-2.6-4.7-3.4-3.8.4-4.8.3-4.7-2.7-4.1.4-4.2,2.1-3.9.8-4.1-.9-4.1,1.9-4.2-2-4.1,3.6-3.5v-8.7l-3-3.5-1.3-4-2.5-3.6-2-3.9-.4-4.2-.4-4.4,2.7-3.8-4.9-1.5-5-.9-1.6-4.3-4.3-2.7-2.2-3.9-3.5-3.2-4.9-1.3-4.9-1.4,2.3-4.7,5.6-1.9.4-4.6.7-4.6-.5-4.6-4-3.3-2.4-4-.6-4.4-.5-4.1,1.3-4.1-.4-4.3-3.2-3.4L1936,146v-4.2l-.5-4.4-4.3-2.7,4.2-3.4,5.8.6,5.6-.8,3.6-3.5,3.5-3.6.5-4.5,1.9-4,2-4.1.7-4.2,3.4-3.3,3.3-3.1,3.5-2.9,1.2-4.3-.9-4.3,3.1-3.5,3.9-3-.3.4h-.6l-.4.2h-.5l-.5.2h-1l-.5-.2-.5.2h-.5l-.6-.2-.3-.3-.5-.3v-.5h-.5l-.5-.2h-1l-.5.2-.5-.2-.5-.3-.2-.4h-1.1l-.4.2h-.6l-.4.2-.3.4h-1l-.4.3-.4.3-.3.4-.2.3-.5.3-.3.3-.4.4h-.5l-.4.3-.5.2.3.4-.2.5v.5l-.4.3-.4.3-.3.4-.4.2-.2.5-.6-.3-.5.2h-.6l-.6.2-.3-.4-.5-.3h-.6l-.3-.4h-.6l-.5.2-.6-.2-.5.2-.3.4-.4.4h-.6l-.6.3h-4.8l-3.9,2.3-4.4-1.2-3.2-2.8-4.3.3-4.2-.5-3-2.9h-4.6l2.4-3.7-1.3-4-2.6-3.3-3.6-2.6-1.7-3.7-2.5-3.4-4.9-.3-4.6-1.3-3.9-.5-3.1-2.2-3.4-2-4.2.8-3.9-1-3.6-1.5-3.7,1.7H1868l-4.2,1.1-4,1.7-4-1.4-4.1-1.2-1.7-3.5-4.4-.9-3.3-1.9L1839,48l-3.1-3.5-4.5-2.2-5.3.4-5.1.7-2.4,3.6-4.1,2.4-4.4,1.9-4.7,1.2-1.2,3.6-1.9,3.4-3.4,2.6-4.2,1.5,1.1,3.8-2.2,3.6-3.9,2.1-2.3,3.3-4.8-.7-4.8.7-4.1,2.7-5.1-.3-3.4,3.2-4.3,2.3-.4,4.2-1.3,4-2.1-3.6-4.5-1.4-3.5-2.7-4.8-.4-4.3-1.5-4.8-.2-3.8,2.8-5-.3-10.7-1.9-8.6-5.6-10.9.2-10,3.5-4.9-7.3-5.3-7.2-5.8-7.2-9.3-4.1-10.2-4L1640.1,55l-9.1,4.6-6.6,6.9-10,.7-9.9.9-8.5-4.4-9.8-2-8.5,4.5-10-1-9.9-2.3-8.9,4.3-8.9,3-8.9,2.9-5.5,7-9.4,3-11.1,2.5-7,7.7L1488,89.8l-11.1-.5-5.9-7-9.4-3.6-8.3-4.9-10-1.8-7.9,5.5-10.2-.2-7.8,4.6-8.4,3.9-9.1,3.7-8.4,4.8-9.7-2.3-10.2-.3-9.1-2.5-9-2.9-7.5-4.8-7.6-4.9-9.3,5.1L1318,80.6l-8.5-4.9-8.3-5.2-11-.4-7.2,6.8-9.9-3-9.8,3.5-8.4,4.2-6.5,6.1-8.2,4.3-7.4,5.3-10-3-5.3-7.5-10-1.7-8.3-4.8-8.3,6.1L1180,88.7l-10.7-1.8-9.6-4.1-1.6,1.2-2.1-.2-1.8-.6-1.7-.7-1.5.9h-3.7l-1.7.6-1.8.2-1.8.2-1.3,1.2-1.7.6-1.9-.4-1.9.7-1.9.6-.8,1.6-1.9,1.1-1.7,1.3-.2,1.9-.2,1.9v1.8l.3,1.9.7,2,2.3.7-1.4,1.4-.4,1.7-1.5,1.4h-2.3l-1.3,1.2-1.6,1-1.8.5-1.7.9-1.5.8-1.2,1.1-1.8.5h-1.8l-1.8-.3-1.7.5-1.3-1.2h-2l-1.5-.8-1.8-.4-.9-1.5-2-.4-1.9-.5-1.7,1h-2l-1.3,1.3-1.2,1.6-2.2.2-1.1,1.5.5,1.7-.9,1.4-1.4.9-.9,1.5-2,.4-1.2,1.6-1.4,1.4h-6.6l-2-.4-1.5-1.2-1.7-1,.8,1,.6,1.1-.4,1.1-.3,1.2h1.6l1.2.7.4,1.2.7,1.1-.4,1.1-.8.9-1,.8-.8.9-.2,1.3,1.1,1-.5,1.1-1.1.9-1.6-.2-1.4.5-1,1-1,.9v1.2l-.3,1.2-.2,1.2-.8,1v1.1l.4,1.2.8.9,1.2.7-.2,1.3.9,1-.8,1-.5,1.1,1.4-.3,1.3.3,1.3.4,1.3-.3.7,1,1,.9,1.3.5h1.5l-.3,1.2,1.1.9,1.4.2,1,.9,1.4.3.6,1.1,1.3.3,1,.6,1,.9.6,1,1.3.6h1.5l.9.9-.3,1.3v1.2l1,.9.2,1.1.9.8.5,1.1-.4,1.1v1.1l-.6,1,.2,1.1.5,1,.3.5-.2.5v.5l-.5.4-.2.5.3.4v.5l-.4.4h-1.3l-.4.3-.6.2v.5l-.4.5h-.6l-.7.2v.5l-.2.4v.5l-.2.4-.5.2h-.6l-.5.3-.3.5-.5.2-.6.3-.3.5v.5l.3.4.2.5.2.4v1.4l.2.5v.4l.2.5-.4.4v.5l-.4.4h-1.2l-.6.2-.4.5-.5.3v1l-.4.4.3.4v1l-.5.3-.4.4h-.6l-.2.5v.4l-.2.5v.4l-.5.2-.4.4-.5.2h-.5l-.5.3v.5l-.4.7.2.6-.6.6v.7l.8.4.5.6.2.7v.7l-.5.5v.8l-.7.4-.5.6.4.6.2.6-.5.6.3.8.8.2.4.8-.3.7.4.7-.4.6-.2.6-.3.7v.6l.2.7.5.5v1.3l.5.6.8.2.6.6v.7l.9.3.4.7.9.3h.9l-.3.8.3.7.7.6.6.5.3.8.9.3h.9l.9-.2.5.5.7.4h.9l.6.6v.7l-.4.6.3.7V225l-.3.7v.7l.5.6v.8l-.5.6-.2.8.4.7.4.8.9.2.5.6.7.4h0" style="fill:#5d725b"/></g></g></svg>