<svg xmlns="http://www.w3.org/2000/svg" viewBox="0 0 337.3 165.6"><g id="Livello_2" data-name="Livello 2"><g id="Livello_1-2" data-name="Livello 1"><g id="sun"><circle id="Sun-2" data-name="Sun" cx="254.5" cy="82.8" r="82.8" style="fill:#f7ca8b"/><path id="Cloud" d="M0,104.4c8.9-6.7,22.3-7,30.6-4.8,2.1-5.4,12.6-10.1,24.1-8.5-.4-7,14-14.6,26.9-16.3s23.2-.9,30.2,4.1c7.6-9.2,37.3-11.7,53.3-6.9,9.2,2.8,17.1,5.7,20.9,11a15.4,15.4,0,0,1,3.5,10.4c6.2-3.4,18.8-4.3,27.1-2.3s9.7,6.4,10.1,10.7a49.8,49.8,0,0,1,16.4-.2,13.9,13.9,0,0,1,6.8,2.8Z" style="fill:#f7f9f2"/></g></g></g></svg>