<svg xmlns="http://www.w3.org/2000/svg" viewBox="0 0 2150.5 1140.7"><g id="Livello_2" data-name="Livello 2"><g id="Livello_1-2" data-name="Livello 1"><g id="vivid"><path id="path37298" d="M336.7,285.2C317.4,423.3,243,722.1,227.5,861.5c-4.1,37.6-7.1,80.6-17.5,116.9-1.1,3.8-5,40.3-7.8,38.9-25.4-12.7-11.7-26.7-11.7-56.5,0-48.8,15.8-286.9,25.4-334.6,6.1-30.6-2.9-71.6-7.8-101.3s-3.9-65.6-3.9-97.5c0-12-8.1-102.4,9.7-93.5,2.9,1.5,6.3,3,7.8,5.9s1,119.1,3.9,136.3c3.4,20.3,1.9,41.6,1.9,62.4,0,2.1,1.6,21.8,2,21.4,10.2-10.1,9.5-40.3,15.6-54.5,14.9-34.8,31.6-71.1,48.7-105.2,6.5-13.1-21.2-103.6-11.7-113,11-11.1,22,71.9,23.4,75.9.5,1.6,2.6,16.9,3.9,15.6,10.7-10.7-.3-83.5,5.8-89.6,7.6-7.6,11.2,16.7,21.5-3.9Z" style="fill:#708e66"/><path id="path31388" d="M93,374.4l2.1-.2,2,.3,2.1-.6,2,.7,2.4-.6,2.2,1.1,1.2,1.8,1.3,1.9,2.1-.9,2.1.9,2.1-.6,1.4-1.7,1.9.8H120l2-.7,2-.5,2-.9,1.9-1,.8-1.9.7-2.1,1.2-1.8,1.3-1.7,2.3.4,2-.9,2.2-.7,2.2.7,1.5-1.6,1.2-1.9,2-.9,1.4-1.7,2.1.4h2.1l2.1,1,2.3.5,2-1.2,2-1,2-1.5,2.3.6,1.4-1.8,2.3-.4,2.3.9,1.7,1.8,2.1-1.4,2.5-.2,1.5,1.6,1.3,1.8h2.5l1.5,1.9,1.5-1.6.5-2.2,1.7-1.2,1.8-1.1,1.4-1.7.6-2,1.5-1.4,1.2-1.8,2.1-.3,1.5-1.6,1.7-1.5h2.2l2-.6,1.7-1.1,1.7-1.3,2.2-.3h1.1l1,.5h1.3l.8-.9,1.1-.3.6-1,1-.4.6-1,1.1-.3,1,.5,1-.5.9-.5,1.1-.2,1,.3h1.1l.8.9,1.1-.4.9-.7.8-.8,1.2-.3,1.2-.5,1.2.2,1.2.5.7,1,1.2.2,1.1.2,1.1.7,1.2-.4v1.2l.7,1.1.8.8,1,.8,1.1-1,1.4-.2,1.3.6,1.2.7.2,1.3.7,1.2,1.2.6,1.2.6h1.2l1.2.2,1-.8h1.2l1.1-.6.7-1,1.2-.4.9-.7,1.2-.5.3-1.3-.3-1.2.4-1.1,1.3-.3.6-1,.5-1.1.3-1.1.8-.9.4-1.2,1-.7.9-.7,1.2.4,1.3.3.8-1.1,1.4-.2,1-.6.5-1.1.9-.8.4-1.1,1.2-.3,1.2-.6v-1.3l.8-1.1H275l1-.7,1.3-.4.5-1.1,1.1-.7,1.1-.6h1.4l1.1.9.8-1v-1.4l.6-1.2-.6-1.3-.5-1.2.6-1.2-.6-1.2v-1.3l.4-1.3.8-1.1,1.3-.2,1.1-.9.7-1.2,1.1-.8,1.4.6,1.3-.7,1.3.4,1.3-.5,1.2.6.7,1.1,1.2-.4,1.1-.6,1.2.6,1.3-.3,1-.7,1-.8,1.3.3,1.2-.5H306l1.2-.8v-1.4l1-1h1.2l.9-1,.3-1.1.8-.9v-1.3l.8-.9,1.1-.5.8-.9.8-.8.8-.8.3-1.2.7-.9.7-1,.9-.6,1.1-.5,1.2-.3,1.2-.8.7-1.3,1.2-1.1,1.6.2,1.5-.4.9-1.3,1.1-.9.7-1.3,1.2-.8,1.4-.6.9-1.2.5-1.4.6-1.3,1.3-.8.4-1.4,1.3-.8-.6-1.7.3-1.7,1.1-1.5-.2-1.9,1.2-1.3,1.7-.5,1.6-.5,1.2-1.3,1.6.8,1.7-.4,1.6.8h3.6l1.3-1.3.9-1.5,1-1.5,1.8.2,1.7.2,1.6-.7,1.7-.5,1,1.5.9,1.7h1.9l1.9.6,1.7-.4H371l1.3-1.1,1.6-.8-.4-2,1.2-1.5,1.3-1.4,1.9-.4,1.6.6,1.6.7,1.9-.3,1.6,1.1.5,2,1.9.8.7,1.7-.3,1.9,1.7-.3,1.6.3,1.6.5,1.7.2,1.6-.3,1.4-1.1,1.5-.7,1.6-.4.8-1.1v-1.3l1.4-.4.7-1.2.4-1.2.3-1.3.2-1.2.6-1.2,1.4-.5,1.4.5,1-1,1.3-.6,1-1.2,1.4-.5.5-1.5-.4-1.5,1.2-.5,1.2-.3,1.2-.2,1.1-.6,1.2-.7h1.4l1.1.7,1.3.3h1.4l1.2-.6,1.1.8,1.3.2,1-.8,1.2-.5,1.3-.2,1.1-.7-1.1-.8-.3-1.3-.6-1.1-1-.9-.8-1.1-.4-1.4.3-1.4.7-1.2,1.2-.8V234l-.3-1.2.6-1.4,1.4-.4.7-1.3-.7-1.4h1.4l1.3-.6.9-1,1.1-.8v-1.4l.6-1.2.6-1.2.5-1.3v-1.3l-.6-1.2-.7-1.1-.5-1.2.7-1.2.5-1.2v-1.4l-.2-1.3-.5.8.3,1,.7.6.4.8h.9l.8.2.8.4.5.7h.9l.6.7h.9l.6-.6.8.4.8-.2.5.7h.8l.8-.3.4-.7.6-.5h.8l.7.5h.9l.7-.4.8-.3h.8l.6.6.6.3.7.4.6.7h.9l.7-.4.8-.4.4-.5.4-.6.6-.4.4-.6.7-.2.7-.3.6-.2.7-.4.3-.6v-.8l.5-.5.4-.5.7-.3.6-.3.5-.6.6-.3.8-.4h.8l.5-.6.6-.5.7.5.8.2.8-.3h.8l.5-.7v-.8h.9l.5-.7.8-.4.2-.8.2-.7.2-.7,1.4-1.2,1.9-.2,1.1-1.6,1.8-.4,1.8-.9.6-1.8,1.7-.7,1.7-.7,2-.4,1.5-1.4,2-.3,1.9.9,1.5-1.3.6-1.9,1.1-1.6,1.8-.8.4-1.9,1.5-1.3.5-1.9,1.4-1.3.5-1.9.7-1.8-1.2-1.6-.3-2,1.4-1.3.8-1.7,1.6-1.2.4-1.9-.5-1.9.7-1.8-.2-1.8.2-1.9,1.3-1.5,1.8-.8,2-.4,1.9-.4,1.8.5,1.7.9,1.4,1.5H522l1-1.8v-2l1.7-1,1.1-1.7h2l2,.4,2-.6,1.4-1.6.2-1.9,1.1-1.5,1.1-1.6,1.9-.3,1.7-.4,1.1-1.4,1.1-1.6h1.9l1-1.5.7-1.8.4-1.9,1.7-1.1,1.8,1.1,1.9-.8h2l1.5-1.3,1.3-2.5,2.4-1.3h2.7l2.5-1.2,2.9-.4,2.6,1.1,1.7-2.2,2.4-1.5,2.5-.7,2.5-.3,2.4-.8,2.5-.4,2.8-.3,1.5-2.4,2.4-.9,2.3-1,2.1-2.2.3-3,2.5-1.2,2.4-1.5,2.6-1.3,2.8-1.1,1.9-2.4v-3.1l2.8,1,2.7-1,2.5-1.3,2.6-.9,2.7,1,2.7-1,2.6-.6,2.7.3,2.5,2,3.1.7,2.9-1.3,3-.8,2.7-.9,2.6-1.4,2.8-1.3,3,.7,2.9-1.1,1.4-2.7,1.3-2.8,2.9-1.1-.6-3.2,2.1-2.5,1.6-2.6,2.5-1.7,2.2-2.2,1.3-2.7.5-3V73l-1.6-2.7.9-3.1V64.3l-.8-2.8h3.1l2.5-2,3-.4,2.6-1.6,1.7-2.6.2-3.2,1.3-3.1,3-1.3H686l1.5-.4,1.3-.9,1.1-1.1h1.7l1.3.9,1.6-.3H696l1.6.6h1.7l1.5-.8,1.1-1.3,1.4-1,.4-1.5.9-1.4,1.5-.6,1.1-1.3,1.4-1.1.4-1.7V33.4l1.6-.8,1-1.4,1.6-.9,1.7.3.9-1.8-.7-1.9-1-1.5-1.4-1.2,1.2-1.5,1.7-.8-.5-1.9.6-1.8,1.2,1,1.4.9,1.3,1,1.5.6,1.6-.2,1.5.7h3.3l.9-1.4,1.6-.8,1.6-.7,1.7.7,1.7-.6.7-1.7,1.4-1,1.7.3,1.5-.8,1.4-1,1.1-1.5-.3-1.8.2-1.9,1.6-.9-.9-1.6.3-1.7,1.5-.8,1.3-1,.7-1.4,1-1.3H750l1.7.4,1.7-.4L754.5,0l-6.1,2.7L743,6.6l-6.6-1.1L730,3.8,724,1l-6.6.6-6,2.1-6,2.3-5.2,5.3-6.4,3.9,2.8,7.4L694,30l-6.2,3-5.1,4.5-6.4,2.9-7-.5-6-2.8L660,31.5l-6.3.7-6.3-1-5.5-2.8-6.2,1-6.1-.5-5-3.5-1.7-6.8-5.7-4-5.4-4.4h-6.9L599,13.2l-6.5-1.1-5.9-3.7L580,10.5l-6.1,2-6,2.5-3.2,5.7-5.3,3.8-2.9,5.7-3.8,5.1L547.6,39l-4.5,4.4-6.5,3.4-7.2,1.5-.4,7.9-6,5.2-8-1.3-4.9-6.3-6.3,4.4-7.7.7L491.7,54l-5.1-4L483,44.5l-5-4.3-5.3-4L469,30.7l-5.9-2.9-5.6-3.6-5.8-5.3-7.9,1-5.6-4.5-6.6-3.1-5.2,5.2-6.7,3-6.1,5.3-7.9-1.6-4.1,4L396,29.6l-5-3.5-6,1.5-4.1-4.1-5.7.3-5.3-.9-5.3.2-3.9,4-2,5.3-5,2.5-5.3,1.5-4.9,2.9L340,43.8l-.9,5.5-.6,5.6-5,.7-4.7-1.8L325.5,58h-5.4l-5.1.6-4.1-3-4.8-.7-4.6,1.6-4.7-1.4-4.7-1.4-4.9,2.2-4.9-2.3-4.6,2-3.1,4.1h-5.2L264.9,62l-4.6,3.7-3.2,5-5.7-1.3-5.9.7-5.2,2.1-4.4,3.5-.9,5.6-2.9,4.9-5.8-2.5-6.3.8-6.2,2.1-2.9,6-5.6-3-2.1-5.9-5.9-.4-5.6-1.9L187.5,79l-4.2-2.3-4.4-2.2H174L169.4,73l-4.1-2.6-4.5-1.8H156l-4.7-2.1-5.1.4-5.3-1.5-4.5,3.2-4.1-3.5-5.3.5L123.5,62l-4.4-2.5-.9,2.2-.3,2.4-1.2,2.1-1.8,1.6-2.1,1.8-2.7-.5-1.2,2.2-1.4,2-2.1,1.1-2,1.3-1.7,1.6-1.8,1.5-1.1,2.4.7,2.6-2.6.9-1.4,2.2.6,2.5.5,2.5-2.3,1.6-.5,2.7-.5,2.4-1,2.2-.9,2.5-2.5.9-1.8,1.6-1.6,1.9-.3,2.4-1.3,2.1v2.9l-2.4,1.6-2.5.8-2.6.2-2.7.2-2.3,1.3-2.4.9-2.5.8-2.8.6-2.4-1.6-2.7-.7L56,120.7l-2.8-1.1-2.4-1.9-3,.3-3,.8-2.2-2.2v-3.1L41.2,111l-1.7-2.3-2.5-.9-2.5-.6-2.6-.3-2.6.3-1,2.6-2,2-3-.5-2.3,2-2,1.5-2.3.8-1.6,1.8-2.2,1.1-2.7-.3-1.8,2-1.6,2.1H4.2L2.9,125,.7,126.9l.2,2.9L0,132.5l1.6,2.4v2.9l1.9,2.1.8,2.7,1.5,2.1L8,146.1l1.6,2.1,2.4,1.1.8,2.7.4,2.8,2.9.4,2.2,2.1,1.6,2,1.3,2.3-.8,2.5v2.6l1.2,2.5-1.2,2.5,1.7,1.9L23,176l.5,2.7,1.6,2.3,2.9-.3,2.2,1.9.2,2.6,1.6,2.1,2.4,1.1,1.5,2.1-2.3,1.8v2.9L33,198l1.6,2.4,1,2.5-.7,2.6-1.5,2.3.3,2.6,1.5,2.2,2.3,1.2,2.3,1.5,1.1,2.4.9,2.7-.5,2.7,2.4,1.4,1.4,2.5-1,2.7v2.9l.8,2.9,2.5,1.8-.9,2.7-2.6,1.4v2.9l-2.2,2,1,2.5-.7,2.7.6,2.7-1.1,2.6.7,2.8.9,2.8,2.8.9,2.7,1.2-.7,2.5,1.3,2.2,2,1.4,1.7,1.6,1.1,2v2.2L53,278.7l1.1,2.2,2.2.4,1.7,1.5,2.2.2,1.9,1h2.4l2.3-.6,2.4.9,1.2,2.2.4,2.1,1.6,1.4.9,1.8v2.1l.2,2.3,1.5,1.6-1,1.9-.7,2.1,1.1,1.7,1.5,1.4,1.2,1.6.7,2-.5,2v2l.7,2-.2,2.1.8,2.1.6,2.2.5,2.4-1.5,2-1.7,1.5-1.8,1.3L73.4,330l-.5,2.3-1.6,1.8.2,2.5-1.4,1.8-.9,2.1.2,2.5,2,1.5,1.2,1.9.7,2.3-.6,2.2,1.1,2,1.3,1.9-.2,2.3,1.6,1.4,1.1,1.9.7,2.1,1.4,1.6,1.9.9,1.8,1.1,2.3.5,1.1,2,1.7,1.3,1.6,1.4,1.1,1.8,1.8,1.3h0" style="fill:#708e66"/><path id="path30702" d="M2104.2,838.7l-2.1-.2-1.9-.6h-2.1l-1.9-.9h-2.4l-1.9-1.4-.9-2-.9-2.1-2.2.5-1.9-1.2-2.2.2-1.6,1.4-1.8-1.2-2-.5-2,.4h-2.1l-2.1.5-2,.6-1.2,1.8-1,1.9-1.5,1.5-1.6,1.4-2.1-.8-2.2.5-2.3.3-2-1.1-1.7,1.3-1.6,1.6-2,.6-1.7,1.3-2-.8-2-.4-1.9-1.4-2.1-.9-2.2.8-2.2.6-2.1,1.1-2.1-1-1.8,1.5h-2.3l-2.1-1.2-1.3-2.1-2.3,1-2.5-.3-1.2-1.8-.9-2-2.4-.5-1.2-2.1-1.7,1.3-.8,2-2,.9-1.9.8-1.6,1.3-1.1,1.8-1.7,1.2-1.4,1.5h-2.2l-1.7,1.3-1.9,1.2-2.2-.6-2,.3-1.9.7-1.9,1h-2.1l-1.1-.3-.9-.7-1.2-.3-1,.7h-1.1l-.8.9-1.1.2-.7.9h-1.1l-.9-.7-1,.2-1.1.4h-1l-1-.5-1.1-.2-.6-1h-1.1l-1,.6-1,.6h-1.1l-1.3.2-1.2-.4-1-.7-.6-1.1-1.1-.4-1-.4-1-.9-1.2.2.2-1.2-.4-1.1-.7-1-.8-.9-1.2.7h-1.5l-1.1-.8-1-.9v-1.3l-.5-1.3-1-.8-1.1-.8-1.1-.3-1.1-.4-1.2.6-1.2-.2-1.1.3-.9.9h-1.2l-1.1.6-1.2.3-.6,1.1v1.3l-.6,1h-1.2l-.9,1-.7.9-.4,1.1-1,.7-.6,1-1.1.5-1,.6-1.1-.7-1.2-.5-1,1-1.4-.2-1.1.5-.7.9-1,.7-.6.9-1.2.2-1.2.3-.3,1.3-.9.9-1.3-.2-1.1.5h-1.3l-.7,1.1-1.2.4-1.2.3h-1.4l-.8-1.1-1.1.9v1.3l-.8,1.1.4,1.4.3,1.3-.9,1.1.3,1.2-.3,1.2-.6,1.2-.9,1h-1.4l-1.2.7-.9,1-1.2.6-1.2-.9-1.5.5-1.2-.7-1.3.3-1.1-.8-.5-1.2-1.2.2-1.2.4-1.1-.8h-1.3l-1.1.4-1.1.6-1.2-.5-1.2.3-1.4-.3-1.2.5-.3,1.4-1.1.9-1.3-.3-1,.8-.5,1.1-1,.7V871l-1,.8-1.2.2-.9.8-.9.7-1,.6-.5,1-.8.8-.9.8-1,.5-1.2.3h-1.1l-1.4.6-.9,1.2-1.4.8-1.5-.5h-1.5l-1.1,1.1-1.3.7-.9,1.1-1.3.6-1.5.3-1.1,1-.7,1.3-.9,1.2-1.4.5-.7,1.3-1.4.5.3,1.8-.5,1.6-1.4,1.3v1.8l-1.4,1.1-1.8.2-1.7.2-1.4,1-1.4-1h-1.8l-1.3-1.1-1.7-.3-1.8-.3-1.6,1-1.1,1.3-1.3,1.2-1.7-.4-1.6-.6-1.7.5-1.7.2-.7-1.8-.6-1.8-1.9-.2-1.7-.9h-1.7l-1.7-.5-1.5.9-1.6.5v1.9l-1.5,1.3-1.5,1.1h-1.9l-1.4-.9-1.5-1h-1.9l-1.3-1.4-.2-2-1.7-1.1-.4-1.9.7-1.7H1796l-1.5-.6-1.5-.8-1.6-.5h-1.7l-1.5.8-1.5.4H1785l-1,.9-.4,1.3h-1.4l-.9,1.1-.6,1.1-.5,1.1-.4,1.2-.8,1-1.4.3-1.3-.7-1.2.8-1.4.2-1.1,1.1-1.6.2-.7,1.4v1.5l-1.2.3h-2.5l-1.2.4-1.3.4-1.3-.2-1-.9-1.2-.5-1.3-.2-1.3.4-.9-.9-1.3-.5-1.1.6-1.3.2h-1.3l-1.1.5.9.9v1.4l.3,1.2.8,1,.6,1.3.2,1.4-.6,1.2-1,1.1-1.2.6-.4,1.3-.3,1.3v1.3l-.8,1.1-1.5.2-.8,1.2.4,1.4h-1.4l-1.4.3-1,.8-1.3.6-.2,1.4-.9,1.1-.8,1-.7,1.1-.2,1.4.3,1.2.5,1.2.3,1.3-.9,1-.7,1.1-.4,1.3v1.3l.7-.7-.2-1-.5-.7-.3-.8-.8-.3-.8-.4-.7-.5-.3-.8-.9-.3-.4-.7-.9-.2-.8.5-.6-.5h-.8l-.4-.7-.8-.3-.8.2-.5.5-.7.4h-.8l-.6-.7h-.8l-.8.3h-1.6l-.5-.7-.6-.5-.5-.5-.5-.7-.9-.3-.7.3-.9.2-.5.4-.5.5-.7.3-.5.5h-2l-.7.3-.5.5v.7l-.6.4-.6.5-.7.2h-.7l-.5.5-.7.3-.8.2h-.8l-.6.5-.7.4-.6-.6-.7-.4-.8.2h-.8l-.6.5-.3.8-.9-.2-.6.6-.8.2-.3.8-.4.6-.3.7-1.6.8h-1.9l-1.4,1.2h-1.8l-1.9.6-.9,1.7-1.8.3-1.8.4h-2l-1.7,1.1h-2.1l-1.6-1.2-1.7,1-.9,1.8-1.4,1.3-1.9.5-.8,1.7-1.6,1-.9,1.7-1.6,1-.8,1.8-1,1.7.8,1.8v2l-1.6.9-1.1,1.6-1.8.9-.7,1.8V965l-1.1,1.6v1.8l-.6,1.8-1.5,1.2-2,.5h-3.9l-1.6-.9-1.5-1.1-1.1-1.8-2.1-.4-1.3,1.5-.4,2-1.9.7-1.4,1.4-1.9-.5-1.9-.7-2.1.3-1.6,1.3-.5,1.7-1.3,1.3-1.4,1.4h-3.7l-1.3,1.2-1.3,1.3-1.9-.2-1.3,1.3-.9,1.6-.8,1.8-1.8.7-1.6-1.4-2.1.5-1.9-.3-1.7,1-1.7,2.2-2.6.8-2.7-.6-2.6.7h-2.8l-2.4-1.6-2.1,1.9-2.6,1-2.5.2-2.5-.2-2.5.4h-2.5l-2.8-.2-1.9,2-2.5.5-2.5.6-2.4,1.7-.8,2.8-2.7.8-2.6,1-2.8.8-2.8.5-2.4,2.1-.5,3-2.5-1.5-2.8.5-2.6.8-2.7.4-2.5-1.5-2.8.5-2.7.2-2.6-.9-2-2.4-2.9-1.2-3,.7-3.1.2-2.9.5-2.7.8-3,.8-2.8-1.3-3,.6-1.8,2.4-1.8,2.5-3.1.5v3.2l-2.5,2.1-2,2.2-2.8,1.2-2.5,1.8-1.8,2.3-1,2.9-.7,2.9,1.1,2.9-1.4,2.8-.7,2.9.3,2.9-3.1-.6-2.7,1.5h-3l-2.8,1.1-2.2,2.2-.7,3.1-1.9,2.7-3.2.8-1.5-.2H1465l-1.4.6-1.3.9-1.6-.2-1.2-1.2H1458l-1.5-.4-1.5-.9-1.7-.2-1.6.5-1.3,1.1-1.5.7-.7,1.4-1.1,1.2-1.6.3-1.3,1.1-1.5.8-.8,1.6-.4,1.6-1.6.5-1.3,1.2-1.7.6-1.6-.6-1.2,1.5.3,2,.7,1.7,1.2,1.4-1.5,1.3-1.8.4.2,1.9-.9,1.7-1.1-1.2-1.1-1.1-1.1-1.2-1.3-.9H1426l-1.3-1-1.6-.3-1.5-.5-1.3,1.3-1.6.4-1.7.4-1.6-.9-1.7.2-1,1.5-1.5.7-1.7-.5-1.6.5-1.5.7-1.3,1.2v1.8l-.6,1.8-1.7.7.6,1.6-.6,1.7-1.6.4-1.4.7-1,1.3-1.2,1.2-1.6-.4-1.6-.7h-1.8l-1.3,1.2,6.4-1.5,6-2.8,6.2,2.3,5.9,2.8,5.4,3.8,6.5.6,6.3-.9,6.3-1.2,6-4.1,6.9-2.7-1.3-7.7,3.9-6.7,6.5-1.8,5.9-3.4,6.7-1.7,6.7,1.8,5.3,3.7,2.3,6.2,6.2.4,5.9,2.2,4.9,3.7,6.2.2,5.9,1.5,4.2,4.4.4,6.9,4.9,4.9,4.3,5.3,6.8,1.3,6.3-1.9,6.2,2.3,5,4.6,6.9-.8,6.3-.8,6.2-1.3,4.2-5,5.9-2.8,3.8-5,4.7-4.2,5.6-2.7,5.2-3.5,7-2.1h7.3l1.8-7.7,6.8-3.9,7.5,2.7,3.6,7,7-3.1,7.6.8,3.4,5.5,4.3,4.8,2.4,6.1,4.1,5,4.4,4.9,2.7,6.1,5.2,3.9,4.8,4.5,4.7,6.3,7.8.4,4.7,5.4,5.8,4.2,6-4.1,7.1-1.7,6.9-4.1,7.4,3.1,4.8-3.2,5.7-.3,4.2,4.3,6.1-.3,3.3,4.7,5.6.7,5,1.9,5.2.8,4.6-3.2,2.9-4.8,5.2-1.5,5.5-.6,5.3-1.9,4.2-3.7,1.9-5.2,1.7-5.3,4.9.2,4.3,2.6,4-3.5,5.2,1,5.1.4,3.4,3.6,4.6,1.6,4.8-.8,4.3,2.3,4.3,2.2,5.2-1.2,4.3,3.1,4.9-1.1,3.8-3.4,5,1,4.8-1.5,5.2-2.8,4-4.2,5.4,2.3,5.8.4,5.5-1.1,4.9-2.7,1.9-5.3,3.7-4.2,5.2,3.5,6.3.4,6.4-1,4-5.2,4.8,3.9,1,6.2,5.7,1.5,5.2,2.8,3.5,3.1,3.7,3,3.9,3,4.8.9,4.2,2.3,3.5,3.2,4,2.7,4.8.8,4.1,2.9,5.1.6,4.9,2.4,4.9-2.3,3.4,4.2,5.3.5,2.7,4.1,3.8,3.2,1.3-1.9.7-2.3,1.6-1.9,2-1.2,2.4-1.4,2.6,1,1.6-1.9,1.7-1.7,2.2-.7,2.2-.9,1.9-1.2,2-1.1,1.6-2.2-.2-2.7,2.6-.4,1.9-1.9-.2-2.5v-2.6l2.5-1,1-2.6.9-2.2,1.4-2,1.3-2.3,2.7-.4,2-1.2,1.8-1.6.8-2.3,1.6-1.8.7-2.8,2.6-1.1,2.6-.4,2.6.4,2.6.2,2.5-.8,2.5-.4,2.6-.3h2.8l2,2,2.6,1.1,2.7-1,2.5,1.6,2,2.3,3,.3,3.1-.2,1.7,2.5-.5,3,.9,2.7,1.2,2.6,2.2,1.3,2.4,1,2.5.8,2.6.2,1.4-2.4,2.3-1.6,2.9,1.1,2.6-1.6,2.2-1,2.3-.4,2-1.4,2.3-.7,2.5.7,2.2-1.5,1.9-1.8,2.6.4,1.7-2.3,2.5-1.5.4-2.8,1.3-2.6-1.1-2.5.4-2.9-1.5-2.4-.2-2.7-1.1-2.4-1.8-1.8-1.2-2.3-2.1-1.5-.3-2.8.2-2.8-2.8-.9-1.7-2.4-1.3-2.2-.8-2.5,1.3-2.3.3-2.6-.7-2.6,1.6-2.3-1.3-2.1-.4-2.5V1042l-1.2-2.4-2.9-.3-1.8-2.2.3-2.6-1.2-2.4-2-1.5-1.2-2.3,2.6-1.3.5-2.9,1.1-2.6-1-2.6-.5-2.6,1.1-2.4,1.9-1.9v-2.7l-1.1-2.4-2-1.6-1.9-1.8-.6-2.6-.4-2.8,1-2.6-2.1-1.8-.9-2.6,1.5-2.5.6-2.8-.3-3-2-2.2,1.3-2.5,2.8-.8.4-2.9,2.5-1.5-.4-2.6,1.1-2.5V965l1.5-2.3v-2.9l-.4-2.8-2.5-1.5-2.4-1.6,1.1-2.3-.9-2.4-1.7-1.7-1.3-1.9-.7-2.1.3-2.2,1.4-2-.6-2.4-2.1-.8-1.4-1.7-2.1-.6-1.7-1.4-2.3-.4H2113l-2.1-1.2-.8-2.4v-2.1l-1.3-1.7-.6-1.9.4-2,.3-2.3-1.2-1.9,1.3-1.7,1.1-1.8-.7-1.9-1.3-1.6-.9-1.9-.2-2,.8-1.9.3-2-.4-2,.7-2-.5-2.2-.2-2.3v-2.4l1.8-1.7,2-1.1,2-1,1.6-1.5.9-2.2,2-1.5.2-2.4,1.7-1.5,1.3-1.9.2-2.5-1.6-1.8-.9-2.1-.2-2.3.9-2.1-.7-2.2-.9-2,.7-2.2-1.4-1.7-.6-2-.4-2.2-1.1-1.9-1.7-1.2-1.5-1.4-2.2-.8-.7-2.2-1.4-1.6-1.3-1.6-.7-2-1.5-1.6h0" style="fill:#708e66"/><path id="path26323" d="M1181,63.7l-1.3,5.1-5,2.9-1.7,4.9,1.4,5,1.2,4.9v5.1l-1.4,5.2-4.9,3.1,4.9,3.3,6.1.5,5.7,2.9,1.1,5.9-2.6,5,1.9,5.3,2.3,4.8,1,5.1,6.1-.7,6-1,4.8,3.4,4.8,3.4-2.2,5.5,2.3,5.5,3.5,4.6,5.4,2.9,3.2,4.3,1.1,5.2-2.3,4.7-2.2,4.7,2.1,4.4,1.5,4.7,3.4,3.7,3.8,3.3,2.1,4.7,4.1,3.3-1.3,5.2,3.4,4.4,2.4,4.3,2.4,4.2,1.9,4.5,3.3,3.8,4.9,3.1,3.1,4.6,5.6,1.5,5,2.8,5.9,1.1,6,.2,4-4.7h6.7l3.8,3.2,2.4,4.3,3.9,3.7,5.7-.4.4,4.6,2.9,3.9,1.1,4.6,3.7,3.2,3.5,4.1-.4,5.2,5.7.7,3.6,4,4.5,3.2.9,5-1.7,4.6-.3,4.8,1.8-.4h1.8l1.8.9,1.9-.7.4-1.8,1.7-1,.6-1.6,1.5-1,2-.5,1-1.5,1.7.6,1.8.3,1.6-.5,1.4-.8h1.7l1.6-.6,1.8.2,1.8-.4,1.9.3,1.6.9,1.8.4,1.7-.6,1.9-.5,1.7.9,2-.5,1.3-1.5,1.1-1.6-.3-1.8,2-.4,1.1-1.5,2.1.2,1.4-1.3,1.9.5,1.9-.3,2.1-.3,1.2-1.6,1.8-.2,1.7-.9,1.8.7h1.9l1.5,1.2,1.9.6,1.2,1.5,1.8.8,1.9-.8,2.1.4,2-.2,1.8-.9,1.9.5,2,.4,1.8,1.2v2.1l1.6.8,1.2,1.3,1.5,1.1,1.9.2,1.1,1.4.2,1.8-.2,1.7,1,1.6,1.2,1.3,1.1,1.4,1.3,1.2,1.5,1,1.8,3.1,3,2.2,4.1.2,2.7,2.7,2.7,2.3,2.7,2.3,1.4,3.3,3.4,1.7,3.5,1.3,3,2,3.1,2.1h8l3.7-1.4,3.7,1.2,3.2,2.2h4.3l2.5,3.2,4.1-.3,3.5,1.8,4.2.4,3.4-2.3,3.8.8,3.9.5h4.5l2.7,3.2,4.2.4,3.5,2,1.1,3.9-.8,3.9,4.5,1.5,1.8,4,8.5,4.6,5.1,1.9h10.2l4.2-2.2,3.2-3.2,4.5-1.5,4.4-1.6,3.8-2.4,2.6-3.5-2-4.3,2.5-4,2.5-3.5,4.4-1.3,4.1-2.2.9-4.2,2.3,3.7.9,4.1,5.1-.3,3.5,3.4,4.2-1.8,4.3,1.5,4.3-.6,4.2,1.2,3.9,2.4,3.1,3.1,4.6-.7h4.7l4.3-2.5,1.2-4.5,4.6-1.2,4.8.4-.6-1.9.5-1.9,1.3-1.5,1.8-1,1.7-.6,1.8-.5,1.8-.6,1.9-.3,1.9-.5.8-1.7v-1.7l.6-1.6.7-1.4,1.5-1,.7-1.4.7-1.4,1.9-.5,1.1-1.4,1.9-.2h1.8l1.7-1.1,2,.6,1.5,1.1,1.9.3h1.9l1.2-1.3,1.7-.5,1.6-.7h1.9l1.4-1.2,1.3-1.2.9-1.5,1.5-1.2h2l.8-1.6,1.6-1,.9-1.4,1-1.4,1.3-1.2.6-1.6,1.2-1.5,1.5-1.2,2.1-.3,2,.4h2.2l1.2,1.6,1.9-.2h2l.2-1.8,1.3-1.2v-1.8l1.5-1.2,1.8-.5,1.5-1h1.8l1.8-.5.8-1.4.9-1.5.6-1.5v-1.7l1.8-.3,1.2-1.3,1.8-.5,1.1-1.3v-1.6l-1-1.3.3-1.5-.8-1.4.2-1.5v-1.6l1.5-.9.8-1.4-1.8-.4-1.1-1.3-1.7-.6-.8-1.5-1.4-1.3-.2-1.8.3-1.7,1.1-1.4-1.2-1.2-.4-1.5.9-1.5-.7-1.5-.4-1.5.7-1.5-.3-1.5-1.3-1.2-.9-1.5-.3-1.8,1.4-1.3.4-1.8,1.7-.6,1.7-.6.9-1.5,1.7-.8-1.2-1.3-1.1-1.2.6-1.6-.4-1.7-1.2-1.3.4-1.7.4-1.5v-1.6l-.8-1.4-1-1.3-1.5-.8-1.5-.8-.9-1.5-1.8-.4-1.5-.9h-1.8l-.9-1.6.6-1.7-1.2-1.2-1.1-1.3.7-1.7-.4-1.8,2.1-.3,1.1-1.6-.2-1.7-1.7-.9.9-1.5-.5-1.6.8-1.4.8-1.2-.3-1.7,1.3-1.2-1-2.3-2.2-1.6-2.4-1.3-1.4-2.1-2.6-1.2-2.8.5-2.8-.8-1.8-2.1h-2.9l-2.9.4-1.8-2.3-3.2-.5.4-2.8-1.6-2.4-3.3-.5-1.7-2.6-1-2.9-2.3-2.1-2.9-1.2-3.3-.3-2.9,1.1-3.1-.2-3.1.3-2.8-1.4-2.7-1.8-3.3-.6-.6-2.9-2-2.5-.5-2.8,1.2-2.7-1.2-2.6-.2-2.8-.6-2.7-2.1-1.9-2.1-1.7-1.7-2.1-2-2.5,1.1-3-1.8-2.4-3.1-.9-2.4-1.9-1.1-2.8-2.3-2.3-3.5.2-2.9,1.4-3.2.5h-3.6l-2.2-2.6-2.1,2.3-3.1.8-3.1.5h-3.1l-3-.8-3-.8-3-1.4-1.1-2.8-2.7-1.6-3.1.2-1.8-2.3-2.6-1.4-1.8,2.6-3.1,1.2-3.5.6-2.9-1.8-2.3.8-2.5-.3h-2.7l-1.8-1.8-2.4.3-1.9,1.4-2.5-.4-2.2,1-2.7.4-2.3-1.3-2.1,1.2-1.9,1.6-1.6,1.8-2.5.4-2.5-.2-2.4-.3.7-2.4-.6-2.4-.4-2.4-1.1-2.2-1.3-2.1-1.6-2-8.7-1.2-1-2.4-2.8-1-2.9.8-2.3,1.8h-3.1l-1.7-2.2-2.9-.7-1.3-2.4-2.8-1h-2.4l-2.2-.7-2,1.1-2.3.3-2.6.3-1.9-1.7-.8-2-1.9-1.4-1.2-2-1.5-1.9-2.4-1.3-2.7.6-2.3.4-2.2.7-2.4.3-1.9,1.4-1.9-.9-2-1-2.1.8h-2.2l-1.5-1.6-2.3-.2-2.2.7-2.1-1-2.2-.3-2,.9-1.9-1.1-2.2-.3-1-2.1-2.4-.6-2.2.6h-2.4l-5-.4-5,.6-1.8,4.6-4.8,2.2-4.8.4-4.3-1.9-4.3,2.3-4.9-.9-4.7-1.5-2.4-4-4.5-1.2-4.3-1.8-4.3,2.5-5,.7-4.2-2.7-5-.9h-5.5l-4.4-2.9-4.9-2.3-3-4-1.4-4.6-2.8-4.1.8-4.8-1.1-4.7-3-4.2-5.3-1.3-5.6-.6-3.6-3.8-5.6.7-5.4-1.2-5,2.3-3.8,3.6-1.3-4.6-3-4-4.9-1.7-4.2-2.9-4.5-3-2.9-4.3-5.6-.9-5.4,1.6-3.9-3.6-5.6-.6-4.4,3.1-5.5.3-5.2-1.2-5.3-.4-3.3,3.9-5.2,1.7-4.8-1.5-5,1.1-4.9-1.4-5,1.2-2.4,4.6-5.6,1.2-4.9,2-5.3-1.2-.9,4.6-3.4,3.5-4.2,2.5-3.7,2.9-.9,4.7-4.3,2.8-5.1,1.2-2.7,4.2h0" style="fill:#708e66"/><path id="path23788" d="M1472.2,132.5l.4,5.8-4.1,4.3v5.6l3.2,5,3.1,4.9,2,5.4.4,5.9-4,4.5,6.3,2.3,6.6-1,7,1.7,3.2,5.9-.8,6,3.8,5.2,4.2,4.5,2.9,5.2,6.1-2.3,5.8-2.6,6.3,2.4,6.2,2.4-.3,6.4,4.4,5.3,5.3,4,6.6,1.7,11.6,5.4,3,5.2-.6,5.6-.5,5.6,3.8,4.2,3.2,4.5,4.9,3.1,5.2,2.6,3.8,4.4,5.5,2.5.5,5.9,5.2,3.8,4,3.9,4.1,3.9,3.6,4.3,4.8,3.2,6.2,2.1,4.9,4.1,6.4.2,6.2,1.6,6.5-.3,6.2-1.3,2.5-6.1,7-1.6,5.1,2.4,4,4,5.4,3,5.8-1.9,2.1,4.8,4.4,3.3,2.8,4.6,5,2.6,5.2,3.4,1.4,5.6,6.2-.7,5.2,3.3,5.8,2.3,2.8,5.1v5.3l1.4,5.2,1.8-.9,1.9-.5,2.2.5,1.7-1.3-.3-1.9,1.4-1.5v-1.9l1.3-1.5,1.8-1,.5-1.9,2,.2h2l1.5-.9,1.2-1.3,1.7-.4,1.4-1.1,2-.2,1.7-.9,2-.2,2,.6h2l1.6-1.1,1.8-1.1,2.1.6,1.9-1.1.8-1.9.5-2-.9-1.9,1.8-.9.7-1.9,2.2-.3,1-1.8h2.2l1.9-.8,2-.8.6-2,1.9-.8,1.4-1.3,2.1.2,2-.5,2,1,2.2.2,1.8,1.3,2.2.3,1.6-1.3h2.3l2-.7,1.6-1.4h4.4l2.3.8.7,2.2,2,.5,1.7,1,2,.9,2-.4,1.7,1.3.8,1.8.5,1.9,1.5,1.5,1.8,1,1.6,1.2,1.8.9,1.9.8,3.1,2.8,3.9,1.6,4.3-.8,3.8,2.2,3.6,1.7,3.6,1.7,2.7,3.2,4.2,1,4,.4,3.9,1.5,4,1.3,4.1-.8,4.2-1.1,3.3-2.4,4.3.4,4.1,1.4,4.6-.9,3.7,2.7,4.1-1.3,4.3,1,4.5-.6,2.7-3.3,4.3-.2,4.2-.5,4.7-1,4,2.7,4.4-.8,4.4,1.3,2.6,3.8.6,4.5,5.2.4,3.3,3.7,3.9,4.4,6,.7,5.3-1.4,5.3-1.2,3.5-3.4,2.3-4.3,4-2.7,4-2.9,3.1-3.5,1.4-4.4-3.6-4,1.1-4.9,1.3-4.4,4.1-2.5,3.5-3.4-.7-4.7,3.8,3.3,2.4,4.2,5.2-1.6,4.9,2.6,3.7-2.9,5,.5,4.3-1.7,4.7.2,4.9,1.5,4.4,2.5,4.6-1.9,4.9-1.1,3.5-3.7-.4-5.1,4.4-2.5,5-.8-1.3-1.8v-2.2l.8-1.9,1.5-1.5,1.6-1.1,1.7-1,1.6-1.2,1.8-.7,1.8-1.1.2-2-.6-1.7v-1.9l.3-1.7,1.1-1.4.3-1.7.2-1.7,1.7-1,.7-1.8,1.9-.6,1.9-.7,1.3-1.5h2.3l2,.8h2l1.9-.7.8-1.7,1.6-.9,1.4-1.2,2-.5,1-1.6,1-1.6.3-1.8,1.1-1.7,2.1-.4.3-1.9,1.3-1.5.4-1.7.6-1.7.9-1.6V244l.7-1.9,1.2-1.7,2-.8h2.3l2.2-.4,1.9,1.3,1.9-.7,2-.5-.4-1.9.9-1.6-.6-2,1.2-1.6,1.6-1,1.2-1.5,2-.4,1.6-.9.4-1.8.3-1.7V223l-.7-1.7,1.8-.8.7-1.8,1.7-.9.6-1.7-.6-1.7-1.4-1.1-.2-1.7-1.4-1.3-.4-1.7-.6-1.6,1.2-1.4.4-1.7h-2.1l-1.6-1.2h-2l-1.4-1.4-1.9-1-.8-1.9-.4-1.9.6-1.8-1.6-.9-.9-1.5.3-1.8-1.3-1.4-1-1.6.3-1.8-1-1.5-1.6-.9-1.6-1.4-1-1.8,1-1.8-.2-2,1.6-1,1.5-1.1.4-1.9,1.5-1.3-1.7-1-1.7-1v-1.9l-1-1.7-1.7-1.1-.3-1.8v-1.8l-.6-1.6-1.3-1.3-1.5-1.1-1.9-.5-1.8-.5-1.5-1.4h-2l-1.9-.6-1.9.5-1.5-1.5v-1.9l-1.7-1-1.7-1.1.2-2-1.1-1.8,2.1-.8.6-2-1-1.8-2-.5.4-1.8-1.1-1.6.3-1.6.4-1.6-.9-1.7.9-1.6-1.9-2.2-2.9-1.1-2.9-.8-2.3-1.9-3.1-.7-2.8,1.3h-3.1l-2.6-1.8-3.1.6-2.9,1.2-2.7-2-3.4.3-.7-3.1-2.5-2.2-3.6.3-2.7-2.3-2.1-2.8-3.2-1.6-3.5-.6-3.5.5-2.5,1.9-3.3.6-3.2,1.2-3.4-.8-3.4-1.2-3.7.2-1.7-3-3-2.1-1.5-2.9.3-3.2-2.2-2.4-1.2-3-1.6-2.6-2.9-1.6-2.8-1.3-2.6-1.7-3-2.2V83.5l-2.8-2.2h-3.5l-3.2-1.5-2.1-2.6-3.3-1.9-3.5,1.1-2.5,2.2-3.2,1.4-3.7.9-3.2-2.2-1.3,3-3,1.6-3,1.3-3.2.9h-6.8l-3.6-.7-2.2-2.8-3.3-.9-3.3.9-2.6-1.9L1913,79l-.9,3.3-2.9,2.1-3.3,1.5-3.7-1.2-2.2,1.4-2.6.3-2.8.7-2.5-1.3-2.4.9-1.5,2h-2.7l-1.9,1.8-2.6,1-2.9-.8-1.8,1.9-1.3,2.1-1,2.4-2.6,1-2.5.4-2.6.3-.2-2.7-1.5-2.4-1.3-2.5-2-2.1-2.1-1.9-2.3-1.6-3-.7-1.9-2.3-3.3-.4L1846,84l-1.7,2.5-3.2.7-2.6-1.9h-3.2l-2.3-2.2-3.3-.4-2.4.7-2.6-.2-1.6,1.8-2.3.9-2.6.9-2.5-1.3-1.6-2-2.5-.9-2-1.9-2.3-1.6-2.9-.7-2.6,1.3-2.2,1-2.1,1.3-2.4.9-1.4,2-2.4-.5-2.3-.5-1.9,1.3-2.4.6-2.1-1.3-2.4.4-2,1.3-2.5-.5-2.5.2-1.8,1.4-2.3-.7-2.4.3-1.8-2h-2.7l-2.1,1.2-2.5.5-5.3.8-5,2-.2,5.3-4.1,3.6-4.9,1.6-5.2-.9-3.6,3.6-5.4.3-5.5-.4-3.9-3.6-5.1-.2-5.1-.8-3.6,3.7-4.9,2.1-5.3-1.9-5.6.4-5.7,1.3-5.7-2-5.8-1.2-4.6-3.6-3.2-4.5-4.3-3.6-1-5.3-2.8-4.7-4.6-3.8h-6.1l-6,.8-5.1-3.2-5.5,2.3h-6.1l-4.3,3.8-2.7,4.8-3-4.6-4.5-3.5-5.8-.6-5.4-2L1580.2,69l-4.6-3.8-6.1.4-5,3.1-5.4-2.8-6,.7-3.4,4.4-5.7,1.8h-5.8l-5.6.9-2.1,5.1-4.7,3.1-5.5-.3-4.8,2.4-5.6-.3-4.7,2.5-.9,5.6-5.4,2.7-4.3,3.4h-5.9l.7,5.1-2.2,4.6-3.5,3.6-2.8,4.1.8,5.3-3.4,4-4.9,2.6-1.2,5.2h0" style="fill:#708e66"/><path id="path26325" d="M1549.7,172.9c-37.5,273.6,20.9,254.2,40.2,385.8,4.1,27.9,64.3,399.9,90.2,392.6,6.3-1.8,14.6,1.6,19.2-3.7s-2.4-49.4-3.2-58.2c-8.7-99.7-103.3-386.6-85.6-487.2,6.8-38.5,68.6-222.6,56.2-236.6-31.3-35.7-39.8,152.5-65.8,182-14,16-5.2,96-16,83.7-48.6-55.3,15-229.9-35.2-258.4Z" style="fill:#708e66"/><path id="path23607" d="M1788.7,283.7c20.8,140.1,55.1,424.7,35.8,556.4-4.1,27.8,6.7,229.3-19.2,222-6.3-1.8-14.7,1.6-19.3-3.7s2.5-49.4,3.2-58.2c-7-454.1-66.3-346.3-61.3-487.2-6.8-38.5-68.6-222.6-56.3-236.6,31.4-35.6,39.9,152.5,65.9,182,14,16,5.2,96,16,83.7,48.6-55.3-15-229.9,35.2-258.4Z" style="fill:#708e66"/><path id="path26360" d="M53.7,746.9l2,.3,1.7,1.1,1.7,1,1.8.8,1.2,1.8,2.2.2,1.7,1,1.8.8.8,2.2.5,2.2,2.2,1,1.5,1.8,2.2-.9,2.3-.6,2.1,1.2,2.2.9-.8,2.3.6,2.3v2.5l1.9,1.6,1.8,1.5.7,2.2,1.6,1.6,1,2,2.3.6,2.2.4,1.8,1.5,1.5,1.8,2.3.9,2,1.4,2.3-.6,2.3-.9,2.3-1,2.2-1.2-.6-2.7,1.7-2.3,1.7-1.8,2-1.6,2.5-.8,2.4,1.1,1.1,2.3,2.4.9,2.2.7h2.4l1.9-1.8,2.6.6,2.3.7,2,1.2h2.6l1.7,1.9,2.1-1.4,2.5.9,2.1,1.5h2.6l1.8-1.8,2.3-1,1.2-1.8.9-2.1,2.2-.9.8-2.4.2-2.4,1.3-2.1,1.9-1.5,2.3-.7.6,1.1.7.9.9.8,1,.6v1.2l-.2,1.1.3,1.2-.6,1.1.8,1,.7,1.1,1.1.7,1.3-.3V775l.6,1.1.3,1.1-.2,1.2.9.4,1,.4,1,.3,1,.3.9.7,1.2-.2.9.4.9.6,1.2.3,1-.6.9.8,1.2.2.7.9,1.1.2.9.6.7.9h1.1l1.1-.4.9-.8.5-1.1,1,.7h1.2l.9-.8,1.1-.3.8-.8.9-.8,1.2-.3,1.1.3,1.2-.3.6-1,.3-1.1.6-.9h4.3l1.1.4h1.2l.8.8.6,1.1.9-.7h1.1l1,.4h1.1l1,.6,1.1-.2h1l1,.3,1.5.3,1.4.6,1.2-.9,1.2-.8.9-1.2.5-1.3h1.5l1.1-1.1.6-1.2.7-1.1,1.3-.4,1-.9,1.2-.6.8-1,1.1-.8,1.1-.6.8-1.3,1.1-1h1.5l1.5.2.5-1.3,1-1,.7-1.3,1.5-.3,1.4.5,1.4-.7,1.5-.2.9-1.4h1.4l1.2.8,1.4-.5,1.3.7,1.3.7,1.5.4v1.6l1,1.2,1.5-.2,1.3.8,1.2.6,1.3.6.8,1.3,1.5.2,1,1,.5,1.3.5,1.3,1.1.8,1.1.9,1,.9,1.3-1.1,1.6-.4,1.6.2,1.5.7.9,1.3.9,1.2,1.3.8,1.5.5,1.4-.7,1.2-1,1.4.8h1.5l1.6-.6,1.5.8,1-1.2,1.1-1,2.7-4.8,1.9-5.1,3-4.7,5-2.7h6l3.6-4.9,5-3,5.7,1.4,5-2,5.3-1.2,3.3-5.1,6-.5,5.4.4,4.9,2.5h5.4l5.2,1.8,4.6,2.2,3.2,4,4.2,2.9,5.1.7L388,759l5.2-1,3.6,3.9,4.8,2.1,4,4,5.2,2.4,5.5-.9,5.6-.3.7,5.8,1.3,5.7,4,4.9,6.3.5,2.8,5.6-1.5,6,2.9,5.6,6.1,1.6,5.9.4,3.5,4.8,4.1,4.3,5.9-.4,4.9,1.7,5.2.4,5.2-.3,5.2.7,5.3,2.6,5.6-1.8,4.9,2.8,2.9,4.9-1.5,5.4,2.6,4.9,3.6,3.8,2,4.8,4,3.7,1.7,5.1v10.5l2.2,4.7.8,5.2-.9,5.4,2.4,4.8-1,5.9,2.7,5.3-5.1,3.2-2,5.6.6,1,.6,1,1.1.4h1.2l1.1.5,1.1-.4h1l1.1-.3.5-1,.6-.8.9-.7.9-.7,1,.2,1.1-.3.9-.8,1.2.2.9.5.5,1,1,.7,1.1-.2h1.1l1,.7h1.2l.7-1,1-.4.9-.5.4-1.1.9-.6,1-.5,1.1.4h1l1.1.2,1-.2,1.1.2.8.8h2.2l1.2.2,1.1-.6.4-1.1,1.1.4h1.1l.5.9.7.9,1,.4.5,1h1l1,.5,1-.2h1.1l.6,1,1,.6.9.3.5.9.4,1,.8.6h1l1,.2,1.1-.4,1,.4.7,1h1.2v1.2l.8.8.9,1.7,1.7.4,1.2,1.2.8,1.5,1.6.9,1.6.7h2l1.4-1.4,1.5.8,1.6.3.7,1.5,1.4,1.1,1.4-1.2h1.8l1.3,1.3h1.9l1.6-1.1,1-1.6,2-.6,1.7,1h1.8l1.5-.7,1.5-1.1H608l1.8.9.7,2-.2,2.1,1.4,1.6,1.9.2,1.9-.4h2.1l1.6,1.2,1.7.2h1.7l1.3,1.2h1.8l1.6.5,1.5.6,1.6.5,1.5.8h1.8l1.4,1.2,1.7.6,1.7-.5,1.6.7,1.2,1.2,1.5.8,1.5.7,1.7.8,1,1.6,1.3,1.3,1.7.5.9,1.9,2,.7.6,1.8v1.9l1.2,1.4.5,1.8V948l1,1.7-.4,1.8-.5,1.7-.9,1.7.4,1.9,4.2,2.5,2.8,3.9h4.9l4.6-1.3,4.4,1.5,4.5.9,3.5,3.2,1.9,4.3,4.4,2,4.9-.7,4.6.3,4.7.3,3.7-3.7,5.1-.4,1.6-4.8,3.7-3.4-.7,4.8,3,3.7,3.8,2.9.9,4.7,4.6-1.4,4.3,2.1,3.3,3.4,4.7.8,4.5-1.7,4.8-.5,4.9,1.4,3,4,1.7,4.5,4.4,2.1,2.2,4,.6,4.5,3.4,2.6h4.3l2.2,3.3,2.3,3.4,3.8,2.5,4.5-1.1,1.2,4.1,3.3,2.9.4,4.6,1.8,4.2,3.5,3.5h4.9l4.1-.5,4.2.4,3.5,2.5,4.3.3,3.5,3.1H828l3.7-2.5,4.4-.8,3.5,2.2,3.7,1.8,3.9,2,1.7,4,3.7,1.3,3.6,1.3,2.6,3.1,3.6,1.6,3.9,1,4-.3,3.8,1.5,2.8,2.8-9.3-1.7-8.9-3.4-8.9-3.5-9.6-.2-10.5-.8-9.2,5.1-7.6,6.8-4.6,9.1-9.4-2.7-9.3,2.7-8.8-3.7-6.5-7-8.9-4.4-9.8-1.7-3.5-9.1-4.1-9-7.1,6.8-9.8-1.2-8.8,2.5-6.4,6.6-6.3,7.2-8.2,4.9-.8,9.4-2.3,9.2-7.3-7.2-9.9-2.6-9.9,1.3-9.4,3.3-5.1,8-6,7.4-9.6,1.9-7.6,6.1-8.4-2.8-7.1-5.2-8.2,3.3-8.9.3-8.2-4-3.9-8.4-8.7-1.1-8.6-1.1-7.7,5.5h-9.6l-8.4-3.6-7.6-4.9-8.7,4.3-9.2-2.9-5.5,7.2-7,5.5-4.4-7.8-1.7-8.8-4.6-8-8.2-4.3-5.5-7.5-2.8-8.9-8.2-4.1-8.5-3.5-6.2-7.4-9.7-1.1-8.9-3.1-9.1,3-10.2,1.7-8.1-6.4-8,5.1-8.4,4.3-6.2-.6-3.9-4.8-5.7-1.3-5.7-.8-4.9-4.7-6.7.8-2.6-5.5-3.3-5.2-6.7,1.4-4.4,5.2-6.5-1.3-5.4-3.6-5.7-2.1-5.9-.2-3.8-4.9-5.8-2h-6.9l-6.8.9-5.2-4.4-3.8-5.8-4.7-4.9-6.5-1.8-6.4,1.8h-6.5l.2,7.4-5,5.4-3.8,5.8-5.8,3.9-6.9,3.2-5,5.7-6.4-4.7-7.9.5-5.2-4.4-6.8.7-6.1-2.6-3.1-5.8-6-3.2-1.4-6.5-3.6-5.1-4.5-4.1-4.7,5.1-7-.5-6.5,1-5.8-3.4-6.1,1.8-4.9,4.2-6.2-1.4-6.3.2-4.5-4.5-6.1-1.7-4.5-4.5-6-1.9-6.2-.2-6.2.4-6.9-1-5,4.7L89,983.3l-6.1-1.9L77,983.2l-5.3,3.1-2.3,6-5.3,3.5-5,3.5-5.4,2.8,1.1-2.4,1-2.5-2-2v-2.9l-1.3-2.7.9-2.8-2.4-1.4-2.3-1.5,3,.6,2.3-1.9,2.6-1.4,1-2.8,2.1-1.9.4-2.9-.8-2.7-.2-2.7-2.3-1.5-2.7.5-.5-2.7-2.3-1.6v-2.5l-.4-2.4-2.3-1.4-.6-2.5-.6-2.4,1.2-2.2,1-2.2-.4-2.3-.4-2.3-.5-2.3-2-1.5-.3-2.6.3-2.4-1-2.3,1.7-1.9.7-2.4-.6-2.5.7-2.5,1.8-1.9,2.3-1.2-.5-2.2-1.1-2.1-.7-2.4-2.2-1.2v-2.4l-1.8-1.7L44,905.6l-.7-2.2.4-2.4,1.3-1.9v-2.4l-1.4-2v-2.3l.3-2.2,1.8-1.5,1-2.1-.9-2.2-2-1.2-1.7-1.7-.5-2.2-1.4-2.1.5-2.3.4-2.3v-4.7l-.7-2.4,2.3-1.4.6-2.6-.6-2.2-1.2-2-.9-2.1-.3-2.3-.9-2.2-2.4-.7L36,848.2l-1.5-1.6-.4-2.3-1.8-1.5-2.1-1-1.1-2v-2.4l.9-2.3-1.8-1.7-1-2.2-.9-2.1.3-2.3-1-2.1.2-2.2,1.4-2.2,2.6-.3,1.4-1.9,1.9-1.5-1-2.4v-2.6l2-1.7.8-2.5.5-2.1-.5-2.1,1.4-1.6.2-2.2-.5-2-.3-2,.3-2,.3-2.1-.6-2.1-1.3-1.9L35,785l-.6-2.2v-2.4l.6-2.4,1.7-1.8,2.4-.7.7-2.3,1.9-1.5,1.4-2v-2.4l-1.8-1.7-1-2.3.3-2.5.6-2.4,2.4-.4,1.2-2.2,1-2,.9-2.1,2.2-.8h2.4l.7-2.3,1.9-1.6h0" style="fill:#708e66"/></g></g></g></svg>