<svg xmlns="http://www.w3.org/2000/svg" viewBox="0 0 384.1 366.6"><g id="Livello_2" data-name="Livello 2"><g id="Livello_1-2" data-name="Livello 1"><path id="face" d="M329.7,212.2c39.5,102.6-61,131.5-136.4,131.5S22.6,305.8,57,212.2C45.5,88,93.3,21,193.3,81,321.1,64.9,348.3,89.8,329.7,212.2Z" style="fill:#f4cea8"/><g id="eye-left"><path d="M157.1,173.4c0,5.2-6.6,11.4-14.7,11.4s-14.6-6.2-14.6-11.4,6.5-9.3,14.6-9.3S157.1,168.3,157.1,173.4Z" style="fill:#eabe96"/><path d="M157.1,172.6c0,4.8-6.6,6.6-14.7,6.6s-14.6-1.8-14.6-6.6,6.5-8.5,14.6-8.5S157.1,167.9,157.1,172.6Z" style="fill:#5b5247"/><path d="M142,168.1c1.1,1,.3,2.5-1.9,3.4s-4.9.8-6.1-.2-.3-2.6,1.9-3.4S140.8,167.1,142,168.1Z" style="fill:#ebf7fc"/></g><g id="eye-right"><path d="M256.4,181c0,4.8-6.4,11.7-14.2,11.7s-14.3-6.9-14.3-11.7,6.4-8.8,14.3-8.8S256.4,176.1,256.4,181Z" style="fill:#eabe96"/><path d="M256.4,179.2c0,4.5-6.4,7.1-14.2,7.1s-14.3-2.6-14.3-7.1,6.4-8,14.3-8S256.4,174.8,256.4,179.2Z" style="fill:#5b5247"/><path d="M241.7,175.9c1.1,1,.4,2.4-1.8,3.2s-4.8.8-5.9-.2-.4-2.3,1.8-3.2S240.5,175,241.7,175.9Z" style="fill:#ebf7fc"/></g><path id="hair" d="M274,68.3C292.2-9.1,204.9-9.4,156.7,12.4c-24.8,11.3-24.8,42.5-24.8,42.5s3,12.7,22.7,19c0,0-24.2,7.1-16.8,15.7,5.9,6.8,23.3,1.2,30.3-1.5a32.2,32.2,0,0,1-16.8,10.4,2,2,0,0,0-1.3,2.3,1.8,1.8,0,0,0,1.7,1.6h.4a35.4,35.4,0,0,0,19-12.1c.4,9.5,2.9,36.2,19.7,37.8,20.3,1.8,8.7-34,8.7-34s15.5,10.6,23.1-2.5c0,0-7.3,16.3,0,16.7s8.5-18.3,8.5-18.3,11.9,15.7,26.4,15.3S254,84,254,84,269.2,88.7,274,68.3Z" style="fill:#d3a166"/><path id="shadow" d="M112.1,351s83.7,21.7,153.4,7.1C265.5,358.1,200.3,381.4,112.1,351Z" style="fill:#eabe96"/><path id="chin" d="M158.8,234.8s33.9,5.1,73.6-4.2C232.4,230.6,194.9,251.9,158.8,234.8Z" style="fill:#eabe96"/><g id="teeth"><path d="M84.1,204.3s37.1,10.2,76,13.7c0,0,5.6-9.7,0-14.4s-18.2,7.9-18.2,7.9-2.6-9.4-6.8-8.9-6.6,6.7-6.6,6.7-9.9-16.6-18.7-16.7-10.2,11.2-10.2,11.2S98.9,190.9,84.1,204.3Z" style="fill:#fff"/><path d="M193.9,219s20.7,1.1,36.1-3.1c0,0-1.3-15.1-10.4-14.7s-12.2,13.9-12.2,13.9S193.7,204,193.9,219Z" style="fill:#fff"/><path d="M250.1,212.5s30.3-8.6,45.7-18.1c0,0-7.6-5.1-13.6,4.1,0,0-4.3-13.2-11.9-10.7s-4.5,17.5-4.5,17.5S250.3,197.3,250.1,212.5Z" style="fill:#fff"/></g><g id="mouth"><path d="M73.5,201.9s59.9,19,127.1,16.9c38.1-1.1,76.1-10.4,111.3-33.5" style="fill:none;stroke:#896b52;stroke-linecap:round;stroke-miterlimit:10;stroke-width:3px"/><path d="M84.1,193.3s-7,.8-10.3,6.2c-1.7,2.7-2.5,6.5-1.1,12" style="fill:none;stroke:#896b52;stroke-linecap:round;stroke-miterlimit:10;stroke-width:3px"/><path d="M301.6,179.1s6.9.7,10.3,6.2c1.7,2.6,2.5,6.5,1.1,12" style="fill:none;stroke:#896b52;stroke-linecap:round;stroke-miterlimit:10;stroke-width:3px"/></g><g id="eyebrows"><g id="right"><path d="M217.7,173.4c.1,9.5,10.2,9.1,22.7,9s22.6.2,22.5-9.2-10.2-17.1-22.7-17S217.6,164,217.7,173.4Z" style="fill:#d3a166"/><path d="M252.7,159c3.9,3,6.3,7.1,6.3,11.7.1,9.5-10.1,9.1-22.5,9.2-6.9.1-12.9.2-17.1-1.2,3.4,4,11.5,3.8,21,3.7,12.5-.1,22.6.2,22.5-9.2C262.9,167.2,258.8,162,252.7,159Z" style="fill:#eabe96"/></g><g id="left"><path d="M163.2,167.8c-.6,9.5-10.7,8.5-23.1,7.7s-22.6-1-22-10.5,11.2-16.5,23.6-15.7S163.8,158.4,163.2,167.8Z" style="fill:#d3a166"/><path d="M142.4,172.9c-12.5-.8-22.6-1.1-22-10.5a12.7,12.7,0,0,1,2.5-7,14.2,14.2,0,0,0-4.8,9.6c-.6,9.5,9.5,9.7,22,10.5,10.6.7,19.5,1.5,22.2-4.2C158.3,174,150.9,173.4,142.4,172.9Z" style="fill:#eabe96"/></g></g><g id="ears"><path d="M44,150.4a36.1,36.1,0,0,0-12.2-5.9,25.6,25.6,0,1,0-12.3,49.8,38.1,38.1,0,0,0,19.7-1.1C33.2,176.9,38.8,160.6,44,150.4Z" style="fill:#f4cea8"/><g id="ear-right"><path d="M41.2,156.4a19.2,19.2,0,0,0-3.1-1.1,16.6,16.6,0,1,0-7.9,32.3,23.1,23.1,0,0,0,7.5.4C35,176.4,37.7,165.1,41.2,156.4Z" style="fill:#eabe96"/></g><path d="M350,164.7a31.7,31.7,0,0,1,10.9-5.4c11.7-2.8,22.1,6,23.1,19.7s-7.6,27-19.4,29.8a26.5,26.5,0,0,1-16.1-1.7C355.5,191.2,353,174.9,350,164.7Z" style="fill:#f4cea8"/><g id="ear-right-2" data-name="ear-right"><path d="M351.5,170.7l2.8-.9c7.6-1.9,14.3,3.9,15,12.7s-5,17.5-12.6,19.4a18.4,18.4,0,0,1-6.2.1C354.1,190.6,353.3,179.4,351.5,170.7Z" style="fill:#eabe96"/></g></g></g></g></svg>