<svg xmlns="http://www.w3.org/2000/svg" viewBox="0 0 537.2 492.7"><g id="Livello_2" data-name="Livello 2"><g id="Livello_1-2" data-name="Livello 1"><path id="face" d="M400.9,252.4c39.5,102.6-61,131.5-136.4,131.5S93.8,346,128.2,252.4C116.8,128.2,164.5,61.2,264.5,121.2,392.4,105.1,419.5,130,400.9,252.4Z" style="fill:#f4cea8"/><g id="eye-left"><ellipse cx="215.5" cy="217.6" rx="12.4" ry="13.6" style="fill:#eabe96"/><path d="M227.9,216.5a12.4,12.4,0,1,1-12.4-12.4A12.3,12.3,0,0,1,227.9,216.5Z" style="fill:#5b5247"/><path d="M215.1,209.9c1,1.4.3,3.6-1.5,4.9s-4.2,1.1-5.2-.3-.3-3.7,1.5-4.9S214.1,208.4,215.1,209.9Z" style="fill:#ebf7fc"/></g><g id="eye-right"><path d="M322.5,217.6c0,7.5-5.6,13.6-12.5,13.6s-12.4-6.1-12.4-13.6,5.6-13.5,12.4-13.5S322.5,210.1,322.5,217.6Z" style="fill:#eabe96"/><path d="M322.5,216.5A12.5,12.5,0,1,1,310,204.1,12.4,12.4,0,0,1,322.5,216.5Z" style="fill:#5b5247"/><path d="M309.6,209.9c1,1.4.4,3.6-1.5,4.9s-4.2,1.1-5.2-.3-.3-3.7,1.6-4.9S308.6,208.4,309.6,209.9Z" style="fill:#ebf7fc"/></g><path id="hair" d="M373.2,106.5c0-9.6-25.6-74.7-106.4-66.2-32.9,3.5-57.8,15.2-75.1,26.8-14.8,9.9-10.8,32.7,6.4,37,10.3,2.6,20.7,5.3,27.7,7.3,0,0-24.2,6.1-16.8,13.5s23.3,1.1,30.3-1.2c-3.4,3.5-8.7,7-16.7,8.9a1.8,1.8,0,0,0-1.4,1.9,1.7,1.7,0,0,0,1.7,1.5h.4c9.2-2.2,15.2-6.4,19-10.5.4,8.2,2.9,31.3,19.7,32.7,20.3,1.6,8.7-29.4,8.7-29.4s15.5,9.1,23.1-2.2c0,0-7.3,14.1,0,14.5s8.5-15.8,8.5-15.8,11.9,13.5,26.5,13.2-3.6-18.4-3.6-18.4S373.2,124.6,373.2,106.5Z" style="fill:#d3a166"/><path id="shadow" d="M183.3,391.2s83.8,21.7,153.4,7.1C336.7,398.3,271.5,421.6,183.3,391.2Z" style="fill:#eabe96"/><path id="chin" d="M230,275s33.9,5.1,73.6-4.2C303.6,270.8,266.2,292.1,230,275Z" style="fill:#eabe96"/><g id="teeth"><path d="M155.3,244.5s37.1,10.2,76,13.7c0,0,5.7-9.7,0-14.4s-18.2,7.9-18.2,7.9-2.6-9.4-6.8-8.9-6.6,6.7-6.6,6.7-9.9-16.6-18.7-16.7S170.8,244,170.8,244,170.2,231.1,155.3,244.5Z" style="fill:#fff"/><path d="M265.1,259.2s20.7,1.1,36.1-3.1c0,0-1.3-15.1-10.4-14.7s-12.2,13.9-12.2,13.9S264.9,244.2,265.1,259.2Z" style="fill:#fff"/><path d="M321.3,252.7s30.3-8.6,45.7-18.1c0,0-7.6-5.1-13.6,4.1,0,0-4.3-13.2-11.9-10.7s-4.5,17.5-4.5,17.5S321.5,237.6,321.3,252.7Z" style="fill:#fff"/></g><g id="mouth"><path d="M144.7,242.1s59.9,19,127.1,16.9c38.1-1.1,76.1-10.4,111.3-33.5" style="fill:none;stroke:#896b52;stroke-linecap:round;stroke-miterlimit:10;stroke-width:3px"/><path d="M155.3,233.5s-6.9.8-10.3,6.2c-1.7,2.7-2.5,6.5-1.1,12" style="fill:none;stroke:#896b52;stroke-linecap:round;stroke-miterlimit:10;stroke-width:3px"/><path d="M372.8,219.3s7,.7,10.3,6.2c1.7,2.7,2.5,6.5,1.1,12" style="fill:none;stroke:#896b52;stroke-linecap:round;stroke-miterlimit:10;stroke-width:3px"/></g><g id="eyebrows"><g id="right"><path d="M294.1,175c-2.3,9.2,7.6,11.3,19.6,14.4s21.9,6,24.2-3.2-5.5-19.1-17.6-22.2S296.5,165.8,294.1,175Z" style="fill:#d3a166"/><path d="M331.7,169.9c2.9,3.9,4.2,8.5,3.1,12.9-2.4,9.2-12.1,6.3-24.2,3.2-6.6-1.7-12.5-3.1-16.2-5.5,2.3,4.7,10.2,6.6,19.3,8.9,12.1,3.1,21.9,6,24.2-3.2C339.4,180.4,336.8,174.4,331.7,169.9Z" style="fill:#eabe96"/></g><g id="left"><path d="M236.1,162.2c2.4,9.1-7.5,11.3-19.6,14.4s-21.8,6-24.2-3.2,5.6-19.1,17.6-22.2S233.8,153,236.1,162.2Z" style="fill:#d3a166"/><path d="M217.8,173.4c-12.1,3.1-21.8,5.9-24.1-3.2a13.7,13.7,0,0,1,.2-7.5,15,15,0,0,0-1.6,10.7c2.4,9.2,12.1,6.3,24.2,3.2,10.3-2.7,19-4.6,19.9-10.8C233.4,169.6,226.1,171.2,217.8,173.4Z" style="fill:#eabe96"/></g></g><path d="M333.3,443.7s42,118.4,40-42.8c0,0,16.8,1.5,18.8-5.6s-12.3-20-12.3-20,61.6-121.4-25.2-172.6c0,0,17.5-8.7,10.4-13.2s-27.1,11.3-27.1,11.3-15.4-16.7-29-16-7.8,23.2-7.8,23.2-14.7-.5-16.1,12.4,16.1,11.3,16.1,11.3-11.5,42.3,0,102.3A636.5,636.5,0,0,0,333.3,443.7Z" style="fill:#d3a166"/><path d="M203.8,443.4s-41.9,118.4-40-42.8c0,0-16.8,1.5-18.7-5.6s12.3-20,12.3-20S95.7,253.7,182.5,202.4c0,0-17.4-8.7-10.3-13.2s27.1,11.3,27.1,11.3,15.4-16.7,29-16,7.8,23.3,7.8,23.3,14.7-.6,16.1,12.3-16.1,11.3-16.1,11.3,11.5,42.3,0,102.3A631.3,631.3,0,0,1,203.8,443.4Z" style="fill:#d3a166"/><g id="ears"><path d="M115.2,170a36.1,36.1,0,0,0-12.2-5.9,25.6,25.6,0,0,0-12.3,49.8,38.1,38.1,0,0,0,19.7-1.1C104.4,196.5,110,180.2,115.2,170Z" style="fill:#f4cea8"/><g id="ear-right"><path d="M112.5,176a24.4,24.4,0,0,0-3.2-1.1,16.6,16.6,0,1,0-7.9,32.3,23.1,23.1,0,0,0,7.5.4C106.3,196,108.9,184.7,112.5,176Z" style="fill:#eabe96"/></g><path d="M421.2,184.3a32.6,32.6,0,0,1,10.9-5.4c11.7-2.8,22.1,6,23.1,19.7s-7.6,27-19.4,29.8a26.2,26.2,0,0,1-16-1.7C426.8,210.8,424.2,194.5,421.2,184.3Z" style="fill:#f4cea8"/><g id="ear-right-2" data-name="ear-right"><path d="M422.7,190.3l2.8-.9c7.6-1.9,14.3,3.9,15,12.7s-5,17.5-12.6,19.4a18.4,18.4,0,0,1-6.2.1A61.2,61.2,0,0,0,422.7,190.3Z" style="fill:#eabe96"/></g></g><rect x="0.5" y="0.5" width="536.2" height="491.74" style="fill:none;stroke:#d3a166;stroke-miterlimit:10"/></g></g></svg>