<svg xmlns="http://www.w3.org/2000/svg" viewBox="0 0 264.9 301.1"><g id="Livello_2" data-name="Livello 2"><g id="Livello_1-2" data-name="Livello 1"><path d="M197.2,259.2s41.9,118.4,40-42.8c0,0,16.8,1.5,18.7-5.6s-12.3-20-12.3-20S305.3,69.4,218.5,18.2c0,0,17.5-8.7,10.3-13.3s-27.1,11.4-27.1,11.4S186.3-.4,172.7.3,165,23.5,165,23.5s-14.8-.5-16.1,12.4S165,47.2,165,47.2s-11.6,42.3,0,102.3A626.3,626.3,0,0,0,197.2,259.2Z" style="fill:#d3a166"/><path d="M67.7,258.9s-42,118.4-40-42.8c0,0-16.8,1.5-18.7-5.6s12.2-20,12.2-20S-40.4,69.1,46.4,17.9c0,0-17.5-8.7-10.4-13.2S63.2,16,63.2,16,78.5-.7,92.1,0s7.8,23.2,7.8,23.2,14.7-.5,16.1,12.4S99.9,46.9,99.9,46.9s11.6,42.3,0,102.3A636.5,636.5,0,0,1,67.7,258.9Z" style="fill:#d3a166"/></g></g></svg>