<svg xmlns="http://www.w3.org/2000/svg" viewBox="0 0 5979.1 2372.9"><g id="Livello_2" data-name="Livello 2"><g id="Livello_1-2" data-name="Livello 1"><path d="M3143.2,2372.9H2601.8a241.9,241.9,0,0,1-241.9-242V1870.4H2119.7a91,91,0,0,0-90.9,90.9,241.7,241.7,0,0,1-241.9,241.9H536a241.9,241.9,0,0,1-241.9-241.9v-233c0-108.6,88.4-196.9,197-196.9H576a46.1,46.1,0,0,0,46-46V1183c0-108.6,88.3-197,196.9-197h305.5c108.6,0,197,88.4,197,197v160.6h284.1a46,46,0,0,0,45.9-46V902.2h-184l-44.9,69.5-126.8-82,67.2-104a75.5,75.5,0,0,1,63.4-34.5h225.1V711.1a46,46,0,0,0-45.9-45.9H748.4v45.9c0,108.6-88.3,197-196.9,197H196.9C88.4,908.1,0,819.7,0,711.1S88.4,514.2,196.9,514.2H597.4V444.6c0-108.6,88.4-197,197-197H2006c108.6,0,196.9,88.4,196.9,197V705.2c0,108.6-88.3,197-196.9,197H1802.4v395.4c0,108.6-88.3,197-196.9,197H1321.4V1559c0,108.6-88.4,196.9-197,196.9h-63.5c-108.5,0-196.9-88.3-196.9-196.9v-18.5c0-108.6,88.4-196.9,196.9-196.9h109.5V1183a46,46,0,0,0-46-46H818.9a46,46,0,0,0-45.9,46v302.4c0,108.6-88.4,197-197,197H491.1a46,46,0,0,0-46,45.9v233a91,91,0,0,0,90.9,90.9H1786.9a91,91,0,0,0,90.9-90.9,241.9,241.9,0,0,1,241.9-241.9h240.2V1491.5a241.9,241.9,0,0,1,241.9-241.9h129.7a310.4,310.4,0,1,1,0,620.8H2510.9v260.5a91,91,0,0,0,90.9,91h541.4a91.1,91.1,0,0,0,90.9-91V968.7H3035.5a242.1,242.1,0,0,1-241.9-241.9V699a241.9,241.9,0,0,1,241.9-241.9h107.7A241.9,241.9,0,0,1,3385.1,699V817.7h138a91,91,0,0,0,90.9-90.9V241.9A241.9,241.9,0,0,1,3855.9,0h222.7a242.1,242.1,0,0,1,242,241.9v875.9a241.9,241.9,0,0,1-242,241.9H3762a91.1,91.1,0,0,0-91,91v422.9a91.1,91.1,0,0,0,91,90.9H4912a91,91,0,0,0,90.9-90.9V1747.2h-236A241.9,241.9,0,0,1,4525,1505.3V733.7a241.9,241.9,0,0,1,241.9-241.9h236V261.9A241.9,241.9,0,0,1,5244.8,20h492.4a241.7,241.7,0,0,1,241.9,241.9v139a241.7,241.7,0,0,1-241.9,241.9H5153.9v953.4h432.4l106.4-168.5,127.7,80.7L5691.7,1712a75.4,75.4,0,0,1-63.8,35.2h-474v126.4A241.9,241.9,0,0,1,4912,2115.5H3762a242.1,242.1,0,0,1-242-241.9V1450.7a242.1,242.1,0,0,1,242-242h316.6a91,91,0,0,0,91-90.9V241.9a91.1,91.1,0,0,0-91-90.9H3855.9a91,91,0,0,0-90.9,90.9V726.8a242.1,242.1,0,0,1-241.9,241.9h-138V2130.9a242.1,242.1,0,0,1-241.9,242Zm-632.3-653.5h220.6c87.9,0,159.4-71.5,159.4-159.4s-71.5-159.4-159.4-159.4H2601.8a91,91,0,0,0-90.9,90.9Zm-1450-224.8a46,46,0,0,0-45.9,45.9V1559a46,46,0,0,0,45.9,45.9h63.5a46,46,0,0,0,46-45.9v-64.4Zm3706-851.8a91,91,0,0,0-90.9,90.9v771.6a91,91,0,0,0,90.9,90.9h236V642.8ZM3035.5,608.1a91,91,0,0,0-90.9,90.9v27.8a91,91,0,0,0,90.9,90.9h198.6V699a91,91,0,0,0-90.9-90.9ZM196.9,665.2a46,46,0,0,0,0,91.9H551.5a46,46,0,0,0,45.9-46V665.2Zm1605.5,86H2006a46,46,0,0,0,45.9-46V444.6a46,46,0,0,0-45.9-46H794.4a46.1,46.1,0,0,0-46,46v69.6h857.1c108.6,0,196.9,88.3,196.9,196.9ZM5153.9,491.8h583.3a91,91,0,0,0,90.9-90.9v-139a91,91,0,0,0-90.9-90.9H5244.8a91,91,0,0,0-90.9,90.9Z" style="fill:#332a03"/><rect x="2084.8" y="491.8" width="264.1" height="151" transform="translate(74.4 1371.1) rotate(-34.9)" style="fill:#332a03"/><rect x="1764.6" y="994.6" width="151" height="248.38" transform="translate(63.7 2336.2) rotate(-65.7)" style="fill:#332a03"/><rect x="5177.7" y="1833" width="151" height="322.31" transform="translate(1275.4 5962.8) rotate(-65.7)" style="fill:#332a03"/><rect x="3303.6" y="1021.4" width="264.1" height="151" transform="translate(-9.4 2164.1) rotate(-34.9)" style="fill:#332a03"/><rect x="2983.4" y="1524.2" width="151" height="248.38" transform="translate(298.5 3759) rotate(-65.7)" style="fill:#332a03"/><rect x="5136.1" y="192.6" width="151" height="248.38" transform="translate(2780 4937.2) rotate(-65.7)" style="fill:#332a03"/><rect x="1742.7" y="1819.4" width="151" height="248.38" transform="translate(-750.7 2639.4) rotate(-62.1)" style="fill:#332a03"/><rect x="5164.5" y="956.4" width="151" height="389.08" transform="translate(1503.3 5000.5) rotate(-58.2)" style="fill:#332a03"/><rect x="71.3" y="879.8" width="229.8" height="151" transform="translate(-714.6 586.8) rotate(-56.7)" style="fill:#332a03"/><rect x="191.9" y="1659.5" width="151" height="258.1" transform="translate(-1270.1 836.5) rotate(-49.7)" style="fill:#332a03"/><rect x="4472.9" y="1022.4" width="446" height="151" transform="translate(1694.5 4872.6) rotate(-64.7)" style="fill:#332a03"/><rect x="4712.5" y="1624.1" width="151" height="207.05" transform="matrix(0.63, -0.78, 0.78, 0.63, 427.66, 4353.79)" style="fill:#332a03"/><rect x="4524" y="2097.4" width="266.8" height="151" transform="translate(54.8 4459.5) rotate(-51.4)" style="fill:#332a03"/><rect x="4170.8" y="151.5" width="291.8" height="151" transform="translate(1624.3 3608.8) rotate(-54.5)" style="fill:#332a03"/><rect x="4068.3" y="767.9" width="151" height="207.05" transform="translate(854.1 3537.6) rotate(-50.9)" style="fill:#332a03"/><path d="M1359.5,876s-88.2,19.3-161.8-21-105-124.9-105-124.9,88.2-19.3,161.8,21S1359.5,876,1359.5,876Z" style="fill:#1d3222"/><path d="M190.5,971.9s17.7,73.9,75.2,114.9,133.2,33.8,133.2,33.8-17.7-73.9-75.2-115S190.5,971.9,190.5,971.9Z" style="fill:#1d3222"/><path d="M2487.4,1432.3s17.7,73.9,75.2,115,133.2,33.7,133.2,33.7-17.7-73.9-75.2-114.9S2487.4,1432.3,2487.4,1432.3Z" style="fill:#1d3222"/><path d="M2483.5,749.4s-88.1,19.3-161.8-21-104.9-125-104.9-125,88.2-19.3,161.8,21.1S2483.5,749.4,2483.5,749.4Z" style="fill:#1d3222"/><path d="M2083.4,346.2s88.2,19.3,161.8-21,105-124.9,105-124.9-88.2-19.3-161.8,21S2083.4,346.2,2083.4,346.2Z" style="fill:#1d3222"/><path d="M1379.8,287.9s90.2-1.5,152.7-57.7,73.3-145.7,73.3-145.7-90.2,1.5-152.6,57.7S1379.8,287.9,1379.8,287.9Z" style="fill:#1d3222"/><path d="M2103.8,1782.4s90.2-1.5,152.6-57.7,73.4-145.7,73.4-145.7-90.2,1.5-152.6,57.7S2103.8,1782.4,2103.8,1782.4Z" style="fill:#1d3222"/><path d="M1382.7,318.9s-90.1-1.5-152.5-57.6-73.3-145.6-73.3-145.6,90.1,1.5,152.5,57.6S1382.7,318.9,1382.7,318.9Z" style="fill:#1d3222"/><path d="M2774.9,1299.5s-95.2-1.6-161.1-60.9-77.4-153.8-77.4-153.8,95.2,1.6,161,60.9S2774.9,1299.5,2774.9,1299.5Z" style="fill:#1d3222"/><path d="M1242.7,1680.7s-39.9,40.4-43.3,93.2,31.3,97.9,31.3,97.9,39.9-40.4,43.2-93.2S1242.7,1680.7,1242.7,1680.7Z" style="fill:#1d3222"/><path d="M1227.7,1668s57.2-54.2,130.4-57.3,134.7,46.1,134.7,46.1-57.1,54.1-130.3,57.2S1227.7,1668,1227.7,1668Z" style="fill:#1d3222"/><path d="M845.6,2155.8s-55.5,11.9-87.2,54.2-27.6,99-27.6,99,55.6-11.9,87.3-54.3S845.6,2155.8,845.6,2155.8Z" style="fill:#1d3222"/><path d="M661.3,1631.9s-55.6,11.9-87.3,54.2-27.5,99-27.5,99,55.5-11.9,87.2-54.2S661.3,1631.9,661.3,1631.9Z" style="fill:#1d3222"/><path d="M840.1,2137s77.5-14,140.4,23.6,87.5,112.3,87.5,112.3-77.5,14-140.5-23.6S840.1,2137,840.1,2137Z" style="fill:#1d3222"/><path d="M3058.2,570.7s-55.5,12-87.3,54.3-27.5,99-27.5,99,55.5-12,87.2-54.3S3058.2,570.7,3058.2,570.7Z" style="fill:#1d3222"/><path d="M3097.8,535.6s77.5,14,140.4-23.6,87.5-112.3,87.5-112.3-77.5-14-140.4,23.6S3097.8,535.6,3097.8,535.6Z" style="fill:#1d3222"/><path d="M1955.9,1144.6s37.4,40.2,88.2,45.6,95.8-26.1,95.8-26.1-37.5-40.2-88.3-45.6S1955.9,1144.6,1955.9,1144.6Z" style="fill:#1d3222"/><path d="M35.5,1871s53.9,10.5,98.1-15.1,62.1-77.5,62.1-77.5-53.9-10.5-98.2,15.1S35.5,1871,35.5,1871Z" style="fill:#1d3222"/><path d="M1943,1158.5s-49.9-57.3-49.9-128.1S1943,902.2,1943,902.2s49.9,57.4,49.9,128.2S1943,1158.5,1943,1158.5Z" style="fill:#1d3222"/><path d="M5402.6,2035.2s37.4,40.2,88.3,45.6,95.7-26.2,95.7-26.2-37.4-40.2-88.2-45.5S5402.6,2035.2,5402.6,2035.2Z" style="fill:#1d3222"/><path d="M5389.8,2049.1s-49.9-57.4-49.9-128.2,49.9-128.1,49.9-128.1,49.9,57.3,49.9,128.1S5389.8,2049.1,5389.8,2049.1Z" style="fill:#1d3222"/><path d="M833,817.4s-14.8-58.2,10.4-108.1,80.8-72.6,80.8-72.6,14.8,58.2-10.4,108.1S833,817.4,833,817.4Z" style="fill:#1d3222"/><path d="M1319.9,2101.1s-14.8-58.2,10.4-108.1,80.8-72.6,80.8-72.6,14.8,58.2-10.4,108.1S1319.9,2101.1,1319.9,2101.1Z" style="fill:#1d3222"/><path d="M990.1,1269.2s14.8-58.2-10.4-108.1-80.8-72.6-80.8-72.6-14.8,58.2,10.4,108.1S990.1,1269.2,990.1,1269.2Z" style="fill:#1d3222"/><path d="M1014.5,396.7s51.6,30.7,69.1,83.8-5.8,108.4-5.8,108.4-51.7-30.7-69.1-83.8S1014.5,396.7,1014.5,396.7Z" style="fill:#1d3222"/><path d="M3739.1,1231.5s-88.1,19.3-161.8-21-104.9-124.9-104.9-124.9,88.1-19.3,161.8,21S3739.1,1231.5,3739.1,1231.5Z" style="fill:#1d3222"/><path d="M3174.7,1674.3s37.4,40.2,88.2,45.5,95.8-26.1,95.8-26.1-37.5-40.2-88.3-45.6S3174.7,1674.3,3174.7,1674.3Z" style="fill:#1d3222"/><path d="M3161.8,1688.2s-49.9-57.4-49.9-128.2,49.9-128.2,49.9-128.2,49.9,57.4,49.9,128.2S3161.8,1688.2,3161.8,1688.2Z" style="fill:#1d3222"/><path d="M3940.9,1983.4s54.7,4.9,96-25.2,53.7-83.5,53.7-83.5-54.7-4.8-96,25.2S3940.9,1983.4,3940.9,1983.4Z" style="fill:#1d3222"/><path d="M3940.6,2002.3s-75.5-9.2-122.9-61.8-48.6-128.7-48.6-128.7,75.5,9.2,122.9,61.8S3940.6,2002.3,3940.6,2002.3Z" style="fill:#1d3222"/><path d="M5327.3,342.7s37.4,40.1,88.3,45.5,95.7-26.1,95.7-26.1-37.4-40.2-88.2-45.6S5327.3,342.7,5327.3,342.7Z" style="fill:#1d3222"/><path d="M5713.7,1622.2s37.4,40.2,88.2,45.5,95.8-26.1,95.8-26.1-37.5-40.2-88.3-45.6S5713.7,1622.2,5713.7,1622.2Z" style="fill:#1d3222"/><path d="M5314.5,356.5s-50-57.3-50-128.1,50-128.2,50-128.2,49.9,57.4,49.9,128.2S5314.5,356.5,5314.5,356.5Z" style="fill:#1d3222"/><path d="M5713.7,1519.1s-50-57.4-50-128.2,50-128.2,50-128.2,49.9,57.4,49.9,128.2S5713.7,1519.1,5713.7,1519.1Z" style="fill:#1d3222"/><path d="M1733.9,1871.4s-54.7-4.9-90-41.8-38.1-91.7-38.1-91.7,54.7,4.9,90.1,41.8S1733.9,1871.4,1733.9,1871.4Z" style="fill:#1d3222"/><path d="M1730.8,1890.1s76,4.3,131.9-39.1,70.7-118,70.7-118-75.9-4.3-131.9,39.1S1730.8,1890.1,1730.8,1890.1Z" style="fill:#1d3222"/><path d="M5365.3,1275.5s49.9-23,98.9-8.7,78.7,60.5,78.7,60.5-49.9,23-98.9,8.7S5365.3,1275.5,5365.3,1275.5Z" style="fill:#1d3222"/><path d="M5358.7,1257.7s-68,34.2-94.9,99.7-2.4,137.5-2.4,137.5,68-34.1,94.9-99.6S5358.7,1257.7,5358.7,1257.7Z" style="fill:#1d3222"/><path d="M369.8,808.3s54.7,4.9,96.1-25.1,53.7-83.5,53.7-83.5-54.7-4.9-96.1,25.1S369.8,808.3,369.8,808.3Z" style="fill:#1d3222"/><path d="M294.7,562.9s-75.5-9.2-122.9-61.8-48.6-128.7-48.6-128.7,75.5,9.2,122.9,61.8S294.7,562.9,294.7,562.9Z" style="fill:#1d3222"/><path d="M4756.5,987s17.7,73.9,75.2,114.9,133.2,33.8,133.2,33.8-17.7-73.9-75.3-115S4756.5,987,4756.5,987Z" style="fill:#1d3222"/><path d="M4574.2,1828.1s53.9,10.5,98.1-15.1,62-77.5,62-77.5-53.9-10.5-98.1,15.1S4574.2,1828.1,4574.2,1828.1Z" style="fill:#1d3222"/><path d="M4406.4,2166.8s49.7-23.3,98.8-9.4,79.2,60,79.2,60-49.7,23.3-98.9,9.4S4406.4,2166.8,4406.4,2166.8Z" style="fill:#1d3222"/><path d="M4366.7,198.9s17.6,73.9,75.2,114.9,133.2,33.8,133.2,33.8-17.7-73.9-75.3-114.9S4366.7,198.9,4366.7,198.9Z" style="fill:#1d3222"/><path d="M3930,972s53.9,10.4,98.1-15.1,62-77.6,62-77.6-53.9-10.4-98.1,15.2S3930,972,3930,972Z" style="fill:#1d3222"/><path d="M2964.8,2211.8s53.9,10.4,98.1-15.1,62.1-77.6,62.1-77.6-53.9-10.4-98.2,15.2S2964.8,2211.8,2964.8,2211.8Z" style="fill:#1d3222"/><rect x="3103.1" y="2007.7" width="151" height="207.05" transform="translate(-464.5 3246.5) rotate(-50.9)" style="fill:#332a03"/></g></g></svg>