<svg xmlns="http://www.w3.org/2000/svg" viewBox="0 0 575.5 789"><g id="Livello_2" data-name="Livello 2"><g id="Livello_1-2" data-name="Livello 1"><path d="M159.7,421.6a1.3,1.3,0,0,1,2.1.1h0c8.2,15.6,16.4,31.1,24.7,47.1a1.3,1.3,0,0,1-.4,1.8l-28.4,17.1c-20.9,12.4-41.9,24.7-62.7,37.2-8.2,5-11.2,13.8-12.6,22.5-1.7,11.4-2.3,23.1-2.8,34.7-1.5,32.8-2.6,65.6-4,98.4-.4,9.6,6.5,18.4,17.8,21.8,9.7,2.9,19.4-.1,23.5-8.9,3.4-7.1,6.2-14.8,7.2-22.6,4.6-33.7,8.4-67.5,12.8-101.2.2-2.2,1.8-5.2,3.6-6.2,25.6-13.3,51.3-26.3,76.9-39.4l1.9-.8a1.3,1.3,0,0,1,1.7.5c5.1,8.7,10.4,17.2,15.3,26,12.4,22,24.7,44.2,37,66.3,7,12.5,20,17.2,33.2,11.4l103.4-45.2c11.8-5.2,16.3-15.3,12.2-26.3-5.7-15.1-14.8-20.3-28.3-16l-87.7,27.9a1.3,1.3,0,0,1-1.7-.8c-22-61.5-43.9-122.8-66-184.8a1.4,1.4,0,0,1,1.2-1.8l32.9-1.8c7-.3,14-.3,20.9-1,3.2-.3,4.5.8,5.8,3.3q13.7,25.2,27.5,50.4c6,10.7,17.4,14.4,27.6,9s13.1-17.2,7.1-28.1c-10.7-19.5-21.7-38.9-32.6-58.4-5.6-10-14.3-15.7-25.6-16.8-34-3.4-68-6.6-102.1-9.8a14.9,14.9,0,0,0-6.2,1.2c-14.8,6.4-29.6,12.9-44.2,19.6a13.2,13.2,0,0,0-5.2,5q-26,40-51.7,80.1l-2.2,3.3a1.3,1.3,0,0,1-1.8.4c-11.8-7.1-23.4-14.1-34.9-21.2-7-4.2-13.8-8.7-20.6-13.2s-19.4-4.8-26.5,1.3S-2.3,421.2,2.3,430a20.5,20.5,0,0,0,6.4,7.3c21,13.5,42.1,26.6,63.1,39.9,3.4,2.1,6.6,4.4,9.8,6.8,9.7,6.9,22.2,5.4,29.8-3.8L157,424.6C157.9,423.6,158.7,422.6,159.7,421.6Z" style="fill:#f9dbbe"/><path d="M147.8,330.4A47,47,0,1,0,106,278.2,47.1,47.1,0,0,0,147.8,330.4Z" style="fill:#f9dbbe"/><path id="path117690" d="M271.8,569.8c-1,.6,7.5,11.1,14.4,30.5.9,2.5,1.8,5.2,2.6,8-.7.5.4,3.6,2.2,8.4s2.2,10.6,3,16.6a234.8,234.8,0,0,1,2,34.2,118.9,118.9,0,0,0-10.9-14.9c2.1-2.2,3.7-3.3,3.5-3.8s-2.4-.1-5.4,1.7a89,89,0,0,0-6.7-7c-1.7-4.8-2.8-7.5-3.4-7.5s-.6,1.5-.4,4.1a82.4,82.4,0,0,0-11.6-7.9l-2.9-4.9c-10.6-17.9-17.5-29.1-19.2-28.7s1.9,11.5,9.5,28l-2.5-.8-2.1-4.1a68.1,68.1,0,0,0-6.8-10.3,21.5,21.5,0,0,0-3.7-3.7c-2.2-1.7-3.8-1.8-4.1-1.4s.6,1.3,1.6,2.9a27.5,27.5,0,0,1,2,3.9c1.4,3.1,2.5,5.9,4.2,10.5s2.2,6.3,3.4,9.9l1.1,3.2a2.9,2.9,0,0,0,.2.9c0,.1.1.2.1.3s0,0,.1.2c3.2,9,7.3,20.3,11.1,32.1l-1.8,3.4-2.9-1.9a83,83,0,0,0-7.6-4.5c-1.2-2.3-2.6-4.6-3.9-6.8.5-3,.9-5.3,1.5-7.6a29.4,29.4,0,0,1,1-3.4,7.1,7.1,0,0,0,.8-2.5c-.2-.3-1.6-.1-3.1,1.5a17.6,17.6,0,0,0-2.4,3.5,18.3,18.3,0,0,0-1.4,2.8c-.8-1.3-1.7-2.5-2.5-3.7.9-5.7,1-9.3.2-9.4s-1.7,1.8-3.2,5.1a185.4,185.4,0,0,0-12-15.1c-10.8-12-19.3-18.4-20.5-17.6s4.9,8.3,13.8,20.9c2.1,3.1,4.3,6.3,6.5,9.8.6,2,1.2,4.1,2,6.5l3.8,12c-.4,1.3-.9,2.4-1.4,3.8l-.5,1.5c-1.4-2.9-2.8-5.9-4.3-8.7a183.4,183.4,0,0,0-12.9-21.4c-2-2.7-3.9-5.1-5.8-7.4,1.9-6,3.5-9.4,2.9-9.6s-2.8,2.2-5.4,6.9a65.9,65.9,0,0,0-6.1-5.8,36.2,36.2,0,0,0-7.7-4.9c-4.7-2.3-7.8-2.2-8-1.7s2.1,1.6,5.4,4.3a45.7,45.7,0,0,1,5.6,5.4,83.8,83.8,0,0,1,7.4,10,78.5,78.5,0,0,0-3.6,11.5,101.8,101.8,0,0,0-2.8,21.2l-4.3-.8c-15.5-2.3-24.6-1-24.7.2s9.4,2.1,22.7,5.7l4.6,1.3a134.2,134.2,0,0,0-4.2,27.1,152.8,152.8,0,0,0-4.6-14.8c0-.1-.1-.2-.1-.3,2.9-2.6,4.8-4.1,4.3-4.6s-2.4,0-5.5,1.4c-3-7.3-5.6-11.4-6.6-11.2s-.3,5.6,1.2,14.1a61.9,61.9,0,0,0-10.9,8.2,61.2,61.2,0,0,0-9.3-7.5l-2.4-1.4c.9-2.6,1.7-5.2,2.3-7.3,1.5-4.7,2.6-8.4,3.4-11.8,1.4-5.7,1.4-9.1.4-9.3s-2.4,2.9-5.1,8.2c-1.4,2.8-3.5,7.1-5.4,11.3-.9,1.8-1.8,3.9-2.7,6-1.8-.4-2.9-.4-3.1-.1s.7,1.1,2.3,2.2l-1.7,4.2c-1,2.9-2.1,6-2.9,9.3-.2-2.6-.3-5.3-.4-7.7-.6-13.1-1.1-22.1-2.1-30.5s-2.1-11.9-3.2-11.9-1.7,4.5-2.3,12-1.2,18.9-1.2,30.5c0,2.6,0,5.3.1,8-3.5-7.7-7.1-14.6-10.5-20.6-8.4-14.5-15.1-22.5-16.1-22.1s3.8,9.1,10.6,23.9a345.8,345.8,0,0,1,15.7,40.8h-.1a147.4,147.4,0,0,0-19.8-25.5,70.2,70.2,0,0,0-16.2-13.1c-4.5-2.6-7.6-3.4-8-2.9s1.7,2.2,5.2,5.3a137.9,137.9,0,0,1,13,14A225.9,225.9,0,0,1,114.2,724l2.9,4.9c-1.8-2.7-3.7-5.3-5.7-7.9a122.1,122.1,0,0,0-11.2-13,50.3,50.3,0,0,0-11.9-9.1,27.2,27.2,0,0,0-6.2-2.3,16.9,16.9,0,0,0-6.3-.3,13.6,13.6,0,0,0-5.8,2.1c-3.9,2.6-4.5,4.7-4.1,5s2.1-1.5,5.8-3a13,13,0,0,1,4.6-1.1,13.8,13.8,0,0,1,4.3.7,21.9,21.9,0,0,1,4.6,2.3c3.5,2.2,6.4,5.1,9.8,8.8a149.2,149.2,0,0,1,9.8,12.9c4.8,7,9,14.1,13.7,22.3a106.3,106.3,0,0,0-13.9-9.7,70.2,70.2,0,0,0-22.4-18.2c-7.8-4-13.5-4.8-14.1-4s4,3.4,10.1,8.1c2.3,1.7,4.7,3.6,7.2,5.8-5.6-1.6-9.2-1.9-9.6-1.2s4.6,3.4,12.3,7.7l8,4.9,2.5,3.3v.2a117.8,117.8,0,0,1,13.4,24.4c2.8,6.5,4.4,10.8,5.6,10.6s2-4.6.8-11.8a63.4,63.4,0,0,0-3.6-12.4h0A101.2,101.2,0,0,1,134.4,778c3.9,6.6,5.6,11.1,6.9,11s1.5-3,.6-7.7l.5-.5c.1.1.1.3.2.5a10.6,10.6,0,0,0,2.5,5c.9,1,1.7,1.3,2,1.1s-.1-2.1-.3-5.8a1.7,1.7,0,0,0,1.2.1c.7-.6-.4-2.5-.8-5.9V775l3.3-4.1c1,7.7,2.7,12.5,4,12.4s1.9-5.1,2.5-13c.2-2.1.4-4.8.5-7.2l2.7-2.5c-.1,4.2-.1,7.9,0,10.6.1,5.8.6,9.4,1.9,9.5s3.1-3.2,4.6-9a92.8,92.8,0,0,0,2.4-13.2c1.8,3.2,3.5,6.3,5.1,9s1.6,2.7,2.4,3.9.7,3.3,1,4.8c.7,3.4,1.2,5.5,2,5.5s1.5-1.1,2.1-3.2c1.2,1.4,2.2,2,2.8,1.8s.4-4.6-1.8-11.2a50.1,50.1,0,0,0-.9-8.1,58,58,0,0,0-1.8-7.5l.9,2.9a105.9,105.9,0,0,1,3.3,12.3c1.1,6,1.1,9.7,1.9,9.8s1.7-1.2,2.4-3.7c1.3,3.5,2.4,5.5,3.1,5.4s.9-2.2.7-5.8a10.7,10.7,0,0,0,.9-3c2.4,7.3,5,11.3,6,11.1s.2-4-.6-10.2a55.1,55.1,0,0,0,1.3-6.2,30.7,30.7,0,0,0,.8,7.3c.8,4.1,2.2,6.2,3,6.1s1-2.4,1.5-6.2a83.7,83.7,0,0,1,2.5-12.6,85.1,85.1,0,0,1,4.5,7.3c.8,1.9,1.6,3.7,2.6,5.6,0-7.9-1.6-15.3-3.5-22.8h-.1c1.1-2.5,2.3-5.1,3.6-7.7a201.3,201.3,0,0,0,6.8,24.6c2.5,7.4,4.5,11.6,5.5,11.4s.7-2.3.3-6.1c1.6,3.8,3,5.7,3.6,5.6s.3-5.3-.7-13.6c.9-1.8,2-3.9,3.7-6.9a2.5,2.5,0,0,1,.4-.7c.1.8.1,1.6.2,2.3,1.7,12.2,4.4,19.5,5.7,19.4s.8-7.7.9-19.7c0-1.5.1-3.2.1-4.8,1.5,3.7,2.8,6.9,3.8,8.9,1.8,9.5,4.1,15.2,5.3,15.1s.3-.1.4-.3.6,1.7.9,1.7,3.3-10.6,5.9-27.1c1.3,6.3,2.3,10.8,3.3,10.8s3.1-9.1,2.1-23.9a24.6,24.6,0,0,1-.2-2.8l.7.9c2.6,3.2,4.4,5.6,5.9,7.6.9,10,1.2,16.2,2.4,16.3s2-2.5,3-7.2c.5,4.5,1.1,7.2,1.9,7.2s2.5-5.2,3.8-14.4a247.2,247.2,0,0,0,2.1-30.4c2.3,3,4.3,5.9,6.1,8.8h0c-.4,9.2-.6,18.2,1.3,27.6.7-2.3,1.2-4.7,1.7-7s2.3-6.2,3.6-9.3a105.1,105.1,0,0,1,6.1,14.5c1.4,4.5,2.2,7.2,3.2,7.2s2.1-2.7,2.2-7.7a42.3,42.3,0,0,0-.9-8.8c1.1,2.8,2.1,5.2,3.1,7.2.5,7.5.6,12.1,1.7,12.2s3.4-5,4.6-14.1a15.5,15.5,0,0,0,1.6,3.4c.8,4.3,1.5,6.9,2.3,6.9s1.7-2.6,2.3-7c1.6,2.9,3.1,4.3,3.8,4.1s.1-4.7,0-11.9a128.3,128.3,0,0,1,.9-15.2c.1-1.2.3-2.4.4-3.7-.3,3.2-.4,6.3-.4,9.3a68.2,68.2,0,0,0,.9,9.7c-1,8.2-1,13.4.6,13.7s1.7-.8,2.9-2.6c1.2,2.5,2.5,3.7,3.2,3.6s1.1-2.8,1.1-7c0-1.7,0-3.7.1-5.8s1.3-3.2,1.9-5l3.9-11.4a116.5,116.5,0,0,0,6,15.3c3.2,6.6,6.2,10.4,7.7,10s1.1-4.7,0-11.5c-.6-3.3-1.5-7.8-2.6-12.7l3.8,2.6c.8,2.8,1.6,6,2.3,8.4,2.6,9.4,4.6,15.3,6.2,15.1s2.3-5.9,1.8-15.3l4.8,4.4c.1.3.1.6.2,1,.4,4.1-.5,6.5.5,7.1a2.2,2.2,0,0,0,1.4-.3c.6,4.4.2,6.7,1,7s1.3-.3,2.2-1.7a12.3,12.3,0,0,0,1.6-4.9c.4.6.8,1,1.1,1,.4,4.1,1.4,6.5,2.4,6.5s2.6-5.6,5.6-14.1c.4-1.1.9-2.3,1.4-3.5a105.6,105.6,0,0,1,7.4,10.9c3.9,6.6,5.7,11.1,6.9,11s1.5-3,.6-7.7l.6-.5c0,.1.1.4.1.5a11.7,11.7,0,0,0,2.5,5c.9,1,1.8,1.3,2.1,1.2s-.2-2.2-.4-5.8h1.2c.8-.5-.4-2.5-.7-5.9a1.9,1.9,0,0,1-.1-.8l3.3-4c1.1,7.6,2.7,12.4,4,12.3s2-5,2.6-13c.1-2.1.3-4.8.5-7.1s1.7-1.8,2.6-2.6c-.1,4.2-.1,8,0,10.7.2,5.7.6,9.3,1.9,9.4s3.1-3.2,4.6-9a93.9,93.9,0,0,0,2.4-13.1l5.1,8.9,2.4,4c.4,1.7.7,3.2,1,4.7.8,3.4,1.2,5.5,2.1,5.6s1.4-1.1,2-3.3c1.3,1.4,2.2,2,2.8,1.9s.5-4.7-1.8-11.3a50.3,50.3,0,0,0-.8-8.1c-.5-2.4-1.1-4.9-1.9-7.5.3,1,.7,2,1,2.9a120.7,120.7,0,0,1,3.2,12.4c1.1,5.9,1.2,9.6,2,9.7s1.6-1.2,2.4-3.7c1.3,3.6,2.3,5.5,3,5.5s.9-2.3.8-5.9a17.1,17.1,0,0,0,.8-2.9c2.4,7.2,5.1,11.2,6,11s.3-3.9-.6-10.1c.5-1.7.9-3.8,1.4-6.3a32.6,32.6,0,0,0,.7,7.4c.9,4,2.2,6.2,3,6s1-2.3,1.5-6.2a84.9,84.9,0,0,1,2.6-12.5c1.6,2.4,3.2,4.8,4.5,7.2a56.2,56.2,0,0,0,2.5,5.6c0-7.9-1.6-15.3-3.5-22.7h0a76.6,76.6,0,0,1,3.6-7.8,211.4,211.4,0,0,0,6.7,24.7c2.5,7.3,4.5,11.5,5.5,11.3s.7-2.3.3-6c1.6,3.7,3,5.7,3.7,5.5s.2-5.3-.7-13.6c.9-1.8,2-3.9,3.6-6.8.1-.3.3-.5.4-.8l.3,2.3c1.6,12.2,4.4,19.5,5.6,19.4s.8-7.7.9-19.6c.1-4.2.2-8.8.5-13.8.5-.6.9-1.3,1.4-2a136.5,136.5,0,0,0,1.8,18.6c1.8,10.3,4.3,16.5,5.5,16.3s.3-.1.4-.3.6,1.8,1,1.8,3.3-10.7,5.9-27.3c1.5-9.7,3.4-21.8,5.7-34.6,2.1-2.3,4.2-4.4,6.3-6.4a71.2,71.2,0,0,1,6.2-5.2,92.4,92.4,0,0,1,17.5-10c10.3-4.3,18-6,17.7-7s-8-1.1-20.3,2.4a78.3,78.3,0,0,0-20.3,9.5,49.1,49.1,0,0,0-4.4,3.1c1-4.7,2-9.3,3.1-13.8,1.8-7,3.5-12.9,5.5-18.5a73.7,73.7,0,0,1,6.5-14.2,33.9,33.9,0,0,1,3.7-5.1c2.2-2.5,4-3.6,3.7-4s-2.8-.2-6.3,2.2a29,29,0,0,0-5.5,4.8,59.3,59.3,0,0,0-9.1,14.5,128.9,128.9,0,0,0-7.1,18.9,205.7,205.7,0,0,0-5.1,21.2c-.1.3-.1.5-.2.8s-.5,2.7-.7,4l-1.1,1.2c1.2-13.2,2.8-25.1,3.8-34,.2-2.1.3-3.9.5-5.6s2.5-5.9,3.8-8.6c5.1-11.3,8.9-18.1,7.8-18.6s-7,5.5-13.9,16.5a147.1,147.1,0,0,0-14.6,31.7l-5.5,4.5-4.7,4.3c1.3-11.9,3.1-23.5,4.4-32.5a.3.3,0,0,0,.1-.2v-.2a1.7,1.7,0,0,1,.1-.7,24,24,0,0,1,.3-2.8c.3-3.1.7-5.8,1.1-8.4s1.1-6.4,1.7-9.1.7-2.4,1-3.4a9,9,0,0,0,.9-2.5c-.3-.3-1.7,0-3.1,1.6a12,12,0,0,0-2.5,3.4,44.5,44.5,0,0,0-3.8,9.1,30.7,30.7,0,0,0-1.1,3.6,8.2,8.2,0,0,0-1.9.9c3.5-14.3,4.5-23.7,3.1-23.9s-5.2,9.7-10.9,25.4l-1.6,4.3a64.3,64.3,0,0,0-8.2,7.7c-.3-2.1-.6-3.3-1-3.3s-1,2.4-1.6,6.5a88.3,88.3,0,0,0-12,21.7,213.8,213.8,0,0,1-4-28.3c-.3-5-.3-9.5-.2-13.9s1-6.7.4-7.1c.2-2.3.4-4.6.8-6.8,2.4-16.6,7.7-26,6.7-26.4s-8.3,8.7-12.4,25.7a104.1,104.1,0,0,0-2.7,19.8l-1.2-.6a17.7,17.7,0,0,0-7.3-1.8,22.4,22.4,0,0,0-7.5,1.3,30.3,30.3,0,0,0-6.8,3.8,53.5,53.5,0,0,0-12,12.6c-1.1,1.5-2.1,3.1-3.1,4.6l-1.9-1.1.9-3.1c2-4.2,4-8.3,6.2-12.1a136.2,136.2,0,0,1,12.1-18.7c3.4-4.2,5.5-6.6,4.9-7.1s-4.1.9-8.8,4.7a67.5,67.5,0,0,0-8.8,8.4,1.2,1.2,0,0,0-.5-.5c-.7-.1-2,2.3-3.7,5.7-1.1,1.4-2.1,2.8-3.2,4.4a124.1,124.1,0,0,0-9.3,15.3h-.1c0,.1.1.1.1.2-1,1.8-2,3.8-2.9,5.8-.3-6.7-.6-12.5-1-17.6,1.5-7.7,3-14.9,4.6-21.3,4.5-18.6,8.2-29.7,6.9-30.1s-7.4,10.3-13.9,28.8l-.6,1.6c-.4-1.1-.8-1.8-1.1-1.8s-1.8,4.5-2.4,12v1.2c-1.2,4.2-2.4,8.5-3.4,13.1q-.9-5-1.8-9.6c-2.8-13.8-6.6-28.2-8.8-36.1s-4.5-14.1-5.7-14-1.6,5.6-.9,14.7,2.4,20.9,4.8,36.6c.3,2.1.7,4.4,1,6.6-2.3-3.7-4.3-6.8-6.2-9.3l-2.1-3.4c1.6-1.6,2.5-2.5,2.2-2.9s-1.7-.3-3.7.5l-4.6-6.8-9.2-12.6c-4.5-5.9-7-9.2-8-9s-.3,4.4,2.7,11c1.8,4,3.9,8.2,6.8,13.6l4.5,8.3a23.2,23.2,0,0,0-2.5,2.1,63,63,0,0,0-9.3,10.3,81.3,81.3,0,0,0-14.9-8.2c-.2-10.3-.5-16.8-1.9-16.9s-3.4,5.2-5.2,14.3c-4.1-1.2-6.7-1.3-7-.9s2.2,2.2,6.3,4.9v.3c-.9,5.7-1.5,11.8-2,18.4a160,160,0,0,0-12.9-34.6l-1.8-3.3a143.9,143.9,0,0,0-8.7-26c-9-19.7-19.9-29.3-21-28.8Zm188.8,27.6Zm-261.2,24Zm49.2,9.8,2.9,1.8a247.1,247.1,0,0,1,10.3,24l-1.3,1.8c-3.3-8.4-6.7-16.2-9.8-22.9h0v-.2l-.4-.9-1.4-3.3-.2-.3Zm-54.7,9.7.5.7c3.7,6.4,7.2,13.2,11,21.3,2.1,4.6,4.3,9.5,6.4,14.5a4.6,4.6,0,0,0-.7.7l-1.1-.5c-.2-1.1-.4-1.9-.7-1.9s-.4.5-.6,1.2l-2.3-1.1a106.2,106.2,0,0,0-14.9-5.6c-.1-3-.1-5.8,0-8.5s1-6.8.4-7.1c.2-2.3.4-4.6.7-6.8s.8-4.8,1.3-6.9Zm161.5,2.5.4.7a99.6,99.6,0,0,1,5.6,12.4c2.1,5.5,4,11.4,5.8,17.5a9.3,9.3,0,0,0,.4,1.3l-3.7-4-4.5-4.4-3.5-3.7c.4-1.8.4-3-.2-3.2s-1.2.2-2.1,1c-1.9-1.9-3.9-3.6-5.9-5.3A88,88,0,0,1,355.4,643.4Zm83.2.8a17.7,17.7,0,0,1,4.2.6l2.4.8c-.2.8-.5,1.7-.8,2.6a122.8,122.8,0,0,0-3.4,15.7c-1.5.8-3.1,1.8-4.8,2.9-.4-1.3-.8-2.6-1.3-3.8a.4.4,0,0,0-.1-.3c3-2.6,4.8-4.1,4.4-4.6s-2.4.1-5.6,1.4c-2.4-5.9-4.5-9.7-5.8-10.8a23.8,23.8,0,0,1,4.3-3,14,14,0,0,1,5-1.4Zm51.2,1h0c-.1.1-.1.2-.1.4l-.6,2.7a3.1,3.1,0,0,0-.2.8c0,.1,0,.2-.1.2h0c-1.7,6.9-3.5,15.1-4.9,24l-1.5.5c.2-1.1.3-2.2.4-3.3a186.8,186.8,0,0,1,4.9-23.5l2.1-1.8Zm-220.4,3c1.8,2,3.6,4,5.4,6.2.1.9.4,2.2.6,3.2a13.3,13.3,0,0,0-1.4,1.9,9.8,9.8,0,0,1-.5-1.6C272.2,654.6,270.9,651.3,269.4,648.2Zm56.7.9c2.8,1.9,5.9,4.3,9,6.9l1.4,1.2-.5.8c-2.8-3.3-5-5-5.8-4.7s.1,4.3,2.6,10.5a128.7,128.7,0,0,0-6.3,14C326.5,666.8,326.3,655.5,326.1,649.1Zm100.4.7c-.1,2.2.6,6.5,1.7,12.6a64,64,0,0,0-10.8,8.3l-3.4-3c1.2-2.3,2.4-4.5,3.7-6.6A55.4,55.4,0,0,1,426.5,649.8Zm49,11.5c-.7,2.7-1.2,5.6-1.7,8.4s-.9,7.4-1.1,11.3l-.6.6c0-5.6.1-10.5.1-14.6C473.2,665,474.4,663.1,475.5,661.3Zm-211.6,1.9.3.9h-.7A3,3,0,0,0,263.9,663.2Zm79.6.8c1.4,1.4,2.7,2.8,4.1,4.4l-2.3,3.4-3-5Zm-66.3,1.9c.4,2.1.7,3.7,1.2,5.9l-.9-.6c-.3-1.3-.7-2.5-1-3.7A11.1,11.1,0,0,1,277.2,665.9Zm127.1.4.7.7-1.9,3.6c.3-1.3.7-2.6,1-3.8S404.2,666.4,404.3,666.3Zm-140.5,1.4a16.6,16.6,0,0,0,1.9,1.8c.3,1.2.5,2.3.8,3.5a6.1,6.1,0,0,0-.5,1.2C265.3,672,264.5,669.8,263.8,667.7Zm165.4.2c.2.8.5,2.6.7,3.6l-2.8,2.5c.1-1.3,0-2.1-.5-2.3s-2.2,1.5-4,4.5l-.5-.6.9-1.1A80.8,80.8,0,0,1,429.2,667.9Zm-122.6.8c.8,4.3,1.6,8.7,2.4,13.4a7.8,7.8,0,0,1,.2,1.4c.3,1.9.6,3.7.8,5.6a15.7,15.7,0,0,0-3.3-.1c-.2-.4-.3-.8-.5-1.3C306.5,681.2,306.6,674.9,306.6,668.7Zm-21.8.3a135.9,135.9,0,0,1,8.6,16.6,28.5,28.5,0,0,0-2.3-2.6l-3-3.1C287,676.2,285.9,672.5,284.8,669ZM440,672.5c-.2,1.8-.4,3.5-.5,5.3-.3-1.3-.7-2.4-1-3.7Zm-28.9,1.2,1.6,1.8c-1.4,1.6-2.7,3.2-4,5l-.6-.3c.4-.8.7-1.6,1-2.3S410.5,675.1,411.1,673.7Zm-58.6.5,1.1,1.5c1,1.2,1.9,2.6,2.9,3.9a38.2,38.2,0,0,0-4.8-3.4,5.8,5.8,0,0,0,.5-1.4Zm-127.1,1.3c.3,1,.6,2.1,1,3.2l-.9,3.5c-.3-.9-.7-1.8-1.1-2.7S225,676.8,225.4,675.5Zm258,1.2c-.6,3.7-1,7.4-1.4,11.2,0,.6-.1,1.2-.1,1.8,0-1.2-.1-2.4-.1-3.6s.1-5.2.3-7.7Zm-145.3.6c.6,1.4,1.1,2.9,1.7,4.4l-1.2,2.3-.7-.2a21.4,21.4,0,0,0-1.3-2.2Zm-146.2,1c3,1.3,6,2.7,9.3,4.4a49.1,49.1,0,0,1,4.4,2.5,91.1,91.1,0,0,0-9.9,18.6A201.8,201.8,0,0,1,191.9,678.3Zm55.3,1.6.6.5c-.1.1-.1.3-.2.4A3.6,3.6,0,0,0,247.2,679.9Zm219.1,0c-.3,3-.6,6.2-.9,9.3l-1.9,2.8-1.5,2.4A112.4,112.4,0,0,1,466.3,679.9Zm-116.1,1.3a65.9,65.9,0,0,1,6,5.9.3.3,0,0,0,.1.2l-2.6,1.7C352.6,686.3,351.4,683.7,350.2,681.2Zm67.2.7a9.1,9.1,0,0,1,1.1,1.6l-2.5,3.6-1.2-1.2C415.7,684.5,416.5,683.1,417.4,681.9Zm31.1.1c.9,5,2.1,10.2,3.4,15.5-.6,3.4-1.1,6.7-1.4,10s-.3,4-.4,5.9c-.6-6.2-1.1-12.6-1.4-19.1v-1.1c-.2-4-.2-7.7-.2-11.2Zm-41.3.5h0c0,.1,0,.1-.1.1a.1.1,0,0,0,.1-.1Zm-127,1.9,1.1,1.3,1.8,9-1.5.6C281.2,691.8,280.8,688.1,280.2,684.4Zm218.7.6-.6,2.8a147.2,147.2,0,0,0-3.5,32,87.3,87.3,0,0,0-4.3,8.7,221.6,221.6,0,0,1-.2-26.1c.1-2.2.2-4.5.4-6.8C493.5,691.7,496.3,688.2,498.9,685Zm-66,2.4c.2,1.5.4,2.5.7,4l-2-3.1h0l1.3-.9Zm-176.4,1,3.1,2.9c.1.3.1.5.2.8-1.2,4.2-2.2,8.5-3.2,13-.4-1.5-.9-3.1-1.4-4.7C255.7,696,256.1,692.2,256.5,688.4Zm-44.6,1,1.3.9-.6,3.4a101.2,101.2,0,0,0-1.1,11.2,4.6,4.6,0,0,1-.7.7c.1-5.6.2-10.5.1-14.7Zm98.3.8c.7,5.5,1.4,11,2,16.2-.6-2.2-1.2-4.6-1.9-6.9s-1.8-5.5-2.8-8.2Zm-167.2,0a79.6,79.6,0,0,1,8.4,9.3c-1.3,1.6-2.7,3.2-4,5-.8-.6-1.5-.8-1.8-.6s-.3,1.1.3,2.6c-1.5,2.3-3,4.6-4.4,7.2a67.7,67.7,0,0,0-3.3,6.6c.1-1.3.1-2.5.3-3.8q.6-7.8,1.8-15a92.8,92.8,0,0,1,2.6-10.7C142.9,690.6,143,690.4,143,690.2Zm268.8,1,.3.4a2.6,2.6,0,0,0,.5.9l-.2.4-2.5,2.1,1.2-2.5C411.3,692,411.6,691.6,411.8,691.2Zm-243.8.6c.9,5.3,2.6,14.6,4.4,23.6a113.4,113.4,0,0,0-7.4-10.8c1-5.3,1.4-8.6.4-8.9s-2.2,1.5-4,4.5l-.5-.6.9-1.1C163.9,696,166,693.8,168,691.8Zm192.2.2c1.9,2.5,3.8,5.1,5.8,8s5.6,8.7,8.4,13.2c-.1,1.7-.2,3.2-.3,4.8l-4.2-2.8a3,3,0,0,0-.4-.8l-.3-.5A97.5,97.5,0,0,0,357,697.6a5.6,5.6,0,0,1-.4-1.2C357.8,694.8,359.1,693.4,360.2,692Zm112.5.1c.1,4.5.5,8.8,1,13l-1.3,2.3-.6,1c-.1.1-.1.1-.1.2.1-2.7.2-5.3.3-7.7v-7.6a7.5,7.5,0,0,1,.7-1.2Zm-139.8,1.7.3.2.3,2c-1.3,3.4-2.5,7.1-3.6,10.9h0q-.9,3.1-1.5,6.3c1.1-6.1,2.6-12.5,4.5-19.4Zm92.1,0a16.2,16.2,0,0,0,1,1.8,10.7,10.7,0,0,0-.7,1.9l-.6.2-1.3-1.7c.1-.4.1-.7.2-1Zm-140.4,7.1c.2,1,.5,1.9.7,3s-.1-.1-.1-.2a5.2,5.2,0,0,0-1-1.1l-.8-1Zm-63.1.7a4.9,4.9,0,0,0,.4,1.1c-.4,3-.8,6.1-1.1,9.2-.1.6-.1,1.2-.2,1.8v-3.6c0-2.7.1-5.2.3-7.7Zm-16.4,2.3-.9,9.3-2,2.8-1.4,2.4A112.4,112.4,0,0,1,205.1,703.9Zm225.7.8h0c2.8,5.7,5.1,10.9,7.1,15.9-.7-1.6-1.4-3.3-2.3-5h0c-1.5-3-3.1-5.8-4.7-8.6,0-.8-.1-1.6-.1-2.3Zm-137.4.4a.3.3,0,0,0,.1.2v.4a1.3,1.3,0,0,1-.1-.6Zm-137.2.7,1.5,2.2c-.6,1.4-1.1,2.9-1.7,4.5a30.8,30.8,0,0,0-2.4-2.6C154.4,708.5,155.3,707.1,156.2,705.8Zm31.1.1c.9,5.1,2,10.2,3.4,15.6-.6,3.4-1.1,6.7-1.4,10s-.4,4-.4,5.9c-.6-6.2-1.1-12.6-1.4-19.1v-1.1c-.2-4-.3-7.7-.2-11.3Zm234.5,2.5.9,1.6-1-.9h-.2Zm-73.6,1.9,1.1.6.4.2,2.9,10.2-2.7-.8h-.1c-.4-1.5-.7-3.1-1.1-4.5s-.7-3-1.1-4.5l.6-1.2Zm117.1.1v.5c0-.1-.1-.2-.1-.3s0-.2.1-.2Zm-314.7,4.7a1.3,1.3,0,0,0,.3.5c.8,1.5,1.8,3.1,2.7,4.7s-1.1,4.6-1.6,7.1a37.9,37.9,0,0,0-4.9-2.1l-1.2-.3c1.3-3,2.6-5.8,4-8.5A9.1,9.1,0,0,1,150.6,715.1Zm253.7.1a66.2,66.2,0,0,0-1.3,15.3h0a26.8,26.8,0,0,0-.7,2.7c-.7-2.9-1.6-6.2-2.5-9.8.3-1.1.7-2.3,1-3.5s2.2-3.1,3.5-4.7Zm-138.9.8c1,5.1,1.7,9.9,2.3,14.4-1.5-2.3-3.3-4.7-5.2-7.1l.9-5.2Zm-54,0c.2,4.5.6,8.9,1.1,13.1-.5.7-.9,1.5-1.4,2.3l-.6,1a.1.1,0,0,1-.1.1c.1-2.6.2-5.2.4-7.6s-.1-5.1-.1-7.6a8.3,8.3,0,0,0,.7-1.3Zm-48.6.2,2,3.4a18.2,18.2,0,0,0-.8,1.9l-.5.2-1.3-1.7Zm257.6,2.9,1.6,2.1-.3,3.8c0,1.2,0,2.5-.1,3.8h0l-2.2,1C419.7,726.4,420,722.8,420.4,719.1Zm-191.1,3.2,4.6,12.5q-.3,4.7-.3,9c-1.7,3-3.2,5.9-4.4,8.6a243.4,243.4,0,0,1-.2-26Zm71.1,2.6q.6,2.3,1.2,4.2l-1.5-3.2Zm162.4,2.5a2.5,2.5,0,0,1,.4.7c-.2,1-.5,1.9-.7,2.8Zm-318.3,1.1a77,77,0,0,1,6.4,5.3c-.1.3-.1.6-.2.9a72,72,0,0,0-7.3,14.7c-.1.2-.1.3-.2.4-.9,2.6-1.6,5-2.2,7.4-.6-2.9-1.5-6.2-2.4-9.8A168.4,168.4,0,0,1,144.5,728.5Zm25,.2h0c2.9,5.6,5.2,10.9,7.2,15.9-.7-1.7-1.5-3.3-2.3-5h0c-1.5-3-3.1-5.9-4.7-8.6-.1-.8-.1-1.6-.2-2.3Zm-8.9,3.7a8,8,0,0,1,.8,1.6l-.9-.9h-.2Zm43.4,1.9a4.3,4.3,0,0,0,.1.5c-.1,0-.1-.1-.1-.2v-.3ZM159.1,743c.6.7,1.1,1.5,1.6,2.2s-.1,2.5-.2,3.8-.1,2.5-.1,3.8h-.1l-2.1,1C158.4,750.4,158.8,746.8,159.1,743Zm42.5,8.3a5.9,5.9,0,0,0,.4.8c-.3,1-.5,1.9-.7,2.8C201.4,753.7,201.5,752.6,201.6,751.3Z" style="fill:#f9dbbe"/><g id="Palm"><path d="M442.1,185.3c-36.5-87.4-73.9-126.9-93-142.6l-2-1.7-27.4,2,7.8,9.7c66,81.7,104.1,200.9,104.6,326.9.4,94.7-21.3,158.9-42.5,220.8-23,67.3-46.4,112.7-46.7,113.2l-.7,1.4v1.6c0,13.7,18.4,20.9,36.6,20.9,16.2,0,26.7-5.9,27.7-15.5,6-13,56.7-104.1,71.3-231.7C495.3,337.5,467.9,247.1,442.1,185.3Z" style="fill:#f9dbbe"/><path d="M366.7,60.3c-6.2-9.6-2.3-8-11.6-19.5-14.2-17.4-44.1-29.5-72-31.7C233.8,5.2,182.9,17.7,150.7,57c23.4-11.2,47.8-8.3,71.6-.7,9.1-8,18.1-15.9,27.5-23.5-2.8,9.7-5.8,19.3-9.1,28.9,11,4,22.4,4.1,34,4,10.1-10.1,20.8-19.6,31.9-28.7-5.7,9.4-11.3,18.9-16.6,28.6C315.5,66.6,341.7,66.4,366.7,60.3Z" style="fill:#f9dbbe"/><g style="opacity:0.2"><path d="M366.7,60.3c-6.2-9.6-2.3-8-11.6-19.5-14.2-17.4-44.1-29.5-72-31.7C233.8,5.2,182.9,17.7,150.7,57c23.4-11.2,47.8-8.3,71.6-.7,9.1-8,18.1-15.9,27.5-23.5-2.8,9.7-5.8,19.3-9.1,28.9,11,4,22.4,4.1,34,4,10.1-10.1,20.8-19.6,31.9-28.7-5.7,9.4-11.3,18.9-16.6,28.6C315.5,66.6,341.7,66.4,366.7,60.3Z" style="fill:#f9dbbe"/></g><path d="M358.9,62.2c0-.1-.6-15.8,26.4-34.8C427.5-2.4,477.9-2.7,502.6,2.6s59,20.7,72.9,41.2c0,0-25.9-10.1-61.6-3,0,0-19.4-17.1-43.9-24.8,0,0,22.1,20.1,26,28.5,0,0-18.3,11.4-46.1,9.8,0,0-14.4-24.9-35.4-29,0,0,17.7,10.9,22,31C436.5,56.3,398.2,63.7,358.9,62.2Z" style="fill:#f9dbbe"/><path d="M358.9,62.2c0-.1-.6-15.8,26.4-34.8C427.5-2.4,477.9-2.7,502.6,2.6s59,20.7,72.9,41.2c0,0-25.9-10.1-61.6-3,0,0-19.4-17.1-43.9-24.8,0,0,22.1,20.1,26,28.5,0,0-18.3,11.4-46.1,9.8,0,0-14.4-24.9-35.4-29,0,0,17.7,10.9,22,31C436.5,56.3,398.2,63.7,358.9,62.2Z" style="fill:#f9dbbe;opacity:0.2"/><path d="M358.9,62.2s41-14.3,89.2,2.9c63,22.5,93,61.9,100.5,92.7,0,0-23-28.1-67.8-27.4L463.2,98.2l-4,30.4c-9.4-.3-21.1-4.4-34.4-11.3L409.6,76.2l.4,33.2S373.5,91.6,358.9,62.2Z" style="fill:#f9dbbe"/><path d="M358.9,62.2s41-14.3,89.2,2.9c63,22.5,93,61.9,100.5,92.7,0,0-23-28.1-67.8-27.4L463.2,98.2l-4,30.4c-9.4-.3-21.1-4.4-34.4-11.3L409.6,76.2l.4,33.2S373.5,91.6,358.9,62.2Z" style="fill:#f9dbbe;opacity:0.1"/><path d="M358.9,62.2c0-.1-10.7-6.4-36.1-1.7-43.1,7.8-84.3,45.6-97.4,66.9s-25.3,56.1-20.1,79.9c0,0,10.4-25.2,39.7-45.9,0,0,1-25.5,12.2-48.2,0,0-.7,29.5,2.7,37.9,0,0,20.5-5.3,38.3-26.2,0,0-8.1-27.2,3.3-45,0,0-4.3,20,7.2,36.8C308.7,116.7,333.4,91.3,358.9,62.2Z" style="fill:#f9dbbe"/><path d="M358.9,62.2c0-.1-10.7-6.4-36.1-1.7-43.1,7.8-84.3,45.6-97.4,66.9s-25.3,56.1-20.1,79.9c0,0,10.4-25.2,39.7-45.9,0,0,1-25.5,12.2-48.2,0,0-.7,29.5,2.7,37.9,0,0,20.5-5.3,38.3-26.2,0,0-8.1-27.2,3.3-45,0,0-4.3,20,7.2,36.8C308.7,116.7,333.4,91.3,358.9,62.2Z" style="fill:#f9dbbe;opacity:0.1"/><path d="M367.7,254s-8.5-22.6-5.1-44.8c.9-6.1,2.3-12.6,3.8-19.2-18.5-19.6-17.1-35.5-17.1-35.5,3.2,10,14.1,19.6,20.6,22,5.5-13.9,6.4-28.7,8.1-41.6-15.9-11.2-19.5-22.8-19.5-22.8,5.2,5.8,15.3,10.5,21.3,12,.6-28-10.4-53.3-20.9-61.9,0,0-16.7,6.6-30.4,56.5C314.3,170.2,330.4,226.8,367.7,254Z" style="fill:#f9dbbe"/></g></g></g></svg>