<svg xmlns="http://www.w3.org/2000/svg" viewBox="0 0 604.4 483.6"><g id="Livello_2" data-name="Livello 2"><g id="Livello_1-2" data-name="Livello 1"><path id="shadow" d="M176.4,459s131.8,34.2,241.4,11.2C417.8,470.2,315.2,506.8,176.4,459Z" style="fill:#b27c3e"/><path id="chin" d="M249.9,276.1s53.3,8.1,115.8-6.6C365.7,269.5,306.8,303,249.9,276.1Z" style="fill:#b27c3e"/><path d="M518.8,240.6c20.4-134.2,5.8-194-73-209.3-21.2,3.4-46.1,1.1-46.1,1.1s28.4,28.4,5.6,28.9-41.7-20.8-41.7-20.8-2,25.4-13.4,24.9,0-22.8,0-22.8c-11.9,17.8-36.3,3.5-36.3,3.5s18.3,48.7-13.7,46.2c-26.4-2.1-30.3-38.6-30.9-51.4-6,6.5-15.4,13.1-30,16.5h-.6A2.8,2.8,0,0,1,236,55a3,3,0,0,1,2.3-3c12.6-2.9,20.8-8.5,26.2-14-11,3.6-38.4,11.2-47.6,2-11.7-11.7,26.4-21.3,26.4-21.3-11.1-3.1-27.4-7.3-43.6-11.5A31.4,31.4,0,0,1,185.9,0C110.4,10.4,77,103.3,89.6,240.6c-54,147.2,96.1,206.9,214.6,206.9S581,402,518.8,240.6Zm-168-121.8c3.7-14.5,22.1-22.2,41.1-17.3A42,42,0,0,1,414,114.9h0a33.7,33.7,0,0,1,3.1,4.6v.2c.2.4.5.9.7,1.4h.1a25.6,25.6,0,0,1,1.2,3.2v.2c.1.5.3.9.4,1.4a.8.8,0,0,0,.1.4c.1.4.1.8.2,1.2a.6.6,0,0,0,.1.4,10,10,0,0,0,.2,1.6h0v3.1a1.3,1.3,0,0,0-.1.6c0,.3-.1.7-.1,1.1a4.3,4.3,0,0,0-.1.5l-.3,1.5c-3.7,14.5-19,9.9-38,5l-2.2-.5C361.5,136.3,347.2,132.6,350.8,118.8Zm44.6,65.3a19.6,19.6,0,1,1-19.6-19.6A19.5,19.5,0,0,1,395.4,184.1ZM218.3,81.3c19-4.9,37.5,2.8,41.2,17.3s-11.9,17.8-30.9,22.7-34.3,9.4-38-5.1S199.3,86.1,218.3,81.3Zm28.3,102.8a19.6,19.6,0,1,1-19.5-19.6A19.5,19.5,0,0,1,246.6,184.1Zm249.7,39a5.5,5.5,0,0,1-5.3,4.2l-1.4-.2a5.6,5.6,0,0,1-4-6.7,24.8,24.8,0,0,0,.8-9.1c-49.9,31.1-107.7,47.9-172.2,50l-16.4.2c-85.5,0-161.3-20.2-180.6-25.8a23,23,0,0,0,.9,7.1,5.6,5.6,0,0,1-4,6.7l-1.4.2a5.5,5.5,0,0,1-5.3-4.2c-2.3-9.1-1.5-16.9,2.4-23.1,6.7-10.7,19.8-12.2,20.4-12.3a5.5,5.5,0,0,1,6,4.9,5.6,5.6,0,0,1-4.8,6.1,19.7,19.7,0,0,0-10,4.4l10.9,2.6c23.4-21,24.4-.7,24.4-.7s2.1-17.8,16-17.7S202.2,236,202.2,236s3.8-9.7,10.4-10.5,10.6,14,10.6,14,19.8-19.8,28.7-12.4,2.4,18,.6,21.6c16.8,1.3,34.5,2,52.6,1.7.3-22.3,21.2-5.3,21.2-5.3s5.1-21.3,19.3-21.9,15.8,19,16.2,22.6c10.9-1.7,21.5-3.9,31.9-6.6,1.4-21.3,24.5-9.5,24.5-9.5s-4.8-23.7,7.1-27.6S444.1,219,444.1,219c7.3-11.2,16-8.9,19.6-7.3,5.7-3.1,11.4-6.3,16.9-9.8a21.5,21.5,0,0,0-8.2-3.2,5.6,5.6,0,0,1-4.9-6.1,5.3,5.3,0,0,1,6-4.8c.6,0,13.6,1.5,20.3,12h.1C497.8,206.2,498.6,214,496.3,223.1Z" style="fill:#b27c3e"/><g id="ears"><path d="M59.3,170.1a35.1,35.1,0,0,1-11.8-.7,26.1,26.1,0,1,1,12.4-50.8,32.8,32.8,0,0,1,5,1.7c0,.1,0,.1-.1.2,1.4-3.5,2.9-6.7,4.4-9.6A55.9,55.9,0,0,0,50,101.6a40.3,40.3,0,0,0-19.3,78.3c9.4,2.3,20.7,1.6,31-1.6a79,79,0,0,1-2.6-8.8C59.2,169.7,59.2,169.9,59.3,170.1Z" style="fill:#b27c3e"/><path d="M63.8,123.1v0Z" style="fill:#b27c3e"/><path d="M58.1,163.6a3.1,3.1,0,0,0-.1-1A3.1,3.1,0,0,1,58.1,163.6Z" style="fill:#b27c3e"/><path d="M58.7,167.3a2.9,2.9,0,0,0-.2-.9A2.9,2.9,0,0,1,58.7,167.3Z" style="fill:#b27c3e"/><path d="M552.6,188.5l-.3.9Z" style="fill:#b27c3e"/><path d="M604.3,155.9c-1.7-21.5-18-35.4-36.5-31a48.8,48.8,0,0,0-17,8.6c.8,2.8,1.7,6.1,2.4,9.5h0a18.4,18.4,0,0,1,4.3-1.5c12-2.9,22.5,6.1,23.6,20.1s-7.8,27.5-19.8,30.4a26.8,26.8,0,0,1-9.8.2c.1-.2.1-.4.2-.6-.9,2.8-2,5.7-3.2,8.6,8,3.6,17.3,4.7,25.2,2.8C592.2,198.5,605.9,177.5,604.3,155.9Z" style="fill:#b27c3e"/><path d="M554.1,147.8c0,.2.1.4.1.7S554.1,148,554.1,147.8Z" style="fill:#b27c3e"/><path d="M553.7,145.4v0Z" style="fill:#b27c3e"/></g></g></g></svg>