<svg xmlns="http://www.w3.org/2000/svg" viewBox="0 0 404.7 322.1"><g id="Livello_2" data-name="Livello 2"><g id="Livello_1-2" data-name="Livello 1"><path id="face" d="M352.9,162.9c39.5,102.6-61,131.4-136.3,131.4S45.9,256.5,80.2,162.9C68.8,38.7,116.6-28.4,216.6,31.7,344.4,15.5,371.5,40.5,352.9,162.9Z" style="fill:#f4cea8"/><g id="eye-left"><ellipse cx="203.5" cy="122.2" rx="12.4" ry="13.6" style="fill:#eabe96"/><path d="M215.9,121a12.4,12.4,0,1,1-12.4-12.4A12.4,12.4,0,0,1,215.9,121Z" style="fill:#5b5247"/><path d="M203.1,114.4c1,1.5.3,3.7-1.5,5s-4.2,1.1-5.2-.3-.3-3.7,1.5-5S202.1,113,203.1,114.4Z" style="fill:#ebf7fc"/></g><g id="eye-right"><path d="M301.2,124.1c0,7.5-5.6,13.6-12.5,13.6s-12.4-6.1-12.4-13.6,5.6-13.6,12.4-13.6S301.2,116.6,301.2,124.1Z" style="fill:#eabe96"/><path d="M301.2,123a12.5,12.5,0,1,1-12.5-12.5A12.5,12.5,0,0,1,301.2,123Z" style="fill:#5b5247"/><path d="M288.3,116.3c1,1.5.4,3.7-1.5,5s-4.2,1.1-5.2-.3-.3-3.7,1.6-5S287.3,114.9,288.3,116.3Z" style="fill:#ebf7fc"/></g><path id="hair" d="M315.2,24.1C317,6.1,189.6,0,189.6,0s1.6,11.2,18.6,18.4c0,0-22.2,3.9-16.3,12,4.7,6.4,20.7,3.1,27.2,1.4a29.2,29.2,0,0,1-15.9,7.4,1.8,1.8,0,0,0-1.3,2,1.3,1.3,0,0,0,1.3,1.4c.1.1.3,0,.4,0a31.7,31.7,0,0,0,18-8.7c-.5,8.2-.5,31.4,14.3,34.2,17.9,3.4,10.6-28.4,10.6-28.4s13,10.4,20.9-.2c0,0-7.9,13.5-1.5,14.4S275.1,39,275.1,39s9.3,14.5,22.3,15.5S296,35.8,296,35.8,313.4,42.1,315.2,24.1Z" style="fill:#d3a166"/><path id="shadow" d="M86.9,281.3s77,39.3,148.2,40.2C235.1,321.5,166.4,330.1,86.9,281.3Z" style="fill:#eabe96"/><path id="chin" d="M221.1,185.5s33.9,5.1,73.6-4.2C294.7,181.3,257.3,202.6,221.1,185.5Z" style="fill:#eabe96"/><g id="teeth"><path d="M156.2,155s29.2,10.1,59.8,13.7c0,0,4.4-9.7,0-14.4s-14.4,7.9-14.4,7.9-2-9.4-5.3-8.9-5.2,6.7-5.2,6.7-7.8-16.6-14.7-16.7-8,11.2-8,11.2S167.8,141.6,156.2,155Z" style="fill:#fff"/><path d="M242.6,169.6s16.3,1.2,28.4-3c0,0-1-15.1-8.1-14.7s-9.7,13.9-9.7,13.9S242.5,154.6,242.6,169.6Z" style="fill:#fff"/><path d="M286.9,163.2s23.8-8.6,35.9-18.1c0,0-5.9-5.1-10.6,4.1,0,0-3.5-13.2-9.4-10.7s-3.6,17.5-3.6,17.5S287,148,286.9,163.2Z" style="fill:#fff"/></g><g id="mouth"><path d="M147.8,152.6s47.2,19,100.1,16.9c30-1.2,59.9-10.5,87.6-33.6" style="fill:none;stroke:#896b52;stroke-linecap:round;stroke-miterlimit:10;stroke-width:3px"/><path d="M156.2,144a11.4,11.4,0,0,0-8.2,6.2c-1.3,2.6-1.9,6.5-.9,12" style="fill:none;stroke:#896b52;stroke-linecap:round;stroke-miterlimit:10;stroke-width:3px"/><path d="M327.4,129.8a11.2,11.2,0,0,1,8.1,6.1c1.4,2.7,2,6.6.9,12" style="fill:none;stroke:#896b52;stroke-linecap:round;stroke-miterlimit:10;stroke-width:3px"/></g><g id="eyebrows"><g id="right"><path d="M274.6,75.3c-4.6,8.3,4.5,12.8,15.5,18.8s19.6,11.2,24.2,2.9-.7-19.9-11.7-25.9S279.1,67,274.6,75.3Z" style="fill:#d3a166"/><path d="M312.2,79.6c1.9,4.5,2,9.3-.2,13.3-4.5,8.3-13.2,3.1-24.2-2.8-5.9-3.3-11.3-6.1-14.3-9.4,1,5.2,8.2,8.9,16.6,13.4,10.9,6,19.6,11.2,24.2,2.9C317.1,91.7,316.1,85.2,312.2,79.6Z" style="fill:#eabe96"/></g><g id="left"><path d="M215.1,72.6c3.8,8.7-5.6,12.4-17,17.4s-20.6,9.4-24.4.7S176.1,71,187.5,66,211.3,63.9,215.1,72.6Z" style="fill:#d3a166"/><path d="M198.9,86.6c-11.5,5-20.6,9.4-24.4.7a13,13,0,0,1-.9-7.3,14.1,14.1,0,0,0,.1,10.7c3.8,8.7,12.9,4.3,24.4-.7,9.7-4.3,18-7.6,17.8-13.9C213.6,80.3,206.7,83.2,198.9,86.6Z" style="fill:#eabe96"/></g></g><g id="ears"><path d="M47.5,67a34.8,34.8,0,0,0-10.8-8.3,25.6,25.6,0,1,0-22.1,46.2,37.7,37.7,0,0,0,19.4,3C31.5,90.7,40.3,75.9,47.5,67Z" style="fill:#f4cea8"/><g id="ear-right"><path d="M43.6,72.3a14.6,14.6,0,0,0-2.9-1.7,16.6,16.6,0,1,0-14.3,29.9,20.7,20.7,0,0,0,7.2,2C33.4,90.6,38.3,80,43.6,72.3Z" style="fill:#eabe96"/></g><path d="M370.6,95.9a31.1,31.1,0,0,1,10.9-5.5c11.7-2.8,22.1,6.1,23.1,19.7S397,137.2,385.2,140a25.6,25.6,0,0,1-16-1.8C376.2,122.3,373.6,106.1,370.6,95.9Z" style="fill:#f4cea8"/><g id="ear-right-2" data-name="ear-right"><path d="M372.1,101.8l2.8-.9c7.6-1.8,14.3,3.9,15,12.7s-5,17.6-12.6,19.4a16.1,16.1,0,0,1-6.2.1A61.2,61.2,0,0,0,372.1,101.8Z" style="fill:#eabe96"/></g></g></g></g></svg>