<svg xmlns="http://www.w3.org/2000/svg" viewBox="0 0 404.7 322.1"><g id="Livello_2" data-name="Livello 2"><g id="Livello_1-2" data-name="Livello 1"><path id="face" d="M51.8,162.9c-39.5,102.6,61,131.4,136.3,131.4s170.7-37.8,136.4-131.4C335.9,38.7,288.1-28.4,188.1,31.7,60.3,15.5,33.2,40.5,51.8,162.9Z" style="fill:#f4cea8"/><g id="eye-left"><ellipse cx="201.2" cy="122.2" rx="12.4" ry="13.6" style="fill:#eabe96"/><path d="M188.8,121a12.4,12.4,0,1,0,12.4-12.4A12.4,12.4,0,0,0,188.8,121Z" style="fill:#5b5247"/><path d="M201.6,114.4c-1,1.5-.3,3.7,1.5,5s4.2,1.1,5.2-.3.3-3.7-1.5-5S202.6,113,201.6,114.4Z" style="fill:#ebf7fc"/></g><g id="eye-right"><path d="M103.5,124.1c0,7.5,5.6,13.6,12.5,13.6s12.4-6.1,12.4-13.6-5.6-13.6-12.4-13.6S103.5,116.6,103.5,124.1Z" style="fill:#eabe96"/><path d="M103.5,123A12.5,12.5,0,1,0,116,110.5,12.5,12.5,0,0,0,103.5,123Z" style="fill:#5b5247"/><path d="M116.4,116.3c-1,1.5-.3,3.7,1.5,5s4.2,1.1,5.2-.3.3-3.7-1.6-5S117.4,114.9,116.4,116.3Z" style="fill:#ebf7fc"/></g><path id="hair" d="M89.5,24.1C87.7,6.1,215.1,0,215.1,0s-1.6,11.2-18.6,18.4c0,0,22.2,3.9,16.3,12-4.7,6.4-20.7,3.1-27.2,1.4a29.2,29.2,0,0,0,15.9,7.4,1.9,1.9,0,0,1,1.4,2,1.5,1.5,0,0,1-1.4,1.4c-.1.1-.2,0-.4,0a31.7,31.7,0,0,1-18-8.7c.5,8.2.5,31.4-14.3,34.2-17.9,3.4-10.6-28.4-10.6-28.4s-13,10.4-20.8-.2c0,0,7.8,13.5,1.4,14.4S129.6,39,129.6,39s-9.3,14.5-22.3,15.5,1.4-18.7,1.4-18.7S91.3,42.1,89.5,24.1Z" style="fill:#d3a166"/><path id="shadow" d="M317.8,281.3s-77,39.3-148.2,40.2C169.6,321.5,238.3,330.1,317.8,281.3Z" style="fill:#eabe96"/><path id="chin" d="M183.6,185.5s-33.9,5.1-73.6-4.2C110,181.3,147.4,202.6,183.6,185.5Z" style="fill:#eabe96"/><g id="teeth"><path d="M248.6,155s-29.3,10.1-59.9,13.7c0,0-4.4-9.7,0-14.4s14.4,7.9,14.4,7.9,2-9.4,5.3-8.9,5.2,6.7,5.2,6.7,7.8-16.6,14.8-16.7,8,11.2,8,11.2S236.9,141.6,248.6,155Z" style="fill:#fff"/><path d="M162.1,169.6s-16.3,1.2-28.4-3c0,0,1-15.1,8.1-14.7s9.7,13.9,9.7,13.9S162.2,154.6,162.1,169.6Z" style="fill:#fff"/><path d="M117.8,163.2S94,154.6,81.9,145.1c0,0,5.9-5.1,10.6,4.1,0,0,3.5-13.2,9.4-10.7s3.6,17.5,3.6,17.5S117.7,148,117.8,163.2Z" style="fill:#fff"/></g><g id="mouth"><path d="M256.9,152.6s-47.2,19-100.1,16.9c-30-1.2-59.9-10.5-87.6-33.6" style="fill:none;stroke:#896b52;stroke-linecap:round;stroke-miterlimit:10;stroke-width:3px"/><path d="M248.6,144a11.4,11.4,0,0,1,8.1,6.2c1.3,2.6,1.9,6.5.9,12" style="fill:none;stroke:#896b52;stroke-linecap:round;stroke-miterlimit:10;stroke-width:3px"/><path d="M77.3,129.8a11.2,11.2,0,0,0-8.1,6.1c-1.4,2.7-2,6.6-.9,12" style="fill:none;stroke:#896b52;stroke-linecap:round;stroke-miterlimit:10;stroke-width:3px"/></g><g id="eyebrows"><g id="right"><path d="M130.2,75.3c4.5,8.3-4.6,12.8-15.5,18.8S95,105.3,90.5,97s.6-19.9,11.6-25.9S125.6,67,130.2,75.3Z" style="fill:#d3a166"/><path d="M92.5,79.6c-1.9,4.5-2,9.3.2,13.3,4.5,8.3,13.2,3.1,24.2-2.8,6-3.3,11.4-6.1,14.3-9.4-1,5.2-8.2,8.9-16.5,13.4-11,6-19.7,11.2-24.2,2.9C87.6,91.7,88.6,85.2,92.5,79.6Z" style="fill:#eabe96"/></g><g id="left"><path d="M189.6,72.6c-3.8,8.7,5.6,12.4,17.1,17.4s20.5,9.4,24.3.7S228.6,71,217.2,66,193.4,63.9,189.6,72.6Z" style="fill:#d3a166"/><path d="M205.8,86.6c11.5,5,20.6,9.4,24.4.7a14,14,0,0,0,1-7.3,14.6,14.6,0,0,1-.2,10.7c-3.8,8.7-12.9,4.3-24.3-.7-9.8-4.3-18.1-7.6-17.9-13.9C191.1,80.3,198,83.2,205.8,86.6Z" style="fill:#eabe96"/></g></g><g id="ears"><path d="M357.3,67A33.3,33.3,0,0,1,368,58.7a25.6,25.6,0,1,1,22.1,46.2,37.7,37.7,0,0,1-19.4,3C373.2,90.7,364.4,75.9,357.3,67Z" style="fill:#f4cea8"/><g id="ear-right"><path d="M361.2,72.3a14,14,0,0,1,2.8-1.7,16.6,16.6,0,1,1,14.4,29.9,21.9,21.9,0,0,1-7.3,2C371.3,90.6,366.4,80,361.2,72.3Z" style="fill:#eabe96"/></g><path d="M34.1,95.9a31.1,31.1,0,0,0-10.9-5.5C11.5,87.6,1.1,96.5.1,110.1S7.7,137.2,19.5,140a25.5,25.5,0,0,0,16-1.8C28.5,122.3,31.1,106.1,34.1,95.9Z" style="fill:#f4cea8"/><g id="ear-right-2" data-name="ear-right"><path d="M32.6,101.8l-2.8-.9c-7.6-1.8-14.3,3.9-15,12.7s5,17.6,12.6,19.4a16.1,16.1,0,0,0,6.2.1A61.2,61.2,0,0,1,32.6,101.8Z" style="fill:#eabe96"/></g></g></g></g></svg>