<svg xmlns="http://www.w3.org/2000/svg" viewBox="0 0 519.8 498.6"><g id="Livello_2" data-name="Livello 2"><g id="Livello_1-2" data-name="Livello 1"><polygon points="507.5 262.7 513.6 269.4 514.3 276.4 512.1 283.3 511.7 290.3 509.3 297 516.3 305 518.2 312.6 514.6 319.3 501.2 323.3 508.3 332.4 509.9 340.4 504.7 346.2 495.6 350.2 501.1 360.2 494.9 365.2 490.1 370.6 491.5 379.6 480.3 381 482.9 391.2 472.8 392.6 471.5 400.4 464.8 403.9 458.1 407.2 452.4 411 454.4 423.3 446.6 425.4 441.8 430.7 437.3 436.7 426.2 433.3 423 441.1 414.9 441.2 412.9 452 403.4 449.3 399.9 458.2 393.3 460.9 384.2 457.7 378.3 461.8 370.7 461.2 367.2 473.1 358.5 469 350.8 467.6 346.3 478.5 338.1 474.8 330.9 475 323.8 475.2 317.1 477.5 310.2 479.4 302.9 477.7 295.8 476.3 289.1 482.3 282 482.1 275 485 267.9 481.7 260.7 486.1 254 477.8 246.5 489.7 239.7 486.2 233.8 474.5 227 473.9 219.2 480.9 213.4 472.8 205.6 477.9 198.8 476.7 190.4 482.6 185.8 471.4 179.4 469 171.9 470.1 165.5 467.3 158.8 465.7 150.1 469.3 147.4 456.8 141.1 454.2 135.7 449.7 123.7 458.9 117.6 455.4 114.2 446.8 110.2 439.9 105.6 434.4 92.5 442 91.5 430.9 80.5 434.1 77.3 426.7 72.5 421.5 72.5 411.1 60.8 413.2 55.9 407.7 49.2 403.9 50.7 393.1 40.9 391.7 45.5 379.5 33.9 378.8 34.6 370 33.1 362.7 24.8 359.1 25.4 350.9 19.1 345.9 12.1 340.8 14.6 332.3 20.3 323.3 18.7 316.6 6.2 312.1 4.4 305 11.8 296.7 11.7 289.7 13.7 282.7 7.8 275.9 11.3 268.8 4.8 261.5 0 254 1 246.9 6.7 240.6 12 234.7 17.2 229 11.5 220.2 19.5 215.6 11.6 205.3 20.6 201.4 17.7 192.5 28.2 189.7 29 182.4 36.6 178.7 30.6 167.3 39.6 164.5 48.9 162.4 46.8 152.8 48.3 145.3 57.5 143.5 57.7 135 70.1 136.1 69 126.3 72.1 119.9 82.8 120.3 80.2 108.5 83.4 101.9 89.7 98.4 92.9 91.2 104.2 92.9 109.8 88.6 115.6 84.5 122.1 81.3 122.2 70 132.6 71.9 135.3 63.5 143.9 63.5 150.3 60.4 152.1 49.8 162.7 53.8 168.3 49.6 170 37.4 176.3 33.6 187.3 40.6 193.3 36.8 200.4 35.8 205.1 27.9 211.7 24.9 218.2 21.3 225.8 22.1 233.3 23.4 239.1 13.6 247.7 26.5 254.1 16.1 261.3 14.2 268.5 16.5 275.7 17.8 282.2 24.4 289.3 23.1 295.4 28.9 303.1 26 308.8 31.6 317.1 27.6 323.1 32.1 331.1 30.7 335.2 39.4 342.7 39.5 349.3 42 356.1 44.1 363 46.2 372.8 43.5 373.6 56.1 384 53 385.5 63.5 393.1 65.1 398.4 69.8 406.1 71.5 410.8 77 416 81.8 416.4 92.1 422.7 95.6 425.7 102.5 430.9 107 436.9 110.8 450.6 107.8 454.8 113.6 450.8 126.2 463.8 124.7 467.1 131.2 468.5 139 475.9 142.4 472.2 153.4 485 153.5 479.1 165.4 486.2 169.3 490.5 175 490.5 182.8 491.3 190.1 505.6 191.5 499.2 201.8 510.5 205.2 506 214.2 507.4 221.1 502.3 229.5 505.3 235.7 519.8 240.2 507 249.2 510.2 255.7 507.5 262.7" style="fill:#070a0a"/><path d="M454.6,222.9l9.3,2.7-2.5,2.2-2.6,2.2-2,2.2c.3.8.6,1.6.8,2.3l7.9,3-8.7,1.6,5.9,2.9-8.4,1.5,11,3.5-1.8,2.1-4.1,1.9-4.1,1.8c.1.8.1,1.6.2,2.3l-2.5,2,4.1,2.9,3.1,2.9-3.8,1.7,2.8,2.9-6.2,1.2V271l5.7,3.6-2.7,1.8a16.3,16.3,0,0,1-1.7,2l-3,1.7-3.6,1.5,3,3.1-3.6,1.5,7.4,4.3c-.3.8-.5,1.5-.8,2.2l-3.6,1.5,2.7,3.2-5.7.8,2.3,3.1-.3,2.4-1.8,1.9-4.6.9,6.3,4.6h-7.2l-1.5,1.9-3,1.3,6.5,5-3.3,1.3-4.5.6,5,4.7h-6.1c.2,1,.5,1.9.7,2.9s.1,1.7.1,2.6a24.5,24.5,0,0,0,.2,2.7h-5.6a20,20,0,0,0-1,2.1l1.6,3.4-6.3-.6,2.1,3.7,3.2,4.4-9.3-2.3-1.2,2c1.4,1.6,2.7,3.3,4.1,5l-3.9.5,3.6,4.8-6.7-1.2-5.1-.3a20,20,0,0,1-1,2.1l4.7,5.8-1.4,1.9-1.7,1.8-6.1-1.2c.2,1,.3,2.1.4,3.1l-1.9,1.6c-.6.6-1.1,1.2-1.7,1.7l-3.1.7-4.5-.4v3l-1.2,2.1-3.3.4c.3,1.3.7,2.7,1.1,4.1s.9,2.9,1.4,4.3a24.4,24.4,0,0,0-1,2.4l-3,.7-4.3-.4c-.1,1-.1,2.1-.2,3.2l-5.8-2.1-3.1.5c.2,1.3.3,2.6.4,3.9l-4.2-.8-4.2-.8-1.9,1.6-1.5,2-3.1.3,1.8,5.9c-.2,1.2-.3,2.3-.5,3.5l-1.9,1.8-8.4-6.5-1.6,2.2-.9,3h-3.1l-1.3,2.8-5-2.7c.4,2.3.9,4.7,1.4,7l-5.1-3-.6,4.2-4.1-1.6-2.2,1.5c-.2,1.5-.5,3-.7,4.5l-3.6-.7-1.6,3-5.4-4.7-3.9-2.1c-.4,1.3-.9,2.5-1.4,3.7l-3.8-2.1-2.4,1.5-.9,6.2-5-6.1-2.3,2.2c-.5,1.5-1.1,3-1.7,4.6l-3.1-.5-3.6-2.3-3.4-2.2-2.2,3.8-3.8-5.1-2.1,5.2-3.1-1.3c-.9,1.4-1.7,2.9-2.6,4.4h-3c-1.1-1.6-2.2-3.1-3.2-4.7-1,1.1-1.9,2.2-2.9,3.2l-3-3.9-2.9-1.7-3.1,5.2-2.7-4.3-3,1-2.6-3-3.6,5.3a39.2,39.2,0,0,1-2.5-3.2h-3l-3.8,4c-.6-1.7-1.3-3.3-1.9-4.9l-3.2.9-4.2,3.9-2.3-2.8-2.8-.7-3.6,1.4-.6-7c-.6-.9-1.3-1.8-1.9-2.8l-5.1,5.1-2.3-1.8c-.4-1.6-.7-3.1-1-4.6l-3.8,1.4-2.4-1.4-3.2.3-5.3,3.6,1.2-7.5-4.5,2-4.5,2,1.2-6.8-6.2,4.3-2.3-1.5-2.7-.9-1.8-2.1-2.9-.6-1.5-2.4-4.9,1.6-2.9-.8,3.3-7.6-7.6,4.5.3-4.2-2.1-1.5-3.8.2,2.1-5.6-7.4,3.5-3-.7,3.9-7-4.8,1-4.4.5,2.7-5.6-5.5,1.3c.8-1.6,1.5-3.2,2.2-4.8l-2-1.6-8,3.1,4.5-6.4-3.1-.7-7,2-1.2-2.1,5.2-6.5-3.8-.3.3-3-5.2.5-3.4-.7-2.1-1.5c-.1-.9-.1-1.8-.2-2.6l-3.2-.9-2-1.6,5-5.5-2.8-1.1-1-2-7.4,1.2,6.2-5.8-3.3-.9-7.9,1.3.3-2.8-2.6-1.4,4.4-4.5-.6-2.2a17.4,17.4,0,0,0-.5-2.2l-8.5,1,4.2-4.2,1.9-3.2-4.9-.5-1.1-2c.7-1,1.3-2.1,1.9-3.1l-5-.6-1.3-2,4.4-3.9H77.1l4.3-3.8-1.9-1.7-5.2-.8c.2-.8.3-1.6.5-2.5l-4.1-1.2c.4-.9.8-1.7,1.1-2.6l1.3-2.7-4.9-1.1a27.7,27.7,0,0,0,1-2.6l-2.6-1.7,4-3.3-1.5-1.9,2.8-3-1.8-1.9-1.9-1.8,1.5-2.6a15,15,0,0,0-.2-2.2l-6-1.2,6.1-3.4-3-1.7v-2.2l-4.3-1.6,2.9-2.7-4.8-1.6,2.1-2.6,6.5-3L65.8,251a18,18,0,0,1-1.9-2l3.2-2.6-2.4-1.9L57.1,243l4-2.7,5.7-2.7-3.1-1.9-5.2-1.9-1.8-2.2,8.9-2.7L58.9,227l3.8-2.4,1.1-2.3,2.5-2.3-7.5-2,6-2.4a20.9,20.9,0,0,1-2-2.2l-6-2.2L68.4,209,63,206.7l1.4-2.2L59,202.1c.1-.7.1-1.5.2-2.3l3.8-2.1-3.8-2.4,6.2-2,1.9-2.2L61,188.5l9.9-1.6L63.7,184l8.5-1.5,1.6-2.1L72.4,178l-1.2-2.4L67,172.8l7.7-1.4v-2.3l-4.7-3-.9-2.4,8.5-1.1a14.2,14.2,0,0,1,.7-2.2l-8.1-3.7,9.4-.8-3.4-3,3-1.8L78,148.5l5.8-1.2-3.7-3.2L77.5,141l.6-2.3,6.8-.9,1.5-2,4.5-1.3-8.4-4.8,8.3-.2-4.7-3.9,9,.2c-.5-1-1-2-1.6-3l2.6-1.8-5.5-4.5,9.4.8-5.8-4.9,5.9-.4,1.4-2.1,5-.6-3.5-4.2-1.2-3.3.6-2.6,1.7-2.1,7,.6,1.3-2.2-2.2-4.1,4-.8,3.3-1c-1.2-1.8-2.5-3.5-3.8-5.2,3.3.8,6.5,1.7,9.7,2.7v-3l-3.3-5.2,2.1-1.8,1.6-2.1,7.7,2.1c-.1-1.2-.3-2.3-.4-3.5L130,69.5l5.3.7-.3-3.6c-.5-1.5-.9-3.1-1.4-4.6l8.9,4c.4-.8.9-1.5,1.4-2.3a27.2,27.2,0,0,1,1.1-2.5c-.3-1.4-.5-2.9-.7-4.3l5.3,1.4-3.9-7.7,5.7,2.1,3.9.2c-.5-1.9-1.1-3.8-1.6-5.7l2.9-.8c.3-1.1.5-2.3.7-3.4l2.5-1.3a24.9,24.9,0,0,1,1.1-2.9l5.5,2.8c-.2-1.9-.4-3.7-.7-5.6l4.2,1.2,1.8-2.1,5.4,3.4c-.2-1.9-.4-3.8-.5-5.7L181,35c.2-1.4.3-2.9.5-4.3s.6-2.6.8-3.9l2-2,2.4-1.2,4,2c.2-1.6.5-3.1.7-4.7l3.7,1.8,4.2,3c0-2.1,0-4.3.1-6.4l3.7,2.3c0-2.6-.1-5.1-.1-7.6l3.9,2.9,2.8.2c.1-2.3.3-4.6.5-6.9,1.8,2.8,3.5,5.7,5.3,8.6.6-1.1,1.2-2.1,1.7-3.2h2.7l1.6-3.9h2.6L227,13l1.2-7,3.9,6.7c.5-2.1,1-4.2,1.4-6.3l2.5-.7c1.2,2.1,2.4,4.2,3.5,6.4.6-1.8,1.3-3.5,1.9-5.3s1.3-3.7,1.9-5.6H246c1,2.6,2.1,5.3,3.2,7.9.7-1.7,1.4-3.3,2.2-5l2.4-4,2.6,2.5L259,4l2.6,1c.8-1.3,1.7-2.6,2.6-3.8l2.4,3.7c1-1.3,1.9-2.6,2.8-4l2.5,1.2h2.6c.7,1.4,1.5,2.7,2.2,4s1.5,1.8,2.3,2.6l2.4.9,3.5-7.5,1.5,7.6,2.7-1.2,2.5.8,2.5.2,1.8,3.5,2.3,1.4c1.3-2.1,2.7-4.1,4-6.1.4,2.1.7,4.2,1,6.3l3.9-4.3,2.2,1.7c1.2-1.1,2.4-2.2,3.7-3.2l2.5.9c.4,1.4.8,2.8,1.3,4.3l2.4.9c.3,1.8.5,3.5.8,5.2,1.8-2.2,3.6-4.5,5.5-6.7,0,2.2,0,4.4.1,6.5l4.3-3.2,2.1,1.7c-.4,3-.9,5.9-1.3,8.9l3.9-2.2,5.1-4c-.6,2.9-1.2,5.8-1.7,8.7l6.3-5.9c-.4,2.5-.8,5-1.3,7.4l.9,3.5,4.7-2.5.3,4.3,6.1-4.3c0,1.6-.1,3.2-.1,4.8s-.2,3.3-.4,4.9h3.4c.4.8.9,1.6,1.4,2.4l3.6-.4,4.3-.9,1.5,2.3,2.3,1.4c-.6,2.1-1.3,4.1-1.9,6.1l7.5-4.1c.1,1.2.2,2.4.2,3.6s-.3,2.8-.4,4.2l5.6-1.7c-.2,1.4-.3,2.7-.5,4.1s.9,1.6,1.3,2.4l3.5.4,3,1c-.5,1.5-.9,3.1-1.4,4.6l2.5,1.3,6.2-1.4c-.8,1.8-1.6,3.5-2.5,5.2v3.3l8.5-2.8v3.3c-.1,1.1-.3,2.3-.4,3.4s-.1,2.1-.2,3.2l2.3,1.6,2.2,1.8,4,.6,3.3,1.2c.3.8.5,1.7.8,2.6l2.9,1.4-2.8,4.4,1.8,1.9c-.5,1.2-.9,2.4-1.4,3.5s.9,1.5,1.3,2.2l4.9.6,3.4,1.3-4.3,4.5,9.2-1,1.9,2-7.8,5.7,5.3.7-3.2,3.8,4.1,1.2,1.4,2.1,6.5.5-6.1,4.5h8.2l-2.2,3.2c0,.9.1,1.7.1,2.5l2.5,1.9.3,2.5,3,1.7-.6,2.7-.9,2.7,6.4,1.1-2.2,2.9-2.6,3,4.2,1.6,3.9,1.7-2.7,3-.9,2.5c-.1.8-.3,1.7-.4,2.5a24.1,24.1,0,0,1-.8,2.5l2.5,2-2.7,2.7,8,1.4-4.6,2.9,6.6,1.7,2.4,2.1c-.2.8-.3,1.6-.5,2.5l-6.6,2.9,3.5,2-1.5,2.5-1.3,2.4,1.1,2.2,8.2,2-1.8,2.4c.3.8.5,1.6.8,2.4l-7.2,2.5,5.1,2.2-3.4,2.3,5.4,2.3,4.5,2.4-3.2,2.3-1.2,2.4-4.2,2.2Z" style="fill:#141f21"/><polygon points="145.7 335.9 149.6 333.5 150.6 331.2 146.1 328.5 145.4 325.9 147.1 323.7 149.3 321.5 145.3 318.4 144.4 315.6 149.7 314.2 144.4 310.3 152.9 310.1 150.5 306.9 147.8 303.3 155.1 303.3 151.3 299.2 156.8 298.9 151 293.6 152.7 291.6 154.6 289.7 157.5 288.4 160 287 162.1 285.4 159.9 281.1 161.3 279 160.6 275.5 165.5 275.9 170.6 276.7 171.5 274.4 173.2 272.7 170.3 266.9 173 266 176.1 265.5 174.1 260.1 176.1 258.4 182.3 261.5 181.6 257.1 181.9 253.4 184.9 253.2 186 250.4 190.2 251.8 194.9 254.2 194 248.7 196.9 248.5 197.9 245.6 201 246 201.9 242.5 204.6 242.3 206.9 241.5 207.6 237.3 209.9 236.3 215.2 241.8 216.7 239.2 216.5 232.2 221.7 238.9 223.5 236.6 226.5 238.1 228.3 235.8 230.9 236.3 232 231.2 235.1 233.2 236.3 227.6 240 233.2 242 231 244.8 232.8 246 224.3 248.8 225.5 251.9 231.9 253.7 223.6 256.6 231.8 258.9 227.3 261.4 232.5 263.8 230.6 266.1 231.6 268.5 232.5 271.4 225.9 273.6 229.6 276.1 228.8 278.1 232.3 281.4 227 283.7 228.4 286.7 226.3 289.2 226.9 291.2 229.5 292.3 234.6 294.7 235.2 298.3 231.8 301.3 231.1 301.1 238.8 303.4 239.5 306 239.5 308.9 238.9 312.8 236.4 312.4 242.8 314.5 244 320.2 238.7 318.8 246.2 321.8 245.9 323.1 248.4 325.7 248.8 326.4 252.2 328.4 253.4 335.5 247.9 336.4 250.9 334.5 257.3 340.6 253.8 340.3 258 338.8 263.3 342.2 263.1 347.9 260.8 348 264.3 346.6 269 352.8 266.7 353.1 269.7 356.9 269.8 353.5 275.7 359.7 274.1 361.7 275.8 361.6 278.9 363.3 280.9 360.1 285.8 365.7 285.3 367.2 287.3 365.4 291.2 366.7 293.2 364.2 297.1 370.2 297.1 368.7 300.3 369.5 302.6 376.2 302.9 369.7 307.7 377.8 307.8 372.3 311.9 379.1 312.8 371.9 317 371.8 319.4 377.8 320.8 379.8 323.1 374.4 326.2 379.5 328.3 373.6 331.1 372.2 333.5 377.7 335.9 379.8 338.4 372.1 340.6 379.4 343.5 379.4 346 371.8 347.7 371.5 350.1 374.4 353 377.3 355.9 373.8 357.9 375.8 360.8 372.4 362.6 374.7 365.6 376.7 368.7 371.2 369.9 375.2 373.6 375 376.2 371.5 377.8 366.1 378.6 370.7 382.7 370.4 385.3 367.9 387.1 364 388.3 365.7 391.6 368.3 395.3 367.1 397.5 358.1 396.5 358.6 399.3 364.8 404.8 356.4 403.7 358.6 407.5 357.7 409.8 356.5 411.9 357.4 415.2 354.1 416.3 354.3 419.2 354.9 422.4 354.8 425.3 347 423.7 351.8 429.4 349.6 431 343.9 430.4 345.4 434.3 344.4 436.6 337.8 435.3 342.9 441.7 337.3 440.8 334.2 441.6 335.7 445.8 330.7 445.1 331.3 448.7 328.2 449.3 329.1 453.2 327.9 455.5 323.9 455.2 325.7 460.1 325.9 463.8 320.1 461.7 319.5 464.5 316.3 464.8 315.9 467.9 311 466.3 311.1 470 312.4 475.3 309.6 475.9 306 475.4 304.6 477.6 305.4 483.1 302 482.7 300.1 484.3 296.3 483 296.4 488.2 290.7 483.1 288.9 484.8 288.2 489 287.2 493.1 283.6 491 282.2 494.8 278.6 492 275.3 489.1 273.5 491.9 272.1 498.1 268.9 494.7 265.9 489.6 264.1 498.6 261.4 495.6 258.8 497 256 498.6 253.9 493.9 251.2 495.3 249.2 492.3 247.9 487.6 242.9 496 240.9 493.9 241.2 485.8 238.8 485.5 233 492.4 234.2 484.2 232.1 483.1 226.9 487.2 227.3 481.7 223.5 483.1 223.6 478.5 220.3 478.9 217.7 478.3 218.3 473.4 211.8 477.6 211.1 474.4 212.9 468.6 208.8 469.5 204.7 470.3 206.5 464.8 202.9 465 197.8 466.3 198 462.7 195.6 461.4 197.9 456.1 193.8 456.4 193.8 453.1 194.1 449.7 186.2 452.8 188.4 447.9 188.5 444.7 184.4 444.7 180.8 444.2 180.8 441.1 178.7 439.5 178 436.9 180.5 432.4 175 432.9 172.7 431.3 173.6 427.8 171.7 426 172.1 422.9 170 421.3 168.5 419.2 168 416.7 163.3 416.3 163 413.6 162.3 411.1 162.9 408.1 164.1 404.8 163 402.5 160 401.1 159.5 398.7 156.5 397.2 158.2 393.8 160.9 390.1 153.9 390.1 153.5 387.6 151.2 385.7 151.4 383 155 379.2 153.7 377 151.9 375 147.7 373.6 154.7 369.1 149.4 367.9 152.5 364.6 146.2 363.5 152.2 359.7 143.6 358.8 143.7 356.2 148.4 353 147.9 350.5 141.4 348.8 149.1 345.5 146.3 343.3 144.8 340.9 140.8 338.5 145.7 335.9" style="fill:#604e15"/><polygon points="193.5 391.8 189.6 389.2 191.8 386.9 186.8 383.7 188.1 381.3 196.9 380.5 194.8 377.6 193.1 374.5 191 371.2 193 369.2 199.8 369.4 199.6 366.7 200.8 364.6 199.6 361.2 203.8 360.9 202.9 357.5 201.9 353.6 205.6 353.4 206.2 350.6 209.4 350.2 213.4 350.7 208.7 342.3 211 340.9 217.5 344.7 217.3 340.5 219.7 339.7 219.6 335 223.5 336.4 224.6 333.2 229.9 337.9 228.5 329.5 234.2 336 235.3 332.4 238.5 334.2 238.9 327.8 242.6 331.3 243.1 323.9 247.5 331.4 248.3 322.9 252.2 331.2 254.1 327.4 256.2 322.7 258.9 325.1 261.4 327.7 263.7 329.7 266.3 326.5 268.4 329.9 271.2 326.8 272.9 331.7 275.3 331.2 278.7 327.5 282 325.3 282 333.6 284.4 333.8 286.5 334.8 288.7 335.6 290.4 337.4 292.8 337.9 296.4 336.3 298.3 338 302.6 335.8 302.4 340.5 306.9 338.6 308.1 341.3 310.5 342.4 310.5 346.1 312.7 347.3 315.9 347.8 319.2 348.3 316.1 354.2 321.9 352.8 317 359.4 321.3 359.5 324.6 360.3 325.2 362.9 328.8 363.9 324.5 368.7 331.8 368.3 332.7 370.8 328.9 374.8 333.3 376.2 334.8 378.5 331.4 381.8 335.6 383.8 327.9 387.1 327 389.5 329.1 391.8 333.2 394.3 335.5 397 334.1 399.4 332 401.7 326.8 403.4 327.8 406 327.2 408.3 333.4 412.3 325.9 412.9 325.3 415.3 323.4 417.2 325.3 420.4 321.5 421.6 324.6 425.3 322.8 427.3 319.4 428.5 321 431.9 319.1 433.7 316.2 435 316.6 437.9 313.7 439.1 318.7 444.6 318.4 447.3 313.8 447.5 311.5 449 309.4 450.6 311 454.6 310.4 457.2 308.3 458.8 303.3 458.1 307.7 464.7 301.4 462.8 299.3 464.2 296.7 465.1 296.1 467.8 298.7 473.9 297.4 476.3 290.6 472.4 291.5 477.3 290.2 479.8 289.4 483 282.2 476.9 280.2 478.2 279.1 480.8 279.5 487.1 277.6 489.4 272.6 483.6 271.9 489.5 268.2 484.9 266.6 489.6 264 490.1 261.4 486.9 259.2 484 256.3 489 254.5 485.2 251.1 488.5 249 486.9 246.6 486 244.7 484.3 240.9 486 242.8 477.7 240.6 476.9 236.6 478.5 234 477.9 229.6 479.4 233.2 471.3 231.9 469.3 228.2 469.7 227.8 466.7 222.8 468.1 219.5 467.7 217.9 465.7 217.8 462.6 215.1 461.4 218.9 455.5 213.1 456.7 212.8 453.9 210.8 452.2 206.4 452.1 204.7 450.1 209.9 444.2 206.4 443.3 202.9 442.4 207 437.5 207.2 434.7 201.2 434.8 201.6 431.9 199.2 430.3 203.2 426 198.2 425.4 195.6 423.7 199.3 419.8 200.3 416.9 196.5 415.6 198.2 412.6 189.3 412.4 188.9 409.8 194.8 406 196.5 403.3 192.8 401.4 191 399.2 186.7 397 186.3 394.4 193.5 391.8" style="fill:#725f17"/><polygon points="127.4 153.9 132 151.8 125.3 149.6 128.4 147.5 125.7 145.3 131.7 143.6 129.6 141.3 129.5 139.2 128 136.9 131.4 135.2 128.8 132.7 131.3 131 132.5 129.1 131.1 126.7 132.9 124.9 132.9 122.8 134.1 121 131.3 118 132.2 116.1 137.1 115.4 137.8 113.4 137.6 111.2 133.3 107.4 139.3 107.4 135.6 103.7 139.9 103.2 138.2 100.2 141.3 99.2 140 96.3 141 94.4 145.8 94.5 141.2 89.7 144.7 89.2 145.8 87.4 145.7 84.9 150.9 85.6 148.1 81.4 152.3 81.6 153.7 80.1 155.9 79 153.4 74.7 155.7 73.8 157.1 72.2 160.8 72.5 159.9 69.1 159.2 65.8 162.6 65.9 161.2 61.8 167.3 64.5 165.6 60.1 166.4 58 168.7 57.3 170.3 55.8 172.3 54.9 174.3 54 176 52.7 174.6 47.9 180.1 51.2 182.3 50.6 181.1 45.7 181.4 42.7 183.1 41.4 185.2 40.7 188.1 41.1 188.6 37.9 193.4 41.4 193.7 38 194.7 35.6 197.6 36.5 201 38.1 201.5 34.8 202.5 32.2 205.6 33.7 205.6 29.1 209.1 31.4 209.2 26.6 211.7 27 212.7 23.9 216.9 28.5 217.9 25.3 219.3 23.1 223.2 28 225 26.8 226.5 24.8 227.4 20.3 230.8 24.6 231.8 20.4 233.9 19.7 236.2 20.5 238.9 23.3 240 18.2 242.6 20.6 243.9 15.4 246.3 16.7 248.5 17.2 250.8 19.2 253 20.1 255 19.4 256.9 15.6 259.1 18.6 261.2 18.6 263.3 20.6 265.5 16.7 267.6 16.3 269.7 16.6 272 15.1 274 16.9 275.6 20.7 277.7 20.8 280.4 16.9 282.3 18.7 284.8 17.1 286.4 20 287.6 24 290.2 22 291.5 25.3 295.3 19.4 297.1 21 299.1 21.8 300.8 23.2 302.7 24.2 305.4 23.1 306.9 25.1 306.9 30.8 309.1 30.8 310.8 32 312.9 32.4 315.1 32.6 316.4 34.5 320.8 30.7 320.7 35.2 324.2 33.3 324.8 36.4 325.2 39.8 328.5 38.4 332.2 36.7 330.7 42.7 335.5 39.4 334.6 44.4 339.3 41.5 339.3 44.9 340.4 47 344.3 45.5 342.5 51 344.4 51.9 345.4 53.9 348.3 53.8 348.2 57 350.6 57.5 354.2 56.8 353.9 60 357.9 59.2 356.2 63.6 359.5 63.4 358.1 67.5 362.7 66.3 365.7 66.6 363.6 71 364.8 72.6 369.7 71.6 369.6 74.3 369.5 77 371.5 78.2 372.4 80.1 372.5 82.5 376 82.8 375.2 85.8 376.1 87.7 375.8 90.3 378.4 91.2 378.7 93.5 376.9 96.7 379.3 97.8 382.7 98.5 385.4 99.7 384.8 102.2 384.3 104.7 386.3 106.2 387.6 108 383.5 111.7 387.1 112.6 389 114.2 388.1 116.7 388.2 118.8 386.2 121.5 388.4 123.1 393.7 124 391.6 126.7 389.2 129.3 393.9 130.5 395 132.5 390.1 135.4 389.8 137.5 392.6 139.2 393.7 141.2 392.4 143.5 395.4 145.3 390.6 147.7 391.8 149.7 396.2 151.7 396.1 153.9 391.6 155.9 396.5 158.1 390.9 160 392 162.2 396.5 164.6 396.5 166.7 393 168.6 394.2 170.8 390.6 172.5 389.4 174.4 395.7 177.4 391.5 178.9 389.7 180.8 392.6 183.4 392 185.4 390.4 187.3 387.7 188.9 387.9 191.1 389.3 193.5 385.1 194.7 385.5 197 390.3 200.3 387.2 201.7 383.3 202.8 387.9 206.3 387.2 208.3 386.5 210.3 387 212.6 381.9 213.3 383 215.8 378.9 216.7 385.2 221 378.8 221.1 377.7 222.9 377.4 225 382.1 228.9 377.7 229.6 380.6 232.9 377.9 234.1 379.3 237 375.9 237.9 372.7 238.9 372 240.8 372 243.1 373.2 245.9 369.4 246.6 372.1 250.1 372.1 252.4 370.6 254.1 366.3 254.3 368.1 257.5 367.9 259.8 367.9 262.2 367 264.1 362.6 264.2 359.5 265 363.2 269.3 363.2 271.8 361.2 273.1 359 274.3 355.7 274.9 357.3 278.2 352.9 278.1 350.5 279.1 355.8 284.8 353.9 286.1 350.7 286.5 350.7 289.1 351.1 291.9 346 291 343.5 291.9 343.7 294.6 344.5 297.7 345 300.6 342.6 301.5 341.2 303.2 339.9 304.9 338.9 306.8 337.2 308.2 333 307.4 334.1 311.1 329.8 310.2 331.2 314.2 327.5 313.7 326.6 315.8 325.4 317.5 324.2 319.2 324.5 322.5 319.9 320.8 318 321.8 317.4 324.3 315.9 325.7 318.1 331.3 315.9 332 312.1 330.9 312.5 334.7 308.3 332.8 309 337.2 303.7 333.6 304.1 337.6 300.6 336.3 299.2 337.9 300.2 343.4 297.7 343.3 295.6 344 291.9 341.6 292.5 347.3 289.2 345.3 286.3 343.9 286.1 348.8 284.1 349.5 281.7 349 280 350.7 276.9 347.6 275.6 350.4 273.4 350.2 271.2 349.2 270 355.2 267.7 354.2 265.2 349.3 263.3 352.3 261.2 355.8 259 356.4 257.3 349.5 254.9 353.4 252.9 352 250.7 352.7 249.2 349.5 245.8 354.6 244.3 352 242 352.2 241.1 348 237.8 350.9 235.8 350.2 234.9 346.9 233.4 345.1 230.7 345.8 229.4 343.8 225.6 346.2 226.6 340.3 223.1 342.1 222.3 339.4 221.5 336.8 216.2 340.8 217.2 335.7 216.3 333.4 214.5 332.4 213.4 330.5 209.2 332.3 207.8 330.7 206.8 328.6 203.5 329 204.5 324.8 204.1 322.2 202.2 321.3 198.3 322.2 200.1 317.5 196.8 317.7 195.3 316.3 193.4 315.1 190 315.3 193 310 190.1 309.7 188 308.7 184.2 309.1 186.3 304.6 183 304.6 181.6 302.9 178.9 302.3 178.3 300.1 180.7 295.8 177.5 295.5 177.6 292.9 176.1 291.3 176.3 288.7 174.2 287.6 174.4 284.9 168.7 286.1 172.8 281 169.9 280.4 169.8 277.9 166.5 277.5 162.3 277.4 161.3 275.6 166.8 270.1 160 271.4 158.7 269.7 162.8 265.1 162.1 263.2 159.4 262.2 155.8 261.6 159.2 257.6 157.7 256 151.5 256.6 151.4 254.3 150.8 252.3 149.2 250.6 152.3 246.9 153.1 244.3 146.8 244.7 150.1 241.1 149.6 239 148.8 237 149 234.7 144 234.4 144.7 231.9 144.8 229.6 142.2 228.3 145.7 224.8 143.3 223.4 137.8 223.1 139.4 220.3 141.1 217.5 136.9 216.7 141.1 213.1 135.2 212.7 137.8 209.8 133.8 208.7 138.9 205.1 134.3 204.2 138.8 200.8 135.5 199.5 136.6 197 136.8 194.9 135 193.1 136.2 190.7 131.6 189.6 134.6 186.8 129.1 185.7 128.4 183.7 133 180.8 128.3 179.4 131.2 176.8 128.8 175 127.2 173.1 127.7 170.9 126.6 168.8 132.4 166.2 129.9 164.3 125.7 162.5 128.2 160.2 125.6 158.2 127.3 156 127.4 153.9" style="fill:#070a0a"/><path d="M169.1,120.9c0-52.2,44.6-94.4,92.1-94.4s92.1,42.2,92.1,94.4-44.6,138.3-92.1,138.3S169.1,173,169.1,120.9Z" style="fill:#1c292d"/><path d="M349.5,354.2c0,45.4-42.7,82.3-88.1,82.3s-88.1-36.9-88.1-82.3,42.6-120.6,88.1-120.6S349.5,308.7,349.5,354.2Z" style="fill:#364449"/><path d="M261.4,354.2l36.8-8.5C330.5,318.4,343,206,343,206c-36.7-2.4-81.6-65.6-81.6-65.6h0s-45.9,62.7-82.6,65.1c0,0,13.5,112.9,45.7,140.2l36.9,8.5Z" style="fill:#253035"/><path d="M236.8,287.3l-37-58.3a33.7,33.7,0,1,1,33.7-33.7Z" style="fill:#77aed3"/><path d="M232.6,292.4,225,239.6c-2.3-8.3-4.1-16.7-5.9-25.1a25.6,25.6,0,1,0-25,31.1Z" style="fill:#83b9d6"/><path d="M228.4,296.1l-11.6-38.4c-1.5-5.3-2.6-10.7-3.8-16a16.3,16.3,0,0,0-16.6-12.9,16.5,16.5,0,0,0-15.7,15.7,16.3,16.3,0,0,0,16.3,17Z" style="fill:#8cc7e0"/><path d="M166.1,196.5c-2.8-22.8,19-40.7,40.9-35.9,15.1,2.9,27.2,16.9,26.8,32.5a19.5,19.5,0,0,1-.3,3.4,32.3,32.3,0,0,0-.6-3.3c-3.2-15.6-17-27.7-33.1-27.5s-31.5,13.6-33.7,30.8Z" style="fill:#589abf"/><path d="M219.1,214.5c-6.1-18.1-28.6-24.5-42.5-11.1a27.8,27.8,0,0,0-8.1,15.6,22.8,22.8,0,0,1,1.3-9.3,24.3,24.3,0,0,1,4.8-8.2c14.3-16.3,41.8-8.6,44.5,13Z" style="fill:#589abf"/><path d="M213,241.7c-3.6-11.9-18.4-16.1-27.3-7.3a17.1,17.1,0,0,0-5,10.1,15.6,15.6,0,0,1,4-11c9.1-10.2,26.4-5.4,28.3,8.2Z" style="fill:#589abf"/><path d="M287.8,287.3l37-58.3a33.7,33.7,0,1,0-33.7-33.7Z" style="fill:#77aed3"/><path d="M292.1,292.4l7.6-52.8c2.2-8.3,4-16.7,5.9-25.1a25.6,25.6,0,1,1,25,31.1Z" style="fill:#83b9d6"/><path d="M296.3,296.1l11.6-38.4c1.4-5.3,2.6-10.7,3.7-16a16.3,16.3,0,1,1,16,19.8Z" style="fill:#8cc7e0"/><path d="M358.5,196.5c-2.2-17.2-16.2-30.9-33.7-30.8s-29.9,11.9-33.1,27.5a32.3,32.3,0,0,0-.6,3.3c-.2-1-.2-2.4-.3-3.4-.4-15.6,11.7-29.6,26.9-32.5,21.9-4.8,43.7,13.1,40.8,35.9Z" style="fill:#589abf"/><path d="M305.6,214.5c2.6-21.7,30.2-29.3,44.4-13a24.5,24.5,0,0,1,4.9,8.2,22.8,22.8,0,0,1,1.2,9.3,27.2,27.2,0,0,0-8.1-15.6c-13.9-13.4-36.4-7-42.4,11.1Z" style="fill:#589abf"/><path d="M311.6,241.7c1.9-13.6,19.3-18.4,28.3-8.2a14.8,14.8,0,0,1,4,11,17.1,17.1,0,0,0-5-10.1c-8.9-8.8-23.6-4.6-27.3,7.3Z" style="fill:#589abf"/><ellipse cx="261.4" cy="237.3" rx="29.4" ry="84.8" style="fill:#ad1e04"/><path d="M228.4,296.6c19.2-5.5,23.8-147,23.8-147a9.2,9.2,0,1,1,18.3,0s4.6,141.5,23.9,147l-33,30.2Z" style="fill:#d44031"/><path d="M242.9,297.5c10.8-5.3,13.3-142.8,13.3-142.8,0-4.9,2.3-8.9,5.2-8.9s5.1,4,5.1,8.9c0,0,2.5,137.5,13.3,142.8l-18.4,29.3Z" style="fill:#fa776e"/><path d="M260.7,321.5a25.4,25.4,0,1,1,50.8,0,50.1,50.1,0,0,1-100.2,0,25.4,25.4,0,0,1,50.8,0" style="fill:#af1611"/><path d="M226.7,306.8A20,20,0,0,0,212,326.1h0c-.6,22,40,31,40,31V326.1S226.7,328.1,226.7,306.8Z" style="fill:#962106"/><path d="M252,326.1a20.1,20.1,0,0,0-20-20,23.3,23.3,0,0,0-5.3.7C226.7,328.1,252,326.1,252,326.1Z" style="fill:#7d0016"/><path d="M296.7,306.8a22.5,22.5,0,0,0-5.2-.7,20.1,20.1,0,0,0-20.1,20S296.7,328.1,296.7,306.8Z" style="fill:#7d0016"/><path d="M296.7,306.8c0,21.3-25.3,19.3-25.3,19.3v31.1s40.6-9,40.1-31h0A20.1,20.1,0,0,0,296.7,306.8Z" style="fill:#962106"/><path d="M252,121.3a38.5,38.5,0,1,1-77,0l37-15.9Z" style="fill:#2b363a"/><path d="M252,112.7a38.5,38.5,0,0,1-77,0l37-10.1Z" style="fill:#364449"/><path d="M232.6,124.2a22.1,22.1,0,0,1-44.2,0h0a55.9,55.9,0,0,1,42.7-.6Z" style="fill:#1c292d"/><circle cx="212.1" cy="137" r="9" style="fill:#725f17"/><path d="M205.4,143a9,9,0,0,1,.7-12.7,8.9,8.9,0,0,1,12.6.7" style="fill:#604e15"/><path d="M271.4,121.3a38.5,38.5,0,1,0,77,0l-36.9-15.9Z" style="fill:#2b363a"/><path d="M271.4,112.7a38.5,38.5,0,0,0,77,0l-36.9-10.1Z" style="fill:#364449"/><path d="M290.9,124.2a22.1,22.1,0,1,0,44.1,0h0a55.7,55.7,0,0,0-42.6-.6Z" style="fill:#1c292d"/><circle cx="311.4" cy="137" r="9" style="fill:#725f17"/><path d="M318,143a8.9,8.9,0,0,0-.6-12.7,9,9,0,0,0-12.7.7" style="fill:#604e15"/><path d="M360.5,127.4l-.8-.3-24.4-9.4A62,62,0,0,0,297,116l-34.3,9.8a6.1,6.1,0,0,1-2.7,0L225.7,116a61.6,61.6,0,0,0-38.2,1.7l-20.3,7.8a26.2,26.2,0,0,1,3.5,11.8,23.2,23.2,0,0,1-.7,5.9l23.7-9.1a43.9,43.9,0,0,1,27.3-1.2l34.2,9.8a23.3,23.3,0,0,0,12.3,0l34.3-9.8a43.6,43.6,0,0,1,27.2,1.2l24.2,9.3A22.1,22.1,0,0,1,360.5,127.4Z" style="fill:#141f21"/><path d="M166.1,132.7a8.8,8.8,0,0,1-8.2-5.6,8.9,8.9,0,0,1,5.1-11.4l24.5-9.3a60.2,60.2,0,0,1,38.2-1.7l34.3,9.7a4.2,4.2,0,0,0,2.7,0l34.3-9.7a60.5,60.5,0,0,1,38.3,1.7l24.4,9.3a8.8,8.8,0,0,1,5.1,11.4,8.7,8.7,0,0,1-11.3,5L329,122.8a42.9,42.9,0,0,0-27.2-1.2l-34.3,9.7a21.5,21.5,0,0,1-12.3,0L221,121.6a43.2,43.2,0,0,0-27.3,1.2l-24.4,9.3A9.1,9.1,0,0,1,166.1,132.7Z" style="fill:#46575b"/><path d="M204.5,120.2c-5.3,1-10.2,3.1-15.2,5.2s-10.6,4.3-15.1,6.1l-3.8,1.4a9,9,0,0,1-4.3.9c-10.5-.3-13.2-14.7-3.1-18.1-7.9,4-5.8,15.8,3.1,15.9a10.5,10.5,0,0,0,3.5-.8l3.8-1.5,15.2-5.6c5.1-1.8,10.4-3.5,15.9-3.5Z" style="fill:#2b363a"/><path d="M301.8,121.6c-9.9,3.4-19.9,6.5-29.9,9.5-1.9.5-4.2,1.4-6.1,1.8a24.4,24.4,0,0,1-6.6.3,27.1,27.1,0,0,1-6.3-1.3l-24-7.1c-3.5-1.1-8.5-2.8-12-3.6a46.6,46.6,0,0,0-12.4-1,41,41,0,0,1,12.6-.1c3.6.5,8.7,2,12.3,2.9,7,1.8,17.1,4.6,24.1,6.6a25,25,0,0,0,5.9,1.3c4.1.5,8.1-.7,12-1.7,10.1-2.7,20.2-5.3,30.4-7.6Z" style="fill:#2b363a"/><path d="M359.7,115.7c7.9,2.5,8.3,13.3,1.1,16.9a9.6,9.6,0,0,1-8.1.4l-2.4-.9c-7-2.5-16.9-6.5-23.7-9.1a47.5,47.5,0,0,0-24.8-1.4,40.6,40.6,0,0,1,27.9.3l21.4,8.1,2.3,1a8.1,8.1,0,0,0,11.4-7.4,8.9,8.9,0,0,0-5.1-7.9Z" style="fill:#2b363a"/><path d="M349.5,359.4c1.9,26.6-70,23-88.1,23.6-22.3-.4-58.7.7-78.3-9-5.6-2.8-10.5-7.9-9.8-14.6.9,13,17.7,15.3,28,16.7,23.7,2.5,48.3,1.3,72.2,1.6,15.8,0,32.3.2,48-1.6,10.3-1.4,27-3.8,28-16.7Z" style="fill:#77aed3"/></g></g></svg>