<svg xmlns="http://www.w3.org/2000/svg" viewBox="0 0 367.8 490"><g id="Livello_2" data-name="Livello 2"><g id="Livello_1-2" data-name="Livello 1"><polygon points="361.7 254.3 360.3 258.5 361.7 262.7 363 266.9 359.9 270.9 364.2 275.5 359.3 279.2 359 283.3 361.3 287.9 361.9 292.3 355.6 295.4 358.6 300.3 359.1 304.7 353.3 307.6 358.6 313.4 357.8 317.6 349.1 319.4 350.9 324.3 349.1 328.1 349.9 332.9 346 335.9 346.6 340.6 347.3 345.4 339.7 346.9 339.8 351.4 341.3 356.7 338 359.8 338.9 364.9 335.7 368 332 370.9 334 376.7 325.1 376.7 324.4 381.1 326.5 387.2 323.9 390.5 322.8 394.8 321 398.7 315.4 400.1 310.3 401.7 310.7 407.1 311.2 412.7 309.7 416.8 299.8 414.6 298.6 418.9 296.4 422.5 292.1 424.3 290 428 286.5 430.4 285.5 435.1 282.1 437.6 280.8 442.3 280.8 448.4 277.7 451.4 269.8 448.8 268.3 453.5 262.5 452.9 262 459.1 256.7 458.9 253.9 462.3 248.7 461.8 247.9 468.3 245.3 472.3 240.1 471.6 235 470.7 234 478.5 227.9 474.9 224.7 478.1 220 477.3 216.3 479.2 212.5 480.9 208.8 483.5 205.4 487.9 200.6 485 196.8 488.2 192.5 488.8 188.3 490 183.9 488.8 179.7 487.7 175.7 484.2 170.9 489.8 166.8 487.8 163.3 483.5 159.8 480.3 155.6 480 150.7 482 148.2 476.4 142.5 479.9 140.6 473.6 133.2 479.9 130 476.7 125.4 476.1 125.7 466.7 121.9 465.1 118.7 462.5 113.4 463.1 110.2 460.4 107 457.7 100.6 459 102.3 450.2 96.2 451 92.4 448.9 87 448.5 89.6 439.6 83.6 439.8 80.5 436.9 75.8 435.5 73.3 432 69.7 429.5 66.9 426.3 68 420 62.9 418.6 64 412.5 57.4 412.2 56.2 407.8 58.6 401 52.4 400.2 48.2 397.9 46.8 393.8 45.9 389.4 41.3 387.2 42.3 381.8 40.3 378.1 36.2 375.5 37.6 370.1 35.5 366.4 33.1 363 30.7 359.5 26.5 356.7 26.7 352.1 28.2 346.9 21.5 345.1 23.2 339.9 23.3 335.4 15.2 333.8 13.3 330 13.9 325.3 12.9 321.2 15.4 316 15.6 311.7 14.5 307.7 10.8 304.3 8.7 300.4 4.3 297 5.6 292.4 11.6 287.1 3.2 284.2 7 279.4 6.6 275.2 0.5 271.5 8.8 266.7 5.5 262.7 3.8 258.6 1.2 254.3 0 250.1 9.1 246.2 1 241.6 6.9 237.7 1.9 233.1 3.9 229 7 225.2 4.3 220.5 9.6 217.1 6.5 212.3 11.9 209.1 9.1 204.3 6 199.3 9.5 195.7 15.5 192.9 14.2 188.2 17.7 184.9 17.8 180.5 14.3 175.1 16.4 171.4 16.1 166.8 22.3 164.5 19.7 159.1 25.6 156.8 20.7 150.5 22.9 146.8 26.9 143.8 31.2 141.1 34.7 138 32.1 132.3 32.6 127.9 36.9 125.3 37.9 121.1 42.3 118.6 39.9 112.7 45 110.6 44.9 105.8 46.8 102 46.1 96.8 55.4 97.3 52 90.4 53.5 86.3 62.7 87.3 63.4 82.7 61.9 76.7 69.4 76.8 68.3 70.8 71 67.7 73.9 64.6 73 58.4 81.9 60.4 81.6 54.7 85 52 90.2 51.2 90 45.3 93.8 43.1 93.5 36.6 99.2 36.5 103.8 35.5 105.8 31.4 106.5 25.4 114.3 28.8 117.1 25.7 118.9 20.7 124.3 21.6 125.2 14.7 128.7 12.2 135.1 15.5 139.4 15.2 142 10.5 146.1 9.7 149.7 7.2 154.7 9.8 157.8 5.1 162.7 8.5 166.5 6.6 170.7 7.7 174.4 2.2 178.7 6.2 183 0 186.9 5.6 191.1 5.4 195.9 1.9 199.6 5.3 202.6 10.6 207.6 8.1 210.2 13.2 215.9 9.7 220.3 10 224.6 11 228.5 12.8 232.9 13.7 234 20.4 236.7 23.9 244.5 19.6 247 23.5 246.7 31.2 253.1 29.8 255.6 33.3 258 37.1 260.9 40.1 263.6 43.3 268.6 44.1 268.7 50 275.9 48.8 275.4 55.1 282.3 54.4 280.8 61.4 285.8 62.7 290.2 64.5 289.5 70.5 293.5 72.7 297.9 74.6 295.8 81.4 303.2 81.2 307 83.7 309.6 87.1 307.6 93.5 314.4 94.2 316.2 98.1 312.9 105.1 316.8 107.6 320.8 110.1 321.8 114.4 324.2 117.9 325.6 121.9 327 126 330.8 128.8 329.9 133.9 337.8 134.8 333 141.7 338.8 143.7 341 147.4 336.1 154 337.6 157.9 340.5 161.2 341.2 165.4 342.1 169.5 351.9 170.5 349.4 175.9 346.6 181.2 354.7 183.1 355.5 187.2 355.1 191.8 358.5 195.2 353.4 200.9 353.9 205.1 358.8 208.3 362.6 211.8 363.7 216 363.2 220.4 363.4 224.6 361.7 229.2 364 233.2 365.4 237.3 367.8 241.4 361.9 246 367.3 250 361.7 254.3" style="fill:#7c3f03"/><polygon points="342.1 241.2 340.8 245.3 342 249.5 343.2 253.8 340.3 257.7 344 262.3 339.6 265.9 339.2 270 341.1 274.6 341.5 278.9 335.7 282 338.2 286.8 338.5 291.2 333.1 294.1 337.6 299.7 336.7 303.9 328.8 305.7 330.1 310.6 328.3 314.3 328.7 318.9 325 322 325.2 326.6 325.5 331.3 318.5 332.7 318.2 337.2 319.3 342.3 316 345.3 316.4 350.3 313.2 353.3 309.6 356.1 310.9 361.8 302.7 361.7 301.7 365.9 303 371.8 300.3 375 298.9 379.2 296.8 382.9 291.5 384.2 286.6 385.6 286.3 390.7 286.1 396.1 284.1 400 275.3 397.6 273.6 401.7 271.1 405 266.7 406.5 264.3 409.9 260.6 411.9 259 416.3 255.3 418.4 253.4 422.7 252.3 428.4 248.8 430.9 241.8 427.9 239.5 432 234.1 430.8 232.4 436.5 227.4 435.6 224 438.3 219.2 437 216.9 442.8 213.4 445.9 208.6 444.4 204 442.6 201 449.1 196.1 444.7 192.2 446.8 188 444.9 183.9 445.6 179.8 446.1 175.6 447.3 171.1 450 167.4 446.1 162.8 447.7 158.6 446.8 154.3 446.5 150.5 444.1 146.9 441.8 144.1 437.6 138.1 440.8 134.8 437.8 132.6 433 130.1 429.1 126.2 427.5 121.2 427.7 120.1 422 114 423.3 113.5 417.2 105.3 420.6 103 416.8 98.9 415 100.9 406.7 97.7 404.1 95.1 400.9 90.1 399.9 87.5 396.6 85 393.3 78.9 392.9 81.8 385.2 76.1 384.4 72.9 381.5 68.1 379.8 71.7 372.2 66.1 371 63.7 367.5 59.7 365.1 57.8 361.3 54.9 358.1 52.8 354.4 54.6 348.7 50.1 346.3 51.9 340.7 46 338.9 45.5 334.5 48.5 328.6 43.1 326.4 39.6 323.3 39 319 38.7 314.6 35 311.5 36.6 306.5 35.4 302.6 32.2 299.2 34.2 294.3 33 290.3 31.4 286.4 29.8 282.5 26.7 278.9 27.6 274.4 29.9 269.8 24.4 266.5 26.9 261.9 27.9 257.6 21.3 254 20.5 249.8 22.1 245.5 22.3 241.2 25.8 237.1 27.2 233 27.4 228.8 25.2 224.4 24.5 220.1 21.9 215.6 24.4 211.6 31 208.4 24.8 203 29.4 199.6 30.4 195.5 26.3 190.3 34.8 187.9 33.1 183.2 32.8 178.8 31.8 174.1 31.9 169.7 40.8 168.1 35.1 161.8 41.2 159.4 38 153.8 40.8 150.3 44.5 147.2 43.3 142.2 48.8 139.9 47.3 134.7 52.8 132.5 51.6 127.4 50.1 122 54.1 119.2 60.1 117.5 60.1 112.8 64.2 110.2 65.3 106.1 63.7 100.2 66.6 97 67.5 92.6 73.7 91.6 72.9 86 78.8 84.9 76.3 77.9 79.4 74.9 83.9 73 88.5 71.3 92.6 69.2 92.2 63.3 94.1 59.4 98.8 58 101.2 54.4 106 53.3 106.1 47.3 111.4 46.9 113.3 42.6 116.5 39.8 118.2 35 125.9 38.6 126.3 31.4 129.6 28.5 136.8 32.9 139.6 29.4 141.7 23.9 147.7 27.4 150.2 22.3 154.3 21.3 158.5 20.5 161.8 15.5 167.2 21.9 170.8 17.9 175.1 18.3 179.3 21.1 183.5 17.4 187.6 18.7 192.4 14.8 196.1 18.9 199.8 21.7 204.3 21.2 209.6 18.8 211.3 26.4 215.5 27.2 220.5 26.3 222.8 31.1 228.9 28.7 232.8 30.5 233.8 37.1 236.5 40.5 241.6 40.4 244.7 43.4 248.7 45.1 249.7 50.5 255.1 50.6 255.7 56.2 259.5 58.2 261.4 62.2 267.7 61.9 267.9 67.5 274.9 66.8 274.1 73.2 277.3 76 282.9 76.9 283.6 81.7 282.9 87.5 288.1 88.8 287.6 94.3 293.8 95.2 297.1 98.1 300.1 101.2 302.4 104.8 305.5 107.9 303.5 114 304.4 118.3 312.5 118.7 313 123.2 309.9 129.6 315.7 131.4 316.5 135.7 317.1 140.1 318.6 144 319.8 148.1 323.6 151 321.8 156.3 328.2 158.3 325.7 163.8 331.8 166.1 328.3 171.8 332 175 335.1 178.4 332.6 183.6 335.3 187.2 338.3 190.8 334.3 196.1 340.6 199 342.9 202.9 343.9 207 340 212 345.3 215.5 345.4 219.8 340.2 224.6 342.3 228.7 344.5 232.7 343.6 237 342.1 241.2" style="fill:#603300"/><path d="M292.5,145.9a25.3,25.3,0,1,1,10.1,49.5" style="fill:#705441"/><path d="M75.3,145.9a25.3,25.3,0,1,0-10,49.5" style="fill:#705441"/><path d="M307.7,224.5c0,67-55.4,160.1-123.8,160.1S60.2,291.5,60.2,224.5,112,51.3,180.3,51.3,307.7,157.4,307.7,224.5Z" style="fill:#47392e"/><path d="M296.8,196.3c0,61.1-50.6,188.3-112.9,188.3S71.1,257.4,71.1,196.3,117.6,65.9,179.9,65.9,296.8,135.2,296.8,196.3Z" style="fill:#382d25"/><path d="M285.2,179.2s-14.7,30.4-40.1,35.9-51.9-16.2-51.9-16.2S208,168.5,233.4,163,285.2,179.2,285.2,179.2Z" style="fill:#5b4638"/><path d="M271,174.7s-10.7,22.1-29.1,26.1S204.3,189,204.3,189s10.7-22,29.1-26S271,174.7,271,174.7Z" style="fill:#382d25"/><path d="M305.3,224.5a125.3,125.3,0,0,1-2,31.7,170.8,170.8,0,0,1-8.7,30.7,186.3,186.3,0,0,1-14.1,28.7,144.1,144.1,0,0,1-19.2,25.3A276.1,276.1,0,0,0,277.7,314a253.4,253.4,0,0,0,13-28.6,236.2,236.2,0,0,0,9.5-29.9A213.2,213.2,0,0,0,305.3,224.5Z" style="fill:#382d25"/><path d="M259.5,171.2s-7.4,15.3-20.2,18-26.1-8.1-26.1-8.1,7.4-15.3,20.2-18.1S259.5,171.2,259.5,171.2Z" style="fill:#211a16"/><ellipse cx="183.9" cy="322.1" rx="87.5" ry="107.4" style="fill:#382d25"/><ellipse cx="183.9" cy="322.1" rx="77.4" ry="107.4" style="fill:#47392e"/><path d="M184.1,287.7c6.6-.3,16.6-3.4,21.7-7.1l33.3-39.8c-11-22.8-44.3-40.9-44.3-40.9,0-5.3-4-9.5-10.7-9.5s-10.6,4.2-10.6,9.5c0,0-33.3,18.1-44.3,40.9l33.2,39.8C167.6,284.3,177.6,287.4,184.1,287.7Z" style="fill:#5b4638"/><path d="M190.7,199.6c0-4.9-2.8-8.9-6.4-9.2h-.4c-3.5.3-6.3,4.3-6.3,9.2,0,0,6.5,88.1-16.4,80.5,5.1,6.3,14,9.4,22.9,9.4v0c9,0,17.9-3.1,23-9.4C184.1,287.7,190.7,199.6,190.7,199.6Z" style="fill:#705441"/><ellipse cx="235.6" cy="176.1" rx="11.2" ry="10.9" style="fill:#7c3f03"/><path d="M245.3,170.7a10.9,10.9,0,0,1-4.1,14.9,11.4,11.4,0,0,1-15.3-4" style="fill:#99500e"/><path d="M82.1,179.2s14.8,30.4,40.2,35.9,51.8-16.2,51.8-16.2-14.8-30.4-40.2-35.9S82.1,179.2,82.1,179.2Z" style="fill:#5b4638"/><path d="M96.3,174.7s10.8,22.1,29.2,26.1S163,189,163,189s-10.7-22-29.1-26S96.3,174.7,96.3,174.7Z" style="fill:#382d25"/><path d="M107.8,171.2s7.5,15.3,20.2,18,26.1-8.1,26.1-8.1-7.4-15.3-20.2-18.1S107.8,171.2,107.8,171.2Z" style="fill:#211a16"/><ellipse cx="131.7" cy="176.1" rx="10.9" ry="11.2" transform="translate(-86 144.7) rotate(-45)" style="fill:#7c3f03"/><path d="M142.4,179.1a10.9,10.9,0,0,1-13.5,7.7,11.4,11.4,0,0,1-7.9-13.7" style="fill:#99500e"/><path d="M163.8,276.2c-2.3-1.3-11.8-12.7-11.8-12.7h-4.3s8.4,14.1,12.3,16.3a8.1,8.1,0,0,0,11-3.1,3,3,0,0,0,.4-1A7.9,7.9,0,0,1,163.8,276.2Z" style="fill:#382d25"/><path d="M152,263.5l7.8.4Z" style="fill:#382d25"/><path d="M152,263.5Z" style="fill:#211a16"/><path d="M167.9,265.6c-1.4-.8-4.6-1.3-8.1-1.7l-7.8-.4h0s9.5,11.4,11.8,12.7a7.9,7.9,0,0,0,7.6-.6A8,8,0,0,0,167.9,265.6Z" style="fill:#211a16"/><path d="M204.3,276.2c2.3-1.3,11.8-12.7,11.8-12.7h4.3s-8.4,14.1-12.3,16.3a8.1,8.1,0,0,1-11-3.1l-.5-1A8.2,8.2,0,0,0,204.3,276.2Z" style="fill:#382d25"/><path d="M216.1,263.5l-7.8.4Z" style="fill:#382d25"/><path d="M216.1,263.5Z" style="fill:#211a16"/><path d="M200.2,265.6c1.4-.8,4.6-1.3,8.1-1.7l7.8-.4h0s-9.5,11.4-11.8,12.7a8.2,8.2,0,0,1-7.7-.6A8.1,8.1,0,0,1,200.2,265.6Z" style="fill:#211a16"/><path d="M106.7,341.1a144.8,144.8,0,0,1-19.2-25.4A178.1,178.1,0,0,1,73.3,287a170.8,170.8,0,0,1-8.7-30.7,125.8,125.8,0,0,1-2-31.8,203.7,203.7,0,0,0,5.1,31.1,242.9,242.9,0,0,0,9.5,30,261.8,261.8,0,0,0,13,28.6A298.2,298.2,0,0,0,106.7,341.1Z" style="fill:#382d25"/><path d="M261.3,340.9c-.9,1.6-1.9,3.1-2.9,4.7l-.4.6-.4.5-.8,1.1-1.7,2.2a73.4,73.4,0,0,1-7.8,8,69.9,69.9,0,0,1-19.2,11.8l-2.7,1.1-2.7.9-.6.3-.7.2-1.4.4-2.7.8-5.5,1.2-5.6,1-5.5.7-5.6.5-5.5.2H178.5l-5.5-.2-5.5-.5-5.6-.6-5.6-1-5.5-1.2-5.4-1.6-2.7-1-2.7-1a72,72,0,0,1-19.3-11.8l-2-1.9-1.1-.9-.9-1-1.9-2.1-1-1-.8-1.1a18.4,18.4,0,0,1-1.7-2.2l-.9-1.1-.4-.5-.4-.6c-.9-1.6-1.9-3.1-2.9-4.7,1.5,1.2,2.9,2.3,4.2,3.5l.6.4.5.4,1.1.8,2.1,1.6A87.2,87.2,0,0,0,143,361.3c13.1,3.6,27,4.2,41.1,4.2s27.8-.6,41-4.3a81.1,81.1,0,0,0,27.7-13.6L255,346l1-.8.6-.4.5-.4Z" style="fill:#5b4638"/><path d="M261.3,340.9a103.2,103.2,0,0,1-32.7,31.7,90,90,0,0,1-21.3,9.3l-2.9.7-2.8.7h-.7l-.8.2-1.4.2-2.9.5-2.9.3-3,.3-5.8.2-5.9-.2c-2-.2-3.9-.3-5.8-.6l-5.8-1-2.9-.6-1.4-.4h-.7l-.7-.3a84.9,84.9,0,0,1-21.4-9.2,101.2,101.2,0,0,1-32.8-31.6l4.1,3.9,4.2,3.8,2.1,1.8,2.2,1.8,1,.9,1.1.9,2.2,1.7a126,126,0,0,0,18.7,11.6,102.2,102.2,0,0,0,20.4,7.5h.6l.7.2,1.3.2,2.7.6,5.3.8,5.4.5h10.7l5.4-.5,2.7-.4,1.3-.2h.7l.6-.2,2.7-.5a19.8,19.8,0,0,0,2.6-.6,102.2,102.2,0,0,0,20.4-7.5,120.8,120.8,0,0,0,18.6-11.7c3-2.2,5.8-4.6,8.7-7.1l4.1-3.8Z" style="fill:#705441"/><path d="M296.7,188.2a6.6,6.6,0,0,1-6.6-6.6c0-20.4-14.2-37.9-34.4-42.7a45.8,45.8,0,0,0-43.4,12.7,40.4,40.4,0,0,1-57.9,0A45.9,45.9,0,0,0,111,138.9c-20.3,4.8-34.4,22.3-34.4,42.7a6.7,6.7,0,0,1-6.7,6.6h0a6.6,6.6,0,0,1-6.6-6.6c0-26.6,18.3-49.4,44.6-55.6A59.2,59.2,0,0,1,164,142.4a27.2,27.2,0,0,0,38.7,0,59,59,0,0,1,56-16.4c26.3,6.2,44.6,29,44.7,55.6a6.7,6.7,0,0,1-6.7,6.6Z" style="fill:#603300"/></g></g></svg>