<svg xmlns="http://www.w3.org/2000/svg" viewBox="0 0 293.6 248.6"><g id="Livello_2" data-name="Livello 2"><g id="Livello_1-2" data-name="Livello 1"><polygon points="128 4.6 121 5.1 114.1 6.5 106.7 6.6 100.4 10.4 91.7 8.3 86.3 14 80.4 18.4 72.9 20 66.4 23.5 62.5 30.6 55.4 33.4 50.8 39.1 44 42.6 39.8 48.7 34.1 53.5 30.7 60.2 27.6 66.8 25.1 73.8 17.2 77.7 16.3 85.4 10.9 91 9.1 98.3 10.5 106.4 8.6 113.3 5.9 120.1 4.2 127.1 1.1 134.1 1.6 141.5 3.2 148.8 0 156 1.2 163.1 4.8 169.6 6.9 176.3 8.1 183.5 13.8 188.4 17.8 194.1 22.4 199.3 25 206.6 30.3 211.4 37.1 214.3 43.7 217.1 48.4 222.9 54 227.3 60.2 230.9 68.8 229 74.4 233.8 81.9 233.5 88.2 236.9 93.9 242.4 100.9 244 108.3 242.9 115.4 243.4 122.3 244.7 129.4 243.8 136.1 248.6 143.3 247.4 150.3 246.9 157.3 245.6 164.6 248.2 171.8 248.4 178.2 243.5 185.1 242.2 191.6 239.3 199.4 241.3 205.6 237.3 212.9 237.1 219 233.1 224.8 229 231.4 226.7 237.6 223.4 245.8 223.9 250.1 217.3 255.9 213.5 262.6 210.6 267.2 205.1 270.4 198.7 278.9 196.5 282.5 190.1 284.8 183.2 289 177.2 287.7 169.3 289.3 162.6 288.8 155.6 290.7 148.8 293.6 141.4 292.4 134.1 290.7 126.9 290.8 119.5 284.7 113.4 283.7 106.2 280.8 99.6 281.5 91.6 277.2 85.5 274 79 269.1 73.5 264.9 67.6 262 60.8 257.6 55 253.4 49.1 248.8 43.4 245 36.7 238.5 32.9 233 28 225.8 25.6 219 22.8 213.7 17.5 208 12.7 201.7 8.7 194.2 7.7 187.3 5 180.4 2.6 172.9 2.7 165.6 1.3 158.1 4.8 150.6 4.2 143 4.1 135.2 0 128 4.6" style="fill:#8f8b68"/><path d="M234.3,72.8c17.5-8.3,55.6,2.4,53,29.5-3.3,33.9,7.1,51.5-10.4,59.8" style="fill:#b59b8f"/><path d="M56.7,72.8C39.3,64.5,1.1,75.2,3.8,102.3c3.3,33.9-7.2,51.5,10.3,59.8" style="fill:#b59b8f"/><polygon points="129.6 22.2 122.7 22.6 116 24.1 108.8 24.4 102.6 28.1 94.2 26.5 88.9 32 83.2 36.5 75.9 38.3 69.7 42 66 48.9 59.3 52 54.9 57.7 48.5 61.6 44.5 67.6 39.3 72.7 36.3 79.3 33.5 86 31.4 92.9 24.2 97.4 23.7 105 19 110.9 17.8 118.1 19.5 125.9 18.3 132.8 16.3 139.6 15.3 146.7 13.1 153.8 14.3 161.1 17 168.1 15.7 175.9 18.6 182.8 23.7 188.6 27.5 194.7 30.8 201.5 37.6 205.1 43.1 209.8 49 213.9 53.5 220.4 59.9 224.1 67.2 225.8 74.4 227.6 80.3 232.4 86.7 235.8 93.4 238.4 101.5 235.7 108 239.4 115.4 238.3 122.1 240.5 128.8 244.7 136 245.1 143.2 243.1 150.3 242.4 157.4 242.4 164.4 240.5 171.9 243.6 178.7 241.2 185.7 239.4 192.3 236.9 200 237.7 207.1 236.4 212.6 230.6 219.3 227.8 225.3 223.6 233.4 223.4 238.7 218.1 245.8 215.6 250.6 210 255 204.1 260.3 199.3 264.6 193.6 271.9 189.7 272.4 181.7 275.1 175.1 278.4 168.4 278.6 161.1 277 153.8 281.6 146.5 280.4 139.3 278.3 132.3 278.4 125 273.4 118.8 271.5 112 267.9 105.7 266.5 98.7 265.9 91 261.9 85 257.5 79.3 254.4 72.7 246.7 69.6 242.7 63.7 237.5 59 234.5 51.8 228.3 48.1 222.7 43.6 216.1 40.7 209.9 37.2 204.5 32.5 198.1 29.3 191.8 26 185.2 23.1 178.7 19.4 171.2 19.4 164 18.6 157.1 20.7 150.2 22.1 143.4 20.4 136.3 19 129.6 22.2" style="fill:#99956d"/><polygon points="131.7 41.6 124.9 42.1 118.1 43.6 111.1 44.2 105 48 96.9 47.2 91.6 52.6 86.2 57.1 79.2 59.5 73.3 63.5 69.8 70.3 63.5 73.9 59.4 79.8 53.6 84.3 50.1 90.5 45.5 96.1 43 102.9 40.9 109.7 39.5 116.7 33.4 122.1 33.7 129.5 30.1 136.1 29.9 143.3 32.3 150.6 32.2 157.6 31.6 164.8 32.4 172.1 32.8 179.8 36.6 186.3 41.6 191.9 44 199.5 49.4 204.7 56.2 208.3 62.1 212.7 67.7 217.9 75.3 219.5 82 222.5 88.9 225 94.6 229.8 101.4 231.9 108.6 232.1 115.7 232.5 122.2 235.6 129.1 237.5 136.2 238.5 143.3 234.6 150.3 236.5 157.2 234 164.2 234.4 171.5 236.5 178.5 235.3 184.9 231.8 191.5 229.5 198.3 227.7 204.4 224.2 212.6 224.6 218.8 220.5 225.2 216.6 231 212 238.5 209.7 244.7 205.3 247.6 197.7 252 191.9 254.7 185.1 260.4 179.6 260.9 172 263.7 165 262.7 157.6 261.2 150.6 261 143.6 259.8 136.7 261.8 129.1 257.4 122.9 255.2 116.2 253.9 109.1 250.1 103.1 245.2 97.8 244.9 89.6 240.3 84 235 79.1 231.1 73 223.9 70.1 218.7 65.5 212.6 62 207.6 56.9 202.8 51.1 196.3 48.1 189.5 45.7 183.2 42.2 175.4 43.8 168.8 41.8 161.9 41.8 154.4 39 146.8 40.1 139.3 40.1 131.7 41.6" style="fill:#8f8b68"/><polygon points="193.8 206.3 192.6 213.2 190.8 220.4 185.4 225.3 180.5 230.9 173.8 233.9 167.2 237.2 159.9 237.8 152.8 239 145.6 241.2 138.3 240.4 131.3 237.9 123.8 237.6 117.6 233.5 111.2 230.1 104.8 226.3 100.6 220.2 97.8 213.5 97.2 206.3 97.4 199 101.1 192.7 105.5 186.9 110.8 181.9 117.3 178.5 124.1 175.7 131.2 174.2 138.2 172 145.6 172.1 152.9 172.7 160.2 173.2 167 175.9 173.7 178.9 180.5 181.6 185.3 187.3 190.4 192.4 193.4 199.1 193.8 206.3" style="fill:#99956d"/><ellipse cx="145.6" cy="195.9" rx="34" ry="23.7" style="fill:#d1b7a6"/><path d="M102.5,161.1a20.1,20.1,0,0,0-20.1,21.5,20.1,20.1,0,0,0,36.1,11,32.6,32.6,0,0,1,25.8-12.3h2.6a32.4,32.4,0,0,1,25.7,12.3,20.2,20.2,0,0,0,36.2-11,20.2,20.2,0,0,0-20.1-21.5Z" style="fill:#dbc6ba"/><path d="M118.5,193.6c4.2-9.6,14.8-15.4,25.1-15.3l-3,2.6,2-16.3a3,3,0,0,1,3.3-2.6,3.2,3.2,0,0,1,2.7,2.6l1.9,16.3-2.9-2.6a29.4,29.4,0,0,1,15,4.1,25.8,25.8,0,0,1,10,11.2,56.8,56.8,0,0,0-5.9-4.1,37.6,37.6,0,0,0-12.6-4.7,34.9,34.9,0,0,0-6.5-.5,3,3,0,0,1-3-2.6l-2-16.3h6l-2,16.3a3,3,0,0,1-3,2.6c-9.2-.2-17.9,3.5-25.1,9.3Z" style="fill:#b59b8f"/><path d="M145.4,57.3c7.9,0,11.3,5,11.3,11.2l-1,17.1s41.2-21.5,78.3-4.2c0,85.8-62.9,81.6-62.9,81.6-6.1,4.4-18,1.7-25.7,2h0c-7.8-.3-19.7,2.4-25.8-2,0,0-60,4.2-60-81.6,37.1-17.3,75.5,4.2,75.5,4.2l-1-17.1c0-6.2,3.3-11.2,11.3-11.2" style="fill:#d1b7a6"/><path d="M61.3,102.1s10,36,32.3,40.8,48.3-8,48.3-15.5S137,90.9,107.4,84.6C85.1,80,61.3,102.1,61.3,102.1Z" style="fill:#dbc6ba"/><path d="M69,100.2s8.1,29.1,26.1,33,39.1-6.5,39.1-12.5-3.9-29.6-27.9-34.6C88.2,82.3,69,100.2,69,100.2Z" style="fill:#d1b7a6"/><path d="M78.6,102.5s6.2,22.2,20,25.2,29.8-5,29.8-9.6-3-22.6-21.3-26.5C93.3,88.8,78.6,102.5,78.6,102.5Z" style="fill:#b59b8f"/><path d="M85.2,105.4s4.8,17.2,15.5,19.5,23-3.8,23-7.4-2.3-17.4-16.5-20.4C96.6,94.9,85.2,105.4,85.2,105.4Z" style="fill:#9a7d55"/><ellipse cx="107.4" cy="110.5" rx="10.5" ry="10.7" transform="translate(-46.7 108.3) rotate(-45)" style="fill:#5b432d"/><path d="M117.6,113.4a10.3,10.3,0,0,1-12.9,7.3,10.8,10.8,0,0,1-7.5-13.1" style="fill:#6d4d2b"/><path d="M232.7,102.1s-10.1,36-32.3,40.8-48.3-8-48.3-15.5,4.8-36.5,34.5-42.8C208.9,80,232.7,102.1,232.7,102.1Z" style="fill:#dbc6ba"/><path d="M223.7,100.2s-8.1,29.1-26.1,33-39.1-6.5-39.1-12.5,3.9-29.6,27.9-34.6C204.4,82.3,223.7,100.2,223.7,100.2Z" style="fill:#d1b7a6"/><path d="M214.1,102.5s-6.2,22.2-20,25.2-29.8-5-29.8-9.6,3-22.6,21.3-26.5C199.4,88.8,214.1,102.5,214.1,102.5Z" style="fill:#b59b8f"/><path d="M207.4,105.4s-4.7,17.2-15.4,19.5-23-3.8-23-7.4,2.3-17.4,16.5-20.4C196.1,94.9,207.4,105.4,207.4,105.4Z" style="fill:#9a7d55"/><ellipse cx="185.3" cy="110.8" rx="10.7" ry="10.5" transform="translate(-24.1 163.5) rotate(-45)" style="fill:#5b432d"/><path d="M175.1,113.7A10.3,10.3,0,0,0,188,121a10.7,10.7,0,0,0,7.5-13" style="fill:#6d4d2b"/><path d="M145.6,165.9h0c10.6,0,21.5,4,27.5-3.5,0,0,7.1-19.8-14.4-26.7-6.8-10.6-5.1-61.9-5.1-61.9,0-5.8-3.3-10.6-7.5-10.9h-1c-4.2.3-7.5,5.1-7.5,10.9,0,0,2.4,51.3-4.4,61.9-21.5,6.9-15.1,26.7-15.1,26.7,6.1,7.5,16.9,3.5,27.5,3.5h0" style="fill:#b59b8f"/><path d="M129.6,166.8l-1.5-.2A2.6,2.6,0,0,0,129.6,166.8Z" style="fill:#382d25"/><path d="M123.5,160.9a10.9,10.9,0,0,1,3.9,4.1v.2a2.9,2.9,0,0,0,4,.4l.2-.3a2.9,2.9,0,0,0-2-3.5h-.2a9.5,9.5,0,0,1-5.3-1.9,1.6,1.6,0,0,0-.9-.3h-.6a.7.7,0,0,0,.1.5A1.6,1.6,0,0,0,123.5,160.9Z" style="fill:#443830"/><polygon points="145.6 72.7 145.6 72.7 145.6 72.7 145.6 72.7" style="fill:none"/><path d="M146.1,155.6h0Z" style="fill:none"/><polygon points="145.7 155.7 145.7 155.7 145.7 155.6 145.7 155.6 145.7 155.7" style="fill:none"/><path d="M145.4,155.6h0Z" style="fill:none"/><path d="M145.7,155.6h0Z" style="fill:none"/><path d="M145.6,155.6h0Z" style="fill:none"/><polygon points="145.6 72.7 145.6 72.7 145.6 72.7 145.6 72.7" style="fill:none"/><polygon points="145.6 155.6 145.6 155.6 145.6 155.6 145.6 155.6" style="fill:#cabeb0"/><polygon points="145.7 155.6 145.7 155.6 145.7 155.6 145.7 155.6" style="fill:#d1b7a6"/><path d="M152.7,161.3c-1.3-3.2-3.8-5.4-6.6-5.6h-1c-2.8.2-5.2,2.4-6.5,5.6a8.9,8.9,0,0,1-5.7,5.2h.9c3.9-.2,7.9-.5,11.9-.5s8,.3,11.9.5h.8A8.5,8.5,0,0,1,152.7,161.3Z" style="fill:#b59b8f"/><polygon points="145.6 155.7 145.6 155.7 145.6 155.6 145.6 155.6 145.6 155.7" style="fill:#b59b8f"/><path d="M145.9,155.6h0Z" style="fill:#b59b8f"/><path d="M145.4,155.6Z" style="fill:#b59b8f"/><path d="M145.7,155.6Z" style="fill:#b59b8f"/><path d="M155.5,140.4c-5.8-9-6.5-58.5-6.5-58.5,0-4.9.6-8.9-3-9.2h-.8c-3.6.3-2.9,4.3-2.9,9.2,0,0-.7,49.5-6.5,58.5-13.9,4.5-14.5,15.2-14,20.1h0a2.2,2.2,0,0,1,.9-.7h.6a1.4,1.4,0,0,1,.9.3,9,9,0,0,0,4.8,1.9h.7a2.9,2.9,0,0,1,2,3.5h0a1.4,1.4,0,0,0-.2.4,2.6,2.6,0,0,1-1.9,1h.1a7,7,0,0,0,3.2-.3,8.9,8.9,0,0,0,5.7-5.2c1.3-3.2,3.7-5.4,6.5-5.6h1c2.8.2,5.3,2.4,6.6,5.6a8.5,8.5,0,0,0,5.7,5.2,8,8,0,0,0,3.1.3h.1a2.7,2.7,0,0,1-1.8-1c-.1,0-.2-.3-.3-.4h0a3,3,0,0,1,2-3.5h.7a8.4,8.4,0,0,0,4.8-1.9,1.7,1.7,0,0,1,1-.3h.5a2.2,2.2,0,0,1,.9.7h0C169.9,155.6,169.3,144.9,155.5,140.4Z" style="fill:#d1b7a6"/><path d="M161.7,166.8h-.1a2.6,2.6,0,0,0,1.5-.2h0Z" style="fill:#382d25"/><path d="M161.7,166.8l1.4-.2Z" style="fill:#382d25"/><path d="M169.4,160.5c-.1.6-.1,1.2-.2,1.6h0c.1-.4.1-1,.2-1.6Z" style="fill:#382d25"/><path d="M163.1,166.6Z" style="fill:#382d25"/><path d="M161.6,166.8Z" style="fill:#382d25"/><path d="M127.5,165.2V165a10.9,10.9,0,0,0-3.9-4.1,1.6,1.6,0,0,1-.7-.7.7.7,0,0,1-.1-.5,2.2,2.2,0,0,0-.9.7h0a1.6,1.6,0,0,0,.2,1.5h0l.7.5a10.5,10.5,0,0,1,4.6,3.4v.2l.7.4,1.5.2a2.6,2.6,0,0,0,1.9-1,1.4,1.4,0,0,1,.2-.4h0l-.2.3A2.9,2.9,0,0,1,127.5,165.2Z" style="fill:#5b432d"/><path d="M169.4,160.5c-.1.6-.1,1.2-.2,1.6h0A1.6,1.6,0,0,0,169.4,160.5Z" style="fill:#5b432d"/><path d="M169.4,160.4h0a2.2,2.2,0,0,0-.9-.7.7.7,0,0,1-.1.5,1.4,1.4,0,0,1-.6.7,11.2,11.2,0,0,0-4,4.1v.2a3,3,0,0,1-4.1.4l-.2-.3h0c.1.1.2.4.3.4a2.7,2.7,0,0,0,1.8,1h.1l1.4-.2h0l.7-.4V166a10.5,10.5,0,0,1,4.6-3.4l.7-.5c.1-.4.1-1,.2-1.6Z" style="fill:#5b432d"/><path d="M167.1,159.9a10.1,10.1,0,0,1-5.4,1.9h-.2a3,3,0,0,0-2,3.5l.2.3a3,3,0,0,0,4.1-.4V165a11.2,11.2,0,0,1,4-4.1,1.4,1.4,0,0,0,.6-.7.7.7,0,0,0,.1-.5H168A1.2,1.2,0,0,0,167.1,159.9Z" style="fill:#443830"/></g></g></svg>