<svg xmlns="http://www.w3.org/2000/svg" viewBox="0 0 333.8 282.5"><g id="Livello_2" data-name="Livello 2"><g id="Livello_1-2" data-name="Livello 1"><polygon points="145.4 4.9 141.4 5 137.3 5.7 133 4.4 129.3 7 123.9 2.3 120.6 6.5 117 9 112.1 7.7 107.9 8.6 105.5 13.7 100.6 13.1 97.5 16.2 92.6 16 89.4 19.1 85.1 20.1 82.4 23.7 79.7 27.2 77.3 31.1 70.6 29 69.1 34.1 63.9 34.3 61.4 37.9 61.1 43.9 58.1 46.8 54.2 48.7 50.8 51.3 46.1 52.6 44.1 56.5 42.9 61 37.2 61.8 34.8 65.4 34.3 70.2 31.8 73.6 27.7 75.9 28 81.1 25.9 84.7 24.1 88.5 18.9 90.5 17 94.3 17.2 99.1 17 103.5 12.8 106.4 10 109.8 8.1 113.7 12.4 119.5 8.7 122.7 10.6 127.6 8.2 131.3 3.2 134.5 2.5 138.7 4.7 143.3 4.9 147.6 4.2 151.7 5.6 156 0.4 159.9 1.9 164.2 2.4 168.4 3.8 172.6 0.6 177.1 0 181.5 5.1 185 6.1 189.1 8.8 192.7 5.9 198 9.8 201.1 9.4 205.9 13 208.8 16.7 211.5 18.3 215.3 20.9 218.5 19.6 224.9 25.3 225.7 28 228.9 29.6 233.3 33.4 235.4 38.2 236.3 37.8 243.5 41.8 245.5 46.1 246.8 48.8 250.5 54.6 249.2 58.2 251.3 62.6 252 65.6 255.5 67.9 260.5 72.1 261.6 76.4 262.4 79.8 265.4 85.6 262.1 89.2 264.4 93.3 265.2 96.1 270.2 100.6 269.9 104.6 271.1 109.1 270.5 113.2 271.1 116.9 273.7 121 274.7 124.9 276.2 129 277.6 132.8 280.6 137.2 279.6 141.4 280.4 145.8 278.3 150.1 277 154.1 279.4 158.3 281.3 162.5 282.5 166.7 280.4 170.9 280.8 175.2 281.5 179.3 279.8 183.6 280.7 187.5 276.3 191.7 276.6 195.8 276.2 200.6 280.3 204.7 278.9 208.9 278.2 212.2 273.4 217.3 277.1 221.4 275.9 225.1 273.5 229.2 272.3 232.8 269.5 236.9 268.8 241.7 269.9 244.5 265 248.4 263.4 253.5 265.1 256.7 261.5 262 263.2 264.1 257.5 268.3 256.3 270.7 251.8 275 251.1 279.9 251.1 283.3 248.4 287.1 246.4 289.2 242.1 292.4 239.4 295.2 236.3 299.9 235.3 302.1 231.4 304.8 228.3 311.6 228.7 313.5 224.6 313.7 219.4 316.4 216.2 321 214 324.1 210.7 321.6 204.7 327.7 202.7 324.5 196.9 326.1 193.1 328.9 189.5 327.4 184.9 332.5 181.4 331.7 177 333.8 172.8 330.2 168.4 330.6 164.2 330.4 160 333.7 155.6 328.8 151.7 330.4 147.4 326.6 143.7 328.6 139.1 327.7 135 324.6 131.4 326.5 126.6 325.6 122.5 324 118.6 325.5 113.7 323.3 109.9 318.8 107.1 318.3 102.7 317.2 98.6 314 95.5 314.4 90.5 310.3 88 310.3 83.1 307.5 79.8 305.5 76.1 303.8 72.1 301.8 68.3 295.4 67.8 295.7 62.2 290 61.5 289.5 56.4 285.3 54.6 285.6 48.4 282.5 45.5 275.2 46.9 273.2 43.1 273 36.9 266.2 38.5 265.9 32 261.8 30.5 256.1 31.2 253.8 27.2 250.9 24 248.3 20.1 243 20.8 240.5 16.6 236.4 15.4 232 15 228.7 12.1 224.8 10.6 221.3 7.8 216.2 9.7 212.7 6.8 208.9 5 204.3 6.1 200.7 2.8 196.6 1.6 192.1 4.9 188.1 0 183.8 2.8 179.5 2.5 175.3 5.1 171 4.2 166.7 1 162.5 1.1 158.2 4.5 153.9 4 149.8 2.9 145.4 4.9" style="fill:#8f8b68"/><path d="M266,82.2c19.9-9.5,63.1,2.7,60.1,33.5-3.7,38.4,8.1,58.4-11.7,67.8" style="fill:#b59b8f"/><path d="M64.6,82.2C44.7,72.7,1.4,84.9,4.4,115.7c3.8,38.4-8,58.4,11.8,67.8" style="fill:#b59b8f"/><polygon points="147.2 24.7 143.2 24.9 139.2 25.6 134.8 24.5 131.1 27 125.8 22.9 122.5 26.8 118.9 29.4 114 28.3 109.9 29.4 107.5 34.3 102.7 34.1 99.5 37.1 94.8 37.3 91.7 40.4 87.4 41.6 84.8 45.2 82.1 48.7 79.8 52.6 73.3 51.2 71.9 56.1 66.8 56.8 64.4 60.4 64.1 66.2 61.3 69.2 57.6 71.4 54.4 74.2 49.9 75.9 48.1 79.9 47.1 84.4 41.7 85.7 39.6 89.5 39.2 94.2 37 97.8 33.2 100.5 33.7 105.6 31.9 109.3 30.5 113.3 25.8 115.9 24.3 119.8 24.7 124.5 24.8 128.9 21.2 132.2 18.9 136 17.4 140.1 21.8 145.3 18.7 149 20.9 153.5 19.1 157.5 14.8 161.3 14.7 165.6 17.1 169.9 17.8 174.1 17.6 178.3 19.5 182.4 15.6 187.2 17.8 191.2 19.3 195.2 21.6 199 20 204.1 20.9 208.5 26.5 210.6 28.7 214.2 32.2 216.9 31.4 222.7 35.8 224.6 37.1 229.2 41.3 231 45.6 232.6 48.3 235.9 51.8 238.3 52.5 244.5 58 244.1 61.5 246.5 64.2 250.3 68.4 251.5 73.2 251.6 74.6 258.3 78.8 259.5 83.3 260 86.7 263.1 92.1 261 96.1 262.6 100.5 262.6 104 265.5 107.2 269.7 111.6 270.2 115.9 270.4 119.8 272.8 124.9 268.9 128.9 270.6 133.2 270.8 136.8 274.9 141.3 274.1 145.5 274.6 149.8 273.4 154.1 273.3 158.2 275 162.5 275.3 166.7 276 171 276.6 175.4 278.6 179.6 277 183.9 277 187.9 274.3 192 272.3 196.4 273.7 200.9 274.6 205.3 274.9 209.2 272.2 213.4 271.7 217.8 271.4 221.6 269 226 268.9 229 264.2 233.2 263.5 237.2 262.2 242.7 264.8 246.5 262.5 250.5 260.9 252.9 255.7 258.6 257.8 262.4 255.7 265.6 252.5 269.3 250.3 272.2 246.8 276 244.9 280.8 244.3 282.3 239 285.4 236.3 290.7 235.8 292.5 231.4 297.9 230.6 297.8 224.7 300.9 221.8 301.2 216.9 304.6 214.1 308.6 211.5 310.1 207.4 312.1 203.6 311.5 198.9 312.5 194.8 312.8 190.6 315.6 186.8 314.9 182.5 315 178.3 319.9 174.1 318.7 169.8 315.7 165.7 315.8 161.5 317.9 157.1 318.5 152.7 313.3 149.2 316.9 144.3 311.5 141.1 310.9 137 311.4 132.5 308.1 129.1 310.8 123.8 308.2 120.2 308.2 115.6 303.5 113 302.1 109.1 300.2 105.3 301.1 100.1 295.5 98.4 294.9 93.8 290.2 91.9 289.8 87.1 287.4 83.7 283.2 81.6 282.7 76.6 280.1 73.2 277.1 70.3 276.1 65.4 272.6 62.9 267.5 62.1 265.2 58.4 262.4 55.2 258.2 53.5 256.4 49.1 251.7 48.3 249.5 44.1 245.6 42.2 242.2 39.7 238.9 36.9 235.4 34.4 229.6 36.3 227.3 31.5 222 33.1 219.2 28.9 214.6 29.1 211.9 23.9 207.7 22.9 202.3 27.2 198.5 25.1 194.9 20.3 190.2 25 186.2 20.4 181.9 21.6 177.6 25.2 173.2 23.3 168.9 22.4 164.6 20.7 160.2 23.6 155.9 21.4 151.5 22.2 147.2 24.7" style="fill:#99956d"/><polygon points="149.6 46.8 145.5 46.9 141.5 47.7 137.2 46.8 133.5 49.2 128.2 45.8 125 49.5 121.5 52 116.7 51.5 112.6 52.7 110.2 57.4 105.6 57.5 102.5 60.6 97.9 61.1 94.9 64.3 90.8 65.8 88.3 69.4 85.7 72.9 83.5 76.8 77.4 76.2 76 80.9 71.3 82.2 69.1 85.9 68.9 91.3 66.3 94.5 62.9 97.1 60.1 100.2 56 102.5 54.5 106.5 53.7 110.9 48.9 113 47.2 117 47.1 121.6 45.3 125.4 42.1 128.6 43 133.4 41.7 137.4 40.7 141.4 36.8 144.7 35.9 148.9 36.8 153.4 37.3 157.7 34.5 161.5 33 165.6 32.2 169.8 36.8 174.2 34.6 178.4 37.2 182.4 36.3 186.6 33.5 191.2 34.5 195.5 37.8 199 39.7 202.7 41.1 206.6 44.1 209.7 42.7 215.3 46.1 218.2 49 221.3 52.4 223.9 53.2 228.9 55.6 232.5 61.2 232.7 64.5 235.2 68.6 236.6 70 241.9 74.7 242.5 77.3 246.2 81.8 246.8 86.2 247.3 89.7 249.6 93.6 251.1 95.9 256.4 101 255.1 104.9 256.7 108.3 259.5 112.6 260 117.2 259.2 120.1 264.9 124.4 265.3 128.8 265.1 132.7 267.2 137.5 264.6 141.6 265.3 145.9 264.6 149.9 266.4 153.9 269.5 158.2 269.2 162.5 268.6 166.7 269.8 170.9 265.5 175.1 266.2 179.2 265.4 183.7 268.3 187.8 266.6 192 266.1 195.9 264.1 200 263.1 204.4 263.6 208.5 262.9 212.7 262.5 217 261.9 221.6 262.5 225.3 260 229.4 259 232.7 255.6 236.1 252.8 240.6 252.8 245 252.3 249.2 251.3 252.2 247.9 256.1 246.1 260.1 244.5 263 241.2 267 239.6 268.4 234.4 271.9 232.3 275 229.5 280.7 229.3 283.1 225.7 285.9 222.4 285.7 217 291.1 215.5 293.1 211.7 293.9 207.3 295.4 203.3 295.5 198.9 296.9 195 299.7 191.2 297.4 186.6 297.6 182.5 300.4 178.4 298.7 174.2 301.4 169.8 297.6 165.9 297.8 161.7 294.9 157.9 295.4 153.6 296.5 149.1 295.1 145.1 294.4 141 291.3 137.5 289.8 133.7 287.9 130 288 125.4 285.3 122.1 283.3 118.4 285.1 112.8 282.2 109.5 277.9 107.2 275.9 103.5 275.3 98.8 273.5 94.8 267.8 94 268 88.3 262.2 87.8 259.6 84.6 257.7 80.6 253.3 79.2 252.6 73.7 248.7 71.8 246.3 68 241.2 67.8 238 65.1 234.5 62.8 232.4 58.1 226.9 59.2 224 55.8 219.1 56.2 216.3 52.6 212.4 51 207.8 51.4 204.6 47.8 200.6 46.5 196.4 45.9 192.6 42.9 188.2 43.1 183.9 45.5 179.6 44.5 175.3 44 171 45.3 166.7 43.2 162.4 45.1 158.2 43.2 153.6 43.8 149.6 46.8" style="fill:#8f8b68"/><polygon points="220.1 233.6 219.6 237.6 220.3 242 217.6 245.4 216.8 249.7 213.5 252.5 211.2 256 207.2 257.6 204 260.1 201.6 264.1 197.7 265.6 193.3 265.9 190.1 269.2 185.6 268.8 181.7 270.2 177.9 272.3 173.7 272.1 169.5 272.1 165.4 271.6 161.2 272.6 157.1 271.4 153 271.2 148.8 270.9 144.9 269.5 140.9 268.3 137.2 266.5 132.9 265.8 129.6 263.3 126.2 260.9 122.4 259 119.9 255.5 117.3 252.3 113.9 249.7 113.3 245.3 110.9 241.8 110.1 237.8 108.9 233.6 109.6 229.4 111.5 225.6 113 221.8 114 217.6 116.6 214.3 119.6 211.5 122.4 208.2 126.2 206.3 129.6 204 133.2 202 136.7 199.5 141.1 199.4 145.2 198.8 149.1 197.8 152.9 195.6 157 194.4 161.2 195.2 165.4 194.4 169.5 195 173.6 195.5 177.6 196.6 181.7 197.4 185.7 198.3 189.7 199.1 194.1 199.5 197.4 202.2 201.2 203.8 205 205.7 207.6 209.2 211 211.5 213.6 214.7 217 217.5 217.8 221.8 219.1 225.6 220.7 229.5 220.1 233.6" style="fill:#99956d"/><ellipse cx="165.4" cy="221.9" rx="38.6" ry="26.8" style="fill:#d1b7a6"/><path d="M116.5,182.4a22.9,22.9,0,1,0,18.2,36.9,36.6,36.6,0,0,1,29.2-14h2.9a36.6,36.6,0,0,1,29.2,14,22.9,22.9,0,1,0,18.2-36.9Z" style="fill:#dbc6ba"/><path d="M134.7,219.3c5.7-9.9,17.1-15.8,28.4-15.7l-1.7,1.5,2.2-18.5a1.7,1.7,0,0,1,2-1.5,1.7,1.7,0,0,1,1.5,1.5l2.2,18.5-1.7-1.6c11.3,0,22.8,5.9,28.4,15.8A39.3,39.3,0,0,0,167.6,207a1.6,1.6,0,0,1-1.7-1.5L163.6,187h3.5l-2.3,18.5a1.6,1.6,0,0,1-1.7,1.5,39.1,39.1,0,0,0-28.4,12.3Z" style="fill:#b59b8f"/><path d="M165.1,64.6c9,0,12.8,5.7,12.8,12.8l-1.1,19.3s46.8-24.3,88.9-4.7c0,97.3-71.4,92.6-71.4,92.6-6.9,4.9-20.4,1.9-29.2,2.2h0c-8.8-.3-22.3,2.7-29.2-2.2,0,0-68.1,4.7-68.1-92.6,42.1-19.6,85.6,4.7,85.6,4.7l-1.1-19.3c0-7.1,3.8-12.8,12.8-12.8" style="fill:#d1b7a6"/><path d="M69.7,115.5s11.4,40.8,36.6,46.2,54.8-9,54.8-17.5-5.5-41.5-39.1-48.6C96.7,90.3,69.7,115.5,69.7,115.5Z" style="fill:#dbc6ba"/><path d="M78.4,113.3s9.2,33.1,29.7,37.4,44.3-7.3,44.3-14.2-4.4-33.6-31.7-39.3C100.3,93,78.4,113.3,78.4,113.3Z" style="fill:#d1b7a6"/><path d="M89.3,115.8s7.1,25.3,22.7,28.7,33.9-5.6,33.9-10.9-3.4-25.7-24.2-30C106,100.3,89.3,115.8,89.3,115.8Z" style="fill:#b59b8f"/><path d="M96.9,119.2s5.4,19.5,17.5,22.1,26.1-4.3,26.1-8.4-2.6-19.8-18.7-23.1C109.8,107.2,96.9,119.2,96.9,119.2Z" style="fill:#9a7d55"/><ellipse cx="122" cy="125" rx="11.9" ry="12.1" transform="translate(-52.6 122.9) rotate(-45)" style="fill:#5b432d"/><path d="M133.6,128.2a11.7,11.7,0,0,1-14.6,8.3,12.2,12.2,0,0,1-8.6-14.8" style="fill:#6d4d2b"/><path d="M264.2,115.5s-11.4,40.8-36.7,46.2-54.8-9-54.8-17.5,5.5-41.5,39.2-48.6C237.1,90.3,264.2,115.5,264.2,115.5Z" style="fill:#dbc6ba"/><path d="M254,113.3s-9.2,33.1-29.6,37.4S180,143.4,180,136.5s4.5-33.6,31.7-39.3C232.1,93,254,113.3,254,113.3Z" style="fill:#d1b7a6"/><path d="M243.1,115.8s-7.1,25.3-22.7,28.7-33.8-5.6-33.8-10.9,3.4-25.7,24.2-30C226.4,100.3,243.1,115.8,243.1,115.8Z" style="fill:#b59b8f"/><path d="M235.5,119.2s-5.4,19.5-17.4,22.1-26.2-4.3-26.2-8.4,2.7-19.8,18.7-23.1C222.6,107.2,235.5,119.2,235.5,119.2Z" style="fill:#9a7d55"/><ellipse cx="210.4" cy="125.4" rx="12.1" ry="11.9" transform="translate(-27 185.5) rotate(-45)" style="fill:#5b432d"/><path d="M198.8,128.6a11.7,11.7,0,0,0,14.6,8.3,12.2,12.2,0,0,0,8.6-14.8" style="fill:#6d4d2b"/><path d="M165.4,187.8h0c12,0,24.3,4.6,31.2-3.9,0,0,8-22.5-16.3-30.3-7.8-12.1-5.8-70.3-5.8-70.3,0-6.6-3.8-11.9-8.6-12.3h-1.1c-4.7.4-8.5,5.7-8.5,12.3,0,0,2.7,58.2-5,70.3-24.4,7.8-17.1,30.3-17.1,30.3,6.8,8.5,19.1,3.9,31.2,3.9h0" style="fill:#b59b8f"/><path d="M147.2,188.9l-1.7-.3A2.6,2.6,0,0,0,147.2,188.9Z" style="fill:#382d25"/><path d="M140.2,182.2a11.3,11.3,0,0,1,4.5,4.7v.2a3.4,3.4,0,0,0,4.6.4l.2-.3a3.3,3.3,0,0,0-2.2-4h-.3a11,11,0,0,1-6-2.2,2,2,0,0,0-1.1-.3h-.6a1.3,1.3,0,0,0,.1.6A1.9,1.9,0,0,0,140.2,182.2Z" style="fill:#443830"/><polygon points="165.4 82.1 165.4 82 165.4 82.1 165.4 82.1" style="fill:none"/><path d="M165.9,176.2h0Z" style="fill:none"/><polygon points="165.5 176.2 165.5 176.2 165.5 176.2 165.5 176.2 165.5 176.2" style="fill:none"/><path d="M165.1,176.2h0Z" style="fill:none"/><path d="M165.4,176.2Z" style="fill:none"/><path d="M165.4,176.2h0Z" style="fill:none"/><polygon points="165.4 82.1 165.4 82 165.4 82.1 165.4 82.1" style="fill:none"/><polygon points="165.4 176.2 165.4 176.2 165.4 176.2 165.4 176.2" style="fill:#cabeb0"/><polygon points="165.5 176.2 165.5 176.2 165.5 176.2 165.5 176.2" style="fill:#d1b7a6"/><path d="M173.4,182.6c-1.5-3.6-4.3-6.1-7.5-6.4h-1.1c-3.2.3-5.9,2.8-7.4,6.4a10.4,10.4,0,0,1-6.5,6H152c4.4-.3,9-.6,13.5-.6s9.1.3,13.5.6h.9A10.4,10.4,0,0,1,173.4,182.6Z" style="fill:#b59b8f"/><polygon points="165.4 176.2 165.4 176.2 165.4 176.2 165.4 176.2 165.4 176.2" style="fill:#b59b8f"/><path d="M165.7,176.2h0Z" style="fill:#b59b8f"/><path d="M165.1,176.2Z" style="fill:#b59b8f"/><path d="M165.5,176.2h0Z" style="fill:#b59b8f"/><path d="M176.6,159c-6.6-10.3-7.4-66.5-7.4-66.5,0-5.5.7-10.1-3.4-10.4h-.9c-4,.3-3.3,4.9-3.3,10.4,0,0-.8,56.2-7.4,66.5-15.7,5-16.4,17.1-15.8,22.7h0a2.7,2.7,0,0,1,1-.8h.6a2.1,2.1,0,0,1,1.1.4,10.1,10.1,0,0,0,5.5,2.1h.8a3.3,3.3,0,0,1,2.2,4h0l-.3.5a3.3,3.3,0,0,1-2.1,1.1h.1a10.8,10.8,0,0,0,3.6-.3,10.4,10.4,0,0,0,6.5-6c1.5-3.6,4.2-6.1,7.4-6.4h1.1c3.2.3,6,2.8,7.5,6.4a10.4,10.4,0,0,0,6.5,6,10.2,10.2,0,0,0,3.5.3h.1a3.6,3.6,0,0,1-2.1-1.1c0-.1-.2-.4-.2-.5h0a3.2,3.2,0,0,1,2.2-4h.8a9.8,9.8,0,0,0,5.4-2.1,2.1,2.1,0,0,1,1.2-.4h.6a3.9,3.9,0,0,1,1,.8h0C192.9,176.1,192.2,164,176.6,159Z" style="fill:#d1b7a6"/><path d="M183.7,188.9h-.1a2.3,2.3,0,0,0,1.6-.3h0Z" style="fill:#382d25"/><path d="M183.7,188.9l1.5-.3Z" style="fill:#382d25"/><path d="M192.4,181.7q-.2,1.1-.3,1.8h0q.2-.7.3-1.8Z" style="fill:#382d25"/><path d="M185.2,188.6h0Z" style="fill:#382d25"/><path d="M183.5,188.9h0Z" style="fill:#382d25"/><path d="M144.8,187.1v-.2a11.3,11.3,0,0,0-4.5-4.7,1.9,1.9,0,0,1-.7-.8,1.3,1.3,0,0,1-.1-.6,2.7,2.7,0,0,0-1,.8h0a1.7,1.7,0,0,0,.2,1.7h0a2.1,2.1,0,0,0,.8.6,11,11,0,0,1,5.2,3.8v.2l.8.5,1.7.3a3.3,3.3,0,0,0,2.1-1.1l.3-.5h0l-.2.3A3.4,3.4,0,0,1,144.8,187.1Z" style="fill:#5b432d"/><path d="M192.4,181.7q-.2,1.1-.3,1.8h.1A2,2,0,0,0,192.4,181.7Z" style="fill:#5b432d"/><path d="M192.3,181.6h.1a3.9,3.9,0,0,0-1-.8,1.4,1.4,0,0,1-.2.6,1.4,1.4,0,0,1-.7.8,11.7,11.7,0,0,0-4.4,4.7v.2a3.4,3.4,0,0,1-4.6.4c-.1-.1-.2-.2-.2-.3h0c0,.1.2.4.2.5a3.6,3.6,0,0,0,2.1,1.1h.2l1.5-.3h.1l.7-.5.2-.2a10.8,10.8,0,0,1,5.1-3.8,1.6,1.6,0,0,0,.8-.6q.2-.7.3-1.8Z" style="fill:#5b432d"/><path d="M189.7,181a11.3,11.3,0,0,1-6.1,2.2h-.2a3.2,3.2,0,0,0-2.2,4c0,.1.1.2.2.3a3.4,3.4,0,0,0,4.6-.4v-.2a11.7,11.7,0,0,1,4.4-4.7,1.4,1.4,0,0,0,.7-.8,1.4,1.4,0,0,0,.2-.6h-.6A2,2,0,0,0,189.7,181Z" style="fill:#443830"/></g></g></svg>