<svg xmlns="http://www.w3.org/2000/svg" viewBox="0 0 384.1 415.7"><g id="Livello_2" data-name="Livello 2"><g id="Livello_1-2" data-name="Livello 1"><path id="face" d="M327.6,158.6c39.5,102.6-61.1,131.5-136.4,131.5S20.5,252.2,54.8,158.6C43.4,34.4,91.2-32.6,191.2,27.4,319,11.2,346.2,36.2,327.6,158.6Z" style="fill:#f4cea8"/><g id="eye-left"><ellipse cx="142.2" cy="123.8" rx="12.4" ry="13.6" style="fill:#eabe96"/><path d="M154.6,122.7a12.5,12.5,0,1,1-12.4-12.5A12.5,12.5,0,0,1,154.6,122.7Z" style="fill:#5b5247"/><path d="M141.8,116c1,1.5.3,3.7-1.6,5s-4.1,1.1-5.1-.3-.4-3.7,1.5-5S140.8,114.6,141.8,116Z" style="fill:#ebf7fc"/></g><g id="eye-right"><path d="M249.1,123.8c0,7.5-5.5,13.6-12.4,13.6s-12.4-6.1-12.4-13.6,5.5-13.6,12.4-13.6S249.1,116.3,249.1,123.8Z" style="fill:#eabe96"/><path d="M249.1,122.7a12.4,12.4,0,1,1-12.4-12.5A12.4,12.4,0,0,1,249.1,122.7Z" style="fill:#5b5247"/><path d="M236.3,116c1,1.5.3,3.7-1.5,5s-4.2,1.1-5.2-.3-.3-3.7,1.5-5S235.3,114.6,236.3,116Z" style="fill:#ebf7fc"/></g><path id="hair" d="M271.9,12.7c0-18-142.2-11.6-142.2-11.6s3.1,11,22.8,16.5c0,0-24.2,6.1-16.8,13.5S159,32.2,166,29.9c-3.5,3.5-8.8,7-16.8,8.9a1.8,1.8,0,0,0-1.3,2.1,1.7,1.7,0,0,0,1.7,1.3h.4c9.2-2.2,15.2-6.4,19-10.5.4,8.2,2.9,31.3,19.6,32.7C209,66,197.3,35,197.3,35s15.6,9.1,23.1-2.2c0,0-7.2,14.1,0,14.5S229,31.5,229,31.5,240.9,45,255.4,44.7s-3.5-18.4-3.5-18.4S271.9,30.8,271.9,12.7Z" style="fill:#d3a166"/><path id="shadow" d="M110,297.4s83.7,21.7,153.4,7.1C263.4,304.5,198.2,327.8,110,297.4Z" style="fill:#eabe96"/><path id="chin" d="M156.7,181.2s33.9,5.1,73.5-4.2C230.2,177,192.8,198.3,156.7,181.2Z" style="fill:#eabe96"/><g id="teeth"><path d="M82,150.7s37.1,10.1,76,13.7c0,0,5.6-9.7,0-14.4s-18.3,7.9-18.3,7.9-2.5-9.4-6.7-8.9-6.7,6.7-6.7,6.7-9.8-16.6-18.7-16.7-10.1,11.2-10.1,11.2S96.8,137.3,82,150.7Z" style="fill:#fff"/><path d="M191.7,165.4s20.7,1.1,36.1-3.1c0,0-1.3-15.1-10.3-14.7s-12.3,13.9-12.3,13.9S191.6,150.4,191.7,165.4Z" style="fill:#fff"/><path d="M248,158.9s30.3-8.6,45.7-18.1c0,0-7.6-5.1-13.6,4.1,0,0-4.4-13.2-11.9-10.7s-4.6,17.5-4.6,17.5S248.2,143.7,248,158.9Z" style="fill:#fff"/></g><g id="mouth"><path d="M71.4,148.3s59.9,19,127.1,16.9c38-1.2,76.1-10.5,111.3-33.5" style="fill:none;stroke:#896b52;stroke-linecap:round;stroke-miterlimit:10;stroke-width:3px"/><path d="M82,139.7s-7,.8-10.4,6.2c-1.6,2.7-2.4,6.5-1.1,12" style="fill:none;stroke:#896b52;stroke-linecap:round;stroke-miterlimit:10;stroke-width:3px"/><path d="M299.5,125.5s6.9.7,10.3,6.2c1.7,2.6,2.5,6.5,1.1,12" style="fill:none;stroke:#896b52;stroke-linecap:round;stroke-miterlimit:10;stroke-width:3px"/></g><g id="eyebrows"><g id="right"><path d="M220.8,81.2c-2.4,9.2,7.5,11.3,19.6,14.4s21.8,6,24.2-3.2S259,73.3,246.9,70.2,223.1,72,220.8,81.2Z" style="fill:#d3a166"/><path d="M258.3,76.1c3,3.9,4.3,8.5,3.1,12.9-2.3,9.2-12,6.3-24.1,3.2-6.6-1.7-12.6-3.1-16.2-5.5,2.2,4.7,10.1,6.5,19.3,8.9,12.1,3.1,21.8,6,24.2-3.2C266,86.6,263.5,80.6,258.3,76.1Z" style="fill:#eabe96"/></g><g id="left"><path d="M162.8,68.4c2.3,9.1-7.6,11.3-19.7,14.4s-21.8,6-24.1-3.2,5.5-19.1,17.6-22.2S160.4,59.2,162.8,68.4Z" style="fill:#d3a166"/><path d="M144.5,79.5c-12.1,3.1-21.8,6-24.2-3.1a13.7,13.7,0,0,1,.3-7.5A14.5,14.5,0,0,0,119,79.6c2.3,9.2,12,6.3,24.1,3.2,10.3-2.7,19-4.6,19.9-10.8C160,75.7,152.8,77.4,144.5,79.5Z" style="fill:#eabe96"/></g></g><path d="M253.7,373.8s42,118.3,40-42.8c0,0,16.8,1.5,18.8-5.6s-12.3-20-12.3-20S361.8,184,275,132.8c0,0,17.5-8.8,10.4-13.3s-27.2,11.4-27.2,11.4-15.3-16.8-28.9-16-7.8,23.2-7.8,23.2-14.7-.5-16.1,12.4,16.1,11.2,16.1,11.2-11.5,42.4,0,102.4A636.5,636.5,0,0,0,253.7,373.8Z" style="fill:#d3a166"/><path d="M124.2,373.5s-41.9,118.3-40-42.8c0,0-16.8,1.5-18.7-5.6s12.3-20,12.3-20S16.1,183.7,102.9,132.5c0,0-17.4-8.7-10.3-13.3s27.1,11.4,27.1,11.4,15.4-16.8,29-16,7.7,23.2,7.7,23.2,14.8-.5,16.2,12.4-16.2,11.2-16.2,11.2,11.6,42.4,0,102.4A626.3,626.3,0,0,1,124.2,373.5Z" style="fill:#d3a166"/><g id="ears"><path d="M44,79.2a38.4,38.4,0,0,0-12.2-6A25.6,25.6,0,1,0,19.5,123a37,37,0,0,0,19.7-1C33.2,105.7,38.8,89.4,44,79.2Z" style="fill:#f4cea8"/><g id="ear-right"><path d="M41.2,85.2a12.8,12.8,0,0,0-3.1-1.1,16.6,16.6,0,1,0-7.9,32.3,23.1,23.1,0,0,0,7.5.4C35,105.1,37.7,93.9,41.2,85.2Z" style="fill:#eabe96"/></g><path d="M350,93.5a30,30,0,0,1,10.9-5.4c11.7-2.8,22.1,6,23.1,19.7s-7.6,27-19.4,29.8a25.9,25.9,0,0,1-16.1-1.8C355.5,120,353,103.7,350,93.5Z" style="fill:#f4cea8"/><g id="ear-right-2" data-name="ear-right"><path d="M351.5,99.5a19,19,0,0,1,2.8-1c7.6-1.8,14.3,3.9,15,12.8s-5,17.5-12.6,19.3a16.1,16.1,0,0,1-6.2.2C354.1,119.4,353.3,108.2,351.5,99.5Z" style="fill:#eabe96"/></g></g></g></g></svg>